<?xml version="1.0" standalone="no"?>
<!DOCTYPE svg PUBLIC "-//W3C//DTD SVG 1.1//EN" "http://www.w3.org/Graphics/SVG/1.1/DTD/svg11.dtd" >
<svg xmlns="http://www.w3.org/2000/svg">
<metadata>
This is a custom SVG webfont generated by Font Squirrel.
Copyright   : Copyright c 2009 by Accademia di Belle Arti di Urbino and students of MA course of Visual design All rights reserved
Designer    : Campivisivi
Foundry     : Accademia di Belle Arti di Urbino and students of MA course of Visual design
</metadata>
<defs>
<font id="TitilliumMaps29L800wt" horiz-adv-x="530" >
<font-face units-per-em="1000" ascent="750" descent="-250" />
<missing-glyph horiz-adv-x="235" />
<glyph unicode=" "  horiz-adv-x="235" />
<glyph unicode="&#x09;" horiz-adv-x="235" />
<glyph unicode="&#xa0;" horiz-adv-x="235" />
<glyph unicode="!" horiz-adv-x="476" d="M182 0v149h123v-149h-123zM185 251l-4 449h125l-4 -449h-117z" />
<glyph unicode="&#x22;" horiz-adv-x="340" d="M315 446h-105l-2 246h111zM143 446h-105l-2 246h111z" />
<glyph unicode="#" d="M526 170h-101v-170h-100v170h-121v-170h-100v170h-101v96h101v130h-101v96h101v170h100v-170h121v170h100v-170h101v-96h-101v-130h101v-96zM325 266v130h-121v-130h121z" />
<glyph unicode="$" d="M156 -113l22 109l-116 15l8 103q65 -9 129 -14l38 192q-53 15 -82 27.5t-55.5 34.5t-37 54t-10.5 81q0 182 226 182q5 0 17 -0.5t18 -0.5l25 120h51l-25 -124l110 -11l-3 -105q-69 6 -128 10l-35 -173q76 -23 112.5 -43.5t54.5 -56t18 -97.5q0 -105 -53.5 -153 t-159.5 -48q-24 0 -51 3l-22 -112zM375 190q0 37 -19 54t-70 34l-36 -181h29q50 0 73 21t23 72zM170 489q0 -35 18 -52t71 -35l33 161h-14q-54 0 -81 -15.5t-27 -58.5z" />
<glyph unicode="%" d="M128 631q-18 0 -24.5 -16.5t-6.5 -55.5q0 -40 7 -57.5t24 -17.5t24 17.5t7 56.5t-6.5 56t-24.5 17zM116 6l225 710l76 -25l-226 -710zM11 559q0 142 117 142q116 0 116 -143q0 -71 -30 -107.5t-86 -36.5t-86.5 36.5t-30.5 108.5zM293 145q0 142 117 142q116 0 116 -143 q0 -71 -30 -107.5t-86 -36.5t-86.5 36.5t-30.5 108.5zM378 145q0 -40 7 -57.5t25 -17.5q17 0 24 17.5t7 56.5t-6.5 56t-24.5 17t-25 -16.5t-7 -55.5z" />
<glyph unicode="&#x26;" horiz-adv-x="700" d="M323 707q92 0 143 -42.5t51 -123.5q0 -67 -33.5 -110.5t-110.5 -87.5l107 -108q19 58 27 125l111 -2q-15 -96 -51 -192l108 -102l-68 -77l-108 95q-49 -48 -101 -70.5t-124 -22.5q-237 0 -237 211q0 132 152 195q-33 42 -46 72t-13 75q0 74 55 119.5t138 45.5zM278 88 q89 0 144 58l-174 182q-93 -42 -93 -119q0 -55 31.5 -88t91.5 -33zM245 534q0 -59 46 -106l21 -20q49 29 69 55t20 66q0 77 -78 77q-36 0 -57 -19.5t-21 -52.5z" />
<glyph unicode="'" horiz-adv-x="109" d="M1 450l-2 242h111l-5 -242h-104z" />
<glyph unicode="(" horiz-adv-x="260" d="M112 750h124q-11 -29 -26.5 -77.5t-42 -168t-26.5 -203.5q0 -167 87 -405l8 -21h-124q-11 25 -27 68t-43 156t-27 202t24 201t49 180z" />
<glyph unicode=")" horiz-adv-x="260" d="M132 -120h-124q11 29 26.5 77.5t42 168t26.5 203.5q0 167 -87 405l-8 21h124q11 -25 27 -68t43 -156t27 -202t-24.5 -201t-48.5 -180z" />
<glyph unicode="*" d="M442 487h-122l39 -116l-79 -24l-40 117l-100 -76l-49 64l102 75l-100 72l49 68l97 -69l41 115l80 -27l-39 -115h121v-84z" />
<glyph unicode="+" d="M40 225v112h168v173h117v-173h170v-112h-170v-173h-117v173h-168z" />
<glyph unicode="," horiz-adv-x="170" d="M5 -123l50 250h123l-59 -250h-114z" />
<glyph unicode="-" horiz-adv-x="440" d="M70 216v108h300v-108h-300z" />
<glyph unicode="." horiz-adv-x="248" d="M56 0v149h123v-149h-123z" />
<glyph unicode="/" d="M67 18l281 698l109 -38l-281 -697z" />
<glyph unicode="0" d="M265 672q121 0 184 -79.5t63 -268.5q0 -184 -63 -259.5t-184 -75.5t-184 75.5t-63 259.5q0 189 63.5 268.5t183.5 79.5zM266 563q-65 0 -93.5 -53t-28.5 -186q0 -128 28.5 -177.5t93.5 -49.5q64 0 92 49t28 178q0 133 -28 186t-92 53z" />
<glyph unicode="1" d="M45 518l209 142h110v-660h-118v525l-146 -100z" />
<glyph unicode="2" d="M474 0h-424v105l160 158q72 74 101 117t29 91q0 88 -115 88l-163 -17l-8 104q108 26 199 26q208 0 208 -185q0 -75 -29 -128.5t-103 -127.5l-126 -121h271v-110z" />
<glyph unicode="3" d="M60 646q109 26 191 26q117 0 168.5 -43.5t51.5 -135.5q0 -38 -14 -68t-29.5 -45t-40.5 -31q50 -24 73.5 -55.5t23.5 -97.5q0 -207 -217 -207q-44 0 -97.5 5.5t-85.5 11.5l-32 6l11 100q13 -2 34 -4t71.5 -5.5t82.5 -3.5q112 0 112 94q0 87 -104 89h-129v102h128 q35 0 63.5 28.5t28.5 63.5q0 86 -107 86q-36 0 -79 -4t-68 -8l-25 -3z" />
<glyph unicode="4" d="M313 -8v120h-287v94l177 454h128l-171 -439h153v186h118v-186h67v-109h-67v-120h-118z" />
<glyph unicode="5" d="M79 661h387v-110h-281l-17 -158q66 25 108 25q212 0 212 -202q0 -112 -58.5 -169.5t-160.5 -57.5q-45 0 -101 8t-90 15l-34 8l13 101q124 -24 207 -24q47 0 75 29t28 84q0 101 -103 101q-29 0 -57.5 -5.5t-42.5 -11.5l-15 -6l-92 19z" />
<glyph unicode="6" d="M483 650l-11 -103q-98 15 -177 15q-142 0 -143 -178l20 8q21 8 54.5 17t59.5 9q221 0 221 -208q0 -109 -61.5 -165t-172.5 -56q-120 0 -181.5 87t-61.5 253q0 185 70 264t195 79q33 0 80 -5.5t77 -10.5zM276 315q-27 0 -58 -6t-49 -12l-18 -6q0 -86 29.5 -141t92.5 -55 q53 0 83 29.5t30 85.5q0 53 -29 79t-81 26z" />
<glyph unicode="7" d="M55 550v111h407v-141l-238 -536l-110 31l227 507v28h-286z" />
<glyph unicode="8" d="M269 672q104 0 170 -47t66 -131q0 -59 -17.5 -89t-67.5 -63q47 -25 71 -61.5t24 -93.5q0 -101 -68.5 -150.5t-178.5 -49.5q-111 0 -177.5 45.5t-66.5 143.5q0 103 93 166q-46 32 -64 65t-18 88q0 84 64.5 130.5t169.5 46.5zM268 94q121 0 121 102q0 65 -74 90h-93 q-72 -24 -72 -92q0 -100 118 -100zM270 566q-109 0 -109 -89q0 -58 61 -91h93q64 32 64 91q0 89 -109 89z" />
<glyph unicode="9" d="M49 10l11 102q99 -16 177 -16q71 0 107.5 45.5t36.5 130.5q-82 -30 -136 -30q-102 0 -160.5 53.5t-58.5 156.5q0 104 65 162t167 58q120 0 182 -86t62 -254q0 -185 -69 -264t-196 -79zM255 347q25 0 57 5t51 10l19 5q0 92 -31 145t-92 53q-50 0 -81 -30.5t-31 -82.5 t28.5 -78.5t79.5 -26.5z" />
<glyph unicode=":" horiz-adv-x="212" d="M43 300v149h124v-149h-124zM43 0v149h124v-149h-124z" />
<glyph unicode=";" horiz-adv-x="227" d="M11 -115l57 258h124l-75 -258h-106zM60 300v149h123v-149h-123z" />
<glyph unicode="&#x3c;" d="M428 419l-231 -127l231 -132v-120l-343 190v120l343 189v-120z" />
<glyph unicode="=" d="M53 317v111h423v-111h-423zM53 113v111h423v-111h-423z" />
<glyph unicode="&#x3e;" d="M328 292l-231 127v120l343 -189v-120l-343 -190v120z" />
<glyph unicode="?" horiz-adv-x="386" d="M394 523q0 -47 -25.5 -92.5t-56 -73.5t-56 -59t-25.5 -54v-38h-116q-7 41 -7 57q0 34 25 71t55.5 63.5t55.5 57.5t25 54q0 46 -19.5 65t-78.5 19q-22 0 -59.5 -4.5t-63.5 -8.5l-26 -5l-13 103q113 35 175 35q110 0 160 -43t50 -147zM108 0v141h123v-141h-123z" />
<glyph unicode="@" horiz-adv-x="985" d="M941 305v-17q0 -167 -46 -232.5t-141 -65.5q-90 0 -125 47q-92 -46 -159 -46q-89 0 -136.5 56.5t-47.5 194.5q0 133 42.5 200t152.5 67q15 0 40.5 -5.5t42.5 -11.5l18 -6v14h114v-200q0 -92 5.5 -134.5t16.5 -54t36 -11.5q39 0 55.5 36.5t16.5 151.5v18 q0 167 -75.5 238.5t-246.5 71.5q-345 0 -345 -355q0 -195 79 -276t266 -81l143 9l5 -110q-100 -10 -148 -10q-115 0 -197.5 22.5t-143 75.5t-90 145t-29.5 225q0 235 121.5 350.5t338.5 115.5q437 0 437 -422zM478 103q47 0 112 24q-8 44 -8 125v136q-50 13 -77 13 q-63 0 -83 -33t-20 -126q0 -78 19.5 -108.5t56.5 -30.5z" />
<glyph unicode="A" horiz-adv-x="605" d="M28 0l165 692h221l163 -692h-118l-38 138h-241l-34 -138h-118zM285 589l-81 -342h195l-78 342h-36z" />
<glyph unicode="B" horiz-adv-x="609" d="M82 692h250q94 0 152 -43.5t58 -130.5q0 -66 -19 -102.5t-61 -60.5q48 -20 71.5 -56.5t23.5 -103.5q0 -98 -59 -146.5t-159 -48.5h-257v692zM331 298h-133v-193h135q46 0 74.5 25t28.5 74q0 48 -32 71t-73 23zM326 587h-128v-188h131q43 0 67.5 26.5t24.5 72.5 q0 43 -26 66t-69 23z" />
<glyph unicode="C" horiz-adv-x="531" d="M489 114l3 -105q-120 -20 -191 -20q-144 0 -198 85t-54 271q0 191 56.5 274.5t195.5 83.5q35 0 83 -5.5t78 -11.5l31 -6l-4 -103q-120 14 -172 14q-84 0 -115.5 -54t-31.5 -192q0 -136 30.5 -190t120.5 -54q20 0 62 3.5t74 6.5z" />
<glyph unicode="D" horiz-adv-x="631" d="M309 0h-227v692h227q155 0 214.5 -81t59.5 -253q0 -88 -12 -149.5t-41.5 -111t-84 -73.5t-136.5 -24zM462 358q0 57 -6 95t-22 69.5t-47 46.5t-78 15h-111v-476h111q47 0 78 18.5t47 54.5t22 77.5t6 99.5z" />
<glyph unicode="E" horiz-adv-x="557" d="M82 0v692h422v-108h-306v-188h246v-105h-246v-183h306v-108h-422z" />
<glyph unicode="F" horiz-adv-x="543" d="M82 0v692h422v-109h-306v-229h246v-106h-246v-248h-116z" />
<glyph unicode="G" horiz-adv-x="599" d="M349 268v102h194v-362q-145 -19 -224 -19q-148 0 -209 89t-61 269q0 184 61 270t205 86q97 0 228 -24l-3 -102q-125 16 -208 16q-92 0 -127 -54.5t-35 -191.5t33 -192.5t126 -55.5q11 0 25 0.5t26.5 1.5t23 2.5t16.5 2.5h7v162h-78z" />
<glyph unicode="H" horiz-adv-x="670" d="M472 0v297h-274v-297h-116v692h116v-286h274v286h116v-692h-116z" />
<glyph unicode="I" horiz-adv-x="268" d="M75 0v692h118v-692h-118z" />
<glyph unicode="J" horiz-adv-x="312" d="M234 692l1 -579q0 -108 -41.5 -145.5t-157.5 -37.5v104q47 1 65 18.5t18 64.5v575h115z" />
<glyph unicode="K" horiz-adv-x="592" d="M425 0l-138 286l-89 -8v-278h-116v692h116v-307l87 8l134 299h136l-165 -345l171 -347h-136z" />
<glyph unicode="L" horiz-adv-x="494" d="M455 0h-373v692h116v-582h257v-110z" />
<glyph unicode="M" horiz-adv-x="849" d="M82 0v692h192l151 -535l152 535h190v-692h-116v554h-15l-151 -526h-120l-153 526h-14v-554h-116z" />
<glyph unicode="N" horiz-adv-x="698" d="M82 0v692h197l206 -570h14v570h118v-692h-193l-211 570h-14v-570h-117z" />
<glyph unicode="O" horiz-adv-x="646" d="M323 97q86 0 119.5 56t33.5 188t-34.5 193t-118.5 61t-118.5 -61t-34.5 -193q0 -131 34 -187.5t119 -56.5zM323 -11q-148 0 -211 85.5t-63 266.5q0 182 63.5 272t210.5 90t210.5 -90t63.5 -272t-63 -267t-211 -85z" />
<glyph unicode="P" horiz-adv-x="597" d="M323 209h-124v-209h-117v692h241q113 0 174 -60t61 -175q0 -117 -62 -182.5t-173 -65.5zM199 317h123q57 0 86.5 38t29.5 102q0 127 -116 127h-123v-267z" />
<glyph unicode="Q" horiz-adv-x="646" d="M461 -152l-81 145q-23 -4 -57 -4q-149 0 -211.5 86.5t-62.5 265.5q0 181 62.5 271.5t211.5 90.5t211.5 -90.5t62.5 -271.5q0 -118 -24.5 -194.5t-81.5 -114.5l73 -134zM323 97q87 0 120 56.5t33 187.5t-33.5 192.5t-119.5 61.5t-119.5 -61.5t-33.5 -192.5 q0 -130 33.5 -187t119.5 -57z" />
<glyph unicode="R" horiz-adv-x="616" d="M342 241l-22 -1h-122v-240h-116v692h249q234 0 234 -223q0 -145 -108 -200l108 -269h-129zM445 467q0 55 -31 86t-83 31h-133v-239h135q53 0 82.5 34t29.5 88z" />
<glyph unicode="S" horiz-adv-x="531" d="M485 681l-4 -100q-137 14 -195 14q-118 0 -118 -85q0 -43 29.5 -65.5t115.5 -50.5q112 -38 151.5 -75t39.5 -120q0 -109 -55.5 -159.5t-175.5 -50.5q-41 0 -93.5 5.5t-85.5 11.5l-32 5l6 101q132 -15 195 -15q62 0 93.5 22.5t31.5 75.5q0 37 -29 57t-109 46 q-113 38 -155.5 81.5t-42.5 129.5q0 96 58.5 145.5t168.5 49.5q93 0 206 -23z" />
<glyph unicode="T" horiz-adv-x="484" d="M8 579v113h468v-113h-174v-579h-116v579h-178z" />
<glyph unicode="U" horiz-adv-x="645" d="M191 223q0 -65 31.5 -92.5t99.5 -27.5q69 0 100.5 28t31.5 92v469h117v-469q0 -123 -59 -177.5t-190 -54.5q-130 0 -189 55t-59 177v469h117v-469z" />
<glyph unicode="V" horiz-adv-x="606" d="M455 692h123l-166 -692h-219l-165 692h123l132 -586h40z" />
<glyph unicode="W" horiz-adv-x="927" d="M33 692h123l108 -586h20l113 576h133l115 -576h19l107 586h123l-140 -692h-191l-100 526l-98 -526h-191z" />
<glyph unicode="X" horiz-adv-x="581" d="M156 692l135 -264l134 264h131l-190 -349l190 -343h-131l-134 259l-135 -259h-131l193 343l-193 349h131z" />
<glyph unicode="Y" horiz-adv-x="565" d="M342 296v-296h-116v296l-208 396h131l134 -272l133 272h131z" />
<glyph unicode="Z" horiz-adv-x="570" d="M65 582v110h440v-117l-295 -449v-16h295v-110h-440v117l295 448v17h-295z" />
<glyph unicode="[" horiz-adv-x="300" d="M271 749v-112h-121v-648h121v-112h-238l-1 872h239z" />
<glyph unicode="\" horiz-adv-x="528" d="M471 3l-118 -3l-307 699l119 3z" />
<glyph unicode="]" horiz-adv-x="300" d="M28 637v112h239l-1 -872h-238v112h121v648h-121z" />
<glyph unicode="^" d="M384 317l-119 230l-120 -230h-120l179 343h120l181 -343h-121z" />
<glyph unicode="_" d="M27 -85h476v-104h-476v104z" />
<glyph unicode="`" horiz-adv-x="545" d="M140 766l244 -92l-33 -90l-247 81z" />
<glyph unicode="a" horiz-adv-x="526" d="M444 342v-206q2 -25 12.5 -35t33.5 -16l-7 -96q-87 0 -135 35q-70 -35 -146 -35q-66 0 -109.5 44t-43.5 116q0 140 164 152l117 10v32q0 63 -58 63q-40 0 -88.5 -2.5t-77.5 -5.5l-28 -2l-4 94q130 21 204 21q83 0 124.5 -39.5t41.5 -129.5zM330 226l-104 -6 q-30 -1 -46 -19.5t-16 -48.5t14.5 -48.5t39.5 -18.5l112 20v121z" />
<glyph unicode="b" horiz-adv-x="544" d="M309 511q191 0 191 -255q0 -140 -56.5 -203.5t-183.5 -63.5l-180 12v705h114v-221q62 26 115 26zM259 89q72 0 98.5 43t26.5 124q0 152 -90 152q-23 0 -48 -4t-38 -8l-14 -4v-299q46 -4 65 -4z" />
<glyph unicode="c" horiz-adv-x="436" d="M252 511q31 0 67.5 -4t57.5 -8l21 -4l-4 -97q-73 8 -111 8q-67 0 -94 -34.5t-27 -115.5q0 -85 27 -124t95 -39l111 7l3 -97q-80 -14 -149 -14q-107 0 -155 65t-48 202q0 255 206 255z" />
<glyph unicode="d" horiz-adv-x="544" d="M467 706v-706h-115v23q-63 -34 -120 -34q-99 0 -142.5 68t-43.5 196q0 127 52 192.5t152 65.5q37 0 102 -13v208h115zM250 92q20 0 45.5 6t40.5 12l16 6v284q-55 11 -94 11q-96 0 -96 -159q0 -160 88 -160z" />
<glyph unicode="e" horiz-adv-x="507" d="M267 89q32 0 76.5 2.5t73.5 4.5l29 2l2 -85q-94 -24 -190 -24q-113 0 -163 63.5t-50 191.5q0 127 54.5 197t157.5 70t155.5 -59t52.5 -169l-8 -81h-297q2 -113 107 -113zM159 289h193q0 64 -22 95t-73 31q-96 0 -98 -126z" />
<glyph unicode="f" horiz-adv-x="340" d="M192 400v-400h-114v400h-53v99h53v31q0 99 34 142.5t108 43.5q15 0 40.5 -3l43.5 -5l19 -3l-1 -94q-42 4 -73 4q-32 0 -44.5 -20.5t-12.5 -65.5v-30h125v-99h-125z" />
<glyph unicode="g" horiz-adv-x="531" d="M271 -240q-227 0 -227 151q0 67 74 123q-34 23 -34 72q0 23 38 82q-72 47 -72 147q0 86 56 130.5t141 44.5l95 -13l153 3v-91h-73q23 -31 23 -74q0 -174 -200 -174q-19 0 -39 4q-12 -32 -12 -45q0 -24 16 -30.5t83 -6.5q112 0 159 -32.5t47 -115.5q0 -88 -64 -131.5 t-164 -43.5zM284 -14l-91 6q-36 -33 -36 -69q0 -63 115 -63q112 0 112 69q0 34 -23 45.5t-77 11.5zM245 253q87 0 87 82q0 81 -86 81q-82 0 -82 -81q0 -82 81 -82z" />
<glyph unicode="h" horiz-adv-x="562" d="M192 0h-114v706h114v-223q75 28 128 28q94 0 132 -62t38 -187v-262h-115v262q0 72 -15.5 108.5t-61.5 36.5l-106 -20v-387z" />
<glyph unicode="i" horiz-adv-x="257" d="M72 0v499h114v-499h-114zM72 574v119h114v-119h-114z" />
<glyph unicode="j" horiz-adv-x="263" d="M78 6v493h114v-494q0 -101 -32.5 -148t-139.5 -99l-51 95q72 40 90.5 66t18.5 87zM78 573v119h114v-119h-114z" />
<glyph unicode="k" horiz-adv-x="511" d="M194 0h-114v706h114v-401l50 7l115 187h128l-140 -234l146 -265h-129l-117 203l-53 -8v-195z" />
<glyph unicode="l" horiz-adv-x="259" d="M73 0v706h114v-706h-114z" />
<glyph unicode="m" horiz-adv-x="853" d="M196 0h-114v499h113v-27q74 39 121 39q77 0 123 -44q114 44 173 44q93 0 131.5 -61t38.5 -189v-261h-114v256q0 79 -15 115t-63 36q-21 0 -47.5 -7t-42.5 -14l-17 -7q8 -21 8 -120v-259h-114v257q0 77 -18 113.5t-65 36.5q-19 0 -43.5 -6.5t-39.5 -12.5l-15 -7v-381z" />
<glyph unicode="n" horiz-adv-x="563" d="M194 0h-114v499h114v-25q73 37 128 37q94 0 132 -62t38 -188v-261h-114v260q0 72 -16 109.5t-62 37.5q-44 0 -106 -25v-382z" />
<glyph unicode="o" horiz-adv-x="529" d="M265 511q219 0 219 -259q0 -124 -49.5 -193.5t-169.5 -69.5q-121 0 -170.5 69t-49.5 194q0 122 50.5 190.5t169.5 68.5zM265 88q61 0 82 41.5t21 122.5q0 77 -23 118t-80 41q-59 0 -81.5 -40t-22.5 -119q0 -82 21.5 -123t82.5 -41z" />
<glyph unicode="p" horiz-adv-x="545" d="M80 -214v713h114v-26q62 38 119 38q188 0 188 -256q0 -145 -53.5 -205.5t-166.5 -60.5q-47 0 -87 8v-211h-114zM292 408q-44 0 -98 -28v-283q32 -8 79 -8q62 0 87 41t25 125q0 153 -93 153z" />
<glyph unicode="q" horiz-adv-x="543" d="M249 -11q-109 0 -156 64t-47 193t52 197t169 68l198 -12v-714h-114v221q-58 -17 -102 -17zM267 411q-58 0 -82 -41.5t-24 -122.5q0 -156 96 -156l94 14v300q-57 6 -84 6z" />
<glyph unicode="r" horiz-adv-x="359" d="M74 0v499h114v-53q62 48 145 65v-122q-40 -8 -76.5 -20t-52.5 -20l-16 -8v-341h-114z" />
<glyph unicode="s" horiz-adv-x="494" d="M424 488l-2 -93q-123 16 -175 16q-78 0 -78 -55q0 -22 19.5 -32t79.5 -21q96 -18 133.5 -50t37.5 -104q0 -160 -194 -160q-32 0 -78 5.5t-77 11.5l-30 6l4 93q119 -16 170 -16q49 0 70 13.5t21 43.5q0 23 -17 33.5t-74 21.5q-95 19 -137 49.5t-42 102.5q0 80 53.5 119 t130.5 39q32 0 78.5 -5.5t76.5 -11.5z" />
<glyph unicode="t" horiz-adv-x="354" d="M325 398h-129v-209q0 -52 12 -74.5t40 -22.5l75 3l5 -93q-61 -14 -96 -14q-80 0 -115 43.5t-35 144.5v222h-59v100h59v146h114v-146h129v-100z" />
<glyph unicode="u" horiz-adv-x="560" d="M368 499h114v-499h-114v25q-74 -36 -126 -36q-94 0 -131.5 58t-37.5 191v261h114v-260q0 -82 16 -116t62 -34q42 0 103 26v384z" />
<glyph unicode="v" horiz-adv-x="483" d="M18 499h119l94 -405h22l96 405h116l-127 -499h-194z" />
<glyph unicode="w" horiz-adv-x="752" d="M18 499h113l73 -396h24l88 387h120l88 -387h24l73 396h113l-101 -499h-187l-71 334l-71 -334h-185z" />
<glyph unicode="x" horiz-adv-x="465" d="M20 499h123l89 -168l90 168h122l-142 -250l142 -249h-122l-90 168l-89 -168h-122l141 249z" />
<glyph unicode="y" horiz-adv-x="484" d="M18 499h113l101 -389h19l102 389h113l-185 -712h-113l55 214h-76z" />
<glyph unicode="z" horiz-adv-x="478" d="M58 398v102h361l1 -102l-228 -296h228v-102h-361l-1 102l228 296h-228z" />
<glyph unicode="{" horiz-adv-x="328" d="M238 171q0 -15 -3.5 -57t-3.5 -59q0 -39 17 -55t69 -20l-1 -112q-109 4 -158.5 44.5t-49.5 128.5q0 21 3.5 65.5t3.5 55.5q0 39 -21 63t-75 39v96q55 14 75.5 35.5t20.5 60.5q0 13 -3.5 60.5t-3.5 67.5q0 93 48.5 132t159.5 43l1 -112q-53 -4 -69.5 -18.5t-16.5 -52.5 q0 -17 3.5 -65t3.5 -62q0 -60 -22 -89t-78 -47q55 -18 77.5 -50t22.5 -92z" />
<glyph unicode="|" d="M201 -250v1000h118v-1000h-118z" />
<glyph unicode="}" horiz-adv-x="328" d="M88 452q0 15 3.5 57t3.5 59q0 39 -17 55t-69 20l1 112q109 -4 158.5 -44.5t49.5 -128.5q0 -21 -3.5 -65.5t-3.5 -55.5q0 -39 21 -63t75 -39v-96q-55 -14 -75.5 -35.5t-20.5 -60.5q0 -13 3.5 -60.5t3.5 -67.5q0 -93 -48.5 -132t-159.5 -43l-1 112q53 4 69.5 18.5 t16.5 52.5q0 17 -3.5 65t-3.5 62q0 60 22 89t78 47q-55 18 -77.5 50t-22.5 92z" />
<glyph unicode="~" d="M462 384l8 -107l-15.5 -15t-39.5 -23.5t-58 -14.5q-29 0 -96 23t-85 23q-20 0 -47 -10.5t-43 -21.5l-17 -10l-9 107q6 6 17 15t43 24t62 15q27 0 92 -23t88 -23q17 0 42 10.5t42 20.5z" />
<glyph unicode="&#xa1;" horiz-adv-x="476" d="M306 499v-149h-123v149h123zM303 248l4 -449h-125l4 449h117z" />
<glyph unicode="&#xa2;" horiz-adv-x="437" d="M202 -77v108q-90 6 -135.5 57.5t-45.5 160.5q0 206 181 219v107h96v-111l85 -10l-3 -99q-84 4 -122 4q-68 0 -94 -23t-26 -87t26 -86.5t97 -22.5l119 5l4 -99l-85 -11v-112h-97z" />
<glyph unicode="&#xa3;" d="M465 658l-6 -98q-102 9 -127 9q-39 0 -54.5 -19.5t-15.5 -72.5v-39h193v-104h-194v-228h129l72 16l18 -104l-81 -17q-51 0 -172 -0.5t-173 -0.5v106h96v228h-81v104h81v41q0 108 39.5 154.5t113.5 46.5q24 0 64.5 -5.5t68.5 -10.5z" />
<glyph unicode="&#xa4;" d="M427 11l-72 73q-42 -22 -90 -22t-90 22l-72 -73l-79 79l73 72q-23 42 -23 90t23 90l-73 72l79 79l72 -73q42 22 90 22t90 -22l72 73l79 -79l-73 -72q23 -42 23 -90t-23 -90l73 -72zM204 191q25 -25 61 -25t61 25q26 25 26 61t-26 61q-25 25 -61 25t-61 -25 q-26 -25 -26 -61t26 -61z" />
<glyph unicode="&#xa5;" horiz-adv-x="540" d="M48 291v96h112l-159 273h131l139 -255l138 255h131l-157 -273h109v-96h-156l-5 -10v-45h161v-96h-161v-140h-118v140h-165v96h165v45l-5 10h-160z" />
<glyph unicode="&#xa6;" d="M205 751h117v-411h-117v411zM205 173h117v-423h-117v423z" />
<glyph unicode="&#xa7;" d="M455 621l-6 -93q-111 15 -159 15q-60 0 -82.5 -16.5t-22.5 -57.5q0 -30 28 -44t110 -32q89 -21 122 -50t33 -99t-48 -137q20 -17 29 -39.5t9 -66.5q0 -93 -50 -135.5t-158 -42.5q-30 0 -76 5.5t-76 10.5l-31 5l11 93q109 -15 164 -15q107 0 107 71q0 33 -26 46t-117 34 q-88 21 -124 52.5t-36 101.5q0 36 20.5 75t41.5 56q-44 32 -44 109q0 175 209 175q31 0 74 -5t71 -11zM270 301q-69 15 -77 18q-6 -9 -14 -31.5t-8 -40.5q0 -34 16 -47.5t62 -23.5q61 -16 93 -28q6 8 13 33.5t7 46.5q0 31 -19 45.5t-73 27.5z" />
<glyph unicode="&#xa8;" horiz-adv-x="599" d="M76 612v118h109v-118h-109zM287 612v118h109v-118h-109z" />
<glyph unicode="&#xa9;" d="M9 433q0 113 73 190.5t183 77.5q112 0 184 -78.5t72 -188.5q0 -113 -72 -189.5t-186 -76.5q-107 0 -180.5 77t-73.5 188zM66 434q0 -87 56.5 -147.5t141.5 -60.5q87 0 144 60.5t57 147.5t-57.5 148.5t-142.5 61.5t-142 -61.5t-57 -148.5zM342 376v-89q-29 -8 -75 -8 q-68 0 -97.5 37.5t-29.5 121.5q0 76 30 113t97 37q20 0 39 -1.5t28 -2.5l9 -2l-1 -91q-30 6 -75 6q-38 0 -38 -59q0 -67 38 -67z" />
<glyph unicode="&#xaa;" d="M371 567v-110q2 -24 25 -29l-4 -64q-57 2 -76 20q-55 -20 -100 -20q-46 0 -70.5 25.5t-24.5 74.5q0 86 99 92l77 3v9q0 33 -30 33l-127 -6l-2 64q103 11 140 11q43 0 68 -28t25 -75zM297 502l-70 -3q-31 -1 -31 -36q0 -34 31 -34q12 0 29.5 2.5t29.5 4.5l11 3v63z" />
<glyph unicode="&#xab;" horiz-adv-x="582" d="M273 327l-114 -81l114 -92v-116l-212 164v84l212 157v-116zM522 327l-114 -81l114 -92v-116l-212 164v84l212 157v-116z" />
<glyph unicode="&#xac;" d="M52 361h424v-261h-111v150h-313v111z" />
<glyph unicode="&#xae;" d="M-6 434q0 118 73.5 199t197.5 81t200 -80.5t76 -199.5q0 -117 -76.5 -199t-199.5 -82q-124 0 -197.5 81t-73.5 200zM50 434q0 -92 62.5 -159t152.5 -67t153 66.5t63 159.5q0 95 -63 160.5t-153 65.5q-92 0 -153.5 -65t-61.5 -161zM303 276l-39 107h-36v-107h-83v315h119 q60 0 91 -23t31 -77q0 -39 -9 -60t-33 -37l49 -118h-90zM227 527v-81h38q40 0 40 40q0 41 -44 41h-34z" />
<glyph unicode="&#xaf;" horiz-adv-x="478" d="M76 626v99h315v-99h-315z" />
<glyph unicode="&#xb0;" d="M97 564q0 65 41 106t106 41t106 -41t41 -106t-41 -105.5t-106 -40.5t-106 40.5t-41 105.5zM164 564q0 -36 22 -58.5t58 -22.5t59 22.5t23 58.5t-23 59t-59 23t-58 -23t-22 -59z" />
<glyph unicode="&#xb1;" d="M36 286v113h171v112h116v-112h171v-113h-171v-105h-116v105h-171zM36 141h458v-113h-458v113z" />
<glyph unicode="&#xb2;" horiz-adv-x="265" d="M241 478h-224v79l78 68q47 40 47 65q0 22 -41 22l-78 -7l-4 86q69 10 113 10q58 0 82.5 -22.5t24.5 -74.5q0 -33 -13.5 -56.5t-44.5 -48.5l-45 -38h105v-83z" />
<glyph unicode="&#xb3;" horiz-adv-x="265" d="M26 791q65 10 106 10q116 0 116 -88q0 -51 -33 -71q39 -16 39 -74q0 -50 -30 -75.5t-84 -25.5q-22 0 -51.5 2.5t-48.5 4.5l-18 2l5 81q60 -7 96 -7t36 25q0 23 -33 23h-66v75h65q11 0 18.5 6.5t7.5 17.5q0 21 -33 21l-87 -6z" />
<glyph unicode="&#xb4;" horiz-adv-x="583" d="M101 674l244 93l39 -108l-248 -80z" />
<glyph unicode="&#xb5;" d="M63 -222v721h114v-273q0 -73 16.5 -105t65.5 -32q19 0 44 6t41 12l15 6v386h114v-499h-114v25q-71 -36 -115 -36q-48 1 -67 30v-241h-114z" />
<glyph unicode="&#x3bc;" d="M63 -222v721h114v-273q0 -73 16.5 -105t65.5 -32q19 0 44 6t41 12l15 6v386h114v-499h-114v25q-71 -36 -115 -36q-48 1 -67 30v-241h-114z" />
<glyph unicode="&#xb6;" d="M379 0v611h-80v-611h-98v315h-7q-83 0 -134.5 53t-51.5 138t52.5 139.5t135.5 54.5h330v-89h-48v-611h-99z" />
<glyph unicode="&#xb7;" horiz-adv-x="248" d="M56 220v149h123v-149h-123z" />
<glyph unicode="&#xb8;" horiz-adv-x="833" d="M566 -127q0 -48 -28 -73t-77 -25q-19 0 -42 2.5t-36 4.5l-13 3l4 68q34 -2 54 -2q40 0 40 30q0 26 -40 26h-30v94h49v-42q64 -1 91.5 -18.5t27.5 -67.5z" />
<glyph unicode="&#xb9;" horiz-adv-x="265" d="M21 717l104 73h84v-312h-92v211l-54 -37z" />
<glyph unicode="&#xba;" d="M257 669q137 0 137 -150q0 -155 -137 -155q-134 0 -134 155q0 80 34 115t100 35zM257 435q32 0 46 18t14 66q0 44 -14.5 62t-45.5 18t-44 -18t-13 -62q0 -48 13 -66t44 -18z" />
<glyph unicode="&#xbb;" horiz-adv-x="582" d="M424 254l-115 81v116l212 -157v-84l-212 -164v116zM174 254l-114 81v116l212 -157v-84l-212 -164v116z" />
<glyph unicode="&#xbf;" horiz-adv-x="386" d="M8 -24q0 47 25.5 92.5t56 73.5t56 59t25.5 54v38h116q7 -41 7 -57q0 -34 -25 -71t-55.5 -63.5t-55.5 -57.5t-25 -54q0 -46 19.5 -65t78.5 -19q22 0 59.5 4.5t63.5 9.5l26 4l13 -103q-113 -35 -175 -35q-110 0 -160 43t-50 147zM294 499v-141h-123v141h123z" />
<glyph unicode="&#xc0;" horiz-adv-x="605" d="M28 0l165 692h221l163 -692h-118l-38 138h-241l-34 -138h-118zM285 589l-81 -342h195l-78 342h-36zM186 948l244 -92l-35 -96l-248 81z" />
<glyph unicode="&#xc1;" horiz-adv-x="605" d="M28 0l165 692h221l163 -692h-118l-38 138h-241l-34 -138h-118zM285 589l-81 -342h195l-78 342h-36zM151 864l244 93l39 -108l-248 -80z" />
<glyph unicode="&#xc2;" horiz-adv-x="605" d="M28 0l165 692h221l163 -692h-118l-38 138h-241l-34 -138h-118zM285 589l-81 -342h195l-78 342h-36zM115 789l132 144h104l132 -144h-129l-54 53l-53 -53h-132z" />
<glyph unicode="&#xc3;" horiz-adv-x="605" d="M28 0l165 692h221l163 -692h-118l-38 138h-241l-34 -138h-118zM285 589l-81 -342h195l-78 342h-36zM464 933l25 -87q-6 -7 -16 -17.5t-37 -27.5t-49 -17q-27 0 -90 24t-77 24q-12 0 -32 -11t-34 -21l-14 -11l-25 87q6 7 16.5 17.5t37.5 27.5t49 17q33 0 94 -23.5 t72 -23.5t31 10.5t35 20.5z" />
<glyph unicode="&#xc4;" horiz-adv-x="605" d="M28 0l165 692h221l163 -692h-118l-38 138h-241l-34 -138h-118zM285 589l-81 -342h195l-78 342h-36zM142 803v118h109v-118h-109zM359 803v118h109v-118h-109z" />
<glyph unicode="&#xc5;" horiz-adv-x="605" d="M444 729q0 -39 -23 -69l156 -660h-118l-38 138h-241l-34 -138h-118l158 661q-21 27 -21 68q0 56 39.5 87.5t100.5 31.5q60 0 99.5 -31.5t39.5 -87.5zM285 589l-81 -342h195l-78 342h-36zM254 729q0 -29 31 -37h39q31 8 31 37q0 18 -13.5 28.5t-36.5 10.5 q-24 0 -37.5 -10.5t-13.5 -28.5z" />
<glyph unicode="&#xc6;" horiz-adv-x="817" d="M342 0v138h-173l-34 -138h-118l165 692h582v-109h-307v-188h247v-103h-247v-183h307v-109h-422zM273 584l-80 -337h149v337h-69z" />
<glyph unicode="&#xc7;" horiz-adv-x="537" d="M437 -127q0 -48 -28 -73t-77 -25q-19 0 -42 2.5t-36 4.5l-13 3l4 68q34 -2 54 -2q40 0 40 30q0 26 -40 26h-30v83q-125 9 -172.5 94t-47.5 261q0 191 56.5 274.5t195.5 83.5q35 0 83 -5.5t78 -11.5l31 -6l-4 -103q-120 14 -172 14q-84 0 -115.5 -54t-31.5 -192 q0 -136 30.5 -190t120.5 -54q20 0 62 3.5t74 6.5l32 3l3 -105q-103 -17 -174 -19v-31q64 -1 91.5 -18.5t27.5 -67.5z" />
<glyph unicode="&#xc8;" horiz-adv-x="557" d="M82 0v692h422v-108h-306v-188h246v-105h-246v-183h306v-108h-422zM196 948l244 -92l-35 -96l-248 81z" />
<glyph unicode="&#xc9;" horiz-adv-x="557" d="M82 0v692h422v-108h-306v-188h246v-105h-246v-183h306v-108h-422zM166 864l244 93l39 -108l-248 -80z" />
<glyph unicode="&#xca;" horiz-adv-x="557" d="M82 0v692h422v-108h-306v-188h246v-105h-246v-183h306v-108h-422zM114 791l132 144h104l132 -144h-129l-54 53l-53 -53h-132z" />
<glyph unicode="&#xcb;" horiz-adv-x="557" d="M82 0v692h422v-108h-306v-188h246v-105h-246v-183h306v-108h-422zM142 803v118h109v-118h-109zM359 803v118h109v-118h-109z" />
<glyph unicode="&#xcc;" horiz-adv-x="268" d="M75 0v692h118v-692h-118zM-1 948l244 -92l-35 -96l-248 81z" />
<glyph unicode="&#xcd;" horiz-adv-x="268" d="M75 0v692h118v-692h-118zM16 864l244 93l39 -108l-248 -80z" />
<glyph unicode="&#xce;" horiz-adv-x="268" d="M75 0v692h118v-692h-118zM-52 791l132 144h104l132 -144h-129l-54 53l-53 -53h-132z" />
<glyph unicode="&#xcf;" horiz-adv-x="268" d="M75 0v692h118v-692h-118zM-28 813v118h109v-118h-109zM189 813v118h109v-118h-109z" />
<glyph unicode="&#xd0;" horiz-adv-x="631" d="M18 288v113h64v291h227q155 0 214.5 -81t59.5 -253q0 -88 -12 -149.5t-41.5 -111t-84 -73.5t-136.5 -24h-227v288h-64zM462 358q0 57 -6 95t-22 69.5t-47 46.5t-78 15h-111v-183h134v-113h-134v-180h111q47 0 78 18.5t47 54.5t22 77.5t6 99.5z" />
<glyph unicode="&#xd1;" horiz-adv-x="698" d="M82 0v692h197l206 -570h14v570h118v-692h-193l-211 570h-14v-570h-117zM514 932l25 -87q-6 -7 -16 -17.5t-37 -27.5t-49 -17q-27 0 -90 24t-77 24q-12 0 -32 -10.5t-34 -21.5l-14 -11l-25 87q6 7 16.5 17.5t37.5 27.5t49 17q33 0 94 -23.5t72 -23.5t31 10.5t35 21.5z" />
<glyph unicode="&#xd2;" horiz-adv-x="646" d="M323 97q86 0 119.5 56t33.5 188t-34.5 193t-118.5 61t-118.5 -61t-34.5 -193q0 -131 34 -187.5t119 -56.5zM323 -11q-148 0 -211 85.5t-63 266.5q0 182 63.5 272t210.5 90t210.5 -90t63.5 -272t-63 -267t-211 -85zM217 948l244 -92l-35 -96l-248 81z" />
<glyph unicode="&#xd3;" horiz-adv-x="646" d="M323 97q86 0 119.5 56t33.5 188t-34.5 193t-118.5 61t-118.5 -61t-34.5 -193q0 -131 34 -187.5t119 -56.5zM323 -11q-148 0 -211 85.5t-63 266.5q0 182 63.5 272t210.5 90t210.5 -90t63.5 -272t-63 -267t-211 -85zM170 864l244 93l39 -108l-248 -80z" />
<glyph unicode="&#xd4;" horiz-adv-x="646" d="M323 97q86 0 119.5 56t33.5 188t-34.5 193t-118.5 61t-118.5 -61t-34.5 -193q0 -131 34 -187.5t119 -56.5zM323 -11q-148 0 -211 85.5t-63 266.5q0 182 63.5 272t210.5 90t210.5 -90t63.5 -272t-63 -267t-211 -85zM145 790l132 144h104l132 -144h-129l-54 53l-53 -53 h-132z" />
<glyph unicode="&#xd5;" horiz-adv-x="646" d="M323 97q86 0 119.5 56t33.5 188t-34.5 193t-118.5 61t-118.5 -61t-34.5 -193q0 -131 34 -187.5t119 -56.5zM323 -11q-148 0 -211 85.5t-63 266.5q0 182 63.5 272t210.5 90t210.5 -90t63.5 -272t-63 -267t-211 -85zM486 932l25 -87q-6 -7 -16 -17.5t-37 -27.5t-49 -17 q-27 0 -90 24t-77 24q-12 0 -32 -10.5t-34 -21.5l-14 -11l-25 87q6 7 16.5 17.5t37.5 27.5t49 17q33 0 94 -23.5t72 -23.5t31 10.5t35 21.5z" />
<glyph unicode="&#xd6;" horiz-adv-x="646" d="M323 97q86 0 119.5 56t33.5 188t-34.5 193t-118.5 61t-118.5 -61t-34.5 -193q0 -131 34 -187.5t119 -56.5zM323 -11q-148 0 -211 85.5t-63 266.5q0 182 63.5 272t210.5 90t210.5 -90t63.5 -272t-63 -267t-211 -85zM162 803v118h109v-118h-109zM379 803v118h109v-118h-109 z" />
<glyph unicode="&#xd7;" d="M127 489l135 -136l140 139l79 -80l-138 -140l136 -135l-80 -80l-136 136l-139 -140l-80 81l139 139l-136 136z" />
<glyph unicode="&#xd8;" horiz-adv-x="656" d="M323 -11q-62 0 -113 16l-58 -125l-70 35l60 128q-93 79 -93 298q0 182 63.5 272t210.5 90q67 0 118 -20l56 120l73 -27l-63 -134q90 -84 90 -301q0 -182 -63 -267t-211 -85zM170 341q0 -122 28 -177l195 416q-30 15 -70 15q-84 0 -118.5 -61t-34.5 -193zM323 97 q86 0 119.5 56t33.5 188q0 121 -26 177l-192 -411q26 -10 65 -10z" />
<glyph unicode="&#xd9;" horiz-adv-x="645" d="M191 223q0 -65 31.5 -92.5t99.5 -27.5q69 0 100.5 28t31.5 92v469h117v-469q0 -123 -59 -177.5t-190 -54.5q-130 0 -189 55t-59 177v469h117v-469zM210 948l244 -92l-35 -96l-248 81z" />
<glyph unicode="&#xda;" horiz-adv-x="645" d="M191 223q0 -65 31.5 -92.5t99.5 -27.5q69 0 100.5 28t31.5 92v469h117v-469q0 -123 -59 -177.5t-190 -54.5q-130 0 -189 55t-59 177v469h117v-469zM171 864l244 93l39 -108l-248 -80z" />
<glyph unicode="&#xdb;" horiz-adv-x="645" d="M191 223q0 -65 31.5 -92.5t99.5 -27.5q69 0 100.5 28t31.5 92v469h117v-469q0 -123 -59 -177.5t-190 -54.5q-130 0 -189 55t-59 177v469h117v-469zM139 789l132 144h104l132 -144h-129l-54 53l-53 -53h-132z" />
<glyph unicode="&#xdc;" horiz-adv-x="645" d="M191 223q0 -65 31.5 -92.5t99.5 -27.5q69 0 100.5 28t31.5 92v469h117v-469q0 -123 -59 -177.5t-190 -54.5q-130 0 -189 55t-59 177v469h117v-469zM160 813v118h109v-118h-109zM377 813v118h109v-118h-109z" />
<glyph unicode="&#xdd;" horiz-adv-x="565" d="M342 296v-296h-116v296l-208 396h131l134 -272l133 272h131zM165 864l244 93l39 -108l-248 -80z" />
<glyph unicode="&#xde;" horiz-adv-x="597" d="M322 220q58 0 87 34.5t29 97.5q0 59 -29 92t-87 33h-123v-257h123zM323 107h-124v-107h-117v692h117v-103h124q117 0 176 -60.5t59 -176.5q0 -119 -59 -182t-176 -63z" />
<glyph unicode="&#xdf;" horiz-adv-x="620" d="M188 0h-114v530q0 100 53 143t166 43q116 0 167 -34.5t51 -116.5q0 -54 -18.5 -78t-70.5 -49q-35 -17 -47.5 -29t-12.5 -28q0 -14 16 -25.5t76 -37.5q69 -31 93.5 -60.5t24.5 -88.5q0 -102 -45.5 -140t-158.5 -38q-13 0 -46 4.5l-60 8.5l-26 5l4 92q103 -4 120 -4 q56 0 75 13.5t19 50.5q0 23 -18 39.5t-71 36.5q-71 28 -96 57t-25 83q0 44 18 68t60 45q43 21 57 34t14 33q0 31 -23.5 43t-76.5 12q-52 0 -78.5 -19.5t-26.5 -67.5v-525z" />
<glyph unicode="&#xe0;" d="M444 342v-206q2 -25 12.5 -35t33.5 -16l-7 -96q-87 0 -135 35q-70 -35 -146 -35q-66 0 -109.5 44t-43.5 116q0 140 164 152l117 10v32q0 63 -58 63q-40 0 -88.5 -2.5t-77.5 -5.5l-28 -2l-4 94q130 21 204 21q83 0 124.5 -39.5t41.5 -129.5zM330 226l-104 -6 q-30 -1 -46 -19.5t-16 -48.5t14.5 -48.5t39.5 -18.5l112 20v121zM153 766l244 -92l-33 -90l-247 81z" />
<glyph unicode="&#xe1;" d="M444 342v-206q2 -25 12.5 -35t33.5 -16l-7 -96q-87 0 -135 35q-70 -35 -146 -35q-66 0 -109.5 44t-43.5 116q0 140 164 152l117 10v32q0 63 -58 63q-40 0 -88.5 -2.5t-77.5 -5.5l-28 -2l-4 94q130 21 204 21q83 0 124.5 -39.5t41.5 -129.5zM330 226l-104 -6 q-30 -1 -46 -19.5t-16 -48.5t14.5 -48.5t39.5 -18.5l112 20v121zM157 674l244 93l39 -108l-248 -80z" />
<glyph unicode="&#xe2;" d="M444 342v-206q2 -25 12.5 -35t33.5 -16l-7 -96q-87 0 -135 35q-70 -35 -146 -35q-66 0 -109.5 44t-43.5 116q0 140 164 152l117 10v32q0 63 -58 63q-40 0 -88.5 -2.5t-77.5 -5.5l-28 -2l-4 94q130 21 204 21q83 0 124.5 -39.5t41.5 -129.5zM330 226l-104 -6 q-30 -1 -46 -19.5t-16 -48.5t14.5 -48.5t39.5 -18.5l112 20v121zM76 584l129 164h92l130 -164h-123l-52 69l-53 -69h-123z" />
<glyph unicode="&#xe3;" d="M444 342v-206q2 -25 12.5 -35t33.5 -16l-7 -96q-87 0 -135 35q-70 -35 -146 -35q-66 0 -109.5 44t-43.5 116q0 140 164 152l117 10v32q0 63 -58 63q-40 0 -88.5 -2.5t-77.5 -5.5l-28 -2l-4 94q130 21 204 21q83 0 124.5 -39.5t41.5 -129.5zM330 226l-104 -6 q-30 -1 -46 -19.5t-16 -48.5t14.5 -48.5t39.5 -18.5l112 20v121zM403 740l25 -87q-6 -7 -15.5 -16.5t-36 -26t-48.5 -16.5q-27 0 -81 23t-68 23q-12 0 -31.5 -10t-33.5 -20l-13 -11l-25 86q6 7 16 17t37 26.5t49 16.5q32 0 84 -22.5t63 -22.5t30.5 10t33.5 20z" />
<glyph unicode="&#xe4;" d="M444 342v-206q2 -25 12.5 -35t33.5 -16l-7 -96q-87 0 -135 35q-70 -35 -146 -35q-66 0 -109.5 44t-43.5 116q0 140 164 152l117 10v32q0 63 -58 63q-40 0 -88.5 -2.5t-77.5 -5.5l-28 -2l-4 94q130 21 204 21q83 0 124.5 -39.5t41.5 -129.5zM330 226l-104 -6 q-30 -1 -46 -19.5t-16 -48.5t14.5 -48.5t39.5 -18.5l112 20v121zM120 612v118h109v-118h-109zM331 612v118h109v-118h-109z" />
<glyph unicode="&#xe5;" d="M444 342v-206q2 -25 12.5 -35t33.5 -16l-7 -96q-87 0 -135 35q-70 -35 -146 -35q-66 0 -109.5 44t-43.5 116q0 140 164 152l117 10v32q0 63 -58 63q-40 0 -88.5 -2.5t-77.5 -5.5l-28 -2l-4 94q130 21 204 21q83 0 124.5 -39.5t41.5 -129.5zM330 226l-104 -6 q-30 -1 -46 -19.5t-16 -48.5t14.5 -48.5t39.5 -18.5l112 20v121zM149 660q0 47 32.5 80t80.5 33q47 0 80 -33t33 -80q0 -48 -32.5 -80t-80.5 -32t-80.5 32t-32.5 80zM226 660q0 -16 10.5 -26.5t26.5 -10.5q15 0 25.5 10.5t10.5 26.5t-10.5 26.5t-25.5 10.5 q-16 0 -26.5 -10.5t-10.5 -26.5z" />
<glyph unicode="&#xe6;" horiz-adv-x="828" d="M566 89q32 0 77 2.5t74 4.5l29 2l2 -85q-95 -24 -191 -24q-106 0 -156 50l-26 -12q-85 -38 -163 -38q-67 0 -109 43t-42 117q0 77 42.5 111.5t125.5 41.5l115 9v32q0 30 -15 46.5t-43 16.5l-193 -13l-4 98q125 20 199 20q94 0 133 -52q49 52 139 52q103 0 154 -59 t51 -169l-8 -81h-298q2 -113 107 -113zM230 85q23 0 52.5 5t47 10t19.5 7q-6 51 -6 118l-105 -7q-29 -2 -45.5 -19t-16.5 -47q0 -31 15.5 -49t38.5 -18zM458 289h194q0 64 -21.5 95t-73.5 31t-75 -31.5t-24 -94.5z" />
<glyph unicode="&#xe7;" horiz-adv-x="436" d="M389 -127q0 -48 -28 -73t-77 -25q-19 0 -42 2.5t-36 4.5l-13 3l4 68q34 -2 54 -2q40 0 40 30q0 26 -40 26h-30v83q-92 8 -133.5 73t-41.5 193q0 255 206 255q31 0 67.5 -4t57.5 -8l21 -4l-4 -97q-73 8 -111 8q-67 0 -94 -34.5t-27 -115.5q0 -85 27 -124t95 -39l111 7 l3 -97q-65 -11 -128 -13v-31q64 -1 91.5 -18.5t27.5 -67.5z" />
<glyph unicode="&#xe8;" horiz-adv-x="507" d="M267 89q32 0 76.5 2.5t73.5 4.5l29 2l2 -85q-94 -24 -190 -24q-113 0 -163 63.5t-50 191.5q0 127 54.5 197t157.5 70t155.5 -59t52.5 -169l-8 -81h-297q2 -113 107 -113zM159 289h193q0 64 -22 95t-73 31q-96 0 -98 -126zM151 766l244 -92l-33 -90l-247 81z" />
<glyph unicode="&#xe9;" horiz-adv-x="507" d="M267 89q32 0 76.5 2.5t73.5 4.5l29 2l2 -85q-94 -24 -190 -24q-113 0 -163 63.5t-50 191.5q0 127 54.5 197t157.5 70t155.5 -59t52.5 -169l-8 -81h-297q2 -113 107 -113zM159 289h193q0 64 -22 95t-73 31q-96 0 -98 -126zM122 674l244 93l39 -108l-248 -80z" />
<glyph unicode="&#xea;" horiz-adv-x="507" d="M267 89q32 0 76.5 2.5t73.5 4.5l29 2l2 -85q-94 -24 -190 -24q-113 0 -163 63.5t-50 191.5q0 127 54.5 197t157.5 70t155.5 -59t52.5 -169l-8 -81h-297q2 -113 107 -113zM159 289h193q0 64 -22 95t-73 31q-96 0 -98 -126zM88 584l129 164h92l130 -164h-123l-52 69 l-53 -69h-123z" />
<glyph unicode="&#xeb;" horiz-adv-x="507" d="M267 89q32 0 76.5 2.5t73.5 4.5l29 2l2 -85q-94 -24 -190 -24q-113 0 -163 63.5t-50 191.5q0 127 54.5 197t157.5 70t155.5 -59t52.5 -169l-8 -81h-297q2 -113 107 -113zM159 289h193q0 64 -22 95t-73 31q-96 0 -98 -126zM127 612v118h109v-118h-109zM338 612v118h109 v-118h-109z" />
<glyph unicode="&#xec;" horiz-adv-x="267" d="M76 0v499h114v-499h-114zM-15 766l244 -92l-33 -90l-247 81z" />
<glyph unicode="&#xed;" horiz-adv-x="261" d="M8 674l244 93l39 -108l-248 -80zM76 0v499h114v-499h-114z" />
<glyph unicode="&#xee;" horiz-adv-x="267" d="M76 0v499h114v-499h-114zM-47 584l129 164h92l130 -164h-123l-52 69l-53 -69h-123z" />
<glyph unicode="&#xef;" horiz-adv-x="267" d="M-8 612v118h109v-118h-109zM203 612v118h109v-118h-109zM76 0v499h114v-499h-114z" />
<glyph unicode="&#xf0;" d="M153 485l-47 66l56 43q-16 4 -87 17l17 97q105 -13 174 -35l97 74l47 -67l-57 -43q153 -86 153 -288q0 -187 -58 -272.5t-189 -85.5q-112 0 -171.5 61t-59.5 178q0 94 59 149.5t156 55.5q32 0 67 -6.5t54 -13.5l19 -7q-5 56 -33 93t-92 63zM250 335q-46 0 -73 -30.5 t-27 -74.5q0 -133 109 -133q64 0 94 49.5t31 161.5q-62 27 -134 27z" />
<glyph unicode="&#xf1;" horiz-adv-x="574" d="M202 0h-114v499h114v-25q73 37 128 37q94 0 132 -62t38 -188v-261h-114v260q0 72 -16 109.5t-62 37.5q-44 0 -106 -25v-382zM439 740l25 -87q-6 -7 -15.5 -16.5t-36 -26t-48.5 -16.5q-27 0 -81 23t-68 23q-12 0 -31.5 -10t-33.5 -20l-13 -11l-25 86q6 7 16 17t37 26.5 t49 16.5q32 0 84 -22.5t63 -22.5t30.5 10t33.5 20z" />
<glyph unicode="&#xf2;" horiz-adv-x="531" d="M265 511q219 0 219 -259q0 -124 -49.5 -193.5t-169.5 -69.5q-121 0 -170.5 69t-49.5 194q0 122 50.5 190.5t169.5 68.5zM265 88q61 0 82 41.5t21 122.5q0 77 -23 118t-80 41q-59 0 -81.5 -40t-22.5 -119q0 -82 21.5 -123t82.5 -41zM138 766l244 -92l-33 -90l-247 81z" />
<glyph unicode="&#xf3;" horiz-adv-x="531" d="M265 511q219 0 219 -259q0 -124 -49.5 -193.5t-169.5 -69.5q-121 0 -170.5 69t-49.5 194q0 122 50.5 190.5t169.5 68.5zM265 88q61 0 82 41.5t21 122.5q0 77 -23 118t-80 41q-59 0 -81.5 -40t-22.5 -119q0 -82 21.5 -123t82.5 -41zM107 674l244 93l39 -108l-248 -80z" />
<glyph unicode="&#xf4;" horiz-adv-x="531" d="M265 511q219 0 219 -259q0 -124 -49.5 -193.5t-169.5 -69.5q-121 0 -170.5 69t-49.5 194q0 122 50.5 190.5t169.5 68.5zM265 88q61 0 82 41.5t21 122.5q0 77 -23 118t-80 41q-59 0 -81.5 -40t-22.5 -119q0 -82 21.5 -123t82.5 -41zM68 584l129 164h92l130 -164h-123 l-52 69l-53 -69h-123z" />
<glyph unicode="&#xf5;" horiz-adv-x="531" d="M265 511q219 0 219 -259q0 -124 -49.5 -193.5t-169.5 -69.5q-121 0 -170.5 69t-49.5 194q0 122 50.5 190.5t169.5 68.5zM265 88q61 0 82 41.5t21 122.5q0 77 -23 118t-80 41q-59 0 -81.5 -40t-22.5 -119q0 -82 21.5 -123t82.5 -41zM388 740l25 -87q-6 -7 -15.5 -16.5 t-36 -26t-48.5 -16.5q-27 0 -81 23t-68 23q-12 0 -31.5 -10t-32.5 -20l-14 -11l-25 86q6 7 16 17t37 26.5t49 16.5q32 0 84 -22.5t63 -22.5t30.5 10t33.5 20z" />
<glyph unicode="&#xf6;" horiz-adv-x="531" d="M265 511q219 0 219 -259q0 -124 -49.5 -193.5t-169.5 -69.5q-121 0 -170.5 69t-49.5 194q0 122 50.5 190.5t169.5 68.5zM265 88q61 0 82 41.5t21 122.5q0 77 -23 118t-80 41q-59 0 -81.5 -40t-22.5 -119q0 -82 21.5 -123t82.5 -41zM107 612v118h109v-118h-109zM318 612 v118h109v-118h-109z" />
<glyph unicode="&#xf7;" d="M207 401v122h113v-122h-113zM45 224v114h436v-114h-436zM207 39v122h113v-122h-113z" />
<glyph unicode="&#xf8;" horiz-adv-x="529" d="M265 511q33 0 62 -6l40 102l71 -27l-43 -103q89 -60 89 -225q0 -124 -49.5 -193.5t-169.5 -69.5q-39 0 -67 7l-43 -105l-70 26l45 107q-85 60 -85 228q0 122 50.5 190.5t169.5 68.5zM265 88q61 0 82 41.5t21 122.5q0 76 -21 115l-112 -276q13 -3 30 -3zM161 252 q0 -83 19 -118l109 274q-12 3 -24 3q-59 0 -81.5 -40t-22.5 -119z" />
<glyph unicode="&#xf9;" horiz-adv-x="560" d="M368 499h114v-499h-114v25q-74 -36 -126 -36q-94 0 -131.5 58t-37.5 191v261h114v-260q0 -82 16 -116t62 -34q42 0 103 26v384zM157 766l244 -92l-33 -90l-247 81z" />
<glyph unicode="&#xfa;" horiz-adv-x="560" d="M368 499h114v-499h-114v25q-74 -36 -126 -36q-94 0 -131.5 58t-37.5 191v261h114v-260q0 -82 16 -116t62 -34q42 0 103 26v384zM126 674l244 93l39 -108l-248 -80z" />
<glyph unicode="&#xfb;" horiz-adv-x="560" d="M368 499h114v-499h-114v25q-74 -36 -126 -36q-94 0 -131.5 58t-37.5 191v261h114v-260q0 -82 16 -116t62 -34q42 0 103 26v384zM100 584l129 164h92l130 -164h-123l-52 69l-53 -69h-123z" />
<glyph unicode="&#xfc;" horiz-adv-x="560" d="M368 499h114v-499h-114v25q-74 -36 -126 -36q-94 0 -131.5 58t-37.5 191v261h114v-260q0 -82 16 -116t62 -34q42 0 103 26v384zM121 612v118h109v-118h-109zM332 612v118h109v-118h-109z" />
<glyph unicode="&#xfd;" horiz-adv-x="480" d="M10 499h113l101 -389h19l102 389h113l-185 -712h-113l55 214h-76zM113 674l244 93l39 -108l-248 -80z" />
<glyph unicode="&#xfe;" horiz-adv-x="546" d="M277 88q59 0 83.5 41.5t24.5 126.5q0 71 -23 111.5t-70 40.5l-98 -16v-297q36 -7 83 -7zM306 511q99 0 147 -62t48 -193q0 -147 -53 -207t-169 -60l-85 4v-207h-114v920h114v-224q59 29 112 29z" />
<glyph unicode="&#xff;" horiz-adv-x="484" d="M18 499h113l101 -389h19l102 389h113l-185 -712h-113l55 214h-76zM82 612v118h109v-118h-109zM293 612v118h109v-118h-109z" />
<glyph unicode="&#x100;" horiz-adv-x="605" d="M28 0l165 692h221l163 -692h-118l-38 138h-241l-34 -138h-118zM285 589l-81 -342h195l-78 342h-36zM134 810v99h335v-99h-335z" />
<glyph unicode="&#x101;" horiz-adv-x="526" d="M444 342v-206q2 -25 12.5 -35t33.5 -16l-7 -96q-87 0 -135 35q-70 -35 -146 -35q-66 0 -109.5 44t-43.5 116q0 140 164 152l117 10v32q0 63 -58 63q-40 0 -88.5 -2.5t-77.5 -5.5l-28 -2l-4 94q130 21 204 21q83 0 124.5 -39.5t41.5 -129.5zM330 226l-104 -6 q-30 -1 -46 -19.5t-16 -48.5t14.5 -48.5t39.5 -18.5l112 20v121zM105 626v99h315v-99h-315z" />
<glyph unicode="&#x102;" horiz-adv-x="605" d="M28 0l165 692h221l163 -692h-118l-38 138h-241l-34 -138h-118zM285 589l-81 -342h195l-78 342h-36zM126 929h118q7 -49 58 -49q54 0 59 49h119q-6 -65 -51.5 -105t-126.5 -40q-80 0 -125 40t-51 105z" />
<glyph unicode="&#x103;" horiz-adv-x="526" d="M444 342v-206q2 -25 12.5 -35t33.5 -16l-7 -96q-87 0 -135 35q-70 -35 -146 -35q-66 0 -109.5 44t-43.5 116q0 140 164 152l117 10v32q0 63 -58 63q-40 0 -88.5 -2.5t-77.5 -5.5l-28 -2l-4 94q130 21 204 21q83 0 124.5 -39.5t41.5 -129.5zM330 226l-104 -6 q-30 -1 -46 -19.5t-16 -48.5t14.5 -48.5t39.5 -18.5l112 20v121zM81 743h118q6 -54 64 -54q60 0 65 54h118q-6 -71 -52.5 -113.5t-130.5 -42.5q-83 0 -129.5 42.5t-52.5 113.5z" />
<glyph unicode="&#x104;" horiz-adv-x="605" d="M587 -110l11 -92q-54 -11 -94 -11q-45 0 -74 25t-29 68q0 64 68 120h-10l-38 138h-241l-34 -138h-118l165 692h221l162 -691h2q-58 -51 -58 -85q0 -13 7 -21.5t19 -8.5zM285 589l-81 -342h195l-78 342h-36z" />
<glyph unicode="&#x105;" horiz-adv-x="526" d="M478 -110l11 -92q-54 -11 -94 -11q-45 0 -74 25t-29 68q0 68 79 129q-13 7 -23 15q-70 -35 -146 -35q-66 0 -109.5 44t-43.5 116q0 140 164 152l117 10v32q0 63 -58 63q-40 0 -88.5 -2.5t-77.5 -5.5l-28 -2l-4 94q130 21 204 21q83 0 124.5 -39.5t41.5 -129.5v-206 q2 -25 12.5 -35t33.5 -16l-7 -96q-18 0 -26 1q-46 -46 -46 -74q0 -13 7 -21.5t19 -8.5zM330 226l-104 -6q-30 -1 -46 -19.5t-16 -48.5t14.5 -48.5t39.5 -18.5l112 20v121z" />
<glyph unicode="&#x106;" horiz-adv-x="531" d="M489 114l3 -105q-120 -20 -191 -20q-144 0 -198 85t-54 271q0 191 56.5 274.5t195.5 83.5q35 0 83 -5.5t78 -11.5l31 -6l-4 -103q-120 14 -172 14q-84 0 -115.5 -54t-31.5 -192q0 -136 30.5 -190t120.5 -54q20 0 62 3.5t74 6.5zM152 864l244 93l39 -108l-248 -80z" />
<glyph unicode="&#x107;" horiz-adv-x="436" d="M252 511q31 0 67.5 -4t57.5 -8l21 -4l-4 -97q-73 8 -111 8q-67 0 -94 -34.5t-27 -115.5q0 -85 27 -124t95 -39l111 7l3 -97q-80 -14 -149 -14q-107 0 -155 65t-48 202q0 255 206 255zM81 674l244 93l39 -108l-248 -80z" />
<glyph unicode="&#x108;" horiz-adv-x="531" d="M489 114l3 -105q-120 -20 -191 -20q-144 0 -198 85t-54 271q0 191 56.5 274.5t195.5 83.5q35 0 83 -5.5t78 -11.5l31 -6l-4 -103q-120 14 -172 14q-84 0 -115.5 -54t-31.5 -192q0 -136 30.5 -190t120.5 -54q20 0 62 3.5t74 6.5zM113 789l132 144h104l132 -144h-129 l-54 53l-53 -53h-132z" />
<glyph unicode="&#x109;" horiz-adv-x="436" d="M252 511q31 0 67.5 -4t57.5 -8l21 -4l-4 -97q-73 8 -111 8q-67 0 -94 -34.5t-27 -115.5q0 -85 27 -124t95 -39l111 7l3 -97q-80 -14 -149 -14q-107 0 -155 65t-48 202q0 255 206 255zM47 584l129 164h92l130 -164h-123l-52 69l-53 -69h-123z" />
<glyph unicode="&#x10a;" horiz-adv-x="531" d="M489 114l3 -105q-120 -20 -191 -20q-144 0 -198 85t-54 271q0 191 56.5 274.5t195.5 83.5q35 0 83 -5.5t78 -11.5l31 -6l-4 -103q-120 14 -172 14q-84 0 -115.5 -54t-31.5 -192q0 -136 30.5 -190t120.5 -54q20 0 62 3.5t74 6.5zM236 790v119h114v-119h-114z" />
<glyph unicode="&#x10b;" horiz-adv-x="436" d="M252 511q31 0 67.5 -4t57.5 -8l21 -4l-4 -97q-73 8 -111 8q-67 0 -94 -34.5t-27 -115.5q0 -85 27 -124t95 -39l111 7l3 -97q-80 -14 -149 -14q-107 0 -155 65t-48 202q0 255 206 255zM181 574v119h114v-119h-114z" />
<glyph unicode="&#x10c;" horiz-adv-x="531" d="M489 114l3 -105q-120 -20 -191 -20q-144 0 -198 85t-54 271q0 191 56.5 274.5t195.5 83.5q35 0 83 -5.5t78 -11.5l31 -6l-4 -103q-120 14 -172 14q-84 0 -115.5 -54t-31.5 -192q0 -136 30.5 -190t120.5 -54q20 0 62 3.5t74 6.5zM485 931l-132 -144h-103l-133 144h131 l54 -56l53 56h130z" />
<glyph unicode="&#x10d;" horiz-adv-x="436" d="M252 511q31 0 67.5 -4t57.5 -8l21 -4l-4 -97q-73 8 -111 8q-67 0 -94 -34.5t-27 -115.5q0 -85 27 -124t95 -39l111 7l3 -97q-80 -14 -149 -14q-107 0 -155 65t-48 202q0 255 206 255zM175 584l-128 164h124l52 -68l52 68h123l-128 -164h-95z" />
<glyph unicode="&#x10e;" horiz-adv-x="631" d="M309 0h-227v692h227q155 0 214.5 -81t59.5 -253q0 -88 -12 -149.5t-41.5 -111t-84 -73.5t-136.5 -24zM462 358q0 57 -6 95t-22 69.5t-47 46.5t-78 15h-111v-476h111q47 0 78 18.5t47 54.5t22 77.5t6 99.5zM485 931l-132 -144h-103l-133 144h131l54 -56l53 56h130z" />
<glyph unicode="&#x10f;" horiz-adv-x="758" d="M467 706v-706h-115v23q-63 -34 -120 -34q-99 0 -142.5 68t-43.5 196q0 127 52 192.5t152 65.5q37 0 102 -13v208h115zM250 92q20 0 45.5 6t40.5 12l16 6v284q-55 11 -94 11q-96 0 -96 -159q0 -160 88 -160zM678 692v-251h-110v251h110z" />
<glyph unicode="&#x110;" horiz-adv-x="631" d="M18 288v113h64v291h227q155 0 214.5 -81t59.5 -253q0 -88 -12 -149.5t-41.5 -111t-84 -73.5t-136.5 -24h-227v288h-64zM462 358q0 57 -6 95t-22 69.5t-47 46.5t-78 15h-111v-183h134v-113h-134v-180h111q47 0 78 18.5t47 54.5t22 77.5t6 99.5z" />
<glyph unicode="&#x111;" horiz-adv-x="544" d="M190 567v99h162v40h115v-40h38v-99h-38v-567h-115v23q-63 -34 -120 -34q-99 0 -142.5 68t-43.5 196q0 127 52 192.5t152 65.5q37 0 102 -13v69h-162zM250 92q20 0 45.5 6t40.5 12l16 6v284q-55 11 -94 11q-96 0 -96 -159q0 -160 88 -160z" />
<glyph unicode="&#x112;" horiz-adv-x="557" d="M82 0v692h422v-108h-306v-188h246v-105h-246v-183h306v-108h-422zM112 808v99h335v-99h-335z" />
<glyph unicode="&#x113;" horiz-adv-x="507" d="M267 89q32 0 76.5 2.5t73.5 4.5l29 2l2 -85q-94 -24 -190 -24q-113 0 -163 63.5t-50 191.5q0 127 54.5 197t157.5 70t155.5 -59t52.5 -169l-8 -81h-297q2 -113 107 -113zM159 289h193q0 64 -22 95t-73 31q-96 0 -98 -126zM98 626v99h315v-99h-315z" />
<glyph unicode="&#x114;" horiz-adv-x="557" d="M82 0v692h422v-108h-306v-188h246v-105h-246v-183h306v-108h-422zM124 929h118q7 -49 58 -49q54 0 59 49h119q-6 -65 -51.5 -105t-126.5 -40q-80 0 -125 40t-51 105z" />
<glyph unicode="&#x115;" horiz-adv-x="507" d="M267 89q32 0 76.5 2.5t73.5 4.5l29 2l2 -85q-94 -24 -190 -24q-113 0 -163 63.5t-50 191.5q0 127 54.5 197t157.5 70t155.5 -59t52.5 -169l-8 -81h-297q2 -113 107 -113zM159 289h193q0 64 -22 95t-73 31q-96 0 -98 -126zM72 743h118q6 -54 64 -54q60 0 65 54h118 q-6 -71 -52.5 -113.5t-130.5 -42.5q-83 0 -129.5 42.5t-52.5 113.5z" />
<glyph unicode="&#x116;" horiz-adv-x="557" d="M82 0v692h422v-108h-306v-188h246v-105h-246v-183h306v-108h-422zM241 790v119h114v-119h-114z" />
<glyph unicode="&#x117;" horiz-adv-x="507" d="M267 89q32 0 76.5 2.5t73.5 4.5l29 2l2 -85q-94 -24 -190 -24q-113 0 -163 63.5t-50 191.5q0 127 54.5 197t157.5 70t155.5 -59t52.5 -169l-8 -81h-297q2 -113 107 -113zM159 289h193q0 64 -22 95t-73 31q-96 0 -98 -126zM196 574v119h114v-119h-114z" />
<glyph unicode="&#x118;" horiz-adv-x="557" d="M82 0v692h422v-108h-306v-188h246v-105h-246v-183h306v-108h-14q-12 -9 -34.5 -36t-22.5 -48q0 -13 7 -21.5t19 -8.5l41 4l11 -92q-54 -11 -94 -11q-45 0 -74 25t-29 68q0 64 68 120h-300z" />
<glyph unicode="&#x119;" horiz-adv-x="507" d="M424 -106l11 -92q-54 -11 -94 -11q-45 0 -74 25t-29 68q0 55 53 106q-5 0 -16 -0.5t-17 -0.5q-113 0 -163 63.5t-50 191.5q0 127 54.5 197t157.5 70t155.5 -59t52.5 -169l-8 -81h-297q2 -113 107 -113q32 0 76.5 2.5t73.5 4.5l29 2l2 -85q-15 -4 -35 -8h2 q-58 -51 -58 -85q0 -13 7 -21.5t19 -8.5zM159 289h193q0 64 -22 95t-73 31q-96 0 -98 -126z" />
<glyph unicode="&#x11a;" horiz-adv-x="557" d="M82 0v692h422v-108h-306v-188h246v-105h-246v-183h306v-108h-422zM503 945l-132 -144h-103l-133 144h131l54 -56l53 56h130z" />
<glyph unicode="&#x11b;" horiz-adv-x="507" d="M267 89q32 0 76.5 2.5t73.5 4.5l29 2l2 -85q-94 -24 -190 -24q-113 0 -163 63.5t-50 191.5q0 127 54.5 197t157.5 70t155.5 -59t52.5 -169l-8 -81h-297q2 -113 107 -113zM159 289h193q0 64 -22 95t-73 31q-96 0 -98 -126zM206 584l-128 164h124l52 -68l52 68h123 l-128 -164h-95z" />
<glyph unicode="&#x11c;" horiz-adv-x="599" d="M349 268v102h194v-362q-145 -19 -224 -19q-148 0 -209 89t-61 269q0 184 61 270t205 86q97 0 228 -24l-3 -102q-125 16 -208 16q-92 0 -127 -54.5t-35 -191.5t33 -192.5t126 -55.5q11 0 25 0.5t26.5 1.5t23 2.5t16.5 2.5h7v162h-78zM133 789l132 144h104l132 -144h-129 l-54 53l-53 -53h-132z" />
<glyph unicode="&#x11d;" horiz-adv-x="531" d="M271 -240q-227 0 -227 151q0 67 74 123q-34 23 -34 72q0 23 38 82q-72 47 -72 147q0 86 56 130.5t141 44.5l95 -13l153 3v-91h-73q23 -31 23 -74q0 -174 -200 -174q-19 0 -39 4q-12 -32 -12 -45q0 -24 16 -30.5t83 -6.5q112 0 159 -32.5t47 -115.5q0 -88 -64 -131.5 t-164 -43.5zM284 -14l-91 6q-36 -33 -36 -69q0 -63 115 -63q112 0 112 69q0 34 -23 45.5t-77 11.5zM245 253q87 0 87 82q0 81 -86 81q-82 0 -82 -81q0 -82 81 -82zM90 584l129 164h92l130 -164h-123l-52 69l-53 -69h-123z" />
<glyph unicode="&#x11e;" horiz-adv-x="599" d="M349 268v102h194v-362q-145 -19 -224 -19q-148 0 -209 89t-61 269q0 184 61 270t205 86q97 0 228 -24l-3 -102q-125 16 -208 16q-92 0 -127 -54.5t-35 -191.5t33 -192.5t126 -55.5q11 0 25 0.5t26.5 1.5t23 2.5t16.5 2.5h7v162h-78zM143 929h118q7 -49 58 -49q54 0 59 49 h119q-6 -65 -51.5 -105t-126.5 -40q-80 0 -125 40t-51 105z" />
<glyph unicode="&#x11f;" horiz-adv-x="531" d="M271 -240q-227 0 -227 151q0 67 74 123q-34 23 -34 72q0 23 38 82q-72 47 -72 147q0 86 56 130.5t141 44.5l95 -13l153 3v-91h-73q23 -31 23 -74q0 -174 -200 -174q-19 0 -39 4q-12 -32 -12 -45q0 -24 16 -30.5t83 -6.5q112 0 159 -32.5t47 -115.5q0 -88 -64 -131.5 t-164 -43.5zM284 -14l-91 6q-36 -33 -36 -69q0 -63 115 -63q112 0 112 69q0 34 -23 45.5t-77 11.5zM245 253q87 0 87 82q0 81 -86 81q-82 0 -82 -81q0 -82 81 -82zM83 743h118q6 -54 64 -54q60 0 65 54h118q-6 -71 -52.5 -113.5t-130.5 -42.5q-83 0 -129.5 42.5t-52.5 113.5 z" />
<glyph unicode="&#x120;" horiz-adv-x="599" d="M349 268v102h194v-362q-145 -19 -224 -19q-148 0 -209 89t-61 269q0 184 61 270t205 86q97 0 228 -24l-3 -102q-125 16 -208 16q-92 0 -127 -54.5t-35 -191.5t33 -192.5t126 -55.5q11 0 25 0.5t26.5 1.5t23 2.5t16.5 2.5h7v162h-78zM251 798v119h114v-119h-114z" />
<glyph unicode="&#x121;" horiz-adv-x="531" d="M271 -240q-227 0 -227 151q0 67 74 123q-34 23 -34 72q0 23 38 82q-72 47 -72 147q0 86 56 130.5t141 44.5l95 -13l153 3v-91h-73q23 -31 23 -74q0 -174 -200 -174q-19 0 -39 4q-12 -32 -12 -45q0 -24 16 -30.5t83 -6.5q112 0 159 -32.5t47 -115.5q0 -88 -64 -131.5 t-164 -43.5zM284 -14l-91 6q-36 -33 -36 -69q0 -63 115 -63q112 0 112 69q0 34 -23 45.5t-77 11.5zM245 253q87 0 87 82q0 81 -86 81q-82 0 -82 -81q0 -82 81 -82zM209 574v119h114v-119h-114z" />
<glyph unicode="&#x122;" horiz-adv-x="599" d="M349 268v102h194v-362q-145 -19 -224 -19q-148 0 -209 89t-61 269q0 184 61 270t205 86q97 0 228 -24l-3 -102q-125 16 -208 16q-92 0 -127 -54.5t-35 -191.5t33 -192.5t126 -55.5q11 0 25 0.5t26.5 1.5t23 2.5t16.5 2.5h7v162h-78zM221 -302l45 225h111l-53 -225h-103z " />
<glyph unicode="&#x123;" horiz-adv-x="531" d="M271 -240q-227 0 -227 151q0 67 74 123q-34 23 -34 72q0 23 38 82q-72 47 -72 147q0 86 56 130.5t141 44.5l95 -13l153 3v-91h-73q23 -31 23 -74q0 -174 -200 -174q-19 0 -39 4q-12 -32 -12 -45q0 -24 16 -30.5t83 -6.5q112 0 159 -32.5t47 -115.5q0 -88 -64 -131.5 t-164 -43.5zM284 -14l-91 6q-36 -33 -36 -69q0 -63 115 -63q112 0 112 69q0 34 -23 45.5t-77 11.5zM245 253q87 0 87 82q0 81 -86 81q-82 0 -82 -81q0 -82 81 -82zM330 810l-44 -225h-112l54 225h102z" />
<glyph unicode="&#x124;" horiz-adv-x="670" d="M472 0v297h-274v-297h-116v692h116v-286h274v286h116v-692h-116zM150 784l132 144h104l132 -144h-129l-54 53l-53 -53h-132z" />
<glyph unicode="&#x125;" horiz-adv-x="562" d="M192 0h-114v706h93l63 80h92l130 -164h-123l-52 69l-53 -69h-36v-139q75 28 128 28q94 0 132 -62t38 -187v-262h-115v262q0 72 -15.5 108.5t-61.5 36.5l-106 -20v-387z" />
<glyph unicode="&#x126;" horiz-adv-x="670" d="M11 493v99h71v100h116v-100h274v100h116v-100h84v-99h-84v-493h-116v297h-274v-297h-116v493h-71zM198 406h274v87h-274v-87z" />
<glyph unicode="&#x127;" horiz-adv-x="562" d="M19 548v99h59v59h114v-59h142v-99h-142v-65q75 28 128 28q94 0 132 -62t38 -187v-262h-115v262q0 72 -15.5 108.5t-61.5 36.5l-106 -20v-387h-114v548h-59z" />
<glyph unicode="&#x128;" horiz-adv-x="268" d="M75 0v692h118v-692h-118zM298 925l25 -87q-6 -7 -16 -17.5t-37 -27.5t-49 -17q-27 0 -90 24t-77 24q-12 0 -32 -11t-34 -21l-14 -11l-25 87q6 7 16.5 17.5t37.5 27.5t49 17q33 0 94 -23.5t72 -23.5t31 10.5t35 20.5z" />
<glyph unicode="&#x129;" horiz-adv-x="267" d="M76 0v499h114v-499h-114zM279 740l25 -87q-6 -7 -15.5 -16.5t-36 -26t-48.5 -16.5q-27 0 -81 23t-68 23q-12 0 -31.5 -10t-33.5 -20l-13 -11l-25 86q6 7 16 17t37 26.5t49 16.5q32 0 84 -22.5t63 -22.5t30.5 10t33.5 20z" />
<glyph unicode="&#x12a;" horiz-adv-x="268" d="M75 0v692h118v-692h-118zM-34 819v99h335v-99h-335z" />
<glyph unicode="&#x12b;" horiz-adv-x="267" d="M76 0v499h114v-499h-114zM-24 626v99h315v-99h-315z" />
<glyph unicode="&#x12c;" horiz-adv-x="268" d="M75 0v692h118v-692h-118zM-43 929h118q7 -49 58 -49q54 0 59 49h119q-6 -65 -51.5 -105t-126.5 -40q-80 0 -125 40t-51 105z" />
<glyph unicode="&#x12d;" horiz-adv-x="267" d="M76 0v499h114v-499h-114zM-49 743h118q6 -54 64 -54q60 0 65 54h118q-6 -71 -52.5 -113.5t-130.5 -42.5q-83 0 -129.5 42.5t-52.5 113.5z" />
<glyph unicode="&#x12e;" horiz-adv-x="268" d="M75 0v692h118v-692h-1q-12 -9 -34.5 -36t-22.5 -48q0 -13 7 -21.5t19 -8.5l41 4l11 -92q-54 -11 -94 -11q-45 0 -74 25t-29 68q0 64 68 120h-9z" />
<glyph unicode="&#x12f;" horiz-adv-x="257" d="M72 0v499h114v-499h-1q-12 -9 -34.5 -36t-22.5 -48q0 -13 7 -21.5t19 -8.5l41 4l11 -92q-54 -11 -94 -11q-45 0 -74 25t-29 68q0 64 68 120h-5zM72 574v119h114v-119h-114z" />
<glyph unicode="&#x130;" horiz-adv-x="268" d="M75 0v692h118v-692h-118zM77 790v119h114v-119h-114z" />
<glyph unicode="&#x131;" horiz-adv-x="267" d="M76 0v499h114v-499h-114z" />
<glyph unicode="&#x134;" horiz-adv-x="312" d="M234 692l1 -579q0 -108 -41.5 -145.5t-157.5 -37.5v104q47 1 65 18.5t18 64.5v575h115zM-28 784l132 144h104l132 -144h-129l-54 53l-53 -53h-132z" />
<glyph unicode="&#x135;" horiz-adv-x="263" d="M78 6v493h114v-494q0 -101 -32.5 -148t-139.5 -99l-51 95q72 40 90.5 66t18.5 87zM-44 584l129 164h92l130 -164h-123l-52 69l-53 -69h-123z" />
<glyph unicode="&#x136;" horiz-adv-x="592" d="M425 0l-138 286l-89 -8v-278h-116v692h116v-307l87 8l134 299h136l-165 -345l171 -347h-136zM217 -302l45 225h111l-53 -225h-103z" />
<glyph unicode="&#x137;" horiz-adv-x="511" d="M194 0h-114v706h114v-401l50 7l115 187h128l-140 -234l146 -265h-129l-117 203l-53 -8v-195zM177 -302l45 225h111l-53 -225h-103z" />
<glyph unicode="&#x139;" horiz-adv-x="494" d="M455 0h-373v692h116v-582h257v-110zM109 864l244 93l39 -108l-248 -80z" />
<glyph unicode="&#x13a;" horiz-adv-x="259" d="M-11 714l244 93l39 -108l-85 -28v-671h-114v635l-49 -16z" />
<glyph unicode="&#x13b;" horiz-adv-x="494" d="M455 0h-373v692h116v-582h257v-110zM168 -302l45 225h111l-53 -225h-103z" />
<glyph unicode="&#x13c;" horiz-adv-x="259" d="M73 0v706h114v-706h-114zM51 -302l45 225h111l-53 -225h-103z" />
<glyph unicode="&#x13d;" horiz-adv-x="494" d="M455 0h-373v692h116v-582h257v-110zM453 692v-251h-110v251h110z" />
<glyph unicode="&#x13e;" horiz-adv-x="419" d="M73 0v706h114v-706h-114zM393 692v-251h-110v251h110z" />
<glyph unicode="&#x141;" d="M35 207l-56 86l108 76v323h118v-241l134 94l57 -84l-191 -134v-214h275v-113h-393v244z" />
<glyph unicode="&#x142;" horiz-adv-x="259" d="M73 0v238l-45 -31l-56 78l101 69v352h114v-273l50 35l55 -77l-105 -73v-318h-114z" />
<glyph unicode="&#x143;" horiz-adv-x="698" d="M82 0v692h197l206 -570h14v570h118v-692h-193l-211 570h-14v-570h-117zM208 864l244 93l39 -108l-248 -80z" />
<glyph unicode="&#x144;" horiz-adv-x="563" d="M194 0h-114v499h114v-25q73 37 128 37q94 0 132 -62t38 -188v-261h-114v260q0 72 -16 109.5t-62 37.5q-44 0 -106 -25v-382zM142 674l244 93l39 -108l-248 -80z" />
<glyph unicode="&#x145;" horiz-adv-x="698" d="M82 0v692h197l206 -570h14v570h118v-692h-193l-211 570h-14v-570h-117zM270 -302l45 225h111l-53 -225h-103z" />
<glyph unicode="&#x146;" horiz-adv-x="563" d="M194 0h-114v499h114v-25q73 37 128 37q94 0 132 -62t38 -188v-261h-114v260q0 72 -16 109.5t-62 37.5q-44 0 -106 -25v-382zM197 -302l45 225h111l-53 -225h-103z" />
<glyph unicode="&#x147;" horiz-adv-x="698" d="M82 0v692h197l206 -570h14v570h118v-692h-193l-211 570h-14v-570h-117zM533 929l-132 -144h-103l-133 144h131l54 -56l53 56h130z" />
<glyph unicode="&#x148;" horiz-adv-x="563" d="M194 0h-114v499h114v-25q73 37 128 37q94 0 132 -62t38 -188v-261h-114v260q0 72 -16 109.5t-62 37.5q-44 0 -106 -25v-382zM234 584l-128 164h124l52 -68l52 68h123l-128 -164h-95z" />
<glyph unicode="&#x14a;" horiz-adv-x="698" d="M82 0v692h197l206 -570h14v570h118v-692h-2v-21q0 -108 -41.5 -145.5t-157.5 -37.5v104q47 1 65 18.5t18 64.5v17h-75l-211 570h-14v-570h-117z" />
<glyph unicode="&#x14b;" horiz-adv-x="563" d="M197 0h-114v499h114v-25q73 37 128 37q94 0 132 -62t38 -188v-258q0 -101 -33 -148t-140 -99l-50 95q70 39 89 65t19 83v261q0 73 -15.5 110t-61.5 37q-45 0 -106 -25v-382z" />
<glyph unicode="&#x14c;" horiz-adv-x="646" d="M323 97q86 0 119.5 56t33.5 188t-34.5 193t-118.5 61t-118.5 -61t-34.5 -193q0 -131 34 -187.5t119 -56.5zM323 -11q-148 0 -211 85.5t-63 266.5q0 182 63.5 272t210.5 90t210.5 -90t63.5 -272t-63 -267t-211 -85zM155 810v99h335v-99h-335z" />
<glyph unicode="&#x14d;" horiz-adv-x="529" d="M265 511q219 0 219 -259q0 -124 -49.5 -193.5t-169.5 -69.5q-121 0 -170.5 69t-49.5 194q0 122 50.5 190.5t169.5 68.5zM265 88q61 0 82 41.5t21 122.5q0 77 -23 118t-80 41q-59 0 -81.5 -40t-22.5 -119q0 -82 21.5 -123t82.5 -41zM106 626v99h315v-99h-315z" />
<glyph unicode="&#x14e;" horiz-adv-x="646" d="M323 97q86 0 119.5 56t33.5 188t-34.5 193t-118.5 61t-118.5 -61t-34.5 -193q0 -131 34 -187.5t119 -56.5zM323 -11q-148 0 -211 85.5t-63 266.5q0 182 63.5 272t210.5 90t210.5 -90t63.5 -272t-63 -267t-211 -85zM147 929h118q7 -49 58 -49q54 0 59 49h119 q-6 -65 -51.5 -105t-126.5 -40q-80 0 -125 40t-51 105z" />
<glyph unicode="&#x14f;" horiz-adv-x="529" d="M265 511q219 0 219 -259q0 -124 -49.5 -193.5t-169.5 -69.5q-121 0 -170.5 69t-49.5 194q0 122 50.5 190.5t169.5 68.5zM265 88q61 0 82 41.5t21 122.5q0 77 -23 118t-80 41q-59 0 -81.5 -40t-22.5 -119q0 -82 21.5 -123t82.5 -41zM82 743h118q6 -54 64 -54q60 0 65 54 h118q-6 -71 -52.5 -113.5t-130.5 -42.5q-83 0 -129.5 42.5t-52.5 113.5z" />
<glyph unicode="&#x150;" horiz-adv-x="646" d="M323 97q86 0 119.5 56t33.5 188t-34.5 193t-118.5 61t-118.5 -61t-34.5 -193q0 -131 34 -187.5t119 -56.5zM323 -11q-148 0 -211 85.5t-63 266.5q0 182 63.5 272t210.5 90t210.5 -90t63.5 -272t-63 -267t-211 -85zM354 791l92 175l103 -42l-100 -170zM141 792l92 175 l104 -42l-101 -170z" />
<glyph unicode="&#x151;" horiz-adv-x="529" d="M265 511q219 0 219 -259q0 -124 -49.5 -193.5t-169.5 -69.5q-121 0 -170.5 69t-49.5 194q0 122 50.5 190.5t169.5 68.5zM265 88q61 0 82 41.5t21 122.5q0 77 -23 118t-80 41q-59 0 -81.5 -40t-22.5 -119q0 -82 21.5 -123t82.5 -41zM264 627l126 173l91 -59l-133 -172z M64 627l126 172l91 -58l-133 -172z" />
<glyph unicode="&#x152;" horiz-adv-x="897" d="M844 0h-420q-73 -11 -126 -11q-141 0 -201 88.5t-60 267.5q0 184 63.5 271t197.5 87q54 0 125 -11h421v-109h-305v-188h245v-103h-245v-183h305v-109zM314 99q35 0 109 6v481q-86 7 -112 7q-82 0 -117.5 -57t-35.5 -191q0 -132 33.5 -189t122.5 -57z" />
<glyph unicode="&#x153;" horiz-adv-x="876" d="M614 89q32 0 77 2.5t74 4.5l29 2l2 -85q-95 -24 -191 -24q-109 0 -159 60q-51 -60 -159 -60q-122 0 -171.5 68.5t-49.5 194.5q0 123 51 191t170 68q111 0 164 -68q52 68 154 68q105 0 156.5 -59t51.5 -169l-8 -81h-298q2 -113 107 -113zM287 88q62 0 83 40.5t21 123.5 t-22.5 121t-81.5 38q-60 0 -82 -39.5t-22 -119.5q0 -83 21 -123.5t83 -40.5zM506 289h194q0 67 -19.5 93.5t-71.5 26.5q-53 0 -77.5 -29.5t-25.5 -90.5z" />
<glyph unicode="&#x154;" horiz-adv-x="616" d="M342 241l-22 -1h-122v-240h-116v692h249q234 0 234 -223q0 -145 -108 -200l108 -269h-129zM445 467q0 55 -31 86t-83 31h-133v-239h135q53 0 82.5 34t29.5 88zM166 864l244 93l39 -108l-248 -80z" />
<glyph unicode="&#x155;" horiz-adv-x="359" d="M74 0v499h114v-53q62 48 145 65v-122q-40 -8 -76.5 -20t-52.5 -20l-16 -8v-341h-114zM42 674l244 93l39 -108l-248 -80z" />
<glyph unicode="&#x156;" horiz-adv-x="616" d="M342 241l-22 -1h-122v-240h-116v692h249q234 0 234 -223q0 -145 -108 -200l108 -269h-129zM445 467q0 55 -31 86t-83 31h-133v-239h135q53 0 82.5 34t29.5 88zM230 -302l45 225h111l-53 -225h-103z" />
<glyph unicode="&#x157;" horiz-adv-x="359" d="M74 0v499h114v-53q62 48 145 65v-122q-40 -8 -76.5 -20t-52.5 -20l-16 -8v-341h-114zM101 -302l45 225h111l-53 -225h-103z" />
<glyph unicode="&#x158;" horiz-adv-x="616" d="M342 241l-22 -1h-122v-240h-116v692h249q234 0 234 -223q0 -145 -108 -200l108 -269h-129zM445 467q0 55 -31 86t-83 31h-133v-239h135q53 0 82.5 34t29.5 88zM492 930l-132 -144h-103l-133 144h131l54 -56l53 56h130z" />
<glyph unicode="&#x159;" horiz-adv-x="359" d="M74 0v499h114v-53q62 48 145 65v-122q-40 -8 -76.5 -20t-52.5 -20l-16 -8v-341h-114zM136 584l-128 164h124l52 -68l52 68h123l-128 -164h-95z" />
<glyph unicode="&#x15a;" horiz-adv-x="531" d="M485 681l-4 -100q-137 14 -195 14q-118 0 -118 -85q0 -43 29.5 -65.5t115.5 -50.5q112 -38 151.5 -75t39.5 -120q0 -109 -55.5 -159.5t-175.5 -50.5q-41 0 -93.5 5.5t-85.5 11.5l-32 5l6 101q132 -15 195 -15q62 0 93.5 22.5t31.5 75.5q0 37 -29 57t-109 46 q-113 38 -155.5 81.5t-42.5 129.5q0 96 58.5 145.5t168.5 49.5q93 0 206 -23zM124 864l244 93l39 -108l-248 -80z" />
<glyph unicode="&#x15b;" horiz-adv-x="494" d="M424 488l-2 -93q-123 16 -175 16q-78 0 -78 -55q0 -22 19.5 -32t79.5 -21q96 -18 133.5 -50t37.5 -104q0 -160 -194 -160q-32 0 -78 5.5t-77 11.5l-30 6l4 93q119 -16 170 -16q49 0 70 13.5t21 43.5q0 23 -17 33.5t-74 21.5q-95 19 -137 49.5t-42 102.5q0 80 53.5 119 t130.5 39q32 0 78.5 -5.5t76.5 -11.5zM106 674l244 93l39 -108l-248 -80z" />
<glyph unicode="&#x15c;" horiz-adv-x="531" d="M485 681l-4 -100q-137 14 -195 14q-118 0 -118 -85q0 -43 29.5 -65.5t115.5 -50.5q112 -38 151.5 -75t39.5 -120q0 -109 -55.5 -159.5t-175.5 -50.5q-41 0 -93.5 5.5t-85.5 11.5l-32 5l6 101q132 -15 195 -15q62 0 93.5 22.5t31.5 75.5q0 37 -29 57t-109 46 q-113 38 -155.5 81.5t-42.5 129.5q0 96 58.5 145.5t168.5 49.5q93 0 206 -23zM90 789l132 144h104l132 -144h-129l-54 53l-53 -53h-132z" />
<glyph unicode="&#x15d;" horiz-adv-x="494" d="M424 488l-2 -93q-123 16 -175 16q-78 0 -78 -55q0 -22 19.5 -32t79.5 -21q96 -18 133.5 -50t37.5 -104q0 -160 -194 -160q-32 0 -78 5.5t-77 11.5l-30 6l4 93q119 -16 170 -16q49 0 70 13.5t21 43.5q0 23 -17 33.5t-74 21.5q-95 19 -137 49.5t-42 102.5q0 80 53.5 119 t130.5 39q32 0 78.5 -5.5t76.5 -11.5zM71 584l129 164h92l130 -164h-123l-52 69l-53 -69h-123z" />
<glyph unicode="&#x15e;" horiz-adv-x="531" d="M419 -127q0 -48 -28 -73t-77 -25q-19 0 -42 2.5t-36 4.5l-13 3l4 68q34 -2 54 -2q40 0 40 30q0 26 -40 26h-30v83q-39 1 -86.5 6.5t-74.5 9.5l-28 5l6 101q132 -15 195 -15q62 0 93.5 22.5t31.5 75.5q0 37 -29 57t-109 46q-113 38 -155.5 81.5t-42.5 129.5 q0 96 58.5 145.5t168.5 49.5q93 0 206 -23l-4 -100q-137 14 -195 14q-118 0 -118 -85q0 -43 29.5 -65.5t115.5 -50.5q112 -38 151.5 -75t39.5 -120q0 -103 -49 -153.5t-155 -55.5v-31q64 -1 91.5 -18.5t27.5 -67.5z" />
<glyph unicode="&#x15f;" horiz-adv-x="494" d="M383 -127q0 -48 -28 -73t-77 -25q-19 0 -42 2.5t-36 4.5l-13 3l4 68q34 -2 54 -2q40 0 40 30q0 26 -40 26h-30v83q-31 2 -69.5 7.5t-61.5 10.5l-24 4l4 93q119 -16 170 -16q49 0 70 13.5t21 43.5q0 23 -17 33.5t-74 21.5q-95 19 -137 49.5t-42 102.5q0 80 53.5 119 t130.5 39q32 0 78.5 -5.5t76.5 -11.5l30 -6l-2 -93q-123 16 -175 16q-78 0 -78 -55q0 -22 19.5 -32t79.5 -21q96 -18 133.5 -50t37.5 -104q0 -152 -175 -159v-31q64 -1 91.5 -18.5t27.5 -67.5z" />
<glyph unicode="&#x160;" horiz-adv-x="531" d="M485 681l-4 -100q-137 14 -195 14q-118 0 -118 -85q0 -43 29.5 -65.5t115.5 -50.5q112 -38 151.5 -75t39.5 -120q0 -109 -55.5 -159.5t-175.5 -50.5q-41 0 -93.5 5.5t-85.5 11.5l-32 5l6 101q132 -15 195 -15q62 0 93.5 22.5t31.5 75.5q0 37 -29 57t-109 46 q-113 38 -155.5 81.5t-42.5 129.5q0 96 58.5 145.5t168.5 49.5q93 0 206 -23zM467 931l-132 -144h-103l-133 144h131l54 -56l53 56h130z" />
<glyph unicode="&#x161;" horiz-adv-x="494" d="M424 488l-2 -93q-123 16 -175 16q-78 0 -78 -55q0 -22 19.5 -32t79.5 -21q96 -18 133.5 -50t37.5 -104q0 -160 -194 -160q-32 0 -78 5.5t-77 11.5l-30 6l4 93q119 -16 170 -16q49 0 70 13.5t21 43.5q0 23 -17 33.5t-74 21.5q-95 19 -137 49.5t-42 102.5q0 80 53.5 119 t130.5 39q32 0 78.5 -5.5t76.5 -11.5zM197 584l-128 164h124l52 -68l52 68h123l-128 -164h-95z" />
<glyph unicode="&#x162;" horiz-adv-x="484" d="M8 579v113h468v-113h-174v-579h-116v579h-178zM164 -302l45 225h111l-53 -225h-103z" />
<glyph unicode="&#x163;" horiz-adv-x="354" d="M325 398h-129v-209q0 -52 12 -74.5t40 -22.5l75 3l5 -93q-61 -14 -96 -14q-80 0 -115 43.5t-35 144.5v222h-59v100h59v146h114v-146h129v-100zM99 -302l45 225h111l-53 -225h-103z" />
<glyph unicode="&#x164;" horiz-adv-x="484" d="M8 579v113h468v-113h-174v-579h-116v579h-178zM426 930l-132 -144h-103l-133 144h131l54 -56l53 56h130z" />
<glyph unicode="&#x165;" horiz-adv-x="514" d="M325 398h-129v-209q0 -52 12 -74.5t40 -22.5l75 3l5 -93q-61 -14 -96 -14q-80 0 -115 43.5t-35 144.5v222h-59v100h59v146h114v-146h129v-100zM488 692v-251h-110v251h110z" />
<glyph unicode="&#x166;" horiz-adv-x="484" d="M43 269v99h143v211h-178v113h468v-113h-174v-211h150v-99h-150v-269h-116v269h-143z" />
<glyph unicode="&#x167;" horiz-adv-x="354" d="M30 220v99h52v79h-59v100h59v146h114v-146h129v-100h-129v-79h124v-99h-124v-31q0 -52 12 -74.5t40 -22.5l75 3l5 -93q-61 -14 -96 -14q-80 0 -115 43.5t-35 144.5v44h-52z" />
<glyph unicode="&#x168;" horiz-adv-x="645" d="M191 223q0 -65 31.5 -92.5t99.5 -27.5q69 0 100.5 28t31.5 92v469h117v-469q0 -123 -59 -177.5t-190 -54.5q-130 0 -189 55t-59 177v469h117v-469zM477 933l25 -87q-6 -7 -16 -17.5t-37 -27.5t-49 -17q-27 0 -90 24t-77 24q-12 0 -32 -11t-34 -21l-14 -11l-25 87 q6 7 16.5 17.5t37.5 27.5t49 17q33 0 94 -23.5t72 -23.5t31 10.5t34 20.5z" />
<glyph unicode="&#x169;" horiz-adv-x="560" d="M368 499h114v-499h-114v25q-74 -36 -126 -36q-94 0 -131.5 58t-37.5 191v261h114v-260q0 -82 16 -116t62 -34q42 0 103 26v384zM425 740l25 -87q-6 -7 -15.5 -16.5t-36 -26t-48.5 -16.5q-27 0 -81 23t-68 23q-12 0 -31.5 -10t-33.5 -20l-13 -11l-25 86q6 7 16 17t37 26.5 t49 16.5q32 0 84 -22.5t63 -22.5t30.5 10t33.5 20z" />
<glyph unicode="&#x16a;" horiz-adv-x="645" d="M191 223q0 -65 31.5 -92.5t99.5 -27.5q69 0 100.5 28t31.5 92v469h117v-469q0 -123 -59 -177.5t-190 -54.5q-130 0 -189 55t-59 177v469h117v-469zM154 810v99h335v-99h-335z" />
<glyph unicode="&#x16b;" horiz-adv-x="560" d="M368 499h114v-499h-114v25q-74 -36 -126 -36q-94 0 -131.5 58t-37.5 191v261h114v-260q0 -82 16 -116t62 -34q42 0 103 26v384zM122 626v99h315v-99h-315z" />
<glyph unicode="&#x16c;" horiz-adv-x="645" d="M191 223q0 -65 31.5 -92.5t99.5 -27.5q69 0 100.5 28t31.5 92v469h117v-469q0 -123 -59 -177.5t-190 -54.5q-130 0 -189 55t-59 177v469h117v-469zM146 929h118q7 -49 58 -49q54 0 59 49h119q-6 -65 -51.5 -105t-126.5 -40q-80 0 -125 40t-51 105z" />
<glyph unicode="&#x16d;" horiz-adv-x="560" d="M368 499h114v-499h-114v25q-74 -36 -126 -36q-94 0 -131.5 58t-37.5 191v261h114v-260q0 -82 16 -116t62 -34q42 0 103 26v384zM97 743h118q6 -54 64 -54q60 0 65 54h118q-6 -71 -52.5 -113.5t-130.5 -42.5q-83 0 -129.5 42.5t-52.5 113.5z" />
<glyph unicode="&#x16e;" horiz-adv-x="645" d="M191 223q0 -65 31.5 -92.5t99.5 -27.5q69 0 100.5 28t31.5 92v469h117v-469q0 -123 -59 -177.5t-190 -54.5q-130 0 -189 55t-59 177v469h117v-469zM462 841q0 -55 -40 -87t-99 -32q-61 0 -100.5 32t-39.5 87q0 56 39.5 87.5t100.5 31.5q60 0 99.5 -31.5t39.5 -87.5z M272 841q0 -18 13.5 -28.5t37.5 -10.5q23 0 36.5 10.5t13.5 28.5t-13.5 28.5t-36.5 10.5q-24 0 -37.5 -10.5t-13.5 -28.5z" />
<glyph unicode="&#x16f;" horiz-adv-x="560" d="M368 499h114v-499h-114v25q-74 -36 -126 -36q-94 0 -131.5 58t-37.5 191v261h114v-260q0 -82 16 -116t62 -34q42 0 103 26v384zM168 640q0 47 32.5 80t80.5 33q47 0 80 -33t33 -80q0 -48 -32.5 -80t-80.5 -32t-80.5 32t-32.5 80zM245 640q0 -16 10.5 -26.5t26.5 -10.5 q15 0 25.5 10.5t10.5 26.5t-10.5 26.5t-25.5 10.5q-16 0 -26.5 -10.5t-10.5 -26.5z" />
<glyph unicode="&#x170;" horiz-adv-x="645" d="M191 223q0 -65 31.5 -92.5t99.5 -27.5q69 0 100.5 28t31.5 92v469h117v-469q0 -123 -59 -177.5t-190 -54.5q-130 0 -189 55t-59 177v469h117v-469zM352 786l92 175l103 -42l-100 -170zM139 787l92 175l104 -42l-101 -170z" />
<glyph unicode="&#x171;" horiz-adv-x="560" d="M368 499h114v-499h-114v25q-74 -36 -126 -36q-94 0 -131.5 58t-37.5 191v261h114v-260q0 -82 16 -116t62 -34q42 0 103 26v384zM307 627l126 173l91 -59l-133 -172zM107 627l126 172l91 -58l-133 -172z" />
<glyph unicode="&#x172;" horiz-adv-x="645" d="M430 -110l11 -92q-54 -11 -94 -11q-45 0 -74 25t-29 68q0 56 58 112q-119 4 -173.5 58.5t-54.5 172.5v469h117v-469q0 -65 31.5 -92.5t99.5 -27.5q69 0 100.5 28t31.5 92v469h117v-469q0 -97 -36.5 -151t-114.5 -72q-3 -1 -15.5 -14t-27 -34t-14.5 -36q0 -13 7 -21.5 t19 -8.5z" />
<glyph unicode="&#x173;" horiz-adv-x="560" d="M476 -110l11 -92q-54 -11 -94 -11q-45 0 -74 25t-29 68q0 30 18 60.5t33 44.5t27 23v17q-74 -36 -126 -36q-94 0 -131.5 58t-37.5 191v261h114v-260q0 -82 16 -116t62 -34q42 0 103 26v384h114v-499h-16q-12 -9 -34.5 -36t-22.5 -48q0 -13 7 -21.5t19 -8.5z" />
<glyph unicode="&#x174;" horiz-adv-x="927" d="M33 692h123l108 -586h20l113 576h133l115 -576h19l107 586h123l-140 -692h-191l-100 526l-98 -526h-191zM279 789l132 144h104l132 -144h-129l-54 53l-53 -53h-132z" />
<glyph unicode="&#x175;" horiz-adv-x="752" d="M18 499h113l73 -396h24l88 387h120l88 -387h24l73 396h113l-101 -499h-187l-71 334l-71 -334h-185zM201 584l129 164h92l130 -164h-123l-52 69l-53 -69h-123z" />
<glyph unicode="&#x176;" horiz-adv-x="565" d="M342 296v-296h-116v296l-208 396h131l134 -272l133 272h131zM98 789l132 144h104l132 -144h-129l-54 53l-53 -53h-132z" />
<glyph unicode="&#x177;" horiz-adv-x="484" d="M18 499h113l101 -389h19l102 389h113l-185 -712h-113l55 214h-76zM66 584l129 164h92l130 -164h-123l-52 69l-53 -69h-123z" />
<glyph unicode="&#x178;" horiz-adv-x="565" d="M342 296v-296h-116v296l-208 396h131l134 -272l133 272h131zM128 803v118h109v-118h-109zM345 803v118h109v-118h-109z" />
<glyph unicode="&#x179;" horiz-adv-x="570" d="M65 582v110h440v-117l-295 -449v-16h295v-110h-440v117l295 448v17h-295zM143 864l244 93l39 -108l-248 -80z" />
<glyph unicode="&#x17a;" horiz-adv-x="478" d="M58 398v102h361l1 -102l-228 -296h228v-102h-361l-1 102l228 296h-228zM100 674l244 93l39 -108l-248 -80z" />
<glyph unicode="&#x17b;" horiz-adv-x="570" d="M65 582v110h440v-117l-295 -449v-16h295v-110h-440v117l295 448v17h-295zM228 790v119h114v-119h-114z" />
<glyph unicode="&#x17c;" horiz-adv-x="478" d="M58 398v102h361l1 -102l-228 -296h228v-102h-361l-1 102l228 296h-228zM182 574v119h114v-119h-114z" />
<glyph unicode="&#x17d;" horiz-adv-x="570" d="M65 582v110h440v-117l-295 -449v-16h295v-110h-440v117l295 448v17h-295zM469 930l-132 -144h-103l-133 144h131l54 -56l53 56h130z" />
<glyph unicode="&#x17e;" horiz-adv-x="478" d="M58 398v102h361l1 -102l-228 -296h228v-102h-361l-1 102l228 296h-228zM186 584l-128 164h124l52 -68l52 68h123l-128 -164h-95z" />
<glyph unicode="&#x192;" d="M315 -66q0 -100 -43.5 -139.5t-129.5 -39.5l-78 11v89q50 -3 78 -3q59 0 59 82v439h-99v103h99v33q0 110 31.5 152t110.5 42q69 0 129 -12l-1 -93q-67 2 -99 2q-31 0 -44 -19.5t-13 -64.5v-40h150v-103h-150v-439z" />
<glyph unicode="&#x1fa;" horiz-adv-x="605" d="M443 729q0 -40 -22 -68l156 -661h-118l-38 138h-241l-34 -138h-118l157 660q-21 28 -21 69q0 56 39.5 87.5t100.5 31.5q60 0 99.5 -31.5t39.5 -87.5zM285 589l-81 -342h195l-78 342h-36zM153 962l244 93l39 -108l-248 -80zM253 729q0 -29 31 -37h39q31 8 31 37 q0 18 -13.5 28.5t-36.5 10.5q-24 0 -37.5 -10.5t-13.5 -28.5z" />
<glyph unicode="&#x1fb;" horiz-adv-x="526" d="M444 342v-206q2 -25 12.5 -35t33.5 -16l-7 -96q-87 0 -135 35q-70 -35 -146 -35q-66 0 -109.5 44t-43.5 116q0 140 164 152l117 10v32q0 63 -58 63q-40 0 -88.5 -2.5t-77.5 -5.5l-28 -2l-4 94q130 21 204 21q83 0 124.5 -39.5t41.5 -129.5zM121 708l244 93l39 -108 l-36 -12q8 -21 8 -41q0 -48 -32.5 -80t-80.5 -32q-45 0 -76 27.5t-36 71.5zM330 226l-104 -6q-30 -1 -46 -19.5t-16 -48.5t14.5 -48.5t39.5 -18.5l112 20v121zM300 640q0 8 -5 18l-68 -22q2 -14 12 -23.5t25 -9.5t25.5 10.5t10.5 26.5z" />
<glyph unicode="&#x1fc;" horiz-adv-x="817" d="M342 0v138h-173l-34 -138h-118l165 692h582v-109h-307v-188h247v-103h-247v-183h307v-109h-422zM273 584l-80 -337h149v337h-69zM267 864l244 93l39 -108l-248 -80z" />
<glyph unicode="&#x1fd;" horiz-adv-x="828" d="M566 89q32 0 77 2.5t74 4.5l29 2l2 -85q-95 -24 -191 -24q-106 0 -156 50l-26 -12q-85 -38 -163 -38q-67 0 -109 43t-42 117q0 77 42.5 111.5t125.5 41.5l115 9v32q0 30 -15 46.5t-43 16.5l-193 -13l-4 98q125 20 199 20q94 0 133 -52q49 52 139 52q103 0 154 -59 t51 -169l-8 -81h-298q2 -113 107 -113zM230 85q23 0 52.5 5t47 10t19.5 7q-6 51 -6 118l-105 -7q-29 -2 -45.5 -19t-16.5 -47q0 -31 15.5 -49t38.5 -18zM458 289h194q0 64 -21.5 95t-73.5 31t-75 -31.5t-24 -94.5zM282 674l244 93l39 -108l-248 -80z" />
<glyph unicode="&#x1fe;" horiz-adv-x="656" d="M171 864l244 93l39 -108l-248 -80zM323 97q86 0 119.5 56t33.5 188t-34.5 193t-118.5 61t-118.5 -61t-34.5 -193q0 -131 34 -187.5t119 -56.5zM323 -11q-148 0 -211 85.5t-63 266.5q0 182 63.5 272t210.5 90t210.5 -90t63.5 -272t-63 -267t-211 -85z" />
<glyph unicode="&#x1ff;" horiz-adv-x="529" d="M265 511q33 0 62 -6l40 102l71 -27l-43 -103q89 -60 89 -225q0 -124 -49.5 -193.5t-169.5 -69.5q-39 0 -67 7l-43 -105l-70 26l45 107q-85 60 -85 228q0 122 50.5 190.5t169.5 68.5zM123 674l244 93l39 -108l-248 -80zM265 88q61 0 82 41.5t21 122.5q0 76 -21 115 l-112 -276q13 -3 30 -3zM161 252q0 -83 19 -118l109 274q-12 3 -24 3q-59 0 -81.5 -40t-22.5 -119z" />
<glyph unicode="&#x218;" horiz-adv-x="531" d="M485 681l-4 -100q-137 14 -195 14q-118 0 -118 -85q0 -43 29.5 -65.5t115.5 -50.5q112 -38 151.5 -75t39.5 -120q0 -109 -55.5 -159.5t-175.5 -50.5q-41 0 -93.5 5.5t-85.5 11.5l-32 5l6 101q132 -15 195 -15q62 0 93.5 22.5t31.5 75.5q0 37 -29 57t-109 46 q-113 38 -155.5 81.5t-42.5 129.5q0 96 58.5 145.5t168.5 49.5q93 0 206 -23zM187 -302l45 225h111l-53 -225h-103z" />
<glyph unicode="&#x219;" horiz-adv-x="494" d="M424 488l-2 -93q-123 16 -175 16q-78 0 -78 -55q0 -22 19.5 -32t79.5 -21q96 -18 133.5 -50t37.5 -104q0 -160 -194 -160q-32 0 -78 5.5t-77 11.5l-30 6l4 93q119 -16 170 -16q49 0 70 13.5t21 43.5q0 23 -17 33.5t-74 21.5q-95 19 -137 49.5t-42 102.5q0 80 53.5 119 t130.5 39q32 0 78.5 -5.5t76.5 -11.5zM168 -302l45 225h111l-53 -225h-103z" />
<glyph unicode="&#x237;" horiz-adv-x="263" d="M78 6v493h114v-494q0 -101 -32.5 -148t-139.5 -99l-51 95q72 40 90.5 66t18.5 87z" />
<glyph unicode="&#x2c6;" horiz-adv-x="833" d="M233 584l129 164h92l130 -164h-123l-52 69l-53 -69h-123z" />
<glyph unicode="&#x2c7;" horiz-adv-x="833" d="M361 584l-128 164h124l52 -68l52 68h123l-128 -164h-95z" />
<glyph unicode="&#x2d8;" horiz-adv-x="478" d="M39 743h118q6 -54 64 -54q60 0 65 54h118q-6 -71 -52.5 -113.5t-130.5 -42.5q-83 0 -129.5 42.5t-52.5 113.5z" />
<glyph unicode="&#x2d9;" horiz-adv-x="257" d="M72 574v119h114v-119h-114z" />
<glyph unicode="&#x2da;" horiz-adv-x="833" d="M155 640q0 47 32.5 80t80.5 33q47 0 80 -33t33 -80q0 -48 -32.5 -80t-80.5 -32t-80.5 32t-32.5 80zM232 640q0 -16 10.5 -26.5t26.5 -10.5q15 0 25.5 10.5t10.5 26.5t-10.5 26.5t-25.5 10.5q-16 0 -26.5 -10.5t-10.5 -26.5z" />
<glyph unicode="&#x2db;" horiz-adv-x="466" d="M395 -110l11 -92q-54 -11 -94 -11q-45 0 -74 25t-29 68q0 65 73 124l8 6l96 -9q-58 -51 -58 -85q0 -13 7 -21.5t19 -8.5z" />
<glyph unicode="&#x2dc;" horiz-adv-x="462" d="M374 740l25 -87q-6 -7 -15.5 -16.5t-36 -26t-48.5 -16.5q-27 0 -81 23t-68 23q-12 0 -31.5 -10t-32.5 -20l-14 -11l-25 86q6 7 16 17t37 26.5t49 16.5q32 0 84 -22.5t63 -22.5t30.5 10t33.5 20z" />
<glyph unicode="&#x2dd;" horiz-adv-x="717" d="M334 627l126 173l91 -59l-133 -172zM134 627l126 172l91 -58l-133 -172z" />
<glyph unicode="&#x300;" horiz-adv-x="545" d="M140 766l244 -92l-33 -90l-247 81z" />
<glyph unicode="&#x301;" horiz-adv-x="833" d="M101 674l244 93l39 -108l-248 -80z" />
<glyph unicode="&#x302;" horiz-adv-x="833" d="M233 584l129 164h92l130 -164h-123l-52 69l-53 -69h-123z" />
<glyph unicode="&#x303;" horiz-adv-x="761" d="M374 740l25 -87q-6 -7 -15.5 -16.5t-36 -26t-48.5 -16.5q-27 0 -81 23t-68 23q-12 0 -31.5 -10t-32.5 -20l-14 -11l-25 86q6 7 16 17t37 26.5t49 16.5q32 0 84 -22.5t63 -22.5t30.5 10t33.5 20z" />
<glyph unicode="&#x304;" horiz-adv-x="478" d="M76 626v99h315v-99h-315z" />
<glyph unicode="&#x306;" horiz-adv-x="478" d="M39 743h118q6 -54 64 -54q60 0 65 54h118q-6 -71 -52.5 -113.5t-130.5 -42.5q-83 0 -129.5 42.5t-52.5 113.5z" />
<glyph unicode="&#x307;" horiz-adv-x="257" d="M72 574v119h114v-119h-114z" />
<glyph unicode="&#x308;" horiz-adv-x="833" d="M76 612v118h109v-118h-109zM287 612v118h109v-118h-109z" />
<glyph unicode="&#x30a;" horiz-adv-x="833" d="M155 640q0 47 32.5 80t80.5 33q47 0 80 -33t33 -80q0 -48 -32.5 -80t-80.5 -32t-80.5 32t-32.5 80zM232 640q0 -16 10.5 -26.5t26.5 -10.5q15 0 25.5 10.5t10.5 26.5t-10.5 26.5t-25.5 10.5q-16 0 -26.5 -10.5t-10.5 -26.5z" />
<glyph unicode="&#x30b;" horiz-adv-x="717" d="M334 627l126 173l91 -59l-133 -172zM134 627l126 172l91 -58l-133 -172z" />
<glyph unicode="&#x30c;" horiz-adv-x="833" d="M361 584l-128 164h124l52 -68l52 68h123l-128 -164h-95z" />
<glyph unicode="&#x312;" horiz-adv-x="170" d="M160 810l-44 -225h-112l54 225h102z" />
<glyph unicode="&#x315;" horiz-adv-x="167" d="M134 692v-251h-110v251h110z" />
<glyph unicode="&#x326;" horiz-adv-x="170" d="M4 -302l45 225h111l-53 -225h-103z" />
<glyph unicode="&#x327;" horiz-adv-x="745" d="M521 -127q0 -48 -28 -73t-77 -25q-19 0 -42 2.5t-36 4.5l-13 3l4 68q34 -2 54 -2q40 0 40 30q0 26 -40 26h-30v94h49v-42q64 -1 91.5 -18.5t27.5 -67.5z" />
<glyph unicode="&#x328;" horiz-adv-x="466" d="M395 -110l11 -92q-54 -11 -94 -11q-45 0 -74 25t-29 68q0 65 73 124l8 6l96 -9q-58 -51 -58 -85q0 -13 7 -21.5t19 -8.5z" />
<glyph unicode="&#x394;" d="M33 96l136 588h195l135 -589v-95h-466v96zM277 578h-20l-105 -472h229z" />
<glyph unicode="&#x2206;" d="M33 96l136 588h195l135 -589v-95h-466v96zM277 578h-20l-105 -472h229z" />
<glyph unicode="&#x3a9;" d="M35 93h86q-4 5 -9.5 14.5t-20.5 39.5t-26.5 61t-21 75.5t-9.5 86.5q0 160 51.5 230t179.5 70t179.5 -70t51.5 -230q0 -132 -78 -262l-9 -15h86v-102h-204v92q10 16 24.5 42.5t38.5 98t24 128.5q0 112 -22.5 161t-90.5 49q-72 0 -92.5 -47.5t-20.5 -162.5q0 -57 22 -124.5 t44 -105.5l21 -39v-92h-204v102z" />
<glyph unicode="&#x2126;" d="M35 93h86q-4 5 -9.5 14.5t-20.5 39.5t-26.5 61t-21 75.5t-9.5 86.5q0 160 51.5 230t179.5 70t179.5 -70t51.5 -230q0 -132 -78 -262l-9 -15h86v-102h-204v92q10 16 24.5 42.5t38.5 98t24 128.5q0 112 -22.5 161t-90.5 49q-72 0 -92.5 -47.5t-20.5 -162.5q0 -57 22 -124.5 t44 -105.5l21 -39v-92h-204v102z" />
<glyph unicode="&#x3c0;" d="M319 154v245h-108l-27 -399h-115l27 399q-21 -1 -44 -4.5t-36 -6.5l-12 -2v101q25 5 62.5 8t62.5 4l25 1h216q95 0 144 16v-101q-26 -12 -80 -15v-246q0 -36 15 -49.5t60 -13.5v-99q-83 0 -123.5 15.5t-53.5 48t-13 98.5z" />
<glyph unicode="&#x1e80;" horiz-adv-x="927" d="M33 692h123l108 -586h20l113 576h133l115 -576h19l107 586h123l-140 -692h-191l-100 526l-98 -526h-191zM359 948l244 -92l-35 -96l-248 81z" />
<glyph unicode="&#x1e81;" horiz-adv-x="752" d="M18 499h113l73 -396h24l88 387h120l88 -387h24l73 396h113l-101 -499h-187l-71 334l-71 -334h-185zM273 766l244 -92l-33 -90l-247 81z" />
<glyph unicode="&#x1e82;" horiz-adv-x="927" d="M33 692h123l108 -586h20l113 576h133l115 -576h19l107 586h123l-140 -692h-191l-100 526l-98 -526h-191zM324 864l244 93l39 -108l-248 -80z" />
<glyph unicode="&#x1e83;" horiz-adv-x="752" d="M18 499h113l73 -396h24l88 387h120l88 -387h24l73 396h113l-101 -499h-187l-71 334l-71 -334h-185zM234 674l244 93l39 -108l-248 -80z" />
<glyph unicode="&#x1e84;" horiz-adv-x="927" d="M33 692h123l108 -586h20l113 576h133l115 -576h19l107 586h123l-140 -692h-191l-100 526l-98 -526h-191zM300 803v118h109v-118h-109zM517 803v118h109v-118h-109z" />
<glyph unicode="&#x1e85;" horiz-adv-x="752" d="M18 499h113l73 -396h24l88 387h120l88 -387h24l73 396h113l-101 -499h-187l-71 334l-71 -334h-185zM216 612v118h109v-118h-109zM427 612v118h109v-118h-109z" />
<glyph unicode="&#x1eab;" d="M444 342v-206q2 -25 12.5 -35t33.5 -16l-7 -96q-87 0 -135 35q-70 -35 -146 -35q-66 0 -109.5 44t-43.5 116q0 140 164 152l117 10v32q0 63 -58 63q-40 0 -88.5 -2.5t-77.5 -5.5l-28 -2l-4 94q130 21 204 21q83 0 124.5 -39.5t41.5 -129.5zM330 226l-104 -6 q-30 -1 -46 -19.5t-16 -48.5t14.5 -48.5t39.5 -18.5l112 20v121zM84 554l129 164h92l130 -164h-123l-52 69l-53 -69h-123zM408 888l25 -87q-6 -7 -15.5 -16.5t-36 -26t-48.5 -16.5q-27 0 -81 23t-68 23q-12 0 -31.5 -10t-32.5 -20l-14 -11l-25 86q6 7 16 17t37 26.5t49 16.5 q32 0 84 -22.5t63 -22.5t30.5 10t33.5 20z" />
<glyph unicode="&#x1eb0;" horiz-adv-x="605" d="M28 0l165 692h221l163 -692h-118l-38 138h-241l-34 -138h-118zM285 589l-81 -342h195l-78 342h-36zM126 891h118q7 -49 58 -49q54 0 59 49h119q-6 -65 -51.5 -105t-126.5 -40q-80 0 -125 40t-51 105zM200 1121l244 -92l-33 -90l-247 81z" />
<glyph unicode="&#x1ec5;" horiz-adv-x="507" d="M267 89q32 0 76.5 2.5t73.5 4.5l29 2l2 -85q-94 -24 -190 -24q-113 0 -163 63.5t-50 191.5q0 127 54.5 197t157.5 70t155.5 -59t52.5 -169l-8 -81h-297q2 -113 107 -113zM159 289h193q0 64 -22 95t-73 31q-96 0 -98 -126zM80 554l129 164h92l130 -164h-123l-52 69 l-53 -69h-123zM404 888l25 -87q-6 -7 -15.5 -16.5t-36 -26t-48.5 -16.5q-27 0 -81 23t-68 23q-12 0 -31.5 -10t-32.5 -20l-14 -11l-25 86q6 7 16 17t37 26.5t49 16.5q32 0 84 -22.5t63 -22.5t30.5 10t33.5 20z" />
<glyph unicode="&#x1ed7;" horiz-adv-x="531" d="M265 511q219 0 219 -259q0 -124 -49.5 -193.5t-169.5 -69.5q-121 0 -170.5 69t-49.5 194q0 122 50.5 190.5t169.5 68.5zM265 88q61 0 82 41.5t21 122.5q0 77 -23 118t-80 41q-59 0 -81.5 -40t-22.5 -119q0 -82 21.5 -123t82.5 -41zM84 554l129 164h92l130 -164h-123 l-52 69l-53 -69h-123zM408 888l25 -87q-6 -7 -15.5 -16.5t-36 -26t-48.5 -16.5q-27 0 -81 23t-68 23q-12 0 -31.5 -10t-32.5 -20l-14 -11l-25 86q6 7 16 17t37 26.5t49 16.5q32 0 84 -22.5t63 -22.5t30.5 10t33.5 20z" />
<glyph unicode="&#x1ef2;" horiz-adv-x="565" d="M342 296v-296h-116v296l-208 396h131l134 -272l133 272h131zM180 948l244 -92l-35 -96l-248 81z" />
<glyph unicode="&#x1ef3;" horiz-adv-x="484" d="M18 499h113l101 -389h19l102 389h113l-185 -712h-113l55 214h-76zM139 766l244 -92l-33 -90l-247 81z" />
<glyph unicode="&#x1ef8;" horiz-adv-x="565" d="M342 296v-296h-116v296l-208 396h131l134 -272l133 272h131zM434 933l25 -87q-6 -7 -15.5 -16.5t-36 -26t-48.5 -16.5q-27 0 -81 23t-68 23q-12 0 -31.5 -10.5t-32.5 -20.5l-14 -10l-25 86q6 7 16 17t37 26.5t49 16.5q32 0 84 -22.5t63 -22.5t30.5 10t33.5 20z" />
<glyph unicode="&#x1ef9;" horiz-adv-x="484" d="M18 499h113l101 -389h19l102 389h113l-185 -712h-113l55 214h-76zM393 740l25 -87q-6 -7 -15.5 -16.5t-36 -26t-48.5 -16.5q-27 0 -81 23t-68 23q-12 0 -31.5 -10t-33.5 -20l-13 -11l-25 86q6 7 16 17t37 26.5t49 16.5q32 0 84 -22.5t63 -22.5t30.5 10t33.5 20z" />
<glyph unicode="&#x2013;" horiz-adv-x="500" d="M0 325h500v-104h-500v104z" />
<glyph unicode="&#x2014;" horiz-adv-x="1000" d="M0 325h1000v-104h-1000v104z" />
<glyph unicode="&#x2018;" horiz-adv-x="213" d="M188 745l-48 -237h-117l56 237h109z" />
<glyph unicode="&#x2019;" horiz-adv-x="213" d="M25 508l48 237h117l-56 -237h-109z" />
<glyph unicode="&#x201a;" horiz-adv-x="213" d="M25 -86l48 237h117l-56 -237h-109z" />
<glyph unicode="&#x201c;" horiz-adv-x="444" d="M208 636l-48 -237h-117l56 237h109zM397 636l-48 -237h-117l56 237h109z" />
<glyph unicode="&#x201d;" horiz-adv-x="432" d="M42 508l48 237h117l-56 -237h-109zM231 508l48 237h117l-56 -237h-109z" />
<glyph unicode="&#x201e;" horiz-adv-x="432" d="M42 -86l48 237h117l-56 -237h-109zM231 -86l48 237h117l-56 -237h-109z" />
<glyph unicode="&#x2020;" d="M55 385v112h154v178h112v-178h154v-112h-154v-458h-112v458h-154z" />
<glyph unicode="&#x2021;" d="M209 -73v178h-154v112h154v168h-154v112h154v178h112v-178h153v-112h-153v-168h154v-112h-154v-178h-112z" />
<glyph unicode="&#x2022;" d="M144 102v282h242v-282h-242z" />
<glyph unicode="&#x2026;" horiz-adv-x="744" d="M65 0v149h123v-149h-123zM319 0v149h124v-149h-124zM574 0v149h123v-149h-123z" />
<glyph unicode="&#x2030;" horiz-adv-x="833" d="M127 631q-18 0 -24.5 -17t-6.5 -56t7 -56.5t24 -17.5t24 17.5t7 56.5t-6.5 56t-24.5 17zM140 0l191 716l75 -20l-191 -715zM10 558q0 143 117 143t117 -143q0 -144 -117 -144t-117 144zM300 145q0 142 116 142q117 0 117 -143q0 -71 -30.5 -107.5t-86.5 -36.5t-86 36.5 t-30 108.5zM385 145q0 -40 7 -57.5t24 -17.5q18 0 25 17.5t7 56.5t-7 56t-25 17t-24.5 -16.5t-6.5 -55.5zM557 145q0 142 117 142q116 0 116 -143q0 -71 -30 -107.5t-86 -36.5t-86.5 36.5t-30.5 108.5zM642 145q0 -40 7 -57.5t25 -17.5q17 0 24 17.5t7 56.5t-6.5 56 t-24.5 17t-25 -16.5t-7 -55.5z" />
<glyph unicode="&#x2039;" horiz-adv-x="541" d="M273 327l-114 -81l114 -92v-116l-212 164v84l212 157v-116z" />
<glyph unicode="&#x203a;" horiz-adv-x="541" d="M174 254l-114 81v116l212 -157v-84l-212 -164v116z" />
<glyph unicode="&#x2070;" horiz-adv-x="265" d="M134 801q64 0 95 -38t31 -130t-31 -129t-95 -37t-95 37t-31 129t31 130t95 38zM134 718q-17 0 -23.5 -17t-6.5 -68t7 -67t23 -16q17 0 23.5 16t6.5 67t-6.5 68t-23.5 17z" />
<glyph unicode="&#x2074;" horiz-adv-x="265" d="M146 478v39h-134v77l49 196h102l-59 -190h42l12 90h80v-90h16v-83h-16v-39h-92z" />
<glyph unicode="&#x2075;" horiz-adv-x="265" d="M40 790h200v-79h-127l-4 -40q27 9 48 9q94 0 94 -99q0 -110 -115 -110q-22 0 -50.5 3.5t-45.5 6.5l-18 3l7 75q55 -9 94 -9q32 0 32 26t-23 26l-34 -8l-69 9z" />
<glyph unicode="&#x2076;" horiz-adv-x="265" d="M245 789l-5 -76q-61 6 -91 6q-42 0 -42 -41l7 2q7 1 18.5 3.5t19.5 2.5q103 0 103 -105q0 -53 -32.5 -83.5t-83.5 -30.5q-126 0 -126 158q0 89 30.5 132.5t102.5 43.5q16 0 40.5 -3t41.5 -6zM136 610q-8 0 -15 -3t-11 -5l-3 -3q0 -51 28 -51q27 0 27 32q0 30 -26 30z" />
<glyph unicode="&#x2077;" horiz-adv-x="265" d="M23 699v91h220v-93l-98 -229l-104 17l95 199v15h-113z" />
<glyph unicode="&#x2078;" horiz-adv-x="265" d="M133 801q121 0 121 -89q0 -29 -11.5 -49t-21.5 -23q6 -1 13.5 -7.5t15.5 -23t8 -39.5q0 -56 -31.5 -79.5t-93.5 -23.5t-93.5 23.5t-31.5 78.5q0 30 13.5 49t24.5 23q-10 4 -21.5 22t-11.5 50q0 88 120 88zM133 542q30 0 30 30q0 21 -21 32h-18q-21 -11 -21 -33 q0 -29 30 -29zM133 726q-29 0 -29 -25q0 -19 20 -31h18q19 11 19 31q0 25 -28 25z" />
<glyph unicode="&#x2079;" horiz-adv-x="265" d="M23 481l6 75q47 -6 85 -6q43 0 43 39l-7 -1q-6 -1 -16.5 -3t-19.5 -2q-102 0 -102 104q0 54 31.5 84t84.5 30q127 0 127 -166q0 -87 -30 -127.5t-99 -40.5q-20 0 -46 3.5t-42 7.5zM131 655l30 9q0 55 -29 55q-27 0 -27 -32q0 -14 7.5 -23t18.5 -9z" />
<glyph unicode="&#x2080;" horiz-adv-x="265" d="M134 323q64 0 95 -38t31 -130t-31 -129t-95 -37t-95 37t-31 129t31 130t95 38zM134 240q-17 0 -23.5 -17t-6.5 -68t7 -67t23 -16q17 0 23.5 16t6.5 67t-6.5 68t-23.5 17z" />
<glyph unicode="&#x2081;" horiz-adv-x="265" d="M21 239l104 73h84v-312h-92v211l-54 -37z" />
<glyph unicode="&#x2082;" horiz-adv-x="265" d="M241 0h-224v79l78 68q47 40 47 65q0 22 -41 22l-78 -7l-4 86q69 10 113 10q58 0 82.5 -22.5t24.5 -74.5q0 -33 -13.5 -56.5t-44.5 -48.5l-45 -38h105v-83z" />
<glyph unicode="&#x2083;" horiz-adv-x="265" d="M26 313q65 10 106 10q116 0 116 -88q0 -51 -33 -71q39 -16 39 -74q0 -50 -30 -75.5t-84 -25.5q-22 0 -51.5 2.5t-48.5 4.5l-18 2l5 81q60 -7 96 -7t36 25q0 23 -33 23h-66v75h65q11 0 18.5 6.5t7.5 17.5q0 21 -33 21l-87 -6z" />
<glyph unicode="&#x2084;" horiz-adv-x="265" d="M146 0v39h-134v77l49 196h102l-59 -190h42l12 90h80v-90h16v-83h-16v-39h-92z" />
<glyph unicode="&#x2085;" horiz-adv-x="265" d="M40 312h200v-79h-127l-4 -40q27 9 48 9q94 0 94 -99q0 -110 -115 -110q-22 0 -50.5 3.5t-45.5 6.5l-18 3l7 75q55 -9 94 -9q32 0 32 26t-23 26l-34 -8l-69 9z" />
<glyph unicode="&#x2086;" horiz-adv-x="265" d="M245 311l-5 -76q-61 6 -91 6q-42 0 -42 -41l7 2q7 1 18.5 3.5t19.5 2.5q103 0 103 -105q0 -53 -32.5 -83.5t-83.5 -30.5q-126 0 -126 158q0 89 30.5 132.5t102.5 43.5q16 0 40.5 -3t41.5 -6zM136 132q-8 0 -15 -3t-11 -5l-3 -3q0 -51 28 -51q27 0 27 32q0 30 -26 30z" />
<glyph unicode="&#x2087;" horiz-adv-x="265" d="M23 221v91h220v-93l-98 -229l-104 17l95 199v15h-113z" />
<glyph unicode="&#x2088;" horiz-adv-x="265" d="M133 323q121 0 121 -89q0 -29 -11.5 -49t-21.5 -23q6 -1 13.5 -7.5t15.5 -23t8 -39.5q0 -56 -31.5 -79.5t-93.5 -23.5t-93.5 23.5t-31.5 78.5q0 30 13.5 49t24.5 23q-10 4 -21.5 22t-11.5 50q0 88 120 88zM133 64q30 0 30 30q0 21 -21 32h-18q-21 -11 -21 -33 q0 -29 30 -29zM133 248q-29 0 -29 -25q0 -19 20 -31h18q19 11 19 31q0 25 -28 25z" />
<glyph unicode="&#x2089;" horiz-adv-x="265" d="M23 3l6 75q47 -6 85 -6q43 0 43 39l-7 -1q-6 -1 -16.5 -3t-19.5 -2q-102 0 -102 104q0 54 31.5 84t84.5 30q127 0 127 -166q0 -87 -30 -127.5t-99 -40.5q-20 0 -46 3.5t-42 7.5zM131 177l30 9q0 55 -29 55q-27 0 -27 -32q0 -14 7.5 -23t18.5 -9z" />
<glyph unicode="&#x20ac;" horiz-adv-x="580" d="M55 453h61q14 118 70 169t174 51q39 0 83.5 -4.5t69.5 -9.5l25 -5l-7 -97q-96 10 -155 10q-70 0 -100.5 -27t-36.5 -88h229v-89h-237q0 -1 -0.5 -14.5t-0.5 -19.5v-23l1 -15h237v-90h-228q5 -55 36.5 -80.5t102.5 -25.5l154 8l4 -97q-98 -17 -177 -17q-119 0 -174.5 50 t-69.5 162h-61v90h55l-1 15q-1 15 -1 23q0 6 1 19.5t1 14.5h-55v90z" />
<glyph unicode="&#x2122;" d="M7 570v69h200v-69h-49v-238h-77v238h-74zM234 331v308h92l50 -174l53 174h92v-308h-72v191l-45 -172h-51l-47 172v-191h-72z" />
<glyph unicode="&#x2202;" d="M114 551l-12 103q79 18 161 18q122 0 181 -77.5t59 -255.5q0 -170 -68 -259t-194 -89q-104 0 -158.5 58t-54.5 155q0 101 61.5 155.5t158.5 54.5q22 0 44 -5t38 -12t29 -14.5t19 -12.5l7 -4q0 99 -29 147.5t-93 48.5zM257 314q-53 0 -82 -28.5t-29 -81.5q0 -106 101 -106 q60 0 92 46.5t38 124.5q-6 5 -16.5 12.5t-42 20t-61.5 12.5z" />
<glyph unicode="&#x220f;" d="M27 660h477v-116h-47v-633h-118v633h-148v-633h-118v633h-46v116z" />
<glyph unicode="&#x2211;" d="M474 -89h-416v140l161 235l-161 233v140h416v-116h-278v-23l169 -234l-169 -236v-23h278v-116z" />
<glyph unicode="&#x2212;" d="M38 225v114h452v-114h-452z" />
<glyph unicode="&#x221a;" d="M8 332l159 45l91 -355h17l132 758h123l-166 -864h-187l-94 338l-48 -15z" />
<glyph unicode="&#x221e;" horiz-adv-x="534" d="M161 121q-134 0 -134 170q0 172 132 172q39 0 63 -15.5t44 -51.5q20 36 44.5 51.5t63.5 15.5q65 0 99 -43.5t34 -127.5q0 -171 -135 -171q-38 0 -61.5 15t-43.5 51q-19 -37 -43 -51.5t-63 -14.5zM224 292q-2 5 -6.5 14t-6 13t-5.5 10.5t-6 9.5t-6 7t-7.5 5.5t-8 3 t-10.5 1.5q-36 0 -36 -65q0 -63 36 -63q7 0 13.5 2.5t10 5.5t8.5 10.5t7.5 12t8 16zM310 292l10 -20.5t9.5 -19t8.5 -12t12 -10t15 -2.5q36 0 36 63q0 65 -36 65q-6 0 -11 -1t-9.5 -4.5t-7.5 -6.5t-7 -10t-6 -11.5l-6.5 -14.5t-7.5 -16z" />
<glyph unicode="&#x222b;" d="M447 758q-54 5 -74 5q-40 0 -53.5 -18.5t-13.5 -63.5l30 -726q0 -104 -33.5 -145.5t-128.5 -41.5l-96 10l1 100q54 -4 75 -4q37 0 52 19t15 62l-30 726q0 109 32.5 148.5t129.5 39.5l97 -10z" />
<glyph unicode="&#x2248;" d="M462 462l8 -107l-15.5 -15t-39.5 -23.5t-58 -14.5q-29 0 -96 23t-85 23q-20 0 -47 -10.5t-43 -21.5l-17 -10l-9 107q6 6 17 15t43 24t62 15q27 0 92 -23t88 -23q17 0 42 10.5t42 20.5zM462 252l8 -107l-15.5 -15t-39.5 -23.5t-58 -14.5q-29 0 -96 23t-85 23 q-20 0 -47 -10.5t-43 -21.5l-17 -10l-9 107q6 6 17 15t43 24t62 15q27 0 92 -23t88 -23q17 0 42 10.5t42 20.5z" />
<glyph unicode="&#x2260;" d="M55 317v112h223l65 147l89 -37l-49 -110h96v-112h-144l-41 -92h185v-111h-234l-65 -147l-88 37l48 110h-85v111h133l41 92h-174z" />
<glyph unicode="&#x2264;" d="M452 424l-271 -70l271 -73v-121l-383 117v151l383 115v-119zM69 13v113h383v-113h-383z" />
<glyph unicode="&#x2265;" d="M357 354l-279 70v119l391 -115v-151l-391 -117v121zM78 13v113h391v-113h-391z" />
<glyph unicode="&#x25ca;" d="M493 333l-160 -333h-120l-165 333l164 327h120zM371 333l-98 217l-103 -217l103 -221z" />
<glyph unicode="&#xe000;" horiz-adv-x="500" d="M0 500h500v-500h-500v500z" />
<glyph horiz-adv-x="235" />
<glyph d="M452 651l-4 -33q-72 18 -156 18q-102 0 -155 -66t-53 -218q0 2 28 15.5t76 28t87 14.5q209 0 209 -202q0 -217 -214 -217q-115 0 -169.5 87t-54.5 259q0 180 63.5 256.5t182.5 76.5zM273 376q-88 -3 -188 -58l-2 -1q2 -146 46 -219t141 -73q95 0 135.5 45t40.5 138 q0 81 -39 124.5t-134 43.5z" />
<glyph d="M74 12l6 32q82 -19 166 -19q101 0 151 67.5t50 221.5q0 -2 -28 -15.5t-76 -28t-87 -14.5q-106 0 -157.5 53t-51.5 144q0 103 55 160t163 57q113 0 166 -86.5t53 -259.5q0 -181 -60 -257t-178 -76q-37 0 -80 5.5t-68 10.5zM258 290q88 3 188 58l2 1q-5 287 -183 287 q-180 0 -180 -183q0 -74 42 -118.5t131 -44.5z" />
<glyph horiz-adv-x="0" />
<glyph horiz-adv-x="944" d="M328 -9q-80 0 -133 22t-82.5 69.5t-41 110t-11.5 154.5q0 184 58 273t210 89q108 0 147 -9h409v-36h-373v-286h313v-36h-313v-306h373v-36h-407v-1q-35 -8 -149 -8zM328 25q106 0 147 9v629q-39 12 -147 12q-70 0 -116 -21t-70.5 -65.5t-34 -101t-9.5 -140.5 q0 -85 9 -140t33.5 -98.5t70.5 -63.5t117 -20zM476 663h-1l1 -332v332z" />
<glyph horiz-adv-x="700" d="M303 694q78 0 115.5 -39t37.5 -106q0 -72 -38 -112.5t-127 -69.5l187 -185q20 58 31 146h35q-14 -108 -39 -172l140 -137l-24 -26l-131 130q-66 -132 -222 -132q-126 0 -178 55t-52 162q0 89 38 132.5t125 68.5q-32 35 -41.5 65t-9.5 76q0 65 39 104.5t114 39.5zM270 24 q137 0 194 124l-237 235q-86 -23 -120 -60t-34 -114q0 -93 46 -139t151 -46zM185 550q0 -78 45 -123l36 -36q87 30 121 63t34 96q0 112 -118 112t-118 -112z" />
<glyph horiz-adv-x="570" d="M463 668v-32q-87 12 -120 12q-54 0 -78 -30.5t-24 -116.5v-95h182v-32h-182v-340h174l82 16l7 -32l-81 -17l-309 -1v34h92v340h-69v32h69v95q0 104 32.5 141.5t104.5 37.5z" />
<glyph horiz-adv-x="593" d="M68 427h64q10 128 64 189t182 61q95 0 175 -19l-3 -35q-91 20 -172 20q-111 0 -155.5 -52t-52.5 -164l311 -1v-33h-313q-1 -20 -1 -62q0 -36 1 -52l313 -1v-33h-312q8 -115 52.5 -167.5t156.5 -52.5l172 20l3 -34q-96 -20 -175 -20q-128 0 -182.5 61t-63.5 193h-64v34h62 q-1 16 -1 52q0 42 1 62h-62v34z" />
<glyph horiz-adv-x="833" d="M582 14l-35 -14l-301 687l35 14z" />
<glyph horiz-adv-x="520" d="M27 -34h428v-34h-428v34z" />
<glyph horiz-adv-x="615" d="M358 257h-219v-257h-36v700h255q106 0 156.5 -50t50.5 -161q0 -112 -47 -172t-160 -60zM139 291h219q169 0 169 198q0 92 -41.5 134.5t-127.5 42.5h-219v-375z" />
<glyph d="M3 334v36h336v-36h-336zM151 483v80h40v-80h-40zM151 139v80h40v-80h-40z" />
<glyph horiz-adv-x="410" d="M-49 234v34h232v232h36v-232h234v-34h-234v-234h-36v234h-232z" />
<glyph horiz-adv-x="440" d="M60 264v34h320v-34h-320z" />
<glyph d="M410 520l-315 -206l315 -217v-41q-313 213 -347 238v36l347 229v-39z" />
<glyph d="M1 343v34h505v-34h-505zM2 174v34h505v-34h-505z" />
<glyph d="M378 314l-315 206v39l347 -229v-36l-347 -238v41z" />
<glyph d="M46 12l277 690l33 -14l-277 -689z" />
<glyph horiz-adv-x="876" d="M618 23l182 9l2 -32q-112 -9 -185 -9q-131 1 -169 107q-18 -56 -61 -81.5t-122 -25.5q-122 0 -163.5 58t-41.5 212q0 138 46.5 193t158.5 55q146 0 184 -120q44 120 182 120q95 0 142.5 -57t47.5 -183v-33h-355q0 -108 34 -160.5t118 -52.5zM265 23q54 0 87.5 13.5t50 46 t21.5 71.5t5 105q0 118 -39.5 168t-124.5 50q-97 0 -132.5 -45.5t-35.5 -170.5q0 -70 5.5 -110.5t23.5 -72t51 -43.5t88 -12zM466 268h318q0 113 -36.5 161t-116.5 48q-165 0 -165 -209z" />
<glyph horiz-adv-x="898" d="M429 0v215h-276l-78 -215h-40l251 700h552v-34h-373v-288h313v-34h-313v-310h373v-34h-409zM314 666l-149 -417h264v417h-115z" />
<glyph horiz-adv-x="656" d="M89 -98l60 129q-57 38 -80 115t-23 201q0 184 58 273t210 89q82 0 140 -28l52 111l33 -14l-55 -116q54 -42 76 -119t22 -196q0 -191 -56.5 -273.5t-211.5 -82.5q-79 0 -134 23l-58 -125zM84 347q0 -112 17.5 -180t63.5 -103l273 584q-48 27 -124 27q-70 0 -116 -21 t-70.5 -65.5t-34 -101t-9.5 -140.5zM314 25q72 0 117.5 18.5t70 61t33.5 98.5t9 144q0 210 -76 280l-273 -581q47 -21 119 -21z" />
<glyph horiz-adv-x="833" d="M249 0h-36v532q0 104 31.5 141t121.5 37q103 0 146.5 -32t43.5 -103q0 -43 -15 -65t-49 -35l-17 -6.5l-14 -5.5l-11.5 -4.5t-9.5 -4t-6.5 -4t-5 -4t-3 -4.5t-2 -5.5t-0.5 -6.5q0 -10 11 -18.5t73 -45.5l33 -19.5l28.5 -17.5l22.5 -14t19 -13t13.5 -12t10.5 -12.5t5 -12 t2 -14.5q0 -71 -9 -116t-34.5 -79.5t-72.5 -49.5t-122 -15l-78 4l4 34q57 -4 74 -4q67 0 108 13t61 45t25.5 68t5.5 100q0 12 -26.5 31t-94.5 58q-67 38 -82 52t-15 38q0 15 3 24.5t12 16.5t15.5 10.5t25.5 10.5t31 12q32 14 39 25t7 46q0 56 -34.5 78.5t-117.5 22.5 q-72 0 -94.5 -29.5t-22.5 -127.5v-519z" />
<glyph horiz-adv-x="828" d="M570 23l182 9l2 -32q-112 -9 -185 -9q-99 1 -143 58l-38 -16q-93 -42 -206 -42q-127 0 -127 146q0 70 31 101t107 43l190 20v52q0 122 -111 122l-188 -9l-2 33q110 10 190 10q115 0 139 -96q49 96 172 96q95 0 142.5 -57t47.5 -183v-33h-355q0 -108 34 -160.5t118 -52.5z M183 23q42 0 97 12t84.5 22t46.5 17q-30 59 -30 176v18l-184 -18q-55 -5 -80 -32t-25 -81q0 -55 24 -84.5t67 -29.5zM418 268h318q0 113 -36.5 161t-116.5 48q-165 0 -165 -209z" />
<glyph d="M262 511q52 0 92 -12t75 -40t53.5 -82t18.5 -132q0 -70 -20.5 -121.5t-55.5 -80t-75 -41.5t-87 -13q-44 0 -84 13t-76 41t-57 80t-21 122q0 73 20 127t55 83t75 42.5t87 13.5zM264 403q-113 0 -113 -157q0 -149 113 -149q58 0 84.5 36.5t26.5 111.5q0 158 -111 158z" />
<glyph d="M67 368l210 132h109v-500h-117v364l-148 -90z" />
<glyph d="M478 0h-403v105l112 95q85 71 111.5 98.5t26.5 49.5q0 28 -18.5 39.5t-69.5 11.5q-30 0 -68 -4t-62 -7.5t-24 -4.5l-7 103q100 25 189 25q100 0 146 -35.5t46 -119.5q0 -49 -26 -82.5t-82 -75.5l-115 -88h244v-110z" />
<glyph d="M95 486q106 24 185 24q107 0 156.5 -30.5t49.5 -108.5q0 -38 -25 -66.5t-55 -35.5q41 -11 66.5 -41t25.5 -73q0 -89 -51.5 -127.5t-154.5 -38.5l-204 22l11 100q112 -13 181 -13q101 0 101 55q0 27 -23.5 37.5t-68.5 11.5h-129v102h129q38 1 58.5 11t20.5 39 q0 27 -21 36.5t-67 9.5q-34 0 -77.5 -3t-70.5 -7l-26 -3z" />
<glyph d="M301 -10v78h-269v89l160 342h127l-152 -327h134v136h117v-136h61v-104h-61v-78h-117z" />
<glyph d="M95 499h374v-112h-275l-14 -88q55 23 105 23q205 0 205 -159q0 -80 -57.5 -127t-155.5 -47q-41 0 -94.5 7.5t-86.5 15.5l-34 7l13 95q126 -23 198 -23q43 0 71 16.5t28 49.5q0 63 -101 63l-107 -20l-89 19z" />
<glyph d="M465 491l-10 -103q-87 15 -163 15q-69 0 -99 -25.5t-31 -90.5q0 1 16 8t47 14.5t61 7.5q102 0 152 -39t50 -121q0 -77 -57 -123t-160 -46q-226 0 -226 246q0 277 247 277q33 0 76 -5t70 -10zM276 223q-28 0 -56.5 -7t-43.5 -14l-14 -7q0 -50 28.5 -79t80.5 -29 q100 0 100 70q0 66 -95 66z" />
<glyph d="M93 391v108h391v-144l-218 -377l-106 43l203 342v28h-270z" />
<glyph d="M261 511q108 0 167 -34.5t59 -99.5q0 -41 -18 -68t-61 -44q45 -18 67 -47t22 -78q0 -152 -236 -152q-108 0 -171.5 39t-63.5 112q0 49 22.5 77t66.5 49q-43 18 -61 41.5t-18 63.5q0 65 59 103t166 38zM261 96q110 0 110 58q0 45 -59 55h-102q-59 -10 -59 -57 q0 -27 29.5 -41.5t80.5 -14.5zM261 411q-99 0 -99 -50q0 -35 48 -52h102q50 16 50 51q0 51 -101 51z" />
<glyph d="M66 9l10 100q81 -12 165 -12q69 0 100 26.5t31 91.5q-55 -39 -124 -39q-200 0 -200 157q0 79 58 128.5t155 49.5q229 0 229 -241q0 -148 -59.5 -215t-181.5 -67q-36 0 -81.5 5t-73.5 11zM258 278q27 0 56 5.5t44 10.5l15 5q-2 113 -112 113q-95 0 -95 -72 q0 -33 22.5 -47.5t69.5 -14.5z" />
<glyph d="M242 -59v759h35v-759h-35z" />
<glyph horiz-adv-x="437" d="M186 -86v127q-92 5 -133 49t-41 157q0 195 174 212v132h35v-130l116 -11l-2 -35q-75 9 -114 10v-348l116 8l2 -35q-79 -9 -118 -9v-127h-35zM52 247q0 -95 29 -130t105 -39v345q-67 -7 -100.5 -49t-33.5 -127z" />
<glyph d="M61 340v34h247l72 163l35 -14l-66 -149h137v-34h-152l-66 -151h219v-34h-234l-72 -165l-35 14l66 151h-150v34h165l66 151h-232z" />
<glyph horiz-adv-x="540" d="M47 331v34h171l-193 295h41l205 -309l202 309h42l-191 -295h168v-34h-190l-13 -20v-95h204v-34h-204v-182h-36v182h-205v34h205v95l-13 20h-193z" />
<glyph d="M90 -250v750h35v-258q0 -132 24 -175.5t105 -43.5q84 0 162 49l2 1v427h35v-500h-35v40l-24 -13.5t-58.5 -22t-81.5 -13.5q-94 0 -129 51v-292h-35z" />
<glyph d="M289 352v-418q0 -97 -31.5 -138t-95.5 -41l-92 3l2 33q62 -3 90 -3q46 0 69 33.5t23 112.5v418h-69v32h69v111q0 178 127 178l93 -3l-2 -32q-61 2 -91 2q-92 0 -92 -146v-110h162v-32h-162z" />
<glyph horiz-adv-x="170" d="M-6 -123l42 210h40l-51 -210h-31z" />
<glyph horiz-adv-x="248" d="M98 0v80h40v-80h-40z" />
<glyph horiz-adv-x="170" d="M4 527l40 200h38l-48 -200h-30z" />
<glyph horiz-adv-x="833" d="M518 0v667h-172v-667h-36v350h-7q-79 0 -132.5 48.5t-53.5 125.5t53.5 126.5t132.5 49.5h348v-33h-97v-667h-36z" />
<glyph horiz-adv-x="285" d="M135 454l7 116q0 72 -30.5 106.5t-112.5 38.5l2 32q95 -4 135.5 -45.5t40.5 -131.5q0 -21 -3.5 -66.5t-3.5 -56.5q0 -49 23.5 -75.5t80.5 -42.5v-32q-57 -14 -80.5 -42t-23.5 -78q0 -13 3.5 -60.5t3.5 -67.5q0 -90 -40.5 -131.5t-135.5 -45.5l-2 32q82 4 112.5 38.5 t30.5 106.5q0 17 -3.5 61t-3.5 58q0 65 22 95.5t78 48.5q-56 18 -78 49t-22 93z" />
<glyph horiz-adv-x="170" d="M56 727l-40 -200h-38l48 200h30z" />
<glyph d="M59 385v112h145v178h112v-178h146v-112h-146v-458h-112v458h-145z" />
<glyph d="M388 313l-121 234l-122 -234h-120l181 347h120l183 -347h-121z" />
<glyph horiz-adv-x="532" d="M140 948l244 -92l-35 -96l-248 81z" />
<glyph horiz-adv-x="548" d="M101 864l244 93l39 -108l-248 -80z" />
<glyph horiz-adv-x="478" d="M34 790l132 144h104l132 -144h-129l-54 53l-53 -53h-132z" />
<glyph horiz-adv-x="478" d="M402 931l-132 -144h-103l-133 144h131l54 -56l53 56h130z" />
<glyph horiz-adv-x="472" d="M394 935l25 -87q-6 -7 -16 -17.5t-37 -27.5t-49 -17q-27 0 -90 24t-77 24q-12 0 -32 -11t-34 -21l-14 -11l-25 87q6 7 16.5 17.5t37.5 27.5t49 17q33 0 94 -23.5t72 -23.5t31 10.5t35 20.5z" />
<glyph horiz-adv-x="424" d="M73 803v118h109v-118h-109zM290 803v118h109v-118h-109z" />
<glyph horiz-adv-x="478" d="M66 808v99h335v-99h-335z" />
<glyph horiz-adv-x="478" d="M45 929h118q7 -49 58 -49q54 0 59 49h119q-6 -65 -51.5 -105t-126.5 -40q-80 0 -125 40t-51 105z" />
<glyph horiz-adv-x="348" d="M299 741q0 -55 -40 -87t-99 -32q-61 0 -100.5 32t-39.5 87q0 56 39.5 87.5t100.5 31.5q60 0 99.5 -31.5t39.5 -87.5zM109 741q0 -18 13.5 -28.5t37.5 -10.5q23 0 36.5 10.5t13.5 28.5t-13.5 28.5t-36.5 10.5q-24 0 -37.5 -10.5t-13.5 -28.5z" />
<glyph horiz-adv-x="717" d="M350 786l92 175l103 -42l-100 -170zM137 787l92 175l104 -42l-101 -170z" />
<glyph horiz-adv-x="257" d="M72 778v119h114v-119h-114z" />
<glyph d="M265 672q47 0 86 -12l56 139l80 -28l-62 -153q87 -81 87 -294q0 -184 -63 -259.5t-184 -75.5q-49 0 -90 12l-49 -122l-77 26l54 136q-85 76 -85 283q0 189 63.5 268.5t183.5 79.5zM386 324q0 100 -17 157l-152 -376q19 -8 49 -8q64 0 92 49t28 178zM266 563 q-65 0 -93.5 -53t-28.5 -186q0 -92 15 -145l150 377q-17 7 -43 7z" />
<glyph d="M265 672q121 0 184 -79.5t63 -268.5q0 -184 -63 -259.5t-184 -75.5t-184 75.5t-63 259.5q0 189 63.5 268.5t183.5 79.5zM386 324q0 101 -16 155l-152 -374q19 -8 48 -8q64 0 92 49t28 178zM266 563q-65 0 -93.5 -53t-28.5 -186q0 -94 15 -146l151 377q-21 8 -44 8z" />
<glyph horiz-adv-x="167" d="M134 692v-251h-110v251h110z" />
<glyph horiz-adv-x="170" d="M4 -302l45 225h111l-53 -225h-103z" />
<glyph horiz-adv-x="170" d="M160 810l-44 -225h-112l54 225h102z" />
<glyph horiz-adv-x="170" d="M4 -302l45 225h111l-53 -225h-103z" />
<glyph horiz-adv-x="170" d="M160 810l-44 -225h-112l54 225h102z" />
<glyph horiz-adv-x="328" d="M238 201q0 -15 -3.5 -57t-3.5 -59q0 -39 17 -55t69 -20l-1 -112q-109 4 -158.5 44.5t-49.5 128.5q0 21 3.5 65.5t3.5 55.5q0 39 -21 63t-75 39v96q55 14 75.5 35.5t20.5 60.5q0 13 -3.5 60.5t-3.5 67.5q0 93 48.5 132t159.5 43l1 -112q-53 -4 -69.5 -18.5t-16.5 -52.5 q0 -17 3.5 -65t3.5 -62q0 -60 -22 -89t-78 -47q55 -18 77.5 -50t22.5 -92z" />
<glyph horiz-adv-x="386" d="M10 178q0 47 25.5 92.5t56 73.5t56 59t25.5 54v38h116q7 -41 7 -57q0 -34 -25 -71t-55.5 -63.5t-55.5 -57.5t-25 -54q0 -46 19.5 -65t78.5 -19q22 0 59.5 4.5t63.5 9.5l26 4l13 -103q-113 -35 -175 -35q-110 0 -160 43t-50 147zM296 701v-141h-123v141h123z" />
<glyph horiz-adv-x="328" d="M88 482q0 15 3.5 57t3.5 59q0 39 -17 55t-69 20l1 112q109 -4 158.5 -44.5t49.5 -128.5q0 -21 -3.5 -65.5t-3.5 -55.5q0 -39 21 -63t75 -39v-96q-55 -14 -75.5 -35.5t-20.5 -60.5q0 -13 3.5 -60.5t3.5 -67.5q0 -93 -48.5 -132t-159.5 -43l-1 112q53 4 69.5 18.5 t16.5 52.5q0 17 -3.5 65t-3.5 62q0 60 22 89t78 47q-55 18 -77.5 50t-22.5 92z" />
<glyph horiz-adv-x="300" d="M28 667v112h239l-1 -872h-238v112h121v648h-121z" />
<glyph horiz-adv-x="260" d="M132 -90h-124q11 29 26.5 77.5t42 168t26.5 203.5q0 167 -87 405l-8 21h124q11 -25 27 -68t43 -156t27 -202t-24.5 -201t-48.5 -180z" />
<glyph horiz-adv-x="260" d="M112 780h124q-11 -29 -26.5 -77.5t-42 -168t-26.5 -203.5q0 -167 87 -405l8 -21h-124q-11 25 -27 68t-43 156t-27 202t24 201t49 180z" />
<glyph horiz-adv-x="300" d="M271 779v-112h-121v-648h121v-112h-238l-1 872h239z" />
<glyph horiz-adv-x="500" d="M0 355h500v-104h-500v104z" />
<glyph horiz-adv-x="1000" d="M0 355h1000v-104h-1000v104z" />
<glyph horiz-adv-x="985" d="M941 389v-17q0 -167 -46 -232.5t-141 -65.5q-90 0 -125 47q-92 -46 -159 -46q-89 0 -136.5 56.5t-47.5 194.5q0 133 42.5 200t152.5 67q15 0 40.5 -5.5t42.5 -11.5l18 -6v14h114v-200q0 -92 5.5 -134.5t16.5 -54t36 -11.5q39 0 55.5 36.5t16.5 151.5v18 q0 167 -75.5 238.5t-246.5 71.5q-345 0 -345 -355q0 -195 79 -276t266 -81l143 9l5 -110q-100 -10 -148 -10q-115 0 -197.5 22.5t-143 75.5t-90 145t-29.5 225q0 235 121.5 350.5t338.5 115.5q437 0 437 -422zM478 187q47 0 112 24q-8 44 -8 125v136q-50 13 -77 13 q-63 0 -83 -33t-20 -126q0 -78 19.5 -108.5t56.5 -30.5z" />
<glyph horiz-adv-x="248" d="M56 258v149h123v-149h-123z" />
<glyph horiz-adv-x="265" d="M134 223q64 0 95 -38t31 -130t-31 -129t-95 -37t-95 37t-31 129t31 130t95 38zM134 140q-17 0 -23.5 -17t-6.5 -68t7 -67t23 -16q17 0 23.5 16t6.5 67t-6.5 68t-23.5 17z" />
<glyph horiz-adv-x="265" d="M21 139l104 73h84v-312h-92v211l-54 -37z" />
<glyph horiz-adv-x="265" d="M241 -100h-224v79l78 68q47 40 47 65q0 22 -41 22l-78 -7l-4 86q69 10 113 10q58 0 82.5 -22.5t24.5 -74.5q0 -33 -13.5 -56.5t-44.5 -48.5l-45 -38h105v-83z" />
<glyph horiz-adv-x="265" d="M26 213q65 10 106 10q116 0 116 -88q0 -51 -33 -71q39 -16 39 -74q0 -50 -30 -75.5t-84 -25.5q-22 0 -51.5 2.5t-48.5 4.5l-18 2l5 81q60 -7 96 -7t36 25q0 23 -33 23h-66v75h65q11 0 18.5 6.5t7.5 17.5q0 21 -33 21l-87 -6z" />
<glyph horiz-adv-x="265" d="M146 -100v39h-134v77l49 196h102l-59 -190h42l12 90h80v-90h16v-83h-16v-39h-92z" />
<glyph horiz-adv-x="265" d="M40 212h200v-79h-127l-4 -40q27 9 48 9q94 0 94 -99q0 -110 -115 -110q-22 0 -50.5 3.5t-45.5 6.5l-18 3l7 75q55 -9 94 -9q32 0 32 26t-23 26l-34 -8l-69 9z" />
<glyph horiz-adv-x="265" d="M245 211l-5 -76q-61 6 -91 6q-42 0 -42 -41l7 2q7 1 18.5 3.5t19.5 2.5q103 0 103 -105q0 -53 -32.5 -83.5t-83.5 -30.5q-126 0 -126 158q0 89 30.5 132.5t102.5 43.5q16 0 41 -3t41 -6zM136 32q-8 0 -15 -3t-11 -5l-3 -3q0 -51 28 -51q27 0 27 32q0 30 -26 30z" />
<glyph horiz-adv-x="265" d="M23 121v91h220v-93l-98 -229l-104 17l95 199v15h-113z" />
<glyph horiz-adv-x="265" d="M133 223q121 0 121 -89q0 -29 -11.5 -49t-21.5 -23q6 -1 13.5 -7.5t15.5 -23t8 -39.5q0 -56 -31.5 -79.5t-93.5 -23.5t-93.5 23.5t-31.5 78.5q0 30 13.5 49t24.5 23q-10 4 -21.5 22t-11.5 50q0 88 120 88zM133 -36q30 0 30 30q0 21 -21 32h-18q-21 -11 -21 -33 q0 -29 30 -29zM133 148q-29 0 -29 -25q0 -19 20 -31h18q19 11 19 31q0 25 -28 25z" />
<glyph horiz-adv-x="265" d="M23 -97l6 75q47 -6 85 -6q43 0 43 39l-7 -1q-6 -1 -16.5 -3t-19.5 -2q-102 0 -102 104q0 54 31.5 84t84.5 30q127 0 127 -166q0 -87 -30 -127.5t-99 -40.5q-20 0 -46 3.5t-42 7.5zM131 77l30 9q0 55 -29 55q-27 0 -27 -32q0 -14 7.5 -23t18.5 -9z" />
<glyph horiz-adv-x="265" d="M134 701q64 0 95 -38t31 -130t-31 -129t-95 -37t-95 37t-31 129t31 130t95 38zM134 618q-17 0 -23.5 -17t-6.5 -68t7 -67t23 -16q17 0 23.5 16t6.5 67t-6.5 68t-23.5 17z" />
<glyph horiz-adv-x="265" d="M13 617l104 73h84v-312h-92v211l-54 -37z" />
<glyph horiz-adv-x="265" d="M241 378h-224v79l78 68q47 40 47 65q0 22 -41 22l-78 -7l-4 86q69 10 113 10q58 0 82.5 -22.5t24.5 -74.5q0 -33 -13.5 -56.5t-44.5 -48.5l-45 -38h105v-83z" />
<glyph horiz-adv-x="265" d="M26 691q65 10 106 10q116 0 116 -88q0 -51 -33 -71q39 -16 39 -74q0 -50 -30 -75.5t-84 -25.5q-22 0 -51.5 2.5t-48.5 4.5l-18 2l5 81q60 -7 96 -7t36 25q0 23 -33 23h-66v75h65q11 0 18.5 6.5t7.5 17.5q0 21 -33 21l-87 -6z" />
<glyph horiz-adv-x="265" d="M146 378v39h-134v77l49 196h102l-59 -190h42l12 90h80v-90h16v-83h-16v-39h-92z" />
<glyph horiz-adv-x="265" d="M40 690h200v-79h-127l-4 -40q27 9 48 9q94 0 94 -99q0 -110 -115 -110q-22 0 -50.5 3.5t-45.5 6.5l-18 3l7 75q55 -9 94 -9q32 0 32 26t-23 26l-34 -8l-69 9z" />
<glyph horiz-adv-x="265" d="M245 689l-5 -76q-61 6 -91 6q-42 0 -42 -41l7 2q7 1 18.5 3.5t19.5 2.5q103 0 103 -105q0 -53 -32.5 -83.5t-83.5 -30.5q-126 0 -126 158q0 89 30.5 132.5t102.5 43.5q16 0 40.5 -3t41.5 -6zM136 510q-8 0 -15 -3t-11 -5l-3 -3q0 -51 28 -51q27 0 27 32q0 30 -26 30z" />
<glyph horiz-adv-x="265" d="M23 599v91h220v-93l-98 -229l-104 17l95 199v15h-113z" />
<glyph horiz-adv-x="265" d="M133 701q121 0 121 -89q0 -29 -11.5 -49t-21.5 -23q6 -1 13.5 -7.5t15.5 -23t8 -39.5q0 -56 -31.5 -79.5t-93.5 -23.5t-93.5 23.5t-31.5 78.5q0 30 13.5 49t24.5 23q-10 4 -21.5 22t-11.5 50q0 88 120 88zM133 442q30 0 30 30q0 21 -21 32h-18q-21 -11 -21 -33 q0 -29 30 -29zM133 626q-29 0 -29 -25q0 -19 20 -31h18q19 11 19 31q0 25 -28 25z" />
<glyph horiz-adv-x="265" d="M23 381l6 75q47 -6 85 -6q43 0 43 39l-7 -1q-6 -1 -16.5 -3t-19.5 -2q-102 0 -102 104q0 54 31.5 84t84.5 30q127 0 127 -166q0 -87 -30 -127.5t-99 -40.5q-20 0 -46 3.5t-42 7.5zM131 555l30 9q0 55 -29 55q-27 0 -27 -32q0 -14 7.5 -23t18.5 -9z" />
<glyph horiz-adv-x="476" d="M306 539v-149h-123v149h123zM303 288l4 -449h-125l4 449h117z" />
<glyph horiz-adv-x="440" d="M70 222v108h300v-108h-300z" />
<glyph horiz-adv-x="532" d="M140 948l244 -92l-35 -96l-248 81z" />
<glyph horiz-adv-x="548" d="M101 864l244 93l39 -108l-248 -80z" />
<glyph horiz-adv-x="478" d="M34 790l132 144h104l132 -144h-129l-54 53l-53 -53h-132z" />
<glyph horiz-adv-x="478" d="M402 931l-132 -144h-103l-133 144h131l54 -56l53 56h130z" />
<glyph horiz-adv-x="472" d="M394 935l25 -87q-6 -7 -16 -17.5t-37 -27.5t-49 -17q-27 0 -90 24t-77 24q-12 0 -32 -11t-34 -21l-14 -11l-25 87q6 7 16.5 17.5t37.5 27.5t49 17q33 0 94 -23.5t72 -23.5t31 10.5t35 20.5z" />
<glyph horiz-adv-x="424" d="M73 803v118h109v-118h-109zM290 803v118h109v-118h-109z" />
<glyph horiz-adv-x="478" d="M66 808v99h335v-99h-335z" />
<glyph horiz-adv-x="478" d="M45 929h118q7 -49 58 -49q54 0 59 49h119q-6 -65 -51.5 -105t-126.5 -40q-80 0 -125 40t-51 105z" />
<glyph horiz-adv-x="348" d="M299 741q0 -55 -40 -87t-99 -32q-61 0 -100.5 32t-39.5 87q0 56 39.5 87.5t100.5 31.5q60 0 99.5 -31.5t39.5 -87.5zM109 741q0 -18 13.5 -28.5t37.5 -10.5q23 0 36.5 10.5t13.5 28.5t-13.5 28.5t-36.5 10.5q-24 0 -37.5 -10.5t-13.5 -28.5z" />
<glyph horiz-adv-x="717" d="M350 786l92 175l103 -42l-100 -170zM137 787l92 175l104 -42l-101 -170z" />
<glyph horiz-adv-x="257" d="M72 778v119h114v-119h-114z" />
</font>
</defs>
</svg>
