<?xml version="1.0" standalone="no"?>
<!DOCTYPE svg PUBLIC "-//W3C//DTD SVG 1.1//EN" "http://www.w3.org/Graphics/SVG/1.1/DTD/svg11.dtd" >
<svg xmlns="http://www.w3.org/2000/svg">
<metadata>
This is a custom SVG webfont generated by Font Squirrel.
Copyright   : Copyright c 20082010 by Accademia di Belle Arti di Urbino and others All rights reserved
Designer    : Accademia di Belle Arti di Urbino and others
Foundry     : Accademia di Belle Arti di Urbino and others
Foundry URL : wwwcampivisivinet
</metadata>
<defs>
<font id="TitilliumText25L1wt" horiz-adv-x="530" >
<font-face units-per-em="1000" ascent="750" descent="-250" />
<missing-glyph horiz-adv-x="235" />
<glyph unicode=" "  horiz-adv-x="235" />
<glyph unicode="&#x09;" horiz-adv-x="235" />
<glyph unicode="&#xa0;" horiz-adv-x="235" />
<glyph unicode="!" d="M250 0v80h40v-80h-40zM252 213v486h35v-486h-35z" />
<glyph unicode="&#x22;" horiz-adv-x="280" d="M226 501h-35v200h35v-200zM85 501h-35v200h35v-200z" />
<glyph unicode="#" d="M513 190h-120v-190h-36v190h-188v-190h-36v190h-120v32h120v226h-120v32h120v190h36v-190h188v190h36v-190h120v-32h-120v-226h120v-32zM357 222v226h-188v-226h188z" />
<glyph unicode="$" d="M458 660l-4 -33q-67 8 -125 13l-36 -282q95 -16 137 -50t42 -115q0 -108 -50 -154t-152 -46q-16 0 -25 1l-14 -114q-35 3 -35 7l14 109l-143 13l4 33q77 -10 143 -14l40 301q-51 8 -82 18t-58 29t-39 51t-12 81q0 89 53 128t153 39q19 0 30 -1l15 116h35l-16 -118z M99 510q0 -77 35 -104.5t124 -41.5l37 278q-10 1 -26 1q-170 0 -170 -133zM436 190q0 65 -33 92.5t-115 41.5l-38 -298h20q83 0 124.5 38.5t41.5 125.5z" />
<glyph unicode="%" d="M416 272q54 0 80 -31.5t26 -102.5q0 -138 -106 -138q-54 0 -80 33.5t-26 105.5q0 70 25.5 101.5t80.5 31.5zM186 6l144 695l36 -7l-144 -695zM345 139q0 -54 16 -80.5t55 -26.5q40 0 55.5 26t15.5 80q0 53 -15.5 77.5t-55.5 24.5q-39 0 -55 -24.5t-16 -76.5zM135 702 q54 0 80 -31.5t26 -102.5q0 -138 -106 -138q-54 0 -80 33.5t-26 105.5q0 70 25.5 101.5t80.5 31.5zM64 569q0 -54 16 -80.5t55 -26.5q40 0 55.5 26t15.5 80q0 53 -15.5 77.5t-55.5 24.5q-39 0 -55 -24.5t-16 -76.5z" />
<glyph unicode="&#x26;" horiz-adv-x="700" d="M323 694q78 0 115.5 -39t37.5 -106q0 -72 -38 -112.5t-127 -69.5l187 -185q20 58 31 146h35q-14 -108 -39 -172l140 -137l-24 -26l-131 130q-66 -132 -222 -132q-126 0 -178 55t-52 162q0 89 38 132.5t125 68.5q-32 35 -41.5 65t-9.5 76q0 65 39 104.5t114 39.5zM290 24 q137 0 194 124l-237 235q-86 -23 -120 -60t-34 -114q0 -93 46 -139t151 -46zM205 550q0 -78 45 -123l36 -36q87 30 121 63t34 96q0 112 -118 112t-118 -112z" />
<glyph unicode="'" horiz-adv-x="100" d="M32 488l-2 210h40l-5 -210h-33z" />
<glyph unicode="(" horiz-adv-x="260" d="M153 750h35q-11 -29 -26.5 -77.5t-42 -168t-26.5 -203.5q0 -167 87 -405l8 -21h-35q-11 25 -27 68t-43 156t-27 202t24 201t48 180z" />
<glyph unicode=")" horiz-adv-x="260" d="M56 750h35q11 -27 27 -72t43 -161.5t27 -205.5t-24 -198t-48 -173l-25 -65h-35q11 28 26.5 74.5t42 162.5t26.5 199q0 84 -23.5 193.5t-47.5 177.5z" />
<glyph unicode="*" d="M434 519h-137l42 -129l-32 -10l-42 130l-110 -79l-19 27l110 80l-109 80l20 27l110 -81l42 129l32 -10l-42 -130h135v-34z" />
<glyph unicode="+" horiz-adv-x="410" d="M-49 234v34h232v232h36v-232h234v-34h-234v-234h-36v234h-232z" />
<glyph unicode="," horiz-adv-x="170" d="M47 -123l42 210h40l-51 -210h-31z" />
<glyph unicode="-" horiz-adv-x="440" d="M60 264v34h320v-34h-320z" />
<glyph unicode="." horiz-adv-x="248" d="M98 0v80h40v-80h-40z" />
<glyph unicode="/" d="M109 12l277 690l33 -14l-277 -689z" />
<glyph unicode="0" d="M264 670q59 0 99.5 -15.5t71.5 -54t45.5 -108.5t14.5 -176q0 -94 -15.5 -158t-46.5 -100t-71.5 -51.5t-96.5 -15.5t-96.5 15t-72 50.5t-47 100t-15.5 158.5q0 105 15 175.5t46.5 109.5t71.5 54.5t97 15.5zM264 636q-67 0 -107 -25.5t-62.5 -97t-22.5 -199.5 q0 -87 13 -144.5t39 -88.5t59.5 -43.5t81.5 -12.5q64 0 104 22.5t64 88t24 180.5q0 126 -22 197t-62 97t-109 26z" />
<glyph unicode="1" d="M90 524l204 136h36v-660h-36v621l-187 -126z" />
<glyph unicode="2" d="M479 0h-418v34l227 239q47 50 69.5 77t42.5 68t20 83q0 73 -41.5 104t-126.5 31q-34 0 -79 -6.5t-73 -13.5l-28 -6l-5 34q93 26 186 26q102 0 153.5 -39t51.5 -130q0 -67 -30.5 -117t-100.5 -123l-217 -226h369v-35z" />
<glyph unicode="3" d="M65 648q95 22 195 22q106 0 152 -39.5t46 -125.5q0 -35 -11.5 -63.5t-27.5 -44t-33.5 -26.5t-28 -14.5t-12.5 -3.5q65 -17 98.5 -53t33.5 -118q0 -97 -51 -144t-157 -47q-48 0 -102.5 5.5t-84.5 11.5l-30 6l6 34q105 -23 211 -23q170 1 170 154q0 82 -43.5 115.5 t-118.5 37.5h-134v34h133q49 0 96.5 37t47.5 103q0 71 -35.5 100.5t-123.5 29.5q-44 0 -91.5 -5.5t-73.5 -10.5l-25 -6z" />
<glyph unicode="4" d="M380 0v142h-347v30l205 488h39l-201 -484h304v219h36v-219h98v-34h-98v-142h-36z" />
<glyph unicode="5" d="M82 660h372v-35h-338l-18 -264q10 6 26.5 14.5t64 22.5t88.5 14q208 0 208 -192q0 -113 -57.5 -170t-160.5 -57q-100 0 -209 24l5 34q110 -24 203 -24q83 0 132 50t49 143q0 158 -171 158q-40 0 -84.5 -14t-69.5 -28l-25 -13l-34 4z" />
<glyph unicode="6" d="M457 659l-4 -33q-82 10 -166 10q-99 0 -153 -71t-55 -207l29 12q28 11 76 23.5t87 12.5q218 0 218 -198q0 -103 -57.5 -160t-166.5 -57q-224 0 -224 346q0 168 65 250.5t181 82.5q37 0 79.5 -3t66.5 -5zM270 372q-91 -3 -192 -49q5 -298 187 -298q91 0 138.5 47t47.5 136 q0 82 -47.5 123t-133.5 41z" />
<glyph unicode="7" d="M59 626v34h402v-65l-268 -604l-35 14l265 598v23h-364z" />
<glyph unicode="8" d="M268 670q111 0 174 -40.5t63 -124.5q0 -65 -33 -101t-103 -56q70 -20 108 -58.5t38 -110.5q0 -104 -66.5 -146t-180.5 -42q-108 0 -176 41.5t-68 135.5q0 76 33.5 114t101.5 66q-62 22 -93 58t-31 100q0 164 233 164zM268 25q98 0 153.5 34t55.5 119q0 38 -11.5 65 t-36 43.5t-47.5 25t-61 18.5h-117q-70 -17 -105.5 -53t-35.5 -108q0 -144 205 -144zM268 636q-95 0 -145 -30t-50 -101q0 -59 31.5 -91t99.5 -51h117q73 17 109 50t36 91q0 70 -51 101t-147 31z" />
<glyph unicode="9" d="M74 2l4 33q82 -10 166 -10q107 0 160 66t54 209q-114 -44 -202 -44q-209 0 -209 195q0 100 60 159.5t160 59.5q117 0 172.5 -91t55.5 -255q0 -181 -63 -257t-188 -76q-37 0 -79.5 2.5t-66.5 5.5zM258 290q79 0 201 45q-7 301 -192 301q-84 0 -133 -50.5t-49 -134.5 t43 -122.5t130 -38.5z" />
<glyph unicode=":" horiz-adv-x="141" d="M77 344v80h40v-80h-40zM77 0v80h40v-80h-40z" />
<glyph unicode=";" horiz-adv-x="170" d="M37 -123l41 210h42l-52 -210h-31zM75 344v80h40v-80h-40z" />
<glyph unicode="&#x3c;" d="M410 520l-315 -206l315 -217v-41q-313 213 -347 238v36l347 229v-39z" />
<glyph unicode="=" d="M41 343v34h445v-34h-445zM42 174v34h445v-34h-445z" />
<glyph unicode="&#x3e;" d="M378 314l-315 206v39l347 -229v-36l-347 -238v41z" />
<glyph unicode="?" horiz-adv-x="386" d="M376 551q0 -45 -20.5 -84.5t-50 -68l-58.5 -54.5t-49.5 -55.5t-20.5 -60.5v-38h-35v41q0 34 20.5 66.5t50 59.5l58.5 55t49.5 64t20.5 75q0 69 -40.5 97t-124.5 28l-161 -28l-5 34q112 27 166 27q99 0 149.5 -36.5t50.5 -121.5zM140 1v80h40v-80h-40z" />
<glyph unicode="@" horiz-adv-x="985" d="M925 305v-17q0 -61 -4.5 -107.5t-11 -78t-19 -53t-24 -33t-31 -17.5t-34 -7.5t-39.5 -1.5q-33 0 -50 3t-32.5 17t-24.5 43q-111 -62 -191 -62q-24 0 -42 2.5t-44 16.5t-42 39t-28.5 75t-12.5 119q0 136 46 201t164 65q25 0 58 -6.5t53 -13.5l21 -7v18h35v-200 q0 -139 7.5 -195.5t23.5 -70.5t59 -14q28 0 43.5 3t33.5 17t27 42t15.5 79t6.5 127v18q0 201 -88 291t-296 90q-213 0 -310 -96t-97 -330q0 -124 24 -207t76.5 -131.5t125.5 -69t181 -20.5l143 10l3 -33q-98 -9 -146 -9q-116 0 -195 21.5t-137 73t-85 141.5t-27 224 q0 247 108 352.5t336 105.5q226 0 323.5 -99t97.5 -315zM464 23q80 0 184 60q-11 63 -11 217v150q-73 27 -132 27q-101 0 -138 -57.5t-37 -179.5q0 -71 12.5 -117.5t34.5 -66.5t41.5 -26.5t45.5 -6.5z" />
<glyph unicode="A" horiz-adv-x="604" d="M35 0l215 700h106l213 -698h-36l-67 213h-328l-67 -215h-36zM275 666l-127 -417h308l-127 417h-54z" />
<glyph unicode="B" horiz-adv-x="627" d="M103 700h240q102 0 152 -41t50 -129q0 -133 -97 -169q124 -34 124 -165q0 -108 -54 -152t-156 -44h-259v700zM354 341h-215v-307h223q83 0 128 36.5t45 125.5q0 145 -181 145zM343 666h-204v-292h215q80 0 117 39t37 117q0 72 -40 104t-125 32z" />
<glyph unicode="C" horiz-adv-x="537" d="M489 45l3 -34q-106 -20 -185 -20q-76 0 -125.5 23.5t-76.5 72.5t-37 110t-10 150q0 71 5.5 122t21 99t42.5 77t72 46.5t108 17.5q42 0 88.5 -4.5t71.5 -9.5l25 -5l-3 -35q-101 20 -182 20q-55 0 -94 -16t-61.5 -41.5t-35 -70t-16.5 -89.5t-4 -111t4 -111t17 -88t36 -68 t61.5 -40t92.5 -15q32 0 77.5 5t75.5 10z" />
<glyph unicode="D" horiz-adv-x="653" d="M363 0h-260v700h260q64 0 110.5 -28t73 -77t38.5 -107.5t12 -127.5q0 -70 -12.5 -131t-38.5 -114t-73 -84t-110 -31zM559 360q0 60 -10 111.5t-31.5 97t-61 71.5t-93.5 26h-224v-632h224q54 0 93.5 29t61 78.5t31.5 104t10 114.5z" />
<glyph unicode="E" horiz-adv-x="572" d="M103 0v700h409v-34h-373v-289h313v-34h-313v-309h373v-34h-409z" />
<glyph unicode="F" horiz-adv-x="563" d="M103 0v700h410v-34h-374v-316h314v-34h-314v-316h-36z" />
<glyph unicode="G" horiz-adv-x="617" d="M356 313v34h186v-331q-141 -25 -220 -25q-147 0 -204.5 89t-57.5 267q0 87 11.5 149.5t39.5 112.5t80.5 75t130.5 25q105 0 220 -25l-3 -35q-126 26 -217 26q-69 0 -114 -22t-68.5 -68t-32.5 -101.5t-9 -136.5q0 -80 9.5 -135.5t33.5 -99.5t69 -65.5t112 -21.5 q31 0 75.5 5t76 10t32.5 5v268h-150z" />
<glyph unicode="H" horiz-adv-x="696" d="M557 0v334h-418v-334h-36v700h36v-332h418v332h36v-700h-36z" />
<glyph unicode="I" horiz-adv-x="226" d="M95 0v700h36v-700h-36z" />
<glyph unicode="J" horiz-adv-x="304" d="M208 701q0 -106 0.5 -297.5t0.5 -298.5q0 -33 -2 -58.5t-8.5 -44.5t-12.5 -31.5t-19.5 -21t-23 -13t-31 -6.5t-35 -2.5t-42.5 -0.5v34q36 0 51.5 0.5t35.5 5.5t26 13t13.5 26.5t9 43.5t1.5 65v586h36z" />
<glyph unicode="K" horiz-adv-x="597" d="M501 0l-231 329h-131v-329h-36v700h36v-337h129l220 337h43l-231 -352l247 -348h-46z" />
<glyph unicode="L" d="M480 0h-377v700h36v-666h341v-34z" />
<glyph unicode="M" horiz-adv-x="851" d="M103 0v700h77l245 -645l247 645h76v-700h-36v666h-14l-249 -645h-50l-246 645h-14v-666h-36z" />
<glyph unicode="N" horiz-adv-x="687" d="M103 0v700h85l333 -666h27v666h36v-700h-85l-334 666h-26v-666h-36z" />
<glyph unicode="O" horiz-adv-x="656" d="M328 25q72 0 117.5 18.5t70 61t33.5 98.5t9 144q0 168 -48.5 248t-181.5 80q-70 0 -116 -21t-70.5 -65.5t-34 -101t-9.5 -140.5q0 -85 9 -140t33.5 -98.5t70.5 -63.5t117 -20zM328 -9q-80 0 -133 22t-82.5 69.5t-41 110t-11.5 154.5q0 184 58 273t210 89t210 -88.5 t58 -273.5q0 -191 -56.5 -273.5t-211.5 -82.5z" />
<glyph unicode="P" horiz-adv-x="615" d="M358 257h-219v-257h-36v700h255q108 0 157.5 -51t49.5 -160q0 -232 -207 -232zM139 291h219q169 0 169 198q0 92 -39.5 134.5t-129.5 42.5h-219v-375z" />
<glyph unicode="Q" horiz-adv-x="656" d="M525 -138l-87 143q-48 -14 -110 -14q-80 0 -133 22t-82.5 69.5t-41 110t-11.5 154.5q0 184 58 273t210 89t210 -88.5t58 -273.5q0 -137 -26.5 -215t-94.5 -113l86 -140zM328 25q72 0 117.5 18.5t70 61t33.5 98.5t9 144q0 168 -48.5 248t-181.5 80q-70 0 -116 -21 t-70.5 -65.5t-34 -101t-9.5 -140.5q0 -85 9 -140t33.5 -98.5t70.5 -63.5t117 -20z" />
<glyph unicode="R" horiz-adv-x="630" d="M534 0l-156 290h-239v-290h-36v700h251q106 0 157 -48t51 -152q0 -178 -145 -205l158 -295h-41zM524 500q0 87 -41 126.5t-129 39.5h-215v-342h215q93 0 131.5 45t38.5 131z" />
<glyph unicode="S" horiz-adv-x="536" d="M468 695l-4 -35q-137 17 -195 17q-178 0 -178 -140q0 -30 4.5 -52.5t16.5 -38t25 -26t38 -18t46 -12t58 -10.5q109 -17 156.5 -52.5t47.5 -124.5q0 -113 -52.5 -161.5t-159.5 -48.5q-33 0 -86.5 4t-90.5 8l-37 4l4 35q138 -17 209 -17q88 0 131.5 41t43.5 132 q0 73 -38 101t-137 43q-60 9 -93.5 18.5t-65 29.5t-45 54.5t-13.5 88.5q0 176 216 176z" />
<glyph unicode="T" horiz-adv-x="500" d="M0 666v34h500v-34h-231v-666h-36v666h-233z" />
<glyph unicode="U" horiz-adv-x="642" d="M126 196q0 -91 49 -131t141 -40q99 0 149.5 39.5t50.5 131.5v504h36v-504q0 -109 -59.5 -157t-176.5 -48q-110 0 -168 48t-58 157v504h36v-504z" />
<glyph unicode="V" horiz-adv-x="579" d="M508 700h36l-194 -700h-116l-199 700h36l192 -666h58z" />
<glyph unicode="W" horiz-adv-x="872" d="M45 700h35l143 -666h38l155 656h40l160 -656h38l138 666h35l-144 -700h-96l-151 643l-146 -643h-96z" />
<glyph unicode="X" horiz-adv-x="581" d="M83 700l208 -326l207 326h43l-223 -353l223 -347h-43l-206 322l-209 -322h-43l226 347l-226 353h43z" />
<glyph unicode="Y" horiz-adv-x="540" d="M289 301v-301h-36v301l-228 399h41l205 -359l202 359h42z" />
<glyph unicode="Z" horiz-adv-x="570" d="M60 666v34h450v-70l-413 -575v-22h413v-34h-450v69l413 574v24h-413z" />
<glyph unicode="[" horiz-adv-x="300" d="M231 749v-32h-147v-808h147v-32h-182v872h182z" />
<glyph unicode="\" d="M432 14l-35 -14l-301 687l35 14z" />
<glyph unicode="]" horiz-adv-x="300" d="M49 717v32h182v-872h-182v32h147v808h-147z" />
<glyph unicode="^" d="M417 333l-158 291l-149 -291h-40l171 327h37l181 -327h-42z" />
<glyph unicode="_" horiz-adv-x="520" d="M27 -34h428v-34h-428v34z" />
<glyph unicode="`" horiz-adv-x="215" d="M26 732l192 -96l-15 -27l-193 92z" />
<glyph unicode="a" horiz-adv-x="518" d="M418 353v-288q4 -36 75 -42l-2 -31q-73 0 -103 42q-102 -43 -202 -43q-62 0 -96.5 37t-34.5 109q0 65 33 101t105 43l190 20v52q0 64 -27.5 93t-83.5 29q-32 0 -79.5 -4.5t-78.5 -8.5l-31 -4l-3 33q112 18 192 18q146 0 146 -156zM383 269l-186 -19q-57 -6 -81 -33 t-24 -80q0 -55 24.5 -84.5t70.5 -29.5q93 0 196 41v205z" />
<glyph unicode="b" horiz-adv-x="538" d="M308 509q99 0 134.5 -56.5t35.5 -191.5q0 -147 -47 -208.5t-181 -61.5l-149 9v730h35v-261q83 40 172 40zM249 23q62 0 100.5 13.5t58.5 45.5t26.5 72t6.5 105q0 119 -26.5 168.5t-106.5 49.5q-40 0 -83 -10t-66 -20l-23 -10v-408q78 -6 113 -6z" />
<glyph unicode="c" horiz-adv-x="437" d="M265 509l120 -10l-2 -32q-80 10 -118 10q-95 0 -131.5 -48t-36.5 -168q0 -135 33 -186.5t135 -51.5l120 9l2 -32q-84 -9 -122 -9q-122 0 -163.5 57.5t-41.5 212.5q0 138 46 193t159 55z" />
<glyph unicode="d" horiz-adv-x="538" d="M437 700v-700h-35v42q-9 -6 -25 -14.5t-62 -22.5t-86 -14q-24 0 -42 2.5t-44 16.5t-42 39t-28.5 75t-12.5 119q0 136 46 201t164 65q57 0 132 -12v203h35zM229 23q84 1 173 52v390q-104 12 -132 12q-101 0 -138 -57.5t-37 -179.5q0 -71 12.5 -117.5t34.5 -66.5 t41.5 -26.5t45.5 -6.5z" />
<glyph unicode="e" horiz-adv-x="507" d="M249 23l182 9l2 -32q-112 -9 -185 -9q-106 1 -147 64.5t-41 194.5q0 259 202 259q95 0 142.5 -57t47.5 -183v-33h-355q0 -108 34 -160.5t118 -52.5zM97 268h318q0 113 -36.5 161t-116.5 48q-165 0 -165 -209z" />
<glyph unicode="f" horiz-adv-x="328" d="M139 468v-468h-35v468h-69v32h69v61q0 105 28 141.5t99 36.5l92 -3v-31q-64 2 -92 2q-53 0 -72.5 -29.5t-19.5 -117.5v-60h162v-32h-162z" />
<glyph unicode="g" horiz-adv-x="504" d="M253 -239q-121 0 -159.5 33.5t-38.5 125.5q0 32 11.5 55t26 36t47.5 37q-22 14 -22 65q0 7 7.5 26.5t14.5 35.5l8 16q-86 28 -86 152q0 167 171 167q24 0 50.5 -3t40.5 -7l15 -3l140 3v-35h-108q40 -37 40 -122q0 -91 -42.5 -127.5t-139.5 -36.5q-30 0 -54 4 q-23 -57 -23 -70q0 -17 2 -25t8 -15t23 -9.5t39 -3.5t65 -1q99 0 138 -27.5t39 -116.5q0 -81 -50.5 -117.5t-162.5 -36.5zM287 27l-121 3q-45 -31 -60 -52.5t-15 -56.5q0 -74 31.5 -101t131.5 -27q93 0 134 28.5t41 93.5q0 72 -30 92t-112 20zM229 211q79 0 112 29t33 103 q0 82 -30 108.5t-112 26.5q-69 0 -101.5 -30t-32.5 -105q0 -70 28.5 -101t102.5 -31z" />
<glyph unicode="h" horiz-adv-x="567" d="M136 0h-35v730h35v-260q88 39 174 39q100 0 132 -50.5t32 -198.5v-260h-35v258q0 132 -24 175.5t-105 43.5q-40 0 -83.5 -10t-66.5 -20l-24 -10v-437z" />
<glyph unicode="i" horiz-adv-x="215" d="M90 0v500h35v-500h-35zM90 645v55h35v-55h-35z" />
<glyph unicode="j" horiz-adv-x="233" d="M108 6v494h35v-495q0 -85 -31.5 -129.5t-127.5 -93.5l-14 31q86 47 112 83.5t26 109.5zM108 645v55h35v-55h-35z" />
<glyph unicode="k" horiz-adv-x="483" d="M136 0h-35v730h35v-438h94l182 208h41l-192 -226l192 -274h-41l-182 257h-94v-257z" />
<glyph unicode="l" horiz-adv-x="225" d="M95 0v730h35v-730h-35z" />
<glyph unicode="m" horiz-adv-x="875" d="M136 0h-35v500h35v-40l24 13.5t58.5 22t81.5 13.5q30 0 58 -5q48 -9 72 -43q112 48 188 48q100 0 132 -50.5t32 -198.5v-260h-35v258q0 132 -24 175.5t-105 43.5q-39 0 -82 -12.5t-63.5 -22.5t-26.5 -14q18 -49 18 -168v-260h-35v258q0 132 -24 175.5t-105 43.5 q-84 0 -162 -49l-2 -1v-427z" />
<glyph unicode="n" horiz-adv-x="573" d="M136 0h-35v500h35v-40q89 49 175 49q100 0 132 -50.5t32 -198.5v-260h-35v258q0 132 -24 175.5t-105 43.5q-87 -1 -175 -50v-427z" />
<glyph unicode="o" horiz-adv-x="526" d="M265 509q103 0 152 -58t49 -192q0 -147 -41 -207.5t-160 -60.5q-122 0 -163.5 58t-41.5 212q0 138 46.5 193t158.5 55zM265 23q54 0 87.5 13.5t50 46t21.5 71.5t5 105q0 118 -39.5 168t-124.5 50q-97 0 -132.5 -45.5t-35.5 -170.5q0 -70 5.5 -110.5t23.5 -72t51 -43.5 t88 -12z" />
<glyph unicode="p" horiz-adv-x="540" d="M101 -230v730h35v-42q9 6 25 14.5t62 22.5t86 14q90 0 130.5 -61t40.5 -191q0 -141 -48.5 -203.5t-163.5 -62.5q-68 0 -132 14v-235h-35zM309 477q-82 0 -171 -52l-2 -1v-387q77 -14 132 -14q96 0 135.5 53.5t39.5 183.5q0 116 -33.5 166.5t-100.5 50.5z" />
<glyph unicode="q" horiz-adv-x="538" d="M240 -9q-99 0 -139.5 60.5t-40.5 187.5q0 145 49.5 207.5t178.5 62.5l149 -9v-730h-35v259q-73 -38 -162 -38zM289 477q-113 0 -152.5 -55t-39.5 -181q0 -111 31.5 -164.5t111.5 -53.5q40 0 80.5 10t61.5 20l20 10v408q-78 6 -113 6z" />
<glyph unicode="r" horiz-adv-x="354" d="M101 0v500h35v-78q10 8 27.5 19.5t69.5 35.5t101 33v-34q-96 -19 -198 -87v-389h-35z" />
<glyph unicode="s" horiz-adv-x="483" d="M403 494l-2 -33q-102 16 -170 16q-134 0 -134 -100q0 -47 28 -66.5t114 -32.5q106 -17 144 -42t38 -92q0 -84 -48 -118.5t-142 -34.5q-25 0 -66.5 4t-70.5 8l-28 4l4 33q108 -17 159 -17q77 0 116 25t39 93q0 52 -30.5 71t-124.5 33q-95 15 -132 39.5t-37 90.5 q0 50 27 81.5t63 42t81 10.5q34 0 77 -3.5t69 -7.5z" />
<glyph unicode="t" horiz-adv-x="372" d="M331 468h-182v-262q0 -115 16.5 -149.5t75.5 -34.5l98 8l3 -32q-66 -8 -101 -8q-71 0 -99 36.5t-28 141.5v300h-79v32h79v163h35v-163h182v-32z" />
<glyph unicode="u" horiz-adv-x="557" d="M421 500h35v-500h-35v40l-24 -13.5t-58.5 -22t-81.5 -13.5q-100 0 -132 50.5t-32 198.5v260h35v-258q0 -132 24 -175.5t105 -43.5q84 0 162 49l2 1v427z" />
<glyph unicode="v" horiz-adv-x="480" d="M35 500h37l146 -468h43l147 468h37l-157 -500h-98z" />
<glyph unicode="w" horiz-adv-x="761" d="M38 500h37l127 -468h11l148 458h39l147 -458h11l128 468h37l-137 -500h-68l-138 448l-139 -448h-68z" />
<glyph unicode="x" horiz-adv-x="456" d="M38 500h40l150 -223l150 223h40l-169 -250l169 -250h-41l-149 223l-149 -223h-41l169 250z" />
<glyph unicode="y" horiz-adv-x="480" d="M35 500h37l147 -468h41l148 468h37l-229 -730h-37l72 230h-61z" />
<glyph unicode="z" horiz-adv-x="481" d="M55 468v32h371v-32l-328 -436h328v-32h-371v32l328 436h-328z" />
<glyph unicode="{" horiz-adv-x="285" d="M139 169q-1 -10 -4 -51.5t-3 -64.5q0 -71 31 -106t112 -39l-2 -32q-95 4 -135.5 45.5t-40.5 131.5q0 21 3.5 66.5t3.5 56.5q0 48 -23.5 75t-80.5 43v32q57 14 80.5 42t23.5 78q0 13 -3.5 60.5t-3.5 67.5q0 90 40.5 131.5t135.5 45.5l2 -32q-82 -4 -112.5 -38.5 t-30.5 -106.5q0 -17 3.5 -61t3.5 -58q0 -65 -22 -95.5t-78 -48.5q56 -18 78 -49t22 -93z" />
<glyph unicode="|" d="M242 -59v759h35v-759h-35z" />
<glyph unicode="}" horiz-adv-x="285" d="M136 169q0 62 22 93t78 49q-56 18 -78 48.5t-22 95.5q0 14 3.5 58t3.5 61q0 72 -30.5 106.5t-112.5 38.5l2 32q95 -4 135.5 -45.5t40.5 -131.5q0 -20 -3.5 -67.5t-3.5 -60.5q0 -50 23.5 -78t80.5 -42v-32q-57 -16 -80.5 -43t-23.5 -75q0 -11 3.5 -56.5t3.5 -66.5 q0 -90 -40.5 -131.5t-135.5 -45.5l-2 32q81 4 112 39t31 106q0 23 -3 64.5t-4 51.5z" />
<glyph unicode="~" d="M455 370l7 -37q-54 -52 -100 -52q-33 0 -101 27t-91 27q-16 0 -40 -13.5t-40 -26.5l-15 -13l-7 35q56 54 102 54q34 0 102.5 -27t88.5 -27q16 0 39.5 13.5t39.5 26.5z" />
<glyph unicode="&#xa1;" d="M290 499v-80h-40v80h40zM288 286v-486h-35v486h35z" />
<glyph unicode="&#xa2;" horiz-adv-x="437" d="M234 -85v126q-96 3 -135.5 45.5t-39.5 160.5q0 110 43.5 160.5t130.5 53.5v130h35v-131l116 -10l-2 -35q-100 10 -138 10q-80 0 -112.5 -40.5t-32.5 -137.5q0 -99 31.5 -134.5t123.5 -35.5l130 8l2 -35q-74 -8 -117 -9v-126h-35z" />
<glyph unicode="&#xa3;" d="M443 668v-32q-87 12 -120 12q-62 0 -82 -36t-20 -147v-59h182v-32h-182v-340h174l82 16l7 -32l-82 -18h-308v34h92v340h-69v32h69v63q0 126 29.5 168.5t107.5 42.5z" />
<glyph unicode="&#xa4;" horiz-adv-x="529" d="M442 49l-70 71q-46 -38 -107 -38t-107 38l-70 -71l-26 26l71 70q-38 47 -38 107t38 107l-71 70l26 26l70 -71q46 38 107 38t107 -38l70 71l26 -26l-71 -70q38 -47 38 -107t-38 -107l71 -70zM170 157q39 -38 95 -38t95 38q38 39 38 95t-38 95q-39 38 -95 38t-95 -38 q-38 -39 -38 -95t38 -95z" />
<glyph unicode="&#xa5;" horiz-adv-x="540" d="M47 331v34h171l-193 295h41l205 -309l202 309h42l-191 -295h168v-34h-190l-13 -20v-95h204v-34h-204v-182h-36v182h-205v34h205v95l-13 20h-193z" />
<glyph unicode="&#xa6;" d="M239 750h34v-356h-34v356zM239 296h34v-356h-34v356z" />
<glyph unicode="&#xa7;" d="M421 647l-2 -32q-106 13 -154 13q-140 0 -140 -110q0 -65 32.5 -87.5t115.5 -35.5q86 -13 126 -42t40 -98q0 -64 -39 -127q36 -28 36 -93q0 -78 -44.5 -118t-128.5 -40q-27 0 -69 3.5t-70 6.5l-29 3l3 32q110 -14 165 -14q138 0 138 126q0 57 -31.5 75.5t-113.5 29.5 q-92 13 -134 43.5t-42 100.5q0 30 13.5 60t26.5 45l14 15q-44 33 -44 114q0 71 46 107t129 36zM266 363q-79 13 -107 26q-44 -53 -44 -104q0 -54 35 -78.5t113 -35.5q80 -12 111 -27q30 52 30 108q0 57 -32.5 78.5t-105.5 32.5z" />
<glyph unicode="&#xa8;" horiz-adv-x="215" d="M0 638v62h35v-62h-35zM190 638v62h35v-62h-35z" />
<glyph unicode="&#xa9;" d="M10 434q0 111 73 188.5t182 77.5t182.5 -77.5t73.5 -188.5t-73.5 -188t-182.5 -77t-182 77t-73 188zM42 434q0 -98 63.5 -165.5t159.5 -67.5t160 67.5t64 165.5t-64 166t-160 68t-159.5 -68t-63.5 -166zM338 321l1 -32q-43 -8 -74 -8q-62 0 -85.5 38.5t-23.5 113.5 q0 76 23 115t86 39l74 -7l-1 -32q-41 7 -73 7q-49 0 -63 -28t-14 -94q0 -62 16 -91t61 -29z" />
<glyph unicode="&#xaa;" horiz-adv-x="518" d="M346 571v-134q6 -20 37 -23l-2 -28q-32 1 -54 22q-63 -22 -119 -22q-31 0 -50.5 22t-19.5 58q0 70 75 76l102 7v23q0 32 -12 43.5t-40 11.5l-104 -7l-2 31q69 8 106 8q43 0 63 -20.5t20 -67.5zM315 520l-97 -6q-25 -2 -36 -13.5t-11 -36.5q0 -46 40 -46q20 0 46 4t42 8 l16 5v85z" />
<glyph unicode="&#xab;" d="M257 360l-135 -106l135 -117v-41l-167 138v36l167 129v-39zM464 360l-135 -106l135 -117v-41l-167 138v36l167 129v-39z" />
<glyph unicode="&#xac;" d="M69 332h396v-206h-36v172h-360v34z" />
<glyph unicode="&#xae;" d="M10 434q0 111 73 188.5t182 77.5t182.5 -77.5t73.5 -188.5t-73.5 -188t-182.5 -77t-182 77t-73 188zM42 434q0 -98 63.5 -165.5t159.5 -67.5t160 67.5t64 165.5t-64 166t-160 68t-159.5 -68t-63.5 -166zM340 276l-66 131h-79v-131h-32v315h91q64 0 89.5 -20t25.5 -70 q0 -76 -59 -91l65 -134h-35zM195 559v-120h80q34 0 48 13.5t14 48.5q0 33 -19 45.5t-61 12.5h-62z" />
<glyph unicode="&#xaf;" horiz-adv-x="215" d="M-20 642v32h267v-32h-267z" />
<glyph unicode="&#xb0;" d="M108 564q0 61 37.5 98.5t98.5 37.5t98.5 -37.5t37.5 -98.5t-37.5 -98t-98.5 -37t-98.5 37t-37.5 98zM142 564q0 -47 28 -75t74 -28q47 0 75.5 28.5t28.5 74.5t-29 75t-75 29t-74 -28.5t-28 -75.5z" />
<glyph unicode="&#xb1;" d="M55 330v34h193v138h36v-138h199v-34h-199v-144h-36v144h-193zM56 114h428v-34h-428v34z" />
<glyph unicode="&#xb2;" horiz-adv-x="265" d="M223 478h-195v34l98 104q18 19 27.5 31t18 30.5t8.5 37.5q0 50 -57 50l-90 -12l-2 33q51 13 93 13q92 0 92 -85q0 -32 -15.5 -59t-49.5 -62l-76 -81h148v-34z" />
<glyph unicode="&#xb3;" horiz-adv-x="265" d="M33 788q53 11 98 11q49 0 72.5 -19t23.5 -61q0 -26 -12 -45t-20.5 -24.5t-15.5 -8.5q30 -9 43.5 -24.5t13.5 -54.5q0 -93 -100 -93l-107 11l3 32q54 -9 104 -9q63 0 63 58q0 61 -60 61h-65v34h65q18 0 34.5 19t16.5 44q0 23 -13 34.5t-45 11.5q-20 0 -44 -2.5t-38 -4.5 l-14 -2z" />
<glyph unicode="&#xb4;" horiz-adv-x="268" d="M40 636l192 96l16 -31l-193 -92z" />
<glyph unicode="&#xb5;" d="M90 -250v750h35v-258q0 -132 24 -175.5t105 -43.5q84 0 162 49l2 1v427h35v-500h-35v40l-24 -13.5t-58.5 -22t-81.5 -13.5q-94 0 -129 51v-292h-35z" />
<glyph unicode="&#x3bc;" d="M90 -250v750h35v-258q0 -132 24 -175.5t105 -43.5q84 0 162 49l2 1v427h35v-500h-35v40l-24 -13.5t-58.5 -22t-81.5 -13.5q-94 0 -129 51v-292h-35z" />
<glyph unicode="&#xb6;" d="M389 0v667h-152v-667h-36v350h-7q-79 0 -132.5 48.5t-53.5 125.5t53.5 126.5t132.5 49.5h328v-33h-97v-667h-36z" />
<glyph unicode="&#xb7;" horiz-adv-x="248" d="M98 270v80h40v-80h-40z" />
<glyph unicode="&#xb8;" horiz-adv-x="833" d="M559 -127q0 -74 -82 -74l-81 4l2 28q44 -4 78 -4q48 0 48 46q0 42 -48 42h-54v86h33v-58q56 0 80 -15t24 -55z" />
<glyph unicode="&#xb9;" horiz-adv-x="265" d="M39 723l99 67h36v-312h-36v273l-82 -56z" />
<glyph unicode="&#xba;" horiz-adv-x="526" d="M259 659q58 0 85.5 -32.5t27.5 -102.5q0 -138 -113 -138q-115 0 -115 138q0 135 115 135zM259 418q43 0 61 24.5t18 81.5t-18 80t-61 23t-62 -23.5t-19 -79.5q0 -57 19 -81.5t62 -24.5z" />
<glyph unicode="&#xbb;" d="M408 254l-135 106v39l167 -129v-36l-167 -138v41zM201 254l-135 106v39l167 -129v-36l-167 -138v41z" />
<glyph unicode="&#xbf;" horiz-adv-x="386" d="M10 -51q0 45 20.5 84.5t50 68l58.5 54.5t49.5 55.5t20.5 60.5v38h35v-41q0 -34 -20.5 -66.5t-50 -59.5l-58.5 -55t-49.5 -64t-20.5 -75q0 -69 40.5 -97t124.5 -28l161 28l5 -34q-112 -27 -166 -27q-99 0 -149.5 36.5t-50.5 121.5zM246 499v-80h-40v80h40z" />
<glyph unicode="&#xc0;" horiz-adv-x="604" d="M35 0l215 700h106l213 -698h-36l-67 213h-328l-67 -215h-36zM275 666l-127 -417h308l-127 417h-54zM200 922l192 -96l-15 -27l-193 92z" />
<glyph unicode="&#xc1;" horiz-adv-x="604" d="M35 0l215 700h106l213 -698h-36l-67 213h-328l-67 -215h-36zM275 666l-127 -417h308l-127 417h-54zM208 836l192 96l16 -31l-193 -92z" />
<glyph unicode="&#xc2;" horiz-adv-x="604" d="M35 0l215 700h106l213 -698h-36l-67 213h-328l-67 -215h-36zM275 666l-127 -417h308l-127 417h-54zM166 800l121 132h28l122 -132h-43l-92 100l-93 -100h-43z" />
<glyph unicode="&#xc3;" horiz-adv-x="604" d="M35 0l215 700h106l213 -698h-36l-67 213h-328l-67 -215h-36zM275 666l-127 -417h308l-127 417h-54zM456 914l11 -28q-52 -55 -83 -55q-23 0 -83.5 32t-75.5 32q-9 0 -29 -13.5t-36 -27.5l-15 -14l-10 29q57 57 90 57q23 0 83.5 -31.5t75.5 -31.5q8 0 26 12.5t32 25.5z " />
<glyph unicode="&#xc4;" horiz-adv-x="604" d="M35 0l215 700h106l213 -698h-36l-67 213h-328l-67 -215h-36zM275 666l-127 -417h308l-127 417h-54zM199 838v62h35v-62h-35zM389 838v62h35v-62h-35z" />
<glyph unicode="&#xc5;" horiz-adv-x="604" d="M398 759q0 -52 -37 -76l208 -681h-36l-67 213h-328l-67 -215h-36l209 681q-40 24 -40 78q0 43 26.5 67.5t70.5 24.5t70.5 -24.5t26.5 -67.5zM275 666l-127 -417h308l-127 417h-54zM237 759q0 -48 40 -59h47q41 11 41 59q0 30 -17 46t-47 16t-47 -16t-17 -46z" />
<glyph unicode="&#xc6;" horiz-adv-x="898" d="M429 0v215h-276l-78 -215h-40l251 700h552v-34h-373v-288h313v-34h-313v-310h373v-34h-409zM314 666l-149 -417h264v417h-115z" />
<glyph unicode="&#xc7;" horiz-adv-x="537" d="M422 -127q0 -74 -82 -74l-81 4l2 28q44 -4 78 -4q48 0 48 46q0 42 -48 42h-54v77q-55 3 -95.5 20.5t-65.5 46.5t-40 74t-20.5 95.5t-5.5 118.5q0 71 5.5 122t21 99t42.5 77t72 46.5t108 17.5q42 0 88.5 -4.5t71.5 -9.5l25 -5l-3 -35q-101 20 -182 20q-55 0 -94 -16 t-61.5 -41.5t-35 -70t-16.5 -89.5t-4 -111t4 -111t17 -88t36 -68t61.5 -40t92.5 -15q32 0 77.5 5t75.5 10l29 5l3 -34q-97 -18 -174 -20v-48q56 0 80 -15t24 -55z" />
<glyph unicode="&#xc8;" horiz-adv-x="572" d="M103 0v700h409v-34h-373v-289h313v-34h-313v-309h373v-34h-409zM216 922l192 -96l-15 -27l-193 92z" />
<glyph unicode="&#xc9;" horiz-adv-x="572" d="M103 0v700h409v-34h-373v-289h313v-34h-313v-309h373v-34h-409zM223 836l192 96l16 -31l-193 -92z" />
<glyph unicode="&#xca;" horiz-adv-x="572" d="M103 0v700h409v-34h-373v-289h313v-34h-313v-309h373v-34h-409zM172 800l121 132h28l122 -132h-43l-92 100l-93 -100h-43z" />
<glyph unicode="&#xcb;" horiz-adv-x="572" d="M103 0v700h409v-34h-373v-289h313v-34h-313v-309h373v-34h-409zM195 838v62h35v-62h-35zM385 838v62h35v-62h-35z" />
<glyph unicode="&#xcc;" horiz-adv-x="226" d="M95 0v700h36v-700h-36zM-4 922l192 -96l-15 -27l-193 92z" />
<glyph unicode="&#xcd;" horiz-adv-x="226" d="M95 0v700h36v-700h-36zM20 826l192 96l16 -31l-193 -92z" />
<glyph unicode="&#xce;" horiz-adv-x="226" d="M95 0v700h36v-700h-36zM-35 809l134 125h30l134 -125h-45l-104 96l-103 -96h-46z" />
<glyph unicode="&#xcf;" horiz-adv-x="226" d="M95 0v700h36v-700h-36zM-1 838v62h35v-62h-35zM195 838v62h35v-62h-35z" />
<glyph unicode="&#xd0;" horiz-adv-x="653" d="M26 324v34h77v342h260q64 0 110.5 -28t73 -77t38.5 -107.5t12 -127.5q0 -70 -12.5 -131t-38.5 -114t-73 -84t-110 -31h-260v324h-77zM559 360q0 60 -10 111.5t-31.5 97t-61 71.5t-93.5 26h-224v-308h167v-34h-167v-290h224q54 0 93.5 29t61 78.5t31.5 104t10 114.5z" />
<glyph unicode="&#xd1;" horiz-adv-x="687" d="M103 0v700h85l333 -666h27v666h36v-700h-85l-334 666h-26v-666h-36zM484 903l9 -30q-42 -43 -73 -43q-21 0 -76.5 27t-70.5 27q-21 0 -70 -45l-10 29q49 47 82 47q21 0 76.5 -26.5t70.5 -26.5q18 0 62 41z" />
<glyph unicode="&#xd2;" horiz-adv-x="656" d="M328 25q72 0 117.5 18.5t70 61t33.5 98.5t9 144q0 168 -48.5 248t-181.5 80q-70 0 -116 -21t-70.5 -65.5t-34 -101t-9.5 -140.5q0 -85 9 -140t33.5 -98.5t70.5 -63.5t117 -20zM328 -9q-80 0 -133 22t-82.5 69.5t-41 110t-11.5 154.5q0 184 58 273t210 89t210 -88.5 t58 -273.5q0 -191 -56.5 -273.5t-211.5 -82.5zM237 922l192 -96l-15 -27l-193 92z" />
<glyph unicode="&#xd3;" horiz-adv-x="656" d="M328 25q72 0 117.5 18.5t70 61t33.5 98.5t9 144q0 168 -48.5 248t-181.5 80q-70 0 -116 -21t-70.5 -65.5t-34 -101t-9.5 -140.5q0 -85 9 -140t33.5 -98.5t70.5 -63.5t117 -20zM328 -9q-80 0 -133 22t-82.5 69.5t-41 110t-11.5 154.5q0 184 58 273t210 89t210 -88.5 t58 -273.5q0 -191 -56.5 -273.5t-211.5 -82.5zM224 836l192 96l16 -31l-193 -92z" />
<glyph unicode="&#xd4;" horiz-adv-x="656" d="M328 25q72 0 117.5 18.5t70 61t33.5 98.5t9 144q0 168 -48.5 248t-181.5 80q-70 0 -116 -21t-70.5 -65.5t-34 -101t-9.5 -140.5q0 -85 9 -140t33.5 -98.5t70.5 -63.5t117 -20zM328 -9q-80 0 -133 22t-82.5 69.5t-41 110t-11.5 154.5q0 184 58 273t210 89t210 -88.5 t58 -273.5q0 -191 -56.5 -273.5t-211.5 -82.5zM193 800l121 132h28l122 -132h-43l-92 100l-93 -100h-43z" />
<glyph unicode="&#xd5;" horiz-adv-x="656" d="M328 25q72 0 117.5 18.5t70 61t33.5 98.5t9 144q0 168 -48.5 248t-181.5 80q-70 0 -116 -21t-70.5 -65.5t-34 -101t-9.5 -140.5q0 -85 9 -140t33.5 -98.5t70.5 -63.5t117 -20zM328 -9q-80 0 -133 22t-82.5 69.5t-41 110t-11.5 154.5q0 184 58 273t210 89t210 -88.5 t58 -273.5q0 -191 -56.5 -273.5t-211.5 -82.5zM470 903l9 -30q-42 -43 -73 -43q-21 0 -76.5 27t-70.5 27q-21 0 -70 -45l-10 29q49 47 82 47q21 0 76.5 -26.5t70.5 -26.5q18 0 62 41z" />
<glyph unicode="&#xd6;" horiz-adv-x="656" d="M328 25q72 0 117.5 18.5t70 61t33.5 98.5t9 144q0 168 -48.5 248t-181.5 80q-70 0 -116 -21t-70.5 -65.5t-34 -101t-9.5 -140.5q0 -85 9 -140t33.5 -98.5t70.5 -63.5t117 -20zM328 -9q-80 0 -133 22t-82.5 69.5t-41 110t-11.5 154.5q0 184 58 273t210 89t210 -88.5 t58 -273.5q0 -191 -56.5 -273.5t-211.5 -82.5zM213 838v62h35v-62h-35zM403 838v62h35v-62h-35z" />
<glyph unicode="&#xd7;" horiz-adv-x="833" d="M225 482l196 -207l197 207l27 -24l-199 -208l201 -211l-26 -23l-200 208l-199 -208l-26 23l201 211l-199 208z" />
<glyph unicode="&#xd8;" horiz-adv-x="656" d="M328 -9q-79 0 -134 23l-58 -125l-33 13l60 129q-57 38 -80 115t-23 201q0 184 58 273t210 89q82 0 140 -28l52 111l33 -14l-55 -116q54 -42 76 -119t22 -196q0 -191 -56.5 -273.5t-211.5 -82.5zM98 347q0 -112 17.5 -180t63.5 -103l273 584q-48 27 -124 27 q-70 0 -116 -21t-70.5 -65.5t-34 -101t-9.5 -140.5zM328 25q72 0 117.5 18.5t70 61t33.5 98.5t9 144q0 210 -76 280l-273 -581q47 -21 119 -21z" />
<glyph unicode="&#xd9;" horiz-adv-x="642" d="M126 196q0 -91 49 -131t141 -40q99 0 149.5 39.5t50.5 131.5v504h36v-504q0 -109 -59.5 -157t-176.5 -48q-110 0 -168 48t-58 157v504h36v-504zM228 922l192 -96l-15 -27l-193 92z" />
<glyph unicode="&#xda;" horiz-adv-x="642" d="M126 196q0 -91 49 -131t141 -40q99 0 149.5 39.5t50.5 131.5v504h36v-504q0 -109 -59.5 -157t-176.5 -48q-110 0 -168 48t-58 157v504h36v-504zM217 836l192 96l16 -31l-193 -92z" />
<glyph unicode="&#xdb;" horiz-adv-x="642" d="M126 196q0 -91 49 -131t141 -40q99 0 149.5 39.5t50.5 131.5v504h36v-504q0 -109 -59.5 -157t-176.5 -48q-110 0 -168 48t-58 157v504h36v-504zM186 800l121 132h28l122 -132h-43l-92 100l-93 -100h-43z" />
<glyph unicode="&#xdc;" horiz-adv-x="642" d="M126 196q0 -91 49 -131t141 -40q99 0 149.5 39.5t50.5 131.5v504h36v-504q0 -109 -59.5 -157t-176.5 -48q-110 0 -168 48t-58 157v504h36v-504zM220 838v62h35v-62h-35zM410 838v62h35v-62h-35z" />
<glyph unicode="&#xdd;" horiz-adv-x="540" d="M289 301v-301h-36v301l-228 399h41l205 -359l202 359h42zM166 836l192 96l16 -31l-193 -92z" />
<glyph unicode="&#xde;" horiz-adv-x="615" d="M358 169q169 0 169 198q0 92 -39.5 134.5t-129.5 42.5h-219v-375h219zM358 135h-219v-135h-36v700h36v-122h219q108 0 157.5 -51t49.5 -160q0 -232 -207 -232z" />
<glyph unicode="&#xdf;" horiz-adv-x="589" d="M137 0h-36v561q0 100 40 139t133 39q95 0 132.5 -31.5t37.5 -103.5q0 -46 -16.5 -81.5t-47.5 -47.5q-44 -17 -56.5 -25.5t-12.5 -24.5q0 -11 14 -23t70 -46l29.5 -17.5l26 -15.5l21 -13l18.5 -12t14 -10.5t11.5 -11t7.5 -10.5t5 -12t1 -13q0 -71 -9 -114.5t-34.5 -76 t-72.5 -46t-122 -13.5l-78 4l4 34q57 -4 74 -4q68 0 108.5 11.5t60.5 41t25.5 64.5t5.5 99q0 12 -26.5 31t-94.5 58q-65 37 -81 53.5t-16 41.5q0 28 18.5 42.5t68.5 36.5q30 13 38 36t8 64q0 57 -28.5 79t-103.5 22t-106 -31.5t-31 -125.5v-548z" />
<glyph unicode="&#xe0;" horiz-adv-x="518" d="M418 353v-288q4 -36 75 -42l-2 -31q-73 0 -103 42q-102 -43 -202 -43q-62 0 -96.5 37t-34.5 109q0 65 33 101t105 43l190 20v52q0 64 -27.5 93t-83.5 29q-32 0 -79.5 -4.5t-78.5 -8.5l-31 -4l-3 33q112 18 192 18q146 0 146 -156zM383 269l-186 -19q-57 -6 -81 -33 t-24 -80q0 -55 24.5 -84.5t70.5 -29.5q93 0 196 41v205zM156 732l192 -96l-15 -27l-193 92z" />
<glyph unicode="&#xe1;" horiz-adv-x="518" d="M418 353v-288q4 -36 75 -42l-2 -31q-73 0 -103 42q-102 -43 -202 -43q-62 0 -96.5 37t-34.5 109q0 65 33 101t105 43l190 20v52q0 64 -27.5 93t-83.5 29q-32 0 -79.5 -4.5t-78.5 -8.5l-31 -4l-3 33q112 18 192 18q146 0 146 -156zM383 269l-186 -19q-57 -6 -81 -33 t-24 -80q0 -55 24.5 -84.5t70.5 -29.5q93 0 196 41v205zM139 636l192 96l16 -31l-193 -92z" />
<glyph unicode="&#xe2;" horiz-adv-x="518" d="M418 353v-288q4 -36 75 -42l-2 -31q-73 0 -103 42q-102 -43 -202 -43q-62 0 -96.5 37t-34.5 109q0 65 33 101t105 43l190 20v52q0 64 -27.5 93t-83.5 29q-32 0 -79.5 -4.5t-78.5 -8.5l-31 -4l-3 33q112 18 192 18q146 0 146 -156zM383 269l-186 -19q-57 -6 -81 -33 t-24 -80q0 -55 24.5 -84.5t70.5 -29.5q93 0 196 41v205zM110 600l121 132h28l122 -132h-43l-92 100l-93 -100h-43z" />
<glyph unicode="&#xe3;" horiz-adv-x="518" d="M418 353v-287q4 -36 75 -42l-2 -32q-75 0 -103 40q-93 -41 -206 -41q-60 0 -93.5 37.5t-33.5 108.5q0 65 32.5 101t105.5 43l190 20v52q0 64 -27.5 93t-83.5 29q-32 0 -79.5 -4.5t-78.5 -8.5l-31 -4l-3 33q112 18 192 18q146 0 146 -156zM383 268l-186 -18 q-105 -11 -105 -113q0 -54 24.5 -84t66.5 -30q44 0 94 10t78 20l28 10v205zM387 703l9 -30q-42 -43 -73 -43q-21 0 -76.5 27t-70.5 27q-21 0 -70 -45l-10 29q49 47 82 47q21 0 76.5 -26.5t70.5 -26.5q18 0 62 41z" />
<glyph unicode="&#xe4;" horiz-adv-x="518" d="M418 353v-287q4 -36 75 -42l-2 -32q-75 0 -103 40q-93 -41 -206 -41q-60 0 -93.5 37.5t-33.5 108.5q0 65 32.5 101t105.5 43l190 20v52q0 64 -27.5 93t-83.5 29q-32 0 -79.5 -4.5t-78.5 -8.5l-31 -4l-3 33q112 18 192 18q146 0 146 -156zM383 268l-186 -18 q-105 -11 -105 -113q0 -54 24.5 -84t66.5 -30q44 0 94 10t78 20l28 10v205zM141 638v62h35v-62h-35zM331 638v62h35v-62h-35z" />
<glyph unicode="&#xe5;" horiz-adv-x="518" d="M418 353v-288q4 -36 75 -42l-2 -31q-73 0 -103 42q-102 -43 -202 -43q-62 0 -96.5 37t-34.5 109q0 65 33 101t105 43l190 20v52q0 64 -27.5 93t-83.5 29q-32 0 -79.5 -4.5t-78.5 -8.5l-31 -4l-3 33q112 18 192 18q146 0 146 -156zM383 269l-186 -19q-57 -6 -81 -33 t-24 -80q0 -55 24.5 -84.5t70.5 -29.5q93 0 196 41v205zM160 650q0 40 28 67.5t68 27.5t67 -27.5t27 -67.5t-27 -67.5t-67 -27.5q-41 0 -68.5 27.5t-27.5 67.5zM194 650q0 -26 18 -45t44 -19q25 0 43 19t18 45t-18 44.5t-43 18.5q-26 0 -44 -18.5t-18 -44.5z" />
<glyph unicode="&#xe6;" horiz-adv-x="828" d="M570 23l182 9l2 -32q-112 -9 -185 -9q-98 0 -143 58l-38 -16q-93 -42 -206 -42q-127 0 -127 146q0 80 39 107.5t146 41.5l143 15v52q0 64 -27.5 93t-83.5 29l-188 -9l-2 33q110 10 190 10q115 0 139 -96q49 96 172 96q95 0 142.5 -57t47.5 -183v-33h-355 q0 -108 34 -160.5t118 -52.5zM183 23q42 0 97 12t84.5 22t46.5 17q-30 59 -30 194l-184 -18q-55 -5 -80 -32t-25 -81q0 -55 24 -84.5t67 -29.5zM418 268h318q0 113 -36.5 161t-116.5 48q-165 0 -165 -209z" />
<glyph unicode="&#xe7;" horiz-adv-x="437" d="M357 -127q0 -74 -82 -74l-81 4l2 28q44 -4 78 -4q48 0 48 46q0 42 -48 42h-54v78q-94 9 -127 68t-33 200q0 138 46 193t159 55l120 -10l-2 -32q-80 10 -118 10q-95 0 -131.5 -48t-36.5 -168q0 -135 33 -186.5t135 -51.5l120 9l2 -32q-84 -9 -122 -9h-12v-48q56 0 80 -15 t24 -55z" />
<glyph unicode="&#xe8;" horiz-adv-x="507" d="M249 23l182 9l2 -32q-112 -9 -185 -9q-106 1 -147 64.5t-41 194.5q0 259 202 259q95 0 142.5 -57t47.5 -183v-33h-355q0 -108 34 -160.5t118 -52.5zM97 268h318q0 113 -36.5 161t-116.5 48q-165 0 -165 -209zM146 733l192 -96l-15 -27l-193 92z" />
<glyph unicode="&#xe9;" horiz-adv-x="507" d="M249 23l182 9l2 -32q-112 -9 -185 -9q-106 1 -147 64.5t-41 194.5q0 259 202 259q95 0 142.5 -57t47.5 -183v-33h-355q0 -108 34 -160.5t118 -52.5zM97 268h318q0 113 -36.5 161t-116.5 48q-165 0 -165 -209zM173 636l192 96l16 -31l-193 -92z" />
<glyph unicode="&#xea;" horiz-adv-x="507" d="M249 23l182 9l2 -32q-112 -9 -185 -9q-106 1 -147 64.5t-41 194.5q0 259 202 259q95 0 142.5 -57t47.5 -183v-33h-355q0 -108 34 -160.5t118 -52.5zM97 268h318q0 113 -36.5 161t-116.5 48q-165 0 -165 -209zM130 600l121 132h28l122 -132h-43l-92 100l-93 -100h-43z" />
<glyph unicode="&#xeb;" horiz-adv-x="507" d="M249 23l182 9l2 -32q-112 -9 -185 -9q-106 1 -147 64.5t-41 194.5q0 259 202 259q95 0 142.5 -57t47.5 -183v-33h-355q0 -108 34 -160.5t118 -52.5zM97 268h318q0 113 -36.5 161t-116.5 48q-165 0 -165 -209zM146 638v62h35v-62h-35zM336 638v62h35v-62h-35z" />
<glyph unicode="&#xec;" horiz-adv-x="261" d="M113 0v500h35v-500h-35zM43 732l192 -96l-15 -27l-193 92z" />
<glyph unicode="&#xed;" horiz-adv-x="261" d="M57 636l192 96l16 -31l-193 -92zM113 0v500h35v-500h-35z" />
<glyph unicode="&#xee;" horiz-adv-x="261" d="M113 0v500h35v-500h-35zM-5 600l121 132h28l122 -132h-43l-92 100l-93 -100h-43z" />
<glyph unicode="&#xef;" horiz-adv-x="261" d="M15 638v62h35v-62h-35zM205 638v62h35v-62h-35zM113 0v500h35v-500h-35z" />
<glyph unicode="&#xf0;" d="M159 556l-20 27l106 72q-60 31 -133 53l13 31q87 -26 152 -63l102 69l20 -27l-89 -61q172 -111 172 -302q0 -201 -49.5 -282.5t-165.5 -81.5q-101 0 -158 58.5t-57 164.5q0 95 55 153t149 58q78 0 189 -44q-5 156 -167 255zM258 391q-79 0 -124.5 -49t-45.5 -128 q0 -91 46.5 -140t132.5 -49q99 0 138.5 69t40.5 252q-116 45 -188 45z" />
<glyph unicode="&#xf1;" horiz-adv-x="573" d="M136 0h-35v500h35v-40q89 49 175 49q100 0 132 -50.5t32 -198.5v-260h-35v258q0 132 -24 175.5t-105 43.5q-87 -1 -175 -50v-427zM440 703l9 -30q-42 -43 -73 -43q-21 0 -76.5 27t-70.5 27q-21 0 -70 -45l-10 29q49 47 82 47q21 0 76.5 -26.5t70.5 -26.5q18 0 62 41z" />
<glyph unicode="&#xf2;" horiz-adv-x="526" d="M265 509q103 0 152 -58t49 -192q0 -147 -41 -207.5t-160 -60.5q-122 0 -163.5 58t-41.5 212q0 138 46.5 193t158.5 55zM265 23q54 0 87.5 13.5t50 46t21.5 71.5t5 105q0 118 -39.5 168t-124.5 50q-97 0 -132.5 -45.5t-35.5 -170.5q0 -70 5.5 -110.5t23.5 -72t51 -43.5 t88 -12zM170 732l192 -96l-15 -27l-193 92z" />
<glyph unicode="&#xf3;" horiz-adv-x="526" d="M265 509q103 0 152 -58t49 -192q0 -147 -41 -207.5t-160 -60.5q-122 0 -163.5 58t-41.5 212q0 138 46.5 193t158.5 55zM265 23q54 0 87.5 13.5t50 46t21.5 71.5t5 105q0 118 -39.5 168t-124.5 50q-97 0 -132.5 -45.5t-35.5 -170.5q0 -70 5.5 -110.5t23.5 -72t51 -43.5 t88 -12zM179 636l192 96l16 -31l-193 -92z" />
<glyph unicode="&#xf4;" horiz-adv-x="526" d="M265 509q103 0 152 -58t49 -192q0 -147 -41 -207.5t-160 -60.5q-122 0 -163.5 58t-41.5 212q0 138 46.5 193t158.5 55zM265 23q54 0 87.5 13.5t50 46t21.5 71.5t5 105q0 118 -39.5 168t-124.5 50q-97 0 -132.5 -45.5t-35.5 -170.5q0 -70 5.5 -110.5t23.5 -72t51 -43.5 t88 -12zM128 600l121 132h28l122 -132h-43l-92 100l-93 -100h-43z" />
<glyph unicode="&#xf5;" horiz-adv-x="526" d="M265 509q103 0 152 -58t49 -192q0 -147 -41 -207.5t-160 -60.5q-122 0 -163.5 58t-41.5 212q0 138 46.5 193t158.5 55zM265 23q54 0 87.5 13.5t50 46t21.5 71.5t5 105q0 118 -39.5 168t-124.5 50q-97 0 -132.5 -45.5t-35.5 -170.5q0 -70 5.5 -110.5t23.5 -72t51 -43.5 t88 -12zM405 703l9 -30q-42 -43 -73 -43q-21 0 -76.5 27t-70.5 27q-21 0 -70 -45l-10 29q49 47 82 47q21 0 76.5 -26.5t70.5 -26.5q18 0 62 41z" />
<glyph unicode="&#xf6;" horiz-adv-x="526" d="M265 509q103 0 152 -58t49 -192q0 -147 -41 -207.5t-160 -60.5q-122 0 -163.5 58t-41.5 212q0 138 46.5 193t158.5 55zM265 23q54 0 87.5 13.5t50 46t21.5 71.5t5 105q0 118 -39.5 168t-124.5 50q-97 0 -132.5 -45.5t-35.5 -170.5q0 -70 5.5 -110.5t23.5 -72t51 -43.5 t88 -12zM146 638v62h35v-62h-35zM336 638v62h35v-62h-35z" />
<glyph unicode="&#xf7;" d="M33 334v36h336v-36h-336zM181 483v80h40v-80h-40zM181 139v80h40v-80h-40z" />
<glyph unicode="&#xf8;" horiz-adv-x="526" d="M265 509q47 0 83 -12l45 108l30 -11l-46 -110q89 -49 89 -225q0 -147 -41 -207.5t-160 -60.5q-50 0 -86 9l-46 -114l-30 10l46 114q-51 24 -70 82t-19 169q0 138 46.5 193t158.5 55zM265 477q-97 0 -132.5 -45.5t-35.5 -170.5q0 -98 13.5 -148t53.5 -71l172 424 q-31 11 -71 11zM265 23q54 0 87.5 13.5t50 46t21.5 71.5t5 105q0 145 -65 192l-173 -420q27 -8 74 -8z" />
<glyph unicode="&#xf9;" horiz-adv-x="557" d="M164 732l192 -96l-15 -27l-193 92zM421 500h35v-500h-35v40l-24 -13.5t-58.5 -22t-81.5 -13.5q-100 0 -132 50.5t-32 198.5v260h35v-258q0 -132 24 -175.5t105 -43.5q84 0 162 49l2 1v427z" />
<glyph unicode="&#xfa;" horiz-adv-x="557" d="M421 500h35v-500h-35v40l-24 -13.5t-58.5 -22t-81.5 -13.5q-100 0 -132 50.5t-32 198.5v260h35v-258q0 -132 24 -175.5t105 -43.5q84 0 162 49l2 1v427zM191 636l192 96l16 -31l-193 -92z" />
<glyph unicode="&#xfb;" horiz-adv-x="557" d="M421 500h35v-500h-35v40l-24 -13.5t-58.5 -22t-81.5 -13.5q-100 0 -132 50.5t-32 198.5v260h35v-258q0 -132 24 -175.5t105 -43.5q84 0 162 49l2 1v427zM140 600l121 132h28l122 -132h-43l-92 100l-93 -100h-43z" />
<glyph unicode="&#xfc;" horiz-adv-x="557" d="M421 500h35v-500h-35v40l-24 -13.5t-58.5 -22t-81.5 -13.5q-100 0 -132 50.5t-32 198.5v260h35v-258q0 -132 24 -175.5t105 -43.5q84 0 162 49l2 1v427zM173 638v62h35v-62h-35zM363 638v62h35v-62h-35z" />
<glyph unicode="&#xfd;" horiz-adv-x="480" d="M30 500h37l147 -468h41l148 468h37l-229 -730h-37l72 230h-61zM162 636l192 96l16 -31l-193 -92z" />
<glyph unicode="&#xfe;" horiz-adv-x="538" d="M289 23q62 0 100.5 13.5t58.5 45.5t26.5 72t6.5 105q0 119 -26.5 168.5t-106.5 49.5q-40 0 -83 -10t-66 -20l-23 -10v-408q78 -6 113 -6zM348 509q99 0 134.5 -56.5t35.5 -191.5q0 -147 -47 -208.5t-181 -61.5q-54 0 -114 6v-227h-35v960h35v-261q83 40 172 40z" />
<glyph unicode="&#xff;" horiz-adv-x="480" d="M35 500h37l147 -468h41l148 468h37l-229 -730h-37l72 230h-61zM122 638v62h35v-62h-35zM312 638v62h35v-62h-35z" />
<glyph unicode="&#x100;" horiz-adv-x="604" d="M35 0l215 700h106l213 -698h-36l-67 213h-328l-67 -215h-36zM275 666l-127 -417h308l-127 417h-54zM148 832v32h287v-32h-287z" />
<glyph unicode="&#x101;" horiz-adv-x="518" d="M418 353v-287q4 -36 75 -42l-2 -32q-75 0 -103 40q-93 -41 -206 -41q-60 0 -93.5 37.5t-33.5 108.5q0 65 32.5 101t105.5 43l190 20v52q0 64 -27.5 93t-83.5 29q-32 0 -79.5 -4.5t-78.5 -8.5l-31 -4l-3 33q112 18 192 18q146 0 146 -156zM383 268l-186 -18 q-105 -11 -105 -113q0 -54 24.5 -84t66.5 -30q44 0 94 10t78 20l28 10v205zM122 642v32h267v-32h-267z" />
<glyph unicode="&#x102;" horiz-adv-x="604" d="M35 0l215 700h106l213 -698h-36l-67 213h-328l-67 -215h-36zM275 666l-127 -417h308l-127 417h-54zM164 923h35q0 -40 30 -63.5t73 -23.5t73 23.5t30 63.5h35q0 -54 -40 -86.5t-98 -32.5t-98 32.5t-40 86.5z" />
<glyph unicode="&#x103;" horiz-adv-x="518" d="M418 353v-287q4 -36 75 -42l-2 -32q-75 0 -103 40q-93 -41 -206 -41q-60 0 -93.5 37.5t-33.5 108.5q0 65 32.5 101t105.5 43l190 20v52q0 64 -27.5 93t-83.5 29q-32 0 -79.5 -4.5t-78.5 -8.5l-31 -4l-3 33q112 18 192 18q146 0 146 -156zM383 268l-186 -18 q-105 -11 -105 -113q0 -54 24.5 -84t66.5 -30q44 0 94 10t78 20l28 10v205zM121 723h35q0 -42 27.5 -69t75.5 -27t75.5 27t27.5 69h35q0 -56 -38 -92t-100 -36t-100 36t-38 92z" />
<glyph unicode="&#x104;" horiz-adv-x="604" d="M586 -159l4 -33q-36 -8 -64 -8q-35 0 -57.5 22t-22.5 60q0 20 21 51t41 52l21 21l3 -1l-66 210h-328l-67 -215h-36l215 700h106l213 -698h-12l7 -1q-81 -85 -81 -117q0 -21 13 -35.5t34 -14.5zM275 666l-127 -417h308l-127 417h-54z" />
<glyph unicode="&#x105;" horiz-adv-x="518" d="M489 -159l4 -33q-36 -8 -64 -8q-35 0 -57.5 22t-22.5 60q0 27 30 65t49 55q-26 12 -40 32q-102 -43 -202 -43q-62 0 -96.5 37t-34.5 109q0 65 33 101t105 43l190 20v52q0 64 -27.5 93t-83.5 29q-32 0 -79.5 -4.5t-78.5 -8.5l-31 -4l-3 33q112 18 192 18q146 0 146 -156 v-288q4 -36 75 -42l-2 -31q-11 0 -31 2q-74 -83 -74 -110q0 -21 13 -35.5t34 -14.5zM383 269l-186 -19q-57 -6 -81 -33t-24 -80q0 -55 24.5 -84.5t70.5 -29.5q93 0 196 41v205z" />
<glyph unicode="&#x106;" horiz-adv-x="537" d="M489 45l3 -34q-106 -20 -185 -20q-76 0 -125.5 23.5t-76.5 72.5t-37 110t-10 150q0 71 5.5 122t21 99t42.5 77t72 46.5t108 17.5q42 0 88.5 -4.5t71.5 -9.5l25 -5l-3 -35q-101 20 -182 20q-55 0 -94 -16t-61.5 -41.5t-35 -70t-16.5 -89.5t-4 -111t4 -111t17 -88t36 -68 t61.5 -40t92.5 -15q32 0 77.5 5t75.5 10zM184 826l192 96l16 -31l-193 -92z" />
<glyph unicode="&#x107;" horiz-adv-x="437" d="M265 509l120 -10l-2 -32q-80 10 -118 10q-95 0 -131.5 -48t-36.5 -168q0 -135 33 -186.5t135 -51.5l120 9l2 -32q-84 -9 -122 -9q-122 0 -163.5 57.5t-41.5 212.5q0 138 46 193t159 55zM137 636l192 96l16 -31l-193 -92z" />
<glyph unicode="&#x108;" horiz-adv-x="537" d="M489 45l3 -34q-106 -20 -185 -20q-76 0 -125.5 23.5t-76.5 72.5t-37 110t-10 150q0 71 5.5 122t21 99t42.5 77t72 46.5t108 17.5q42 0 88.5 -4.5t71.5 -9.5l25 -5l-3 -35q-101 20 -182 20q-55 0 -94 -16t-61.5 -41.5t-35 -70t-16.5 -89.5t-4 -111t4 -111t17 -88t36 -68 t61.5 -40t92.5 -15q32 0 77.5 5t75.5 10zM160 804l134 125h30l134 -125h-45l-104 96l-103 -96h-46z" />
<glyph unicode="&#x109;" horiz-adv-x="437" d="M265 509l120 -10l-2 -32q-80 10 -118 10q-95 0 -131.5 -48t-36.5 -168q0 -135 33 -186.5t135 -51.5l120 9l2 -32q-84 -9 -122 -9q-122 0 -163.5 57.5t-41.5 212.5q0 138 46 193t159 55zM103 600l121 132h28l122 -132h-43l-92 100l-93 -100h-43z" />
<glyph unicode="&#x10a;" horiz-adv-x="537" d="M489 45l3 -34q-106 -20 -185 -20q-76 0 -125.5 23.5t-76.5 72.5t-37 110t-10 150q0 71 5.5 122t21 99t42.5 77t72 46.5t108 17.5q42 0 88.5 -4.5t71.5 -9.5l25 -5l-3 -35q-101 20 -182 20q-55 0 -94 -16t-61.5 -41.5t-35 -70t-16.5 -89.5t-4 -111t4 -111t17 -88t36 -68 t61.5 -40t92.5 -15q32 0 77.5 5t75.5 10zM271 845v55h35v-55h-35z" />
<glyph unicode="&#x10b;" horiz-adv-x="437" d="M265 509l120 -10l-2 -32q-80 10 -118 10q-95 0 -131.5 -48t-36.5 -168q0 -135 33 -186.5t135 -51.5l120 9l2 -32q-84 -9 -122 -9q-122 0 -163.5 57.5t-41.5 212.5q0 138 46 193t159 55zM221 645v55h35v-55h-35z" />
<glyph unicode="&#x10c;" horiz-adv-x="537" d="M489 45l3 -34q-106 -20 -185 -20q-76 0 -125.5 23.5t-76.5 72.5t-37 110t-10 150q0 71 5.5 122t21 99t42.5 77t72 46.5t108 17.5q42 0 88.5 -4.5t71.5 -9.5l25 -5l-3 -35q-101 20 -182 20q-55 0 -94 -16t-61.5 -41.5t-35 -70t-16.5 -89.5t-4 -111t4 -111t17 -88t36 -68 t61.5 -40t92.5 -15q32 0 77.5 5t75.5 10zM440 934l-134 -125h-30l-134 125h45l104 -96l103 96h46z" />
<glyph unicode="&#x10d;" horiz-adv-x="437" d="M265 509l120 -10l-2 -32q-80 10 -118 10q-95 0 -131.5 -48t-36.5 -168q0 -135 33 -186.5t135 -51.5l120 9l2 -32q-84 -9 -122 -9q-122 0 -163.5 57.5t-41.5 212.5q0 138 46 193t159 55zM224 600l-121 132h42l94 -99l93 99h42l-122 -132h-28z" />
<glyph unicode="&#x10e;" horiz-adv-x="653" d="M363 0h-260v700h260q64 0 110.5 -28t73 -77t38.5 -107.5t12 -127.5q0 -70 -12.5 -131t-38.5 -114t-73 -84t-110 -31zM559 360q0 60 -10 111.5t-31.5 97t-61 71.5t-93.5 26h-224v-632h224q54 0 93.5 29t61 78.5t31.5 104t10 114.5zM448 934l-134 -125h-30l-134 125h45 l104 -96l103 96h46z" />
<glyph unicode="&#x10f;" horiz-adv-x="708" d="M437 700v-700h-35v42q-9 -6 -25 -14.5t-62 -22.5t-86 -14q-24 0 -42 2.5t-44 16.5t-42 39t-28.5 75t-12.5 119q0 136 46 201t164 65q57 0 132 -12v203h35zM229 23q84 1 173 52v390q-104 12 -132 12q-101 0 -138 -57.5t-37 -179.5q0 -71 12.5 -117.5t34.5 -66.5 t41.5 -26.5t45.5 -6.5zM622 700v-217h-34v217h34z" />
<glyph unicode="&#x110;" horiz-adv-x="653" d="M26 334v34h77v332h260q64 0 110.5 -28t73 -77t38.5 -107.5t12 -127.5q0 -70 -12.5 -131t-38.5 -114t-73 -84t-110 -31h-260v334h-77zM559 360q0 60 -10 111.5t-31.5 97t-61 71.5t-93.5 26h-224v-298h177v-34h-177v-300h224q54 0 93.5 29t61 78.5t31.5 104t10 114.5z" />
<glyph unicode="&#x111;" horiz-adv-x="538" d="M229 622v32h173v46h35v-46h59v-32h-59v-622h-35v42q-9 -6 -25 -14.5t-62 -22.5t-86 -14q-24 0 -42 2.5t-44 16.5t-42 39t-28.5 75t-12.5 119q0 136 46 201t164 65q57 0 132 -12v125h-173zM229 23q84 1 173 52v390q-104 12 -132 12q-101 0 -138 -57.5t-37 -179.5 q0 -71 12.5 -117.5t34.5 -66.5t41.5 -26.5t45.5 -6.5z" />
<glyph unicode="&#x112;" horiz-adv-x="572" d="M103 0v700h409v-34h-373v-289h313v-34h-313v-309h373v-34h-409zM162 832v32h287v-32h-287z" />
<glyph unicode="&#x113;" horiz-adv-x="507" d="M249 23l182 9l2 -32q-112 -9 -185 -9q-106 1 -147 64.5t-41 194.5q0 259 202 259q95 0 142.5 -57t47.5 -183v-33h-355q0 -108 34 -160.5t118 -52.5zM97 268h318q0 113 -36.5 161t-116.5 48q-165 0 -165 -209zM130 642v32h267v-32h-267z" />
<glyph unicode="&#x114;" horiz-adv-x="572" d="M103 0v700h409v-34h-373v-289h313v-34h-313v-309h373v-34h-409zM178 924h35q0 -40 30 -63.5t73 -23.5t73 23.5t30 63.5h35q0 -54 -40 -86.5t-98 -32.5t-98 32.5t-40 86.5z" />
<glyph unicode="&#x115;" horiz-adv-x="507" d="M249 23l182 9l2 -32q-112 -9 -185 -9q-106 1 -147 64.5t-41 194.5q0 259 202 259q95 0 142.5 -57t47.5 -183v-33h-355q0 -108 34 -160.5t118 -52.5zM97 268h318q0 113 -36.5 161t-116.5 48q-165 0 -165 -209zM124 723h35q0 -42 27.5 -69t75.5 -27t75.5 27t27.5 69h35 q0 -56 -38 -92t-100 -36t-100 36t-38 92z" />
<glyph unicode="&#x116;" horiz-adv-x="572" d="M103 0v700h409v-34h-373v-289h313v-34h-313v-309h373v-34h-409zM288 845v55h35v-55h-35z" />
<glyph unicode="&#x117;" horiz-adv-x="507" d="M249 23l182 9l2 -32q-112 -9 -185 -9q-106 1 -147 64.5t-41 194.5q0 259 202 259q95 0 142.5 -57t47.5 -183v-33h-355q0 -108 34 -160.5t118 -52.5zM97 268h318q0 113 -36.5 161t-116.5 48q-165 0 -165 -209zM236 645v55h35v-55h-35z" />
<glyph unicode="&#x118;" horiz-adv-x="572" d="M103 0v700h409v-34h-373v-289h313v-34h-313v-309h373v-34h-32q-11 -9 -45.5 -52.5t-34.5 -63.5q0 -21 13 -35.5t34 -14.5l56 7l4 -33q-36 -8 -64 -8q-35 0 -57.5 22t-22.5 60q0 41 77 118h-337z" />
<glyph unicode="&#x119;" horiz-adv-x="507" d="M443 -159l4 -33q-36 -8 -64 -8q-35 0 -57.5 22t-22.5 60q0 41 73 114q-98 -5 -128 -5q-106 1 -147 64.5t-41 194.5q0 259 202 259q95 0 142.5 -57t47.5 -183v-33h-355q0 -108 34 -160.5t118 -52.5l182 9l2 -32q-7 0 -14 -1q-19 -19 -49 -57.5t-30 -57.5q0 -21 13 -35.5 t34 -14.5zM97 268h318q0 113 -36.5 161t-116.5 48q-165 0 -165 -209z" />
<glyph unicode="&#x11a;" horiz-adv-x="572" d="M103 0v700h409v-34h-373v-289h313v-34h-313v-309h373v-34h-409zM458 934l-134 -125h-30l-134 125h45l104 -96l103 96h46z" />
<glyph unicode="&#x11b;" horiz-adv-x="507" d="M249 23l182 9l2 -32q-112 -9 -185 -9q-106 1 -147 64.5t-41 194.5q0 259 202 259q95 0 142.5 -57t47.5 -183v-33h-355q0 -108 34 -160.5t118 -52.5zM97 268h318q0 113 -36.5 161t-116.5 48q-165 0 -165 -209zM239 600l-121 132h42l94 -99l93 99h42l-122 -132h-28z" />
<glyph unicode="&#x11c;" horiz-adv-x="617" d="M356 313v34h186v-331q-141 -25 -220 -25q-147 0 -204.5 89t-57.5 267q0 87 11.5 149.5t39.5 112.5t80.5 75t130.5 25q105 0 220 -25l-3 -35q-126 26 -217 26q-69 0 -114 -22t-68.5 -68t-32.5 -101.5t-9 -136.5q0 -80 9.5 -135.5t33.5 -99.5t69 -65.5t112 -21.5 q31 0 75.5 5t76 10t32.5 5v268h-150zM170 804l134 125h30l134 -125h-45l-104 96l-103 -96h-46z" />
<glyph unicode="&#x11d;" horiz-adv-x="504" d="M253 -239q-121 0 -159.5 33.5t-38.5 125.5q0 32 11.5 55t26 36t47.5 37q-22 14 -22 65q0 7 7.5 26.5t14.5 35.5l8 16q-86 28 -86 152q0 167 171 167q24 0 50.5 -3t40.5 -7l15 -3l140 3v-35h-108q40 -37 40 -122q0 -91 -42.5 -127.5t-139.5 -36.5q-30 0 -54 4 q-23 -57 -23 -70q0 -17 2 -25t8 -15t23 -9.5t39 -3.5t65 -1q99 0 138 -27.5t39 -116.5q0 -81 -50.5 -117.5t-162.5 -36.5zM287 27l-121 3q-45 -31 -60 -52.5t-15 -56.5q0 -74 31.5 -101t131.5 -27q93 0 134 28.5t41 93.5q0 72 -30 92t-112 20zM229 211q79 0 112 29t33 103 q0 82 -30 108.5t-112 26.5q-69 0 -101.5 -30t-32.5 -105q0 -70 28.5 -101t102.5 -31zM117 600l121 132h28l122 -132h-43l-92 100l-93 -100h-43z" />
<glyph unicode="&#x11e;" horiz-adv-x="617" d="M356 313v34h186v-331q-141 -25 -220 -25q-147 0 -204.5 89t-57.5 267q0 87 11.5 149.5t39.5 112.5t80.5 75t130.5 25q105 0 220 -25l-3 -35q-126 26 -217 26q-69 0 -114 -22t-68.5 -68t-32.5 -101.5t-9 -136.5q0 -80 9.5 -135.5t33.5 -99.5t69 -65.5t112 -21.5 q31 0 75.5 5t76 10t32.5 5v268h-150zM190 923h35q0 -40 30 -63.5t73 -23.5t73 23.5t30 63.5h35q0 -54 -40 -86.5t-98 -32.5t-98 32.5t-40 86.5z" />
<glyph unicode="&#x11f;" horiz-adv-x="504" d="M253 -239q-121 0 -159.5 33.5t-38.5 125.5q0 32 11.5 55t26 36t47.5 37q-22 14 -22 65q0 7 7.5 26.5t14.5 35.5l8 16q-86 28 -86 152q0 167 171 167q24 0 50.5 -3t40.5 -7l15 -3l140 3v-35h-108q40 -37 40 -122q0 -91 -42.5 -127.5t-139.5 -36.5q-30 0 -54 4 q-23 -57 -23 -70q0 -17 2 -25t8 -15t23 -9.5t39 -3.5t65 -1q99 0 138 -27.5t39 -116.5q0 -81 -50.5 -117.5t-162.5 -36.5zM287 27l-121 3q-45 -31 -60 -52.5t-15 -56.5q0 -74 31.5 -101t131.5 -27q93 0 134 28.5t41 93.5q0 72 -30 92t-112 20zM229 211q79 0 112 29t33 103 q0 82 -30 108.5t-112 26.5q-69 0 -101.5 -30t-32.5 -105q0 -70 28.5 -101t102.5 -31zM114 723h35q0 -42 27.5 -69t75.5 -27t75.5 27t27.5 69h35q0 -56 -38 -92t-100 -36t-100 36t-38 92z" />
<glyph unicode="&#x120;" horiz-adv-x="617" d="M356 313v34h186v-331q-141 -25 -220 -25q-147 0 -204.5 89t-57.5 267q0 87 11.5 149.5t39.5 112.5t80.5 75t130.5 25q105 0 220 -25l-3 -35q-126 26 -217 26q-69 0 -114 -22t-68.5 -68t-32.5 -101.5t-9 -136.5q0 -80 9.5 -135.5t33.5 -99.5t69 -65.5t112 -21.5 q31 0 75.5 5t76 10t32.5 5v268h-150zM291 845v55h35v-55h-35z" />
<glyph unicode="&#x121;" horiz-adv-x="504" d="M253 -239q-121 0 -159.5 33.5t-38.5 125.5q0 32 11.5 55t26 36t47.5 37q-22 14 -22 65q0 7 7.5 26.5t14.5 35.5l8 16q-86 28 -86 152q0 167 171 167q24 0 50.5 -3t40.5 -7l15 -3l140 3v-35h-108q40 -37 40 -122q0 -91 -42.5 -127.5t-139.5 -36.5q-30 0 -54 4 q-23 -57 -23 -70q0 -17 2 -25t8 -15t23 -9.5t39 -3.5t65 -1q99 0 138 -27.5t39 -116.5q0 -81 -50.5 -117.5t-162.5 -36.5zM287 27l-121 3q-45 -31 -60 -52.5t-15 -56.5q0 -74 31.5 -101t131.5 -27q93 0 134 28.5t41 93.5q0 72 -30 92t-112 20zM229 211q79 0 112 29t33 103 q0 82 -30 108.5t-112 26.5q-69 0 -101.5 -30t-32.5 -105q0 -70 28.5 -101t102.5 -31zM234 645v55h35v-55h-35z" />
<glyph unicode="&#x122;" horiz-adv-x="617" d="M356 313v34h186v-331q-141 -25 -220 -25q-147 0 -204.5 89t-57.5 267q0 87 11.5 149.5t39.5 112.5t80.5 75t130.5 25q105 0 220 -25l-3 -35q-126 26 -217 26q-69 0 -114 -22t-68.5 -68t-32.5 -101.5t-9 -136.5q0 -80 9.5 -135.5t33.5 -99.5t69 -65.5t112 -21.5 q31 0 75.5 5t76 10t32.5 5v268h-150zM272 -267l38 189h36l-46 -189h-28z" />
<glyph unicode="&#x123;" horiz-adv-x="504" d="M253 -239q-121 0 -159.5 33.5t-38.5 125.5q0 32 11.5 55t26 36t47.5 37q-22 14 -22 65q0 7 7.5 26.5t14.5 35.5l8 16q-86 28 -86 152q0 167 171 167q24 0 50.5 -3t40.5 -7l15 -3l140 3v-35h-108q40 -37 40 -122q0 -91 -42.5 -127.5t-139.5 -36.5q-30 0 -54 4 q-23 -57 -23 -70q0 -17 2 -25t8 -15t23 -9.5t39 -3.5t65 -1q99 0 138 -27.5t39 -116.5q0 -81 -50.5 -117.5t-162.5 -36.5zM287 27l-121 3q-45 -31 -60 -52.5t-15 -56.5q0 -74 31.5 -101t131.5 -27q93 0 134 28.5t41 93.5q0 72 -30 92t-112 20zM229 211q79 0 112 29t33 103 q0 82 -30 108.5t-112 26.5q-69 0 -101.5 -30t-32.5 -105q0 -70 28.5 -101t102.5 -31zM278 782l-38 -189h-36l46 189h28z" />
<glyph unicode="&#x124;" horiz-adv-x="696" d="M557 0v334h-418v-334h-36v700h36v-332h418v332h36v-700h-36zM200 804l134 125h30l134 -125h-45l-104 96l-103 -96h-46z" />
<glyph unicode="&#x125;" horiz-adv-x="567" d="M136 0h-35v730h35v-260q88 39 174 39q100 0 132 -50.5t32 -198.5v-260h-35v258q0 132 -24 175.5t-105 43.5q-40 0 -83.5 -10t-66.5 -20l-24 -10v-437zM148 790l121 132h28l122 -132h-43l-92 100l-93 -100h-43z" />
<glyph unicode="&#x126;" horiz-adv-x="696" d="M19 522v32h84v146h36v-146h418v146h36v-146h93v-32h-93v-522h-36v334h-418v-334h-36v522h-84zM139 368h418v154h-418v-154z" />
<glyph unicode="&#x127;" horiz-adv-x="567" d="M30 612v32h71v86h35v-86h161v-32h-161v-142q88 39 174 39q100 0 132 -50.5t32 -198.5v-260h-35v258q0 132 -24 175.5t-105 43.5q-40 0 -83.5 -10t-66.5 -20l-24 -10v-437h-35v612h-71z" />
<glyph unicode="&#x128;" horiz-adv-x="226" d="M95 0v700h36v-700h-36zM275 903l11 -28q-52 -55 -83 -55q-23 0 -83.5 32t-75.5 32q-9 0 -29 -14t-35 -28l-16 -13l-10 29q57 57 90 57q23 0 83.5 -31.5t75.5 -31.5q8 0 26 13t32 25z" />
<glyph unicode="&#x129;" horiz-adv-x="261" d="M113 0v500h35v-500h-35zM272 703l9 -30q-42 -43 -73 -43q-21 0 -76.5 27t-70.5 27q-21 0 -70 -45l-10 29q49 47 82 47q21 0 76.5 -26.5t70.5 -26.5q18 0 62 41z" />
<glyph unicode="&#x12a;" horiz-adv-x="226" d="M95 0v700h36v-700h-36zM-30 842v32h287v-32h-287z" />
<glyph unicode="&#x12b;" horiz-adv-x="261" d="M113 0v500h35v-500h-35zM-3 642v32h267v-32h-267z" />
<glyph unicode="&#x12c;" horiz-adv-x="226" d="M95 0v700h36v-700h-36zM-25 923h35q0 -40 30 -63.5t73 -23.5t73 23.5t30 63.5h35q0 -54 -40 -86.5t-98 -32.5t-98 32.5t-40 86.5z" />
<glyph unicode="&#x12d;" horiz-adv-x="261" d="M113 0v500h35v-500h-35zM-7 723h35q0 -42 27.5 -69t75.5 -27t75.5 27t27.5 69h35q0 -56 -38 -92t-100 -36t-100 36t-38 92z" />
<glyph unicode="&#x12e;" horiz-adv-x="226" d="M153 -159l4 -33q-36 -8 -64 -8q-35 0 -57.5 22t-22.5 60q0 41 82 123v695h36v-700h-1q-11 -9 -45.5 -52.5t-34.5 -63.5q0 -21 13 -35.5t34 -14.5z" />
<glyph unicode="&#x12f;" horiz-adv-x="215" d="M147 -159l4 -33q-36 -8 -64 -8q-35 0 -57.5 22t-22.5 60q0 41 82 123v495h35v-499h1q-81 -85 -81 -117q0 -21 13 -35.5t34 -14.5zM89 645v55h35v-55h-35z" />
<glyph unicode="&#x130;" horiz-adv-x="226" d="M95 0v700h36v-700h-36zM95 845v55h35v-55h-35z" />
<glyph unicode="&#x131;" horiz-adv-x="261" d="M113 0v500h35v-500h-35z" />
<glyph unicode="&#x134;" horiz-adv-x="304" d="M208 701q0 -106 0.5 -297.5t0.5 -298.5q0 -33 -2 -58.5t-8.5 -44.5t-12.5 -31.5t-19.5 -21t-23 -13t-31 -6.5t-35 -2.5t-42.5 -0.5v34q36 0 51.5 0.5t35.5 5.5t26 13t13.5 26.5t9 43.5t1.5 65v586h36zM22 804l134 125h30l134 -125h-45l-104 96l-103 -96h-46z" />
<glyph unicode="&#x135;" horiz-adv-x="233" d="M108 6v494h35v-495q0 -85 -31.5 -129.5t-127.5 -93.5l-14 31q86 47 112 83.5t26 109.5zM-15 600l121 132h28l122 -132h-43l-92 100l-93 -100h-43z" />
<glyph unicode="&#x136;" horiz-adv-x="597" d="M501 0l-231 329h-131v-329h-36v700h36v-337h129l220 337h43l-231 -352l247 -348h-46zM262 -267l38 189h36l-46 -189h-28z" />
<glyph unicode="&#x137;" horiz-adv-x="483" d="M136 0h-35v730h35v-438h94l182 208h41l-192 -226l192 -274h-41l-182 257h-94v-257zM195 -267l38 189h36l-46 -189h-28z" />
<glyph unicode="&#x139;" d="M480 0h-377v700h36v-666h341v-34zM161 826l192 96l16 -31l-193 -92z" />
<glyph unicode="&#x13a;" horiz-adv-x="225" d="M95 0v730h35v-730h-35zM9 836l192 96l16 -31l-193 -92z" />
<glyph unicode="&#x13b;" d="M480 0h-377v700h36v-666h341v-34zM229 -267l38 189h36l-46 -189h-28z" />
<glyph unicode="&#x13c;" horiz-adv-x="225" d="M95 0v730h35v-730h-35zM54 -267l38 189h36l-46 -189h-28z" />
<glyph unicode="&#x13d;" d="M480 0h-377v700h36v-666h341v-34zM435 700v-217h-34v217h34z" />
<glyph unicode="&#x13e;" horiz-adv-x="395" d="M95 0v730h35v-730h-35zM309 700v-217h-34v217h34z" />
<glyph unicode="&#x141;" d="M480 0h-377v316l-79 -55l-20 27l99 69v343h36v-318l209 147l20 -27l-229 -161v-307h341v-34z" />
<glyph unicode="&#x142;" horiz-adv-x="225" d="M95 0v319l-78 -54l-19 27l97 68v370h35v-346l81 57l19 -27l-100 -70v-344h-35z" />
<glyph unicode="&#x143;" horiz-adv-x="687" d="M103 0v700h85l333 -666h27v666h36v-700h-85l-334 666h-26v-666h-36zM239 826l192 96l16 -31l-193 -92z" />
<glyph unicode="&#x144;" horiz-adv-x="573" d="M136 0h-35v500h35v-40q89 49 175 49q100 0 132 -50.5t32 -198.5v-260h-35v258q0 132 -24 175.5t-105 43.5q-87 -1 -175 -50v-427zM182 636l192 96l16 -31l-193 -92z" />
<glyph unicode="&#x145;" horiz-adv-x="687" d="M103 0v700h85l333 -666h27v666h36v-700h-85l-334 666h-26v-666h-36zM306 -267l38 189h36l-46 -189h-28z" />
<glyph unicode="&#x146;" horiz-adv-x="573" d="M136 0h-35v500h35v-40q89 49 175 49q100 0 132 -50.5t32 -198.5v-260h-35v258q0 132 -24 175.5t-105 43.5q-87 -1 -175 -50v-427zM241 -267l38 189h36l-46 -189h-28z" />
<glyph unicode="&#x147;" horiz-adv-x="687" d="M103 0v700h85l333 -666h27v666h36v-700h-85l-334 666h-26v-666h-36zM493 929l-134 -125h-30l-134 125h45l104 -96l103 96h46z" />
<glyph unicode="&#x148;" horiz-adv-x="573" d="M136 0h-35v500h35v-40q89 49 175 49q100 0 132 -50.5t32 -198.5v-260h-35v258q0 132 -24 175.5t-105 43.5q-87 -1 -175 -50v-427zM272 600l-121 132h42l94 -99l93 99h42l-122 -132h-28z" />
<glyph unicode="&#x14a;" horiz-adv-x="687" d="M103 0v700h85l333 -666h27v666h36v-99q0 -106 0.5 -297.5t0.5 -298.5q0 -33 -2 -58.5t-8.5 -44.5t-12.5 -31.5t-19.5 -21t-23 -13t-31 -6.5t-35 -2.5t-42.5 -0.5v34q35 0 50 0.5t34.5 5t26 12t14.5 24t9.5 39t2.5 58.5h-49l-334 666h-26v-666h-36z" />
<glyph unicode="&#x14b;" horiz-adv-x="573" d="M136 0h-35v500h35v-40q90 49 176 49q99 0 131.5 -53t32.5 -196v-267q0 -85 -29 -127.5t-120 -95.5l-14 31q79 47 103.5 83.5t24.5 109.5v264q0 126 -24.5 172.5t-104.5 46.5q-87 -1 -176 -50v-427z" />
<glyph unicode="&#x14c;" horiz-adv-x="656" d="M328 25q72 0 117.5 18.5t70 61t33.5 98.5t9 144q0 168 -48.5 248t-181.5 80q-70 0 -116 -21t-70.5 -65.5t-34 -101t-9.5 -140.5q0 -85 9 -140t33.5 -98.5t70.5 -63.5t117 -20zM328 -9q-80 0 -133 22t-82.5 69.5t-41 110t-11.5 154.5q0 184 58 273t210 89t210 -88.5 t58 -273.5q0 -191 -56.5 -273.5t-211.5 -82.5zM181 842v32h287v-32h-287z" />
<glyph unicode="&#x14d;" horiz-adv-x="526" d="M265 509q103 0 152 -58t49 -192q0 -147 -41 -207.5t-160 -60.5q-122 0 -163.5 58t-41.5 212q0 138 46.5 193t158.5 55zM265 23q54 0 87.5 13.5t50 46t21.5 71.5t5 105q0 118 -39.5 168t-124.5 50q-97 0 -132.5 -45.5t-35.5 -170.5q0 -70 5.5 -110.5t23.5 -72t51 -43.5 t88 -12zM129 642v32h267v-32h-267z" />
<glyph unicode="&#x14e;" horiz-adv-x="656" d="M328 25q72 0 117.5 18.5t70 61t33.5 98.5t9 144q0 168 -48.5 248t-181.5 80q-70 0 -116 -21t-70.5 -65.5t-34 -101t-9.5 -140.5q0 -85 9 -140t33.5 -98.5t70.5 -63.5t117 -20zM328 -9q-80 0 -133 22t-82.5 69.5t-41 110t-11.5 154.5q0 184 58 273t210 89t210 -88.5 t58 -273.5q0 -191 -56.5 -273.5t-211.5 -82.5zM190 923h35q0 -40 30 -63.5t73 -23.5t73 23.5t30 63.5h35q0 -54 -40 -86.5t-98 -32.5t-98 32.5t-40 86.5z" />
<glyph unicode="&#x14f;" horiz-adv-x="526" d="M265 509q103 0 152 -58t49 -192q0 -147 -41 -207.5t-160 -60.5q-122 0 -163.5 58t-41.5 212q0 138 46.5 193t158.5 55zM265 23q54 0 87.5 13.5t50 46t21.5 71.5t5 105q0 118 -39.5 168t-124.5 50q-97 0 -132.5 -45.5t-35.5 -170.5q0 -70 5.5 -110.5t23.5 -72t51 -43.5 t88 -12zM125 723h35q0 -42 27.5 -69t75.5 -27t75.5 27t27.5 69h35q0 -56 -38 -92t-100 -36t-100 36t-38 92z" />
<glyph unicode="&#x150;" horiz-adv-x="656" d="M328 25q72 0 117.5 18.5t70 61t33.5 98.5t9 144q0 168 -48.5 248t-181.5 80q-70 0 -116 -21t-70.5 -65.5t-34 -101t-9.5 -140.5q0 -85 9 -140t33.5 -98.5t70.5 -63.5t117 -20zM328 -9q-80 0 -133 22t-82.5 69.5t-41 110t-11.5 154.5q0 184 58 273t210 89t210 -88.5 t58 -273.5q0 -191 -56.5 -273.5t-211.5 -82.5zM325 818l191 87l15 -29l-192 -88zM134 818l192 88l14 -30l-191 -87z" />
<glyph unicode="&#x151;" horiz-adv-x="526" d="M265 509q103 0 152 -58t49 -192q0 -147 -41 -207.5t-160 -60.5q-122 0 -163.5 58t-41.5 212q0 138 46.5 193t158.5 55zM265 23q54 0 87.5 13.5t50 46t21.5 71.5t5 105q0 118 -39.5 168t-124.5 50q-97 0 -132.5 -45.5t-35.5 -170.5q0 -70 5.5 -110.5t23.5 -72t51 -43.5 t88 -12zM305 622l163 104l18 -27l-163 -104zM120 622l163 104l18 -27l-163 -104z" />
<glyph unicode="&#x152;" horiz-adv-x="944" d="M884 -1h-398q-84 -8 -158 -8q-80 0 -133 22t-82.5 69.5t-41 109.5t-11.5 153t12 154.5t41.5 113t82.5 73t132 23.5q102 0 157 -9h399v-36h-363v-286h303v-36h-303v-306h363v-37zM328 25q52 0 157 9v629q-140 12 -157 12q-70 0 -116 -21t-70.5 -65.5t-34 -101t-9.5 -140.5 q0 -85 9 -140t33.5 -98.5t70.5 -63.5t117 -20z" />
<glyph unicode="&#x153;" horiz-adv-x="876" d="M618 23l182 9l2 -32q-112 -9 -185 -9q-130 0 -169 107q-18 -56 -61 -81.5t-122 -25.5q-122 0 -163.5 58t-41.5 212q0 138 46.5 193t158.5 55q146 0 184 -120q44 120 182 120q95 0 142.5 -57t47.5 -183v-33h-355q0 -108 34 -160.5t118 -52.5zM265 23q54 0 87.5 13.5t50 46 t21.5 71.5t5 105q0 118 -39.5 168t-124.5 50q-97 0 -132.5 -45.5t-35.5 -170.5q0 -70 5.5 -110.5t23.5 -72t51 -43.5t88 -12zM466 268h318q0 113 -36.5 161t-116.5 48q-165 0 -165 -209z" />
<glyph unicode="&#x154;" horiz-adv-x="630" d="M534 0l-156 290h-239v-290h-36v700h251q106 0 157 -48t51 -152q0 -178 -145 -205l158 -295h-41zM524 500q0 87 -41 126.5t-129 39.5h-215v-342h215q93 0 131.5 45t38.5 131zM211 826l192 96l16 -31l-193 -92z" />
<glyph unicode="&#x155;" horiz-adv-x="354" d="M101 0v500h35v-78q10 8 27.5 19.5t69.5 35.5t101 33v-34q-96 -19 -198 -87v-389h-35zM93 636l192 96l16 -31l-193 -92z" />
<glyph unicode="&#x156;" horiz-adv-x="630" d="M534 0l-156 290h-239v-290h-36v700h251q106 0 157 -48t51 -152q0 -178 -145 -205l158 -295h-41zM524 500q0 87 -41 126.5t-129 39.5h-215v-342h215q93 0 131.5 45t38.5 131zM279 -267l38 189h36l-46 -189h-28z" />
<glyph unicode="&#x157;" horiz-adv-x="354" d="M101 0v500h35v-78q10 8 27.5 19.5t69.5 35.5t101 33v-34q-96 -19 -198 -87v-389h-35zM61 -267l38 189h36l-46 -189h-28z" />
<glyph unicode="&#x158;" horiz-adv-x="630" d="M534 0l-156 290h-239v-290h-36v700h251q106 0 157 -48t51 -152q0 -178 -145 -205l158 -295h-41zM524 500q0 87 -41 126.5t-129 39.5h-215v-342h215q93 0 131.5 45t38.5 131zM465 929l-134 -125h-30l-134 125h45l104 -96l103 96h46z" />
<glyph unicode="&#x159;" horiz-adv-x="354" d="M101 0v500h35v-78q10 8 27.5 19.5t69.5 35.5t101 33v-34q-96 -19 -198 -87v-389h-35zM183 600l-121 132h42l94 -99l93 99h42l-122 -132h-28z" />
<glyph unicode="&#x15a;" horiz-adv-x="536" d="M468 695l-4 -35q-137 17 -195 17q-178 0 -178 -140q0 -30 4.5 -52.5t16.5 -38t25 -26t38 -18t46 -12t58 -10.5q109 -17 156.5 -52.5t47.5 -124.5q0 -113 -52.5 -161.5t-159.5 -48.5q-33 0 -86.5 4t-90.5 8l-37 4l4 35q138 -17 209 -17q88 0 131.5 41t43.5 132 q0 73 -38 101t-137 43q-60 9 -93.5 18.5t-65 29.5t-45 54.5t-13.5 88.5q0 176 216 176zM164 826l192 96l16 -31l-193 -92z" />
<glyph unicode="&#x15b;" horiz-adv-x="483" d="M403 494l-2 -33q-102 16 -170 16q-134 0 -134 -100q0 -47 28 -66.5t114 -32.5q106 -17 144 -42t38 -92q0 -84 -48 -118.5t-142 -34.5q-25 0 -66.5 4t-70.5 8l-28 4l4 33q108 -17 159 -17q77 0 116 25t39 93q0 52 -30.5 71t-124.5 33q-95 15 -132 39.5t-37 90.5 q0 50 27 81.5t63 42t81 10.5q34 0 77 -3.5t69 -7.5zM138 636l192 96l16 -31l-193 -92z" />
<glyph unicode="&#x15c;" horiz-adv-x="536" d="M468 695l-4 -35q-137 17 -195 17q-178 0 -178 -140q0 -30 4.5 -52.5t16.5 -38t25 -26t38 -18t46 -12t58 -10.5q109 -17 156.5 -52.5t47.5 -124.5q0 -113 -52.5 -161.5t-159.5 -48.5q-33 0 -86.5 4t-90.5 8l-37 4l4 35q138 -17 209 -17q88 0 131.5 41t43.5 132 q0 73 -38 101t-137 43q-60 9 -93.5 18.5t-65 29.5t-45 54.5t-13.5 88.5q0 176 216 176zM120 804l134 125h30l134 -125h-45l-104 96l-103 -96h-46z" />
<glyph unicode="&#x15d;" horiz-adv-x="483" d="M403 494l-2 -33q-102 16 -170 16q-134 0 -134 -100q0 -47 28 -66.5t114 -32.5q106 -17 144 -42t38 -92q0 -84 -48 -118.5t-142 -34.5q-25 0 -66.5 4t-70.5 8l-28 4l4 33q108 -17 159 -17q77 0 116 25t39 93q0 52 -30.5 71t-124.5 33q-95 15 -132 39.5t-37 90.5 q0 50 27 81.5t63 42t81 10.5q34 0 77 -3.5t69 -7.5zM106 600l121 132h28l122 -132h-43l-92 100l-93 -100h-43z" />
<glyph unicode="&#x15e;" horiz-adv-x="536" d="M390 -127q0 -74 -82 -74l-81 4l2 28q44 -4 78 -4q48 0 48 46q0 42 -48 42h-54v78q-77 2 -196 16l4 35q138 -17 209 -17q88 0 131.5 41t43.5 132q0 73 -38 101t-137 43q-60 9 -93.5 18.5t-65 29.5t-45 54.5t-13.5 88.5q0 176 216 176l199 -16l-4 -35q-137 17 -195 17 q-178 0 -178 -140q0 -30 4.5 -52.5t16.5 -38t25 -26t38 -18t46 -12t58 -10.5q109 -17 156.5 -52.5t47.5 -124.5q0 -109 -48.5 -157.5t-148.5 -51.5v-51q56 0 80 -15t24 -55z" />
<glyph unicode="&#x15f;" horiz-adv-x="483" d="M351 -127q0 -74 -82 -74l-81 4l2 28q44 -4 78 -4q48 0 48 46q0 42 -48 42h-54v77q-26 1 -63 4.5t-61 7.5l-24 3l4 33q108 -17 159 -17q77 0 116 25t39 93q0 52 -30.5 71t-124.5 33q-95 15 -132 39.5t-37 90.5q0 50 27 81.5t63 42t81 10.5q34 0 77 -3.5t69 -7.5l26 -4 l-2 -33q-102 16 -170 16q-134 0 -134 -100q0 -47 28 -66.5t114 -32.5q106 -17 144 -42t38 -92q0 -80 -44 -115.5t-130 -37.5v-48q56 0 80 -15t24 -55z" />
<glyph unicode="&#x160;" horiz-adv-x="536" d="M468 695l-4 -35q-137 17 -195 17q-178 0 -178 -140q0 -30 4.5 -52.5t16.5 -38t25 -26t38 -18t46 -12t58 -10.5q109 -17 156.5 -52.5t47.5 -124.5q0 -113 -52.5 -161.5t-159.5 -48.5q-33 0 -86.5 4t-90.5 8l-37 4l4 35q138 -17 209 -17q88 0 131.5 41t43.5 132 q0 73 -38 101t-137 43q-60 9 -93.5 18.5t-65 29.5t-45 54.5t-13.5 88.5q0 176 216 176zM421 934l-134 -125h-30l-134 125h45l104 -96l103 96h46z" />
<glyph unicode="&#x161;" horiz-adv-x="483" d="M403 494l-2 -33q-102 16 -170 16q-134 0 -134 -100q0 -47 28 -66.5t114 -32.5q106 -17 144 -42t38 -92q0 -84 -48 -118.5t-142 -34.5q-25 0 -66.5 4t-70.5 8l-28 4l4 33q108 -17 159 -17q77 0 116 25t39 93q0 52 -30.5 71t-124.5 33q-95 15 -132 39.5t-37 90.5 q0 50 27 81.5t63 42t81 10.5q34 0 77 -3.5t69 -7.5zM234 600l-121 132h42l94 -99l93 99h42l-122 -132h-28z" />
<glyph unicode="&#x162;" horiz-adv-x="500" d="M0 666v34h500v-34h-231v-666h-36v666h-233zM212 -267l38 189h36l-46 -189h-28z" />
<glyph unicode="&#x163;" horiz-adv-x="372" d="M331 468h-182v-262q0 -115 16.5 -149.5t75.5 -34.5l98 8l3 -32q-66 -8 -101 -8q-71 0 -99 36.5t-28 141.5v300h-79v32h79v163h35v-163h182v-32zM148 -267l38 189h36l-46 -189h-28z" />
<glyph unicode="&#x164;" horiz-adv-x="500" d="M0 666v34h500v-34h-231v-666h-36v666h-233zM400 929l-134 -125h-30l-134 125h45l104 -96l103 96h46z" />
<glyph unicode="&#x165;" horiz-adv-x="542" d="M331 468h-182v-262q0 -115 16.5 -149.5t75.5 -34.5l98 8l3 -32q-66 -8 -101 -8q-71 0 -99 36.5t-28 141.5v300h-79v32h79v163h35v-163h182v-32zM456 700v-217h-34v217h34z" />
<glyph unicode="&#x166;" horiz-adv-x="500" d="M57 332v32h176v302h-233v34h500v-34h-231v-302h188v-32h-188v-332h-36v332h-176z" />
<glyph unicode="&#x167;" horiz-adv-x="372" d="M331 468h-182v-184h-35v184h-79v32h79v163h35v-163h182v-32zM241 -10q-71 0 -99 36.5t-28 141.5v84h35v-46q0 -115 16.5 -149.5t75.5 -34.5l98 8l3 -32q-66 -8 -101 -8zM149 284h161v-32h-161v32zM43 252v32h71v-32h-71z" />
<glyph unicode="&#x168;" horiz-adv-x="642" d="M126 196q0 -91 49 -131t141 -40q99 0 149.5 39.5t50.5 131.5v504h36v-504q0 -109 -59.5 -157t-176.5 -48q-110 0 -168 48t-58 157v504h36v-504zM482 903l11 -28q-52 -55 -83 -55q-23 0 -83.5 32t-75.5 32q-9 0 -29 -14t-36 -28l-15 -13l-10 29q57 57 90 57 q23 0 83.5 -31.5t75.5 -31.5q8 0 26 13t32 25z" />
<glyph unicode="&#x169;" horiz-adv-x="557" d="M421 500h35v-500h-35v40l-24 -13.5t-58.5 -22t-81.5 -13.5q-100 0 -132 50.5t-32 198.5v260h35v-258q0 -132 24 -175.5t105 -43.5q84 0 162 49l2 1v427zM420 703l9 -30q-42 -43 -73 -43q-21 0 -76.5 27t-70.5 27q-21 0 -70 -45l-10 29q49 47 82 47q21 0 76.5 -26.5 t70.5 -26.5q18 0 62 41z" />
<glyph unicode="&#x16a;" horiz-adv-x="642" d="M126 196q0 -91 49 -131t141 -40q99 0 149.5 39.5t50.5 131.5v504h36v-504q0 -109 -59.5 -157t-176.5 -48q-110 0 -168 48t-58 157v504h36v-504zM177 842v32h287v-32h-287z" />
<glyph unicode="&#x16b;" horiz-adv-x="557" d="M421 500h35v-500h-35v40l-24 -13.5t-58.5 -22t-81.5 -13.5q-100 0 -132 50.5t-32 198.5v260h35v-258q0 -132 24 -175.5t105 -43.5q84 0 162 49l2 1v427zM145 642v32h267v-32h-267z" />
<glyph unicode="&#x16c;" horiz-adv-x="642" d="M126 196q0 -91 49 -131t141 -40q99 0 149.5 39.5t50.5 131.5v504h36v-504q0 -109 -59.5 -157t-176.5 -48q-110 0 -168 48t-58 157v504h36v-504zM183 923h35q0 -40 30 -63.5t73 -23.5t73 23.5t30 63.5h35q0 -54 -40 -86.5t-98 -32.5t-98 32.5t-40 86.5z" />
<glyph unicode="&#x16d;" horiz-adv-x="557" d="M421 500h35v-500h-35v40l-24 -13.5t-58.5 -22t-81.5 -13.5q-100 0 -132 50.5t-32 198.5v260h35v-258q0 -132 24 -175.5t105 -43.5q84 0 162 49l2 1v427zM140 723h35q0 -42 27.5 -69t75.5 -27t75.5 27t27.5 69h35q0 -56 -38 -92t-100 -36t-100 36t-38 92z" />
<glyph unicode="&#x16e;" horiz-adv-x="642" d="M126 196q0 -91 49 -131t141 -40q99 0 149.5 39.5t50.5 131.5v504h36v-504q0 -109 -59.5 -157t-176.5 -48q-110 0 -168 48t-58 157v504h36v-504zM418 850q0 -43 -26.5 -67.5t-70.5 -24.5t-70.5 24.5t-26.5 67.5t26.5 67.5t70.5 24.5t70.5 -24.5t26.5 -67.5zM257 850 q0 -30 17 -46t47 -16t47 16t17 46t-17 46t-47 16t-47 -16t-17 -46z" />
<glyph unicode="&#x16f;" horiz-adv-x="557" d="M421 500h35v-500h-35v40l-24 -13.5t-58.5 -22t-81.5 -13.5q-100 0 -132 50.5t-32 198.5v260h35v-258q0 -132 24 -175.5t105 -43.5q84 0 162 49l2 1v427zM191 650q0 40 28 67.5t68 27.5t67 -27.5t27 -67.5t-27 -67.5t-67 -27.5q-41 0 -68.5 27.5t-27.5 67.5zM225 650 q0 -26 18 -45t44 -19q25 0 43 19t18 45t-18 44.5t-43 18.5q-26 0 -44 -18.5t-18 -44.5z" />
<glyph unicode="&#x170;" horiz-adv-x="642" d="M126 196q0 -91 49 -131t141 -40q99 0 149.5 39.5t50.5 131.5v504h36v-504q0 -109 -59.5 -157t-176.5 -48q-110 0 -168 48t-58 157v504h36v-504zM348 791l191 87l15 -29l-192 -88zM157 791l192 88l14 -30l-191 -87z" />
<glyph unicode="&#x171;" horiz-adv-x="557" d="M421 500h35v-500h-35v40l-24 -13.5t-58.5 -22t-81.5 -13.5q-100 0 -132 50.5t-32 198.5v260h35v-258q0 -132 24 -175.5t105 -43.5q84 0 162 49l2 1v427zM321 622l163 104l18 -27l-163 -104zM136 622l163 104l18 -27l-163 -104z" />
<glyph unicode="&#x172;" horiz-adv-x="642" d="M427 -159l4 -33q-36 -8 -64 -8q-35 0 -57.5 22t-22.5 60q0 39 69 111q-26 -2 -40 -2q-110 0 -168 48t-58 157v504h36v-504q0 -91 49 -131t141 -40q99 0 149.5 39.5t50.5 131.5v504h36v-504q0 -166 -149 -197q-19 -19 -49 -57.5t-30 -57.5q0 -21 13 -35.5t34 -14.5z" />
<glyph unicode="&#x173;" horiz-adv-x="557" d="M421 500h35v-499l-34 5l-1 -1v35l-24 -13.5t-58.5 -22t-81.5 -13.5q-100 0 -132 50.5t-32 198.5v260h35v-258q0 -132 24 -175.5t105 -43.5q84 0 162 49l2 1v427zM479 -159l4 -33q-36 -8 -64 -8q-35 0 -57.5 22t-22.5 60q0 41 82 123v-5h35q-11 -9 -45.5 -52.5 t-34.5 -63.5q0 -21 13 -35.5t34 -14.5zM457 1l-1 -1v1h1z" />
<glyph unicode="&#x174;" horiz-adv-x="872" d="M45 700h35l143 -666h38l155 656h40l160 -656h38l138 666h35l-144 -700h-96l-151 643l-146 -643h-96zM287 804l134 125h30l134 -125h-45l-104 96l-103 -96h-46z" />
<glyph unicode="&#x175;" horiz-adv-x="761" d="M38 500h37l127 -468h11l148 458h39l147 -458h11l128 468h37l-137 -500h-68l-138 448l-139 -448h-68zM245 600l121 132h28l122 -132h-43l-92 100l-93 -100h-43z" />
<glyph unicode="&#x176;" horiz-adv-x="540" d="M289 301v-301h-36v301l-228 399h41l205 -359l202 359h42zM122 804l134 125h30l134 -125h-45l-104 96l-103 -96h-46z" />
<glyph unicode="&#x177;" horiz-adv-x="480" d="M35 500h37l147 -468h41l148 468h37l-229 -730h-37l72 230h-61zM105 600l121 132h28l122 -132h-43l-92 100l-93 -100h-43z" />
<glyph unicode="&#x178;" horiz-adv-x="540" d="M289 301v-301h-36v301l-228 399h41l205 -359l202 359h42zM149 838v62h35v-62h-35zM345 838v62h35v-62h-35z" />
<glyph unicode="&#x179;" horiz-adv-x="570" d="M60 666v34h450v-70l-413 -575v-22h413v-34h-450v69l413 574v24h-413zM181 826l192 96l16 -31l-193 -92z" />
<glyph unicode="&#x17a;" horiz-adv-x="481" d="M55 468v32h371v-32l-328 -436h328v-32h-371v32l328 436h-328zM137 636l192 96l16 -31l-193 -92z" />
<glyph unicode="&#x17b;" horiz-adv-x="570" d="M60 666v34h450v-70l-413 -575v-22h413v-34h-450v69l413 574v24h-413zM267 845v55h35v-55h-35z" />
<glyph unicode="&#x17c;" horiz-adv-x="481" d="M55 468v32h371v-32l-328 -436h328v-32h-371v32l328 436h-328zM223 645v55h35v-55h-35z" />
<glyph unicode="&#x17d;" horiz-adv-x="570" d="M60 666v34h450v-70l-413 -575v-22h413v-34h-450v69l413 574v24h-413zM431 934l-134 -125h-30l-134 125h45l104 -96l103 96h46z" />
<glyph unicode="&#x17e;" horiz-adv-x="481" d="M55 468v32h371v-32l-328 -436h328v-32h-371v32l328 436h-328zM216 600l-121 132h42l94 -99l93 99h42l-122 -132h-28z" />
<glyph unicode="&#x192;" d="M289 -66q0 -97 -31.5 -138t-95.5 -41l-92 3l2 33q62 -3 90 -3q45 0 68.5 33.5t23.5 112.5v418h-69v32h69v74q0 99 19.5 148t69.5 62q20 5 38 5l93 -3l-2 -32q-61 2 -91 2q-92 0 -92 -146v-110h162v-32h-162v-418z" />
<glyph unicode="&#x1fa;" horiz-adv-x="604" d="M397 760q0 -50 -37 -76l209 -682h-36l-67 213h-328l-67 -215h-36l209 681q-41 24 -41 79q0 43 26.5 67.5t70.5 24.5t70.5 -24.5t26.5 -67.5zM275 666l-127 -417h308l-127 417h-54zM236 760q0 -51 44 -60h39q45 10 45 60q0 30 -17 46t-47 16t-47 -16t-17 -46zM198 916 l192 96l16 -31l-193 -92z" />
<glyph unicode="&#x1fb;" horiz-adv-x="518" d="M418 353v-288q4 -36 75 -42l-2 -31q-73 0 -103 42q-102 -43 -202 -43q-62 0 -96.5 37t-34.5 109q0 65 33 101t105 43l190 20v52q0 64 -27.5 93t-83.5 29q-32 0 -79.5 -4.5t-78.5 -8.5l-31 -4l-3 33q112 18 192 18q146 0 146 -156zM383 269l-186 -19q-57 -6 -81 -33 t-24 -80q0 -55 24.5 -84.5t70.5 -29.5q93 0 196 41v205zM153 650q0 40 28 67.5t68 27.5t67 -27.5t27 -67.5t-27 -67.5t-67 -27.5q-41 0 -68.5 27.5t-27.5 67.5zM187 650q0 -26 18 -45t44 -19q25 0 43 19t18 45t-18 44.5t-43 18.5q-26 0 -44 -18.5t-18 -44.5zM155 806l192 96 l16 -31l-193 -92z" />
<glyph unicode="&#x1fc;" horiz-adv-x="847" d="M429 0v215h-276l-78 -215h-40l251 700h552v-34h-373v-288h313v-34h-313v-310h373v-34h-409zM314 666l-149 -417h264v417h-115zM349 826l192 96l16 -31l-193 -92z" />
<glyph unicode="&#x1fd;" horiz-adv-x="828" d="M570 23l182 9l2 -32q-112 -9 -185 -9q-98 0 -143 58l-38 -16q-93 -42 -206 -42q-127 0 -127 146q0 80 39 107.5t146 41.5l143 15v52q0 64 -27.5 93t-83.5 29l-188 -9l-2 33q110 10 190 10q115 0 139 -96q49 96 172 96q95 0 142.5 -57t47.5 -183v-33h-355 q0 -108 34 -160.5t118 -52.5zM183 23q42 0 97 12t84.5 22t46.5 17q-30 59 -30 194l-184 -18q-55 -5 -80 -32t-25 -81q0 -55 24 -84.5t67 -29.5zM418 268h318q0 113 -36.5 161t-116.5 48q-165 0 -165 -209zM320 636l192 96l16 -31l-193 -92z" />
<glyph unicode="&#x1fe;" horiz-adv-x="656" d="M328 -9q-79 0 -134 23l-58 -125l-33 13l60 129q-57 38 -80 115t-23 201q0 184 58 273t210 89q82 0 140 -28l52 111l33 -14l-55 -116q54 -42 76 -119t22 -196q0 -191 -56.5 -273.5t-211.5 -82.5zM98 347q0 -112 17.5 -180t63.5 -103l273 584q-48 27 -124 27 q-70 0 -116 -21t-70.5 -65.5t-34 -101t-9.5 -140.5zM328 25q72 0 117.5 18.5t70 61t33.5 98.5t9 144q0 210 -76 280l-273 -581q47 -21 119 -21zM220 826l192 96l16 -31l-193 -92z" />
<glyph unicode="&#x1ff;" horiz-adv-x="526" d="M265 509q47 0 83 -12l45 108l30 -11l-46 -110q89 -49 89 -225q0 -147 -41 -207.5t-160 -60.5q-50 0 -86 9l-46 -114l-30 10l46 114q-51 24 -70 82t-19 169q0 138 46.5 193t158.5 55zM265 477q-97 0 -132.5 -45.5t-35.5 -170.5q0 -98 13.5 -148t53.5 -71l172 424 q-31 11 -71 11zM265 23q54 0 87.5 13.5t50 46t21.5 71.5t5 105q0 145 -65 192l-173 -420q27 -8 74 -8zM159 636l192 96l16 -31l-193 -92z" />
<glyph unicode="&#x218;" horiz-adv-x="536" d="M468 695l-4 -35q-137 17 -195 17q-178 0 -178 -140q0 -30 4.5 -52.5t16.5 -38t25 -26t38 -18t46 -12t58 -10.5q109 -17 156.5 -52.5t47.5 -124.5q0 -113 -52.5 -161.5t-159.5 -48.5q-33 0 -86.5 4t-90.5 8l-37 4l4 35q138 -17 209 -17q88 0 131.5 41t43.5 132 q0 73 -38 101t-137 43q-60 9 -93.5 18.5t-65 29.5t-45 54.5t-13.5 88.5q0 176 216 176zM232 -267l38 189h36l-46 -189h-28z" />
<glyph unicode="&#x219;" horiz-adv-x="483" d="M403 494l-2 -33q-102 16 -170 16q-134 0 -134 -100q0 -47 28 -66.5t114 -32.5q106 -17 144 -42t38 -92q0 -84 -48 -118.5t-142 -34.5q-25 0 -66.5 4t-70.5 8l-28 4l4 33q108 -17 159 -17q77 0 116 25t39 93q0 52 -30.5 71t-124.5 33q-95 15 -132 39.5t-37 90.5 q0 50 27 81.5t63 42t81 10.5q34 0 77 -3.5t69 -7.5zM202 -267l38 189h36l-46 -189h-28z" />
<glyph unicode="&#x2c6;" horiz-adv-x="215" d="M-15 600l121 132h28l122 -132h-43l-92 100l-93 -100h-43z" />
<glyph unicode="&#x2c7;" horiz-adv-x="215" d="M106 600l-121 132h42l94 -99l93 99h42l-122 -132h-28z" />
<glyph unicode="&#x2d8;" horiz-adv-x="215" d="M-15 723h35q0 -42 27.5 -69t75.5 -27t75.5 27t27.5 69h35q0 -56 -38 -92t-100 -36t-100 36t-38 92z" />
<glyph unicode="&#x2d9;" horiz-adv-x="215" d="M90 645v55h35v-55h-35z" />
<glyph unicode="&#x2da;" horiz-adv-x="215" d="M16 650q0 40 28 67.5t68 27.5t67 -27.5t27 -67.5t-27 -67.5t-67 -27.5q-41 0 -68.5 27.5t-27.5 67.5zM50 650q0 -26 18 -45t44 -19q25 0 43 19t18 45t-18 44.5t-43 18.5q-26 0 -44 -18.5t-18 -44.5z" />
<glyph unicode="&#x2db;" horiz-adv-x="434" d="M308 -159l4 -33q-36 -8 -64 -8q-35 0 -57.5 22t-22.5 60q0 20 21 51t41 52l21 21l35 -5q-81 -85 -81 -117q0 -21 13 -35.5t34 -14.5z" />
<glyph unicode="&#x2dc;" horiz-adv-x="215" d="M256 703l9 -30q-42 -43 -73 -43q-21 0 -76.5 27t-70.5 27q-21 0 -70 -45l-10 29q49 47 82 47q21 0 76.5 -26.5t70.5 -26.5q18 0 62 41z" />
<glyph unicode="&#x2dd;" horiz-adv-x="215" d="M134 622l163 104l18 -27l-163 -104zM-51 622l163 104l18 -27l-163 -104z" />
<glyph unicode="&#x300;" horiz-adv-x="215" d="M36 732l192 -96l-15 -27l-193 92z" />
<glyph unicode="&#x301;" horiz-adv-x="215" d="M10 636l192 96l16 -31l-193 -92z" />
<glyph unicode="&#x302;" horiz-adv-x="215" d="M-15 600l121 132h28l122 -132h-43l-92 100l-93 -100h-43z" />
<glyph unicode="&#x303;" horiz-adv-x="215" d="M256 703l9 -30q-42 -43 -73 -43q-21 0 -76.5 27t-70.5 27q-21 0 -70 -45l-10 29q49 47 82 47q21 0 76.5 -26.5t70.5 -26.5q18 0 62 41z" />
<glyph unicode="&#x304;" horiz-adv-x="215" d="M-20 642v32h267v-32h-267z" />
<glyph unicode="&#x306;" horiz-adv-x="215" d="M-15 723h35q0 -42 27.5 -69t75.5 -27t75.5 27t27.5 69h35q0 -56 -38 -92t-100 -36t-100 36t-38 92z" />
<glyph unicode="&#x307;" horiz-adv-x="215" d="M90 645v55h35v-55h-35z" />
<glyph unicode="&#x308;" horiz-adv-x="215" d="M0 638v62h35v-62h-35zM190 638v62h35v-62h-35z" />
<glyph unicode="&#x30a;" horiz-adv-x="215" d="M16 650q0 40 28 67.5t68 27.5t67 -27.5t27 -67.5t-27 -67.5t-67 -27.5q-41 0 -68.5 27.5t-27.5 67.5zM50 650q0 -26 18 -45t44 -19q25 0 43 19t18 45t-18 44.5t-43 18.5q-26 0 -44 -18.5t-18 -44.5z" />
<glyph unicode="&#x30b;" horiz-adv-x="215" d="M134 622l163 104l18 -27l-163 -104zM-51 622l163 104l18 -27l-163 -104z" />
<glyph unicode="&#x30c;" horiz-adv-x="215" d="M104 600l-121 132h42l94 -99l93 99h42l-122 -132h-28z" />
<glyph unicode="&#x312;" horiz-adv-x="170" d="M116 782l-38 -189h-36l46 189h28z" />
<glyph unicode="&#x315;" horiz-adv-x="135" d="M84 700v-217h-34v217h34z" />
<glyph unicode="&#x326;" horiz-adv-x="170" d="M42 -267l38 189h36l-46 -189h-28z" />
<glyph unicode="&#x327;" horiz-adv-x="394" d="M334 -127q0 -74 -82 -74l-81 4l2 28q44 -4 78 -4q48 0 48 46q0 42 -48 42h-54v86h33v-58q56 0 80 -15t24 -55z" />
<glyph unicode="&#x328;" horiz-adv-x="434" d="M308 -159l4 -33q-36 -8 -64 -8q-35 0 -57.5 22t-22.5 60q0 20 21 51t41 52l21 21l35 -5q-81 -85 -81 -117q0 -21 13 -35.5t34 -14.5z" />
<glyph unicode="&#x394;" d="M47 26l182 634h76l182 -634l1 -26h-441v26zM279 626h-25l-167 -592h359z" />
<glyph unicode="&#x2206;" d="M47 26l182 634h76l182 -634l1 -26h-441v26zM279 626h-25l-167 -592h359z" />
<glyph unicode="&#x3a9;" d="M26 20h151l-13 21.5t-29 55t-37 81.5t-29 93.5t-13 98.5q0 157 43 228.5t166 71.5t165.5 -71.5t42.5 -228.5q0 -71 -30.5 -158.5t-60.5 -139.5l-30 -52h152v-29h-189v19q5 8 13 23t29 58t37 84t29 93t13 92q0 148 -33 210t-138 62q-45 0 -76 -11.5t-49.5 -31.5t-28.5 -56 t-13.5 -75t-3.5 -98q0 -64 30 -151.5t60 -142.5l31 -56v-19h-189v29z" />
<glyph unicode="&#x2126;" d="M26 20h151l-13 21.5t-29 55t-37 81.5t-29 93.5t-13 98.5q0 157 43 228.5t166 71.5t165.5 -71.5t42.5 -228.5q0 -71 -30.5 -158.5t-60.5 -139.5l-30 -52h152v-29h-189v19q5 8 13 23t29 58t37 84t29 93t13 92q0 148 -33 210t-138 62q-45 0 -76 -11.5t-49.5 -31.5t-28.5 -56 t-13.5 -75t-3.5 -98q0 -64 30 -151.5t60 -142.5l31 -56v-19h-189v29z" />
<glyph unicode="&#x3c0;" d="M375 154v311h-204l-29 -465h-35l29 465q-95 -2 -132 -13v35q25 5 62.5 8t62.5 4l25 1h216q95 0 144 16v-35q-34 -12 -104 -15v-312q0 -75 20 -97.5t79 -22.5v-34q-77 0 -105.5 31.5t-28.5 122.5z" />
<glyph unicode="&#x1e80;" horiz-adv-x="872" d="M45 700h35l143 -666h38l155 656h40l160 -656h38l138 666h35l-144 -700h-96l-151 643l-146 -643h-96zM338 922l192 -96l-15 -27l-193 92z" />
<glyph unicode="&#x1e81;" horiz-adv-x="761" d="M38 500h37l127 -468h11l148 458h39l147 -458h11l128 468h37l-137 -500h-68l-138 448l-139 -448h-68zM292 732l192 -96l-15 -27l-193 92z" />
<glyph unicode="&#x1e82;" horiz-adv-x="872" d="M45 700h35l143 -666h38l155 656h40l160 -656h38l138 666h35l-144 -700h-96l-151 643l-146 -643h-96zM342 826l192 96l16 -31l-193 -92z" />
<glyph unicode="&#x1e83;" horiz-adv-x="761" d="M38 500h37l127 -468h11l148 458h39l147 -458h11l128 468h37l-137 -500h-68l-138 448l-139 -448h-68zM276 636l192 96l16 -31l-193 -92z" />
<glyph unicode="&#x1e84;" horiz-adv-x="872" d="M45 700h35l143 -666h38l155 656h40l160 -656h38l138 666h35l-144 -700h-96l-151 643l-146 -643h-96zM320 838v62h35v-62h-35zM516 838v62h35v-62h-35z" />
<glyph unicode="&#x1e85;" horiz-adv-x="761" d="M38 500h37l127 -468h11l148 458h39l147 -458h11l128 468h37l-137 -500h-68l-138 448l-139 -448h-68zM268 638v62h35v-62h-35zM458 638v62h35v-62h-35z" />
<glyph unicode="&#x1eab;" horiz-adv-x="536" d="M418 353v-288q4 -36 75 -42l-2 -31q-73 0 -103 42q-102 -43 -202 -43q-62 0 -96.5 37t-34.5 109q0 65 33 101t105 43l190 20v52q0 64 -27.5 93t-83.5 29q-32 0 -79.5 -4.5t-78.5 -8.5l-31 -4l-3 33q112 18 192 18q146 0 146 -156zM383 269l-186 -19q-57 -6 -81 -33 t-24 -80q0 -55 24.5 -84.5t70.5 -29.5q93 0 196 41v205zM108 570l121 132h28l122 -132h-43l-92 100l-93 -100h-43zM372 803l9 -30q-42 -43 -73 -43q-21 0 -76.5 27t-70.5 27q-21 0 -70 -45l-10 29q49 47 82 47q21 0 76.5 -26.5t70.5 -26.5q18 0 62 41z" />
<glyph unicode="&#x1eb0;" horiz-adv-x="604" d="M35 0l215 700h106l213 -698h-36l-67 213h-328l-67 -215h-36zM275 666l-127 -417h308l-127 417h-54zM160 894h35q0 -40 30 -63.5t73 -23.5t73 23.5t30 63.5h35q0 -54 -40 -86.5t-98 -32.5t-98 32.5t-40 86.5zM154 1062l192 -96l-15 -27l-193 92z" />
<glyph unicode="&#x1ec5;" horiz-adv-x="507" d="M249 23l182 9l2 -32q-112 -9 -185 -9q-106 1 -147 64.5t-41 194.5q0 259 202 259q95 0 142.5 -57t47.5 -183v-33h-355q0 -108 34 -160.5t118 -52.5zM97 268h318q0 113 -36.5 161t-116.5 48q-165 0 -165 -209zM120 570l121 132h28l122 -132h-43l-92 100l-93 -100h-43z M393 803l9 -30q-42 -43 -73 -43q-21 0 -76.5 27t-70.5 27q-21 0 -70 -45l-10 29q49 47 82 47q21 0 76.5 -26.5t70.5 -26.5q18 0 62 41z" />
<glyph unicode="&#x1ed7;" horiz-adv-x="536" d="M265 509q103 0 152 -58t49 -192q0 -147 -41 -207.5t-160 -60.5q-122 0 -163.5 58t-41.5 212q0 138 46.5 193t158.5 55zM265 23q54 0 87.5 13.5t50 46t21.5 71.5t5 105q0 118 -39.5 168t-124.5 50q-97 0 -132.5 -45.5t-35.5 -170.5q0 -70 5.5 -110.5t23.5 -72t51 -43.5 t88 -12zM118 570l121 132h28l122 -132h-43l-92 100l-93 -100h-43zM382 803l9 -30q-42 -43 -73 -43q-21 0 -76.5 27t-70.5 27q-21 0 -70 -45l-10 29q49 47 82 47q21 0 76.5 -26.5t70.5 -26.5q18 0 62 41z" />
<glyph unicode="&#x1ef2;" horiz-adv-x="540" d="M289 301v-301h-36v301l-228 399h41l205 -359l202 359h42zM182 922l192 -96l-15 -27l-193 92z" />
<glyph unicode="&#x1ef3;" horiz-adv-x="480" d="M35 500h37l147 -468h41l148 468h37l-229 -730h-37l72 230h-61zM151 732l192 -96l-15 -27l-193 92z" />
<glyph unicode="&#x1ef8;" horiz-adv-x="540" d="M289 301v-301h-36v301l-228 399h41l205 -359l202 359h42zM405 903l9 -30q-42 -43 -73 -43q-21 0 -76.5 27t-70.5 27q-21 0 -70 -45l-10 29q49 47 82 47q21 0 76.5 -26.5t70.5 -26.5q18 0 62 41z" />
<glyph unicode="&#x1ef9;" horiz-adv-x="480" d="M35 500h37l147 -468h41l148 468h37l-229 -730h-37l72 230h-61zM374 703l9 -30q-42 -43 -73 -43q-21 0 -76.5 27t-70.5 27q-21 0 -70 -45l-10 29q49 47 82 47q21 0 76.5 -26.5t70.5 -26.5q18 0 62 41z" />
<glyph unicode="&#x2013;" horiz-adv-x="500" d="M0 286h500v-34h-500v34z" />
<glyph unicode="&#x2014;" horiz-adv-x="1000" d="M0 286h1000v-34h-1000v34z" />
<glyph unicode="&#x2018;" horiz-adv-x="170" d="M114 727l-40 -200h-38l49 200h29z" />
<glyph unicode="&#x2019;" horiz-adv-x="170" d="M55 527l40 200h38l-49 -200h-29z" />
<glyph unicode="&#x201a;" horiz-adv-x="170" d="M123 115l-40 -200h-38l49 200h29z" />
<glyph unicode="&#x201c;" horiz-adv-x="281" d="M226 727l-40 -200h-38l49 200h29zM93 727l-40 -200h-38l49 200h29z" />
<glyph unicode="&#x201d;" horiz-adv-x="292" d="M55 527l40 200h38l-49 -200h-29zM199 527l40 200h38l-49 -200h-29z" />
<glyph unicode="&#x201e;" horiz-adv-x="300" d="M55 -85l40 200h38l-49 -200h-29zM199 -85l40 200h38l-49 -200h-29z" />
<glyph unicode="&#x2020;" d="M64 464v34h183v202h35v-202h183v-34h-183v-543h-35v543h-183z" />
<glyph unicode="&#x2021;" d="M247 -79v202h-183v32h183v309h-183v34h183v202h35v-202h183v-34h-183v-309h183v-32h-183v-202h-35z" />
<glyph unicode="&#x2022;" d="M140 110v290h250v-290h-250z" />
<glyph unicode="&#x2026;" horiz-adv-x="744" d="M107 0v80h40v-80h-40zM361 0v80h40v-80h-40zM615 0v80h40v-80h-40z" />
<glyph unicode="&#x2030;" horiz-adv-x="833" d="M131 669q-36 0 -52 -25t-16 -76q0 -107 68 -107t68 106q0 52 -15.5 77t-52.5 25zM165 8l184 693l33 -8l-185 -692zM28 568q0 133 103 133t103 -134q0 -69 -28 -103.5t-75 -34.5q-48 0 -75.5 34.5t-27.5 104.5zM307 139q0 133 103 133t103 -134q0 -69 -28 -103.5 t-75 -34.5q-48 0 -75.5 34.5t-27.5 104.5zM342 139q0 -107 68 -107t68 106q0 52 -15.5 77t-52.5 25q-36 0 -52 -25t-16 -76zM565 139q0 133 103 133t103 -134q0 -69 -28 -103.5t-75 -34.5q-48 0 -75.5 34.5t-27.5 104.5zM600 139q0 -107 68 -107t68 106q0 52 -15.5 77 t-52.5 25q-36 0 -52 -25t-16 -76z" />
<glyph unicode="&#x2039;" horiz-adv-x="250" d="M190 360l-135 -106l135 -117v-41l-167 138v36l167 129v-39z" />
<glyph unicode="&#x203a;" horiz-adv-x="250" d="M195 254l-135 106v39l167 -129v-36l-167 -138v41z" />
<glyph unicode="&#x2070;" horiz-adv-x="265" d="M134 799q55 0 84 -38t29 -126q0 -166 -112 -166q-113 0 -113 167q0 163 112 163zM134 765q-39 0 -57 -31t-18 -99q0 -71 19 -101.5t57 -30.5t56.5 30.5t18.5 102.5q0 67 -18 98t-58 31z" />
<glyph unicode="&#x2074;" horiz-adv-x="265" d="M164 478v57h-146v32l89 223h38l-87 -221h106v87h36v-87h37v-34h-37v-57h-36z" />
<glyph unicode="&#x2075;" horiz-adv-x="265" d="M50 790h174v-35h-140l-7 -102q22 22 65 22t69.5 -23.5t26.5 -75.5t-28.5 -79.5t-72.5 -27.5q-20 0 -44.5 3t-39.5 6l-15 3l3 35q53 -12 96 -12q27 0 44.5 18.5t17.5 53.5q0 64 -57 64q-40 0 -70 -22l-31 2z" />
<glyph unicode="&#x2076;" horiz-adv-x="265" d="M225 790l-2 -32q-40 7 -78 7q-40 0 -59 -24t-20 -80l10 5q11 4 29.5 9t33.5 5q102 0 102 -101q0 -51 -28 -80.5t-77 -29.5q-109 0 -109 166q0 89 30 126.5t88 37.5zM138 646q-17 0 -35 -5.5t-28 -10.5t-10 -6q1 -60 17 -90.5t54 -30.5q67 0 67 76q0 37 -14.5 52t-50.5 15 z" />
<glyph unicode="&#x2077;" horiz-adv-x="265" d="M30 756v34h194v-61l-112 -259l-36 8l110 253v25h-156z" />
<glyph unicode="&#x2078;" horiz-adv-x="265" d="M132 799q108 0 108 -82q0 -33 -11.5 -49t-43.5 -26q31 -9 45.5 -26.5t14.5 -52.5q0 -52 -29.5 -73t-83.5 -21q-113 0 -113 88q0 38 14 55t47 30q-30 11 -43 27.5t-13 47.5q0 82 108 82zM132 503q75 0 75 59q0 28 -12.5 40.5t-44.5 20.5h-36q-31 -8 -44 -21.5t-13 -43.5 q0 -55 75 -55zM132 765q-70 0 -70 -48q0 -25 11 -36.5t41 -20.5h36q30 8 41 19.5t11 36.5t-16 37t-54 12z" />
<glyph unicode="&#x2079;" horiz-adv-x="265" d="M37 479l3 31q42 -7 79 -7q83 0 84 103q-43 -17 -79 -17q-46 0 -73.5 28.5t-27.5 76.5q0 49 30 77t77 28q109 0 109 -168q0 -90 -29 -126t-91 -36zM125 623l78 21q-2 60 -18.5 90.5t-54.5 30.5q-32 0 -50.5 -18t-18.5 -52q0 -32 16.5 -52t47.5 -20z" />
<glyph unicode="&#x2080;" horiz-adv-x="265" d="M134 321q55 0 84 -38t29 -126q0 -166 -112 -166q-113 0 -113 167q0 163 112 163zM134 287q-39 0 -57 -31t-18 -99q0 -71 19 -101.5t57 -30.5t56.5 30.5t18.5 102.5q0 67 -18 98t-58 31z" />
<glyph unicode="&#x2081;" horiz-adv-x="265" d="M39 245l99 67h36v-312h-36v273l-82 -56z" />
<glyph unicode="&#x2082;" horiz-adv-x="265" d="M223 0h-195v34l98 104q18 19 27.5 31t18 30.5t8.5 37.5q0 50 -57 50l-90 -12l-2 33q51 13 93 13q92 0 92 -85q0 -32 -15.5 -59t-49.5 -62l-76 -81h148v-34z" />
<glyph unicode="&#x2083;" horiz-adv-x="265" d="M33 310q53 11 98 11q49 0 72.5 -19t23.5 -61q0 -26 -12 -45t-20.5 -24.5t-15.5 -8.5q30 -9 43.5 -24.5t13.5 -54.5q0 -93 -100 -93l-107 11l3 32q54 -9 104 -9q63 0 63 58q0 61 -60 61h-65v34h65q18 0 34.5 19t16.5 44q0 23 -13 34.5t-45 11.5q-20 0 -44 -2.5t-38 -4.5 l-14 -2z" />
<glyph unicode="&#x2084;" horiz-adv-x="265" d="M164 0v57h-146v32l89 223h38l-87 -221h106v87h36v-87h37v-34h-37v-57h-36z" />
<glyph unicode="&#x2085;" horiz-adv-x="265" d="M50 312h174v-35h-140l-7 -102q22 22 65 22t69.5 -23.5t26.5 -75.5t-28.5 -79.5t-72.5 -27.5q-20 0 -44.5 3t-39.5 6l-15 3l3 35q53 -12 96 -12q27 0 44.5 18.5t17.5 53.5q0 64 -57 64q-40 0 -70 -22l-31 2z" />
<glyph unicode="&#x2086;" horiz-adv-x="265" d="M225 312l-2 -32q-40 7 -78 7q-40 0 -59 -24t-20 -80l10 5q11 4 29.5 9t33.5 5q102 0 102 -101q0 -51 -28 -80.5t-77 -29.5q-109 0 -109 166q0 89 30 126.5t88 37.5zM138 168q-17 0 -35 -5.5t-28 -10.5t-10 -6q1 -60 17 -90.5t54 -30.5q67 0 67 76q0 37 -14.5 52t-50.5 15 z" />
<glyph unicode="&#x2087;" horiz-adv-x="265" d="M30 278v34h194v-61l-112 -259l-36 8l110 253v25h-156z" />
<glyph unicode="&#x2088;" horiz-adv-x="265" d="M132 321q108 0 108 -82q0 -33 -11.5 -49t-43.5 -26q31 -9 45.5 -26.5t14.5 -52.5q0 -52 -29.5 -73t-83.5 -21q-113 0 -113 88q0 38 14 55t47 30q-30 11 -43 27.5t-13 47.5q0 82 108 82zM132 25q75 0 75 59q0 28 -12.5 40.5t-44.5 20.5h-36q-31 -8 -44 -21.5t-13 -43.5 q0 -55 75 -55zM132 287q-70 0 -70 -48q0 -25 11 -36.5t41 -20.5h36q30 8 41 19.5t11 36.5t-16 37t-54 12z" />
<glyph unicode="&#x2089;" horiz-adv-x="265" d="M37 1l3 31q42 -7 79 -7q83 0 84 103q-43 -17 -79 -17q-46 0 -73.5 28.5t-27.5 76.5q0 49 30 77t77 28q109 0 109 -168q0 -90 -29 -126t-91 -36zM125 145l78 21q-2 60 -18.5 90.5t-54.5 30.5q-32 0 -50.5 -18t-18.5 -52q0 -32 16.5 -52t47.5 -20z" />
<glyph unicode="&#x20ac;" d="M5 427h64q10 128 64 189t182 61q95 0 175 -19l-3 -35q-91 20 -172 20q-111 0 -155.5 -52t-52.5 -164l311 -1v-33h-313q-1 -20 -1 -62q0 -36 1 -52l313 -1v-33h-312q8 -115 52.5 -167.5t156.5 -52.5l172 20l3 -34q-96 -20 -175 -20q-128 0 -182.5 61t-63.5 193h-64v34h62 q-1 16 -1 52q0 42 1 62h-62v34z" />
<glyph unicode="&#x2122;" d="M7 590v31h200v-31h-83v-258h-33v258h-84zM242 331v290h50l84 -242l87 242h50v-290h-32v258l-88 -247h-35l-84 247v-258h-32z" />
<glyph unicode="&#x2211;" horiz-adv-x="833" />
<glyph unicode="&#x2212;" d="M21 298v34h486v-34h-486z" />
<glyph unicode="&#x221e;" d="M133 121q-116 0 -116 171q0 81 28.5 126t85.5 45q51 0 80.5 -31.5t53.5 -95.5q24 64 53 95.5t81 31.5q57 0 85.5 -45t28.5 -126q0 -171 -116 -171q-51 0 -79.5 31.5t-52.5 94.5q-25 -75 -51 -100.5t-81 -25.5zM280 292q3 -8 12.5 -31t14 -33t14.5 -27t19.5 -24.5 t24.5 -14t33 -6.5q77 0 77 136t-77 136q-18 0 -33 -6.5t-24.5 -14t-19.5 -24.5t-14.5 -27t-14 -33t-12.5 -31zM250 292q-3 8 -12.5 31t-14 33t-14.5 27t-19.5 24.5t-24.5 14t-33 6.5q-77 0 -77 -136t77 -136q18 0 33 6.5t24.5 14t19.5 24.5t14.5 27t14 33t12.5 31z" />
<glyph unicode="&#x2248;" d="M455 420l7 -37q-54 -52 -100 -52q-33 0 -101 27t-91 27q-16 0 -40 -13.5t-40 -26.5l-15 -13l-7 35q56 54 102 54q34 0 102.5 -27t88.5 -27q16 0 39.5 13.5t39.5 26.5zM454 250l7 -37q-54 -52 -100 -52q-33 0 -101 27t-91 27q-16 0 -40 -13.5t-39 -26.5l-16 -13l-7 35 q56 54 102 54q34 0 102.5 -27t88.5 -27q16 0 39.5 13.5t38.5 26.5z" />
<glyph unicode="&#x2260;" d="M61 340v34h247l72 163l35 -14l-66 -149h137v-34h-152l-66 -151h219v-34h-234l-72 -165l-35 14l66 151h-150v34h165l66 151h-232z" />
<glyph unicode="&#x2264;" d="M418 510l-295 -146l295 -157v-41l-327 178v36l327 169v-39zM91 66v36h327v-36h-327z" />
<glyph unicode="&#x2265;" d="M407 364l-295 146v39l327 -169v-36l-327 -178v41zM112 66v36h327v-36h-327z" />
<glyph unicode="&#xe000;" horiz-adv-x="500" d="M0 500h500v-500h-500v500z" />
<glyph horiz-adv-x="235" />
<glyph horiz-adv-x="538" d="M308 509q99 0 134.5 -56.5t35.5 -191.5q0 -147 -47 -208.5t-181 -61.5l-149 9v730h35v-261q83 40 172 40zM249 23q62 0 100.5 13.5t58.5 45.5t26.5 72t6.5 105q0 119 -26.5 168.5t-106.5 49.5q-40 0 -83 -10t-66 -20l-23 -10v-408q78 -6 113 -6z" />
<glyph horiz-adv-x="627" d="M103 700h240q102 0 152 -41t50 -129q0 -133 -97 -169q124 -34 124 -165q0 -108 -54 -152t-156 -44h-259v700zM354 341h-215v-307h223q83 0 128 36.5t45 125.5q0 145 -181 145zM343 666h-204v-292h215q80 0 117 39t37 117q0 72 -40 104t-125 32z" />
<glyph horiz-adv-x="480" d="M35 500h37l146 -468h43l147 468h37l-157 -500h-98z" />
<glyph horiz-adv-x="456" d="M207 250l-169 250h40l150 -223l150 223h40l-169 -250l169 -250h-41l-149 223l-149 -223h-41z" />
<glyph d="M452 651l-4 -33q-72 18 -156 18q-102 0 -155 -66t-53 -218q0 2 28 15.5t76 28t87 14.5q209 0 209 -202q0 -217 -214 -217q-115 0 -169.5 87t-54.5 259q0 180 63.5 256.5t182.5 76.5zM273 376q-88 -3 -188 -58l-2 -1q2 -146 46 -219t141 -73q95 0 135.5 45t40.5 138 q0 81 -39 124.5t-134 43.5z" />
<glyph d="M74 12l6 32q82 -19 166 -19q101 0 151 67.5t50 221.5q0 -2 -28 -15.5t-76 -28t-87 -14.5q-106 0 -157.5 53t-51.5 144q0 103 55 160t163 57q113 0 166 -86.5t53 -259.5q0 -181 -60 -257t-178 -76q-37 0 -80 5.5t-68 10.5zM258 290q88 3 188 58l2 1q-5 287 -183 287 q-180 0 -180 -183q0 -74 42 -118.5t131 -44.5z" />
<glyph horiz-adv-x="653" d="M389 0h-286v700h286q59 0 102 -35t63.5 -91t29.5 -109t9 -105q0 -39 -3.5 -78t-16 -92.5t-33 -93.5t-60 -68t-91.5 -28zM555 360q0 34 -7 78.5t-23 99.5t-51.5 91.5t-84.5 36.5h-250v-632h250q44 0 77 28t49.5 65t26 88t11.5 82.5t2 62.5z" />
<glyph d="M480 0h-377v700h36v-666h341v-34z" />
<glyph horiz-adv-x="0" />
<glyph d="M135 702q54 0 80 -31.5t26 -102.5q0 -138 -106 -138q-54 0 -80 33.5t-26 105.5q0 70 25.5 101.5t80.5 31.5zM416 272q54 0 80 -31.5t26 -102.5q0 -138 -106 -138q-54 0 -80 33.5t-26 105.5q0 70 25.5 101.5t80.5 31.5zM186 6l144 695l36 -7l-144 -695zM64 569 q0 -54 16 -80.5t55 -26.5q40 0 55.5 26t15.5 80q0 53 -15.5 77.5t-55.5 24.5q-39 0 -55 -24.5t-16 -76.5zM345 139q0 -54 16 -80.5t55 -26.5q40 0 55.5 26t15.5 80q0 53 -15.5 77.5t-55.5 24.5q-39 0 -55 -24.5t-16 -76.5z" />
<glyph d="M434 519h-137l42 -129l-32 -10l-42 130l-110 -79l-19 27l110 80l-109 80l20 27l110 -81l42 129l32 -10l-42 -130h135v-34z" />
<glyph horiz-adv-x="260" d="M102 750h35q-11 -29 -26.5 -77.5t-42 -168t-26.5 -203.5q0 -167 87 -405l8 -21h-35q-11 25 -27 68t-43 156t-27 202t24.5 201t48.5 180z" />
<glyph horiz-adv-x="260" d="M31 -120h-35q11 29 26.5 77.5t42 168t26.5 203.5q0 167 -87 405l-8 21h35q11 -25 27 -68t43 -156t27 -202t-24 -201t-48 -180z" />
<glyph horiz-adv-x="285" d="M139 169l-7 -116q0 -72 30.5 -106.5t112.5 -38.5l-2 -32q-95 4 -135.5 45.5t-40.5 131.5q0 21 3.5 66.5t3.5 56.5q0 49 -23.5 75.5t-80.5 42.5v32q57 14 80.5 42t23.5 78q0 13 -3.5 60.5t-3.5 67.5q0 90 40.5 131.5t135.5 45.5l2 -32q-82 -4 -112.5 -38.5t-30.5 -106.5 q0 -17 3.5 -61t3.5 -58q0 -65 -22 -95.5t-78 -48.5q56 -18 78 -49t22 -93z" />
<glyph horiz-adv-x="944" d="M328 -9q-80 0 -133 22t-82.5 69.5t-41 110t-11.5 154.5q0 184 58 273t210 89q108 0 147 -9h409v-36h-373v-286h313v-36h-313v-306h373v-36h-407v-1q-35 -8 -149 -8zM328 25q106 0 147 9v629q-39 12 -147 12q-70 0 -116 -21t-70.5 -65.5t-34 -101t-9.5 -140.5 q0 -85 9 -140t33.5 -98.5t70.5 -63.5t117 -20zM476 663h-1l1 -332v332z" />
<glyph horiz-adv-x="833" d="M414 0v212h-185v32h185v233h-185v32h185v191h35v-191h185v-32h-185v-233h185v-32h-185v-212h-35z" />
<glyph horiz-adv-x="386" d="M371 551q0 -45 -20.5 -84.5t-49.5 -68t-58.5 -54.5t-50 -55.5t-20.5 -60.5v-38h-35v41q0 34 20.5 66.5t50 59.5l58.5 55t49.5 64t20.5 75q0 69 -40.5 97t-124.5 28l-161 -28l-5 34q112 27 166 27q99 0 149.5 -36.5t50.5 -121.5zM135 1v80h40v-80h-40z" />
<glyph horiz-adv-x="141" d="M25 344v80h40v-80h-40zM25 0v80h40v-80h-40z" />
<glyph horiz-adv-x="170" d="M-6 -123l41 210h42l-52 -210h-31zM32 344v80h40v-80h-40z" />
<glyph horiz-adv-x="300" d="M231 749v-32h-147v-808h147v-32h-182l-1 872h183z" />
<glyph horiz-adv-x="300" d="M51 717v32h183l-1 -872h-182v32h147v808h-147z" />
<glyph horiz-adv-x="100" d="M-18 460l-2 230h119l-5 -230h-112z" />
<glyph horiz-adv-x="355" d="M35 460l-2 230h119l-5 -230h-112zM193 460l-2 230h119l-5 -230h-112z" />
<glyph horiz-adv-x="700" d="M303 694q78 0 115.5 -39t37.5 -106q0 -72 -38 -112.5t-127 -69.5l187 -185q20 58 31 146h35q-14 -108 -39 -172l140 -137l-24 -26l-131 130q-66 -132 -222 -132q-126 0 -178 55t-52 162q0 89 38 132.5t125 68.5q-32 35 -41.5 65t-9.5 76q0 65 39 104.5t114 39.5zM270 24 q137 0 194 124l-237 235q-86 -23 -120 -60t-34 -114q0 -93 46 -139t151 -46zM185 550q0 -78 45 -123l36 -36q87 30 121 63t34 96q0 112 -118 112t-118 -112z" />
<glyph horiz-adv-x="570" d="M463 668v-32q-87 12 -120 12q-54 0 -78 -30.5t-24 -116.5v-95h182v-32h-182v-340h174l82 16l7 -32l-81 -17l-309 -1v34h92v340h-69v32h69v95q0 104 32.5 141.5t104.5 37.5z" />
<glyph horiz-adv-x="593" d="M68 427h64q10 128 64 189t182 61q95 0 175 -19l-3 -35q-91 20 -172 20q-111 0 -155.5 -52t-52.5 -164l311 -1v-33h-313q-1 -20 -1 -62q0 -36 1 -52l313 -1v-33h-312q8 -115 52.5 -167.5t156.5 -52.5l172 20l3 -34q-96 -20 -175 -20q-128 0 -182.5 61t-63.5 193h-64v34h62 q-1 16 -1 52q0 42 1 62h-62v34z" />
<glyph horiz-adv-x="833" d="M582 14l-35 -14l-301 687l35 14z" />
<glyph horiz-adv-x="520" d="M27 -34h428v-34h-428v34z" />
<glyph horiz-adv-x="615" d="M358 257h-219v-257h-36v700h255q106 0 156.5 -50t50.5 -161q0 -112 -47 -172t-160 -60zM139 291h219q169 0 169 198q0 92 -41.5 134.5t-127.5 42.5h-219v-375z" />
<glyph d="M3 334v36h336v-36h-336zM151 483v80h40v-80h-40zM151 139v80h40v-80h-40z" />
<glyph horiz-adv-x="410" d="M-49 234v34h232v232h36v-232h234v-34h-234v-234h-36v234h-232z" />
<glyph horiz-adv-x="440" d="M60 264v34h320v-34h-320z" />
<glyph d="M410 520l-315 -206l315 -217v-41q-313 213 -347 238v36l347 229v-39z" />
<glyph d="M1 343v34h505v-34h-505zM2 174v34h505v-34h-505z" />
<glyph d="M378 314l-315 206v39l347 -229v-36l-347 -238v41z" />
<glyph d="M46 12l277 690l33 -14l-277 -689z" />
<glyph horiz-adv-x="876" d="M618 23l182 9l2 -32q-112 -9 -185 -9q-131 1 -169 107q-18 -56 -61 -81.5t-122 -25.5q-122 0 -163.5 58t-41.5 212q0 138 46.5 193t158.5 55q146 0 184 -120q44 120 182 120q95 0 142.5 -57t47.5 -183v-33h-355q0 -108 34 -160.5t118 -52.5zM265 23q54 0 87.5 13.5t50 46 t21.5 71.5t5 105q0 118 -39.5 168t-124.5 50q-97 0 -132.5 -45.5t-35.5 -170.5q0 -70 5.5 -110.5t23.5 -72t51 -43.5t88 -12zM466 268h318q0 113 -36.5 161t-116.5 48q-165 0 -165 -209z" />
<glyph horiz-adv-x="898" d="M429 0v215h-276l-78 -215h-40l251 700h552v-34h-373v-288h313v-34h-313v-310h373v-34h-409zM314 666l-149 -417h264v417h-115z" />
<glyph horiz-adv-x="656" d="M89 -98l60 129q-57 38 -80 115t-23 201q0 184 58 273t210 89q82 0 140 -28l52 111l33 -14l-55 -116q54 -42 76 -119t22 -196q0 -191 -56.5 -273.5t-211.5 -82.5q-79 0 -134 23l-58 -125zM84 347q0 -112 17.5 -180t63.5 -103l273 584q-48 27 -124 27q-70 0 -116 -21 t-70.5 -65.5t-34 -101t-9.5 -140.5zM314 25q72 0 117.5 18.5t70 61t33.5 98.5t9 144q0 210 -76 280l-273 -581q47 -21 119 -21z" />
<glyph horiz-adv-x="828" d="M570 23l182 9l2 -32q-112 -9 -185 -9q-99 1 -143 58l-38 -16q-93 -42 -206 -42q-127 0 -127 146q0 70 31 101t107 43l190 20v52q0 122 -111 122l-188 -9l-2 33q110 10 190 10q115 0 139 -96q49 96 172 96q95 0 142.5 -57t47.5 -183v-33h-355q0 -108 34 -160.5t118 -52.5z M183 23q42 0 97 12t84.5 22t46.5 17q-30 59 -30 176v18l-184 -18q-55 -5 -80 -32t-25 -81q0 -55 24 -84.5t67 -29.5zM418 268h318q0 113 -36.5 161t-116.5 48q-165 0 -165 -209z" />
<glyph d="M262 509q105 0 154.5 -57.5t49.5 -210.5q0 -137 -53 -193.5t-150 -56.5q-203 0 -203 252q0 145 52.5 205.5t149.5 60.5zM263 477q-39 0 -67.5 -10t-52.5 -34.5t-36 -72t-12 -116.5q0 -124 44 -172.5t125 -48.5q84 0 125.5 47.5t41.5 171.5q0 136 -41 185.5t-127 49.5z " />
<glyph d="M106 391l173 109h35v-500h-35v462l-156 -99z" />
<glyph d="M452 0h-351v32l201 175q52 46 75.5 81.5t23.5 81.5q0 57 -31 82t-101 25q-26 0 -67 -5t-69.5 -9.5t-28.5 -5.5l-3 31q98 21 169 21q166 0 166 -139q0 -56 -24.5 -94t-75.5 -81l-195 -163h311v-32z" />
<glyph d="M112 492q96 18 172 18q85 0 128 -29.5t43 -96.5q0 -27 -10 -48.5t-23.5 -34t-29 -20.5t-24 -11t-10.5 -3q35 -10 56 -20.5t38.5 -38.5t17.5 -71q0 -73 -46.5 -109.5t-132.5 -36.5q-37 0 -83.5 4.5t-74.5 8.5l-28 5l5 32q100 -18 181 -18q144 2 144 112q0 107 -138 115 h-122v32h121q52 3 88 27.5t36 75.5q0 52 -32.5 72.5t-102.5 20.5q-34 0 -76 -4.5t-67 -9.5l-26 -4z" />
<glyph d="M345 -33v134h-291v31l176 368h36l-173 -367h252v147h35v-147h61v-32h-61v-134h-35z" />
<glyph d="M128 501h322v-32h-291l-14 -196q84 40 156 40q169 0 169 -149q0 -85 -46 -129t-125 -44l-188 18l4 32q114 -18 184 -18q64 0 100 35t36 106q0 117 -135 117q-68 0 -164 -43l-24 6z" />
<glyph d="M427 494l-3 -31q-74 14 -138 14q-80 0 -122 -47.5t-42 -160.5q0 1 25.5 11.5t66 21.5t70.5 11q171 0 171 -156q0 -82 -46.5 -124.5t-138.5 -42.5q-182 0 -182 264q0 137 50.5 196t147.5 59q28 0 63.5 -3.5t56.5 -7.5zM282 281q-31 -1 -71 -12t-65 -21l-24 -11 q3 -216 148 -216q150 0 150 136q0 65 -31.5 94.5t-106.5 29.5z" />
<glyph d="M59 469v32h327v-53l-225 -457l-32 10l222 450v18h-292z" />
<glyph d="M259 509q189 0 189 -126q0 -49 -26 -76.5t-80 -43.5q55 -16 84 -44.5t29 -85.5q0 -81 -49 -112t-147 -31q-93 0 -142.5 31t-49.5 105q0 32 7 54.5t23.5 38t32 24.5t42.5 20q-48 16 -72.5 44t-24.5 77q0 66 46.5 95.5t137.5 29.5zM259 22q81 0 121 23t40 88q0 30 -8 50 t-26 32t-34.5 18t-46.5 13h-99q-53 -13 -78.5 -39t-25.5 -81q0 -59 40 -81.5t117 -22.5zM259 477q-76 0 -112.5 -20.5t-36.5 -73.5q0 -45 22 -67.5t74 -37.5h99q56 13 82 36t26 68q0 53 -38.5 74t-115.5 21z" />
<glyph d="M93 6l2 32q83 -15 147 -15q80 0 122.5 48t42.5 163q0 -1 -25 -11.5t-65 -21.5t-70 -11q-84 0 -129 40t-45 114q0 78 48 122t133 44q190 0 190 -259q0 -139 -52 -199.5t-150 -60.5q-28 0 -65.5 4t-60.5 7zM248 222q31 1 71 12t65 22l24 10q-2 108 -38.5 160t-115.5 52 q-146 0 -146 -134q0 -122 140 -122z" />
<glyph d="M242 -59v759h35v-759h-35z" />
<glyph horiz-adv-x="437" d="M186 -86v127q-92 5 -133 49t-41 157q0 195 174 212v132h35v-130l116 -11l-2 -35q-75 9 -114 10v-348l116 8l2 -35q-79 -9 -118 -9v-127h-35zM52 247q0 -95 29 -130t105 -39v345q-67 -7 -100.5 -49t-33.5 -127z" />
<glyph d="M61 340v34h247l72 163l35 -14l-66 -149h137v-34h-152l-66 -151h219v-34h-234l-72 -165l-35 14l66 151h-150v34h165l66 151h-232z" />
<glyph horiz-adv-x="540" d="M47 331v34h171l-193 295h41l205 -309l202 309h42l-191 -295h168v-34h-190l-13 -20v-95h204v-34h-204v-182h-36v182h-205v34h205v95l-13 20h-193z" />
<glyph d="M90 -250v750h35v-258q0 -132 24 -175.5t105 -43.5q84 0 162 49l2 1v427h35v-500h-35v40l-24 -13.5t-58.5 -22t-81.5 -13.5q-94 0 -129 51v-292h-35z" />
<glyph d="M289 352v-418q0 -97 -31.5 -138t-95.5 -41l-92 3l2 33q62 -3 90 -3q46 0 69 33.5t23 112.5v418h-69v32h69v111q0 178 127 178l93 -3l-2 -32q-61 2 -91 2q-92 0 -92 -146v-110h162v-32h-162z" />
<glyph horiz-adv-x="170" d="M-6 -123l42 210h40l-51 -210h-31z" />
<glyph horiz-adv-x="248" d="M98 0v80h40v-80h-40z" />
<glyph horiz-adv-x="170" d="M4 527l40 200h38l-48 -200h-30z" />
<glyph horiz-adv-x="833" d="M518 0v667h-172v-667h-36v350h-7q-79 0 -132.5 48.5t-53.5 125.5t53.5 126.5t132.5 49.5h348v-33h-97v-667h-36z" />
<glyph horiz-adv-x="285" d="M135 454l7 116q0 72 -30.5 106.5t-112.5 38.5l2 32q95 -4 135.5 -45.5t40.5 -131.5q0 -21 -3.5 -66.5t-3.5 -56.5q0 -49 23.5 -75.5t80.5 -42.5v-32q-57 -14 -80.5 -42t-23.5 -78q0 -13 3.5 -60.5t3.5 -67.5q0 -90 -40.5 -131.5t-135.5 -45.5l-2 32q82 4 112.5 38.5 t30.5 106.5q0 17 -3.5 61t-3.5 58q0 65 22 95.5t78 48.5q-56 18 -78 49t-22 93z" />
<glyph horiz-adv-x="170" d="M56 727l-40 -200h-38l48 200h30z" />
<glyph horiz-adv-x="0" d="M333 672q239 0 239 -167q0 -19 -1.5 -34t-8.5 -29t-10 -21t-16.5 -20.5l-16.5 -16.5t-22.5 -18.5t-22.5 -17.5q7 -6 30.5 -23.5t31.5 -26t22 -27t19 -40.5t5 -52q0 -105 -65 -148t-184 -43q-246 0 -246 180q0 27 5 49.5t11 36.5t19.5 29.5t21 22.5t26.5 21.5t26 20.5 l-20 16t-19.5 16l-16 14.5t-15 16.5t-11 17.5t-9.5 22l-4.5 24.5t-2.5 31q0 166 235 166zM333 130q101 0 101 74q0 50 -55 76h-88q-32 -15 -44 -33t-12 -43q0 -74 98 -74zM335 530q-51 0 -70 -14.5t-19 -45.5q0 -7 0.5 -12t3 -10t4 -7.5t6.5 -7t7.5 -6t11 -7t12.5 -8.5h88 q4 3 11 7.5t9.5 6.5t7.5 5.5t6.5 6t4.5 6t3.5 7t1.5 8.5t1 11q0 32 -19 46t-70 14z" />
<glyph horiz-adv-x="358" d="M214 639v-140h123v-121h-123v-189q0 -30 1.5 -42.5t11 -21.5t29.5 -9l76 2l6 -115q-67 -15 -102 -15q-90 0 -123 40.5t-33 149.5v200h-59v121h59v130z" />
<glyph horiz-adv-x="440" d="M60 225v112h320v-112h-320z" />
<glyph horiz-adv-x="248" d="M45 0v142h132v-142h-132z" />
<glyph d="M1 313v132h505v-132h-505zM1 106v132h506v-132h-506z" />
<glyph horiz-adv-x="520" d="M27 15h428v-132h-428v132z" />
<glyph horiz-adv-x="339" d="M253 171q0 -14 -3.5 -51.5t-3.5 -54.5q0 -41 13 -57t58 -20v-112q-109 4 -152.5 46t-43.5 133q0 21 3.5 66.5t3.5 56.5q0 59 -104 88v92q104 26 104 90q0 13 -3.5 60.5t-3.5 67.5q0 91 43.5 131t152.5 44v-112q-46 -4 -58.5 -18.5t-12.5 -54.5q0 -17 3.5 -56t3.5 -53 q0 -66 -22 -95.5t-78 -48.5q57 -19 78.5 -48t21.5 -94z" />
<glyph horiz-adv-x="285" d="M-43 452q0 14 3.5 51.5t3.5 54.5q0 41 -13 57t-58 20v112q109 -4 152.5 -46t43.5 -133q0 -21 -3.5 -66.5t-3.5 -56.5q0 -59 104 -88v-92q-104 -26 -104 -90q0 -13 3.5 -60.5t3.5 -67.5q0 -91 -43.5 -131t-152.5 -44v112q46 4 58.5 18.5t12.5 54.5q0 17 -3.5 56t-3.5 53 q0 66 22 95.5t78 48.5q-57 19 -78.5 48t-21.5 94z" />
<glyph horiz-adv-x="410" d="M-49 190v122h189v188h122v-188h191v-122h-191v-190h-122v190h-189z" />
<glyph horiz-adv-x="265" d="M134 221q55 0 84 -38t29 -126q0 -166 -112 -166q-113 0 -113 167q0 163 112 163zM134 187q-39 0 -57 -31t-18 -99q0 -71 19 -101.5t57 -30.5t56.5 30.5t18.5 102.5q0 67 -18 98t-58 31z" />
<glyph horiz-adv-x="265" d="M39 145l99 67h36v-312h-36v273l-82 -56z" />
<glyph horiz-adv-x="265" d="M223 -100h-195v34l98 104q18 19 27.5 31t18 30.5t8.5 37.5q0 50 -57 50l-90 -12l-2 33q51 13 93 13q92 0 92 -85q0 -32 -15.5 -59t-49.5 -62l-76 -81h148v-34z" />
<glyph horiz-adv-x="265" d="M33 210q53 11 98 11q49 0 72.5 -19t23.5 -61q0 -26 -12 -45t-20.5 -24.5t-15.5 -8.5q30 -9 43.5 -24.5t13.5 -54.5q0 -93 -100 -93l-107 11l3 32q54 -9 104 -9q63 0 63 58q0 61 -60 61h-65v34h65q18 0 34.5 19t16.5 44q0 23 -13 34.5t-45 11.5q-20 0 -44 -2.5t-38 -4.5 l-14 -2z" />
<glyph horiz-adv-x="265" d="M164 -100v57h-146v32l89 223h38l-87 -221h106v87h36v-87h37v-34h-37v-57h-36z" />
<glyph horiz-adv-x="265" d="M50 212h174v-35h-140l-7 -102q22 22 65 22t69.5 -23.5t26.5 -75.5t-28.5 -79.5t-72.5 -27.5q-20 0 -45 3t-40 6l-14 3l3 35q53 -12 96 -12q27 0 44.5 18.5t17.5 53.5q0 64 -57 64q-40 0 -70 -22l-31 2z" />
<glyph horiz-adv-x="265" d="M225 212l-2 -32q-40 7 -78 7q-40 0 -59 -24t-20 -80l10 5q11 4 29.5 9t33.5 5q102 0 102 -101q0 -51 -28 -80.5t-77 -29.5q-109 0 -109 166q0 89 30 126.5t88 37.5zM138 68q-17 0 -35 -5.5t-28 -10.5t-10 -6q1 -60 17 -90.5t54 -30.5q67 0 67 76q0 37 -14.5 52t-50.5 15z " />
<glyph horiz-adv-x="265" d="M30 178v34h194v-61l-112 -259l-36 8l110 253v25h-156z" />
<glyph horiz-adv-x="265" d="M132 221q108 0 108 -82q0 -33 -11.5 -49t-43.5 -26q31 -9 45.5 -26.5t14.5 -52.5q0 -52 -29.5 -73t-83.5 -21q-113 0 -113 88q0 38 14 55t47 30q-30 11 -43 27.5t-13 47.5q0 82 108 82zM132 -75q75 0 75 59q0 28 -12.5 40.5t-44.5 20.5h-36q-31 -8 -44 -21.5t-13 -43.5 q0 -55 75 -55zM132 187q-70 0 -70 -48q0 -25 11 -36.5t41 -20.5h36q30 8 41 19.5t11 36.5t-16 37t-54 12z" />
<glyph horiz-adv-x="265" d="M37 -99l3 31q42 -7 79 -7q83 0 84 103q-43 -17 -79 -17q-46 0 -73.5 28.5t-27.5 76.5q0 49 30 77t77 28q109 0 109 -168q0 -90 -29 -126t-91 -36zM125 45l78 21q-2 60 -18.5 90.5t-54.5 30.5q-32 0 -50.5 -18t-18.5 -52q0 -32 16.5 -52t47.5 -20z" />
<glyph horiz-adv-x="744" d="M107 0v80h40v-80h-40zM361 0v80h40v-80h-40zM615 0v80h40v-80h-40z" />
<glyph horiz-adv-x="386" d="M10 -51q0 45 20.5 84.5t50 68l58.5 54.5t49.5 55.5t20.5 60.5v38h35v-41q0 -34 -20.5 -66.5t-50 -59.5l-58.5 -55t-49.5 -64t-20.5 -75q0 -69 40.5 -97t124.5 -28l161 28l5 -34q-112 -27 -166 -27q-99 0 -149.5 36.5t-50.5 121.5zM246 499v-80h-40v80h40z" />
<glyph horiz-adv-x="386" d="M20 149q0 45 20.5 84.5t50 68l58.5 54.5t49.5 55.5t20.5 60.5v38h35v-41q0 -34 -20.5 -66.5t-50 -59.5l-58.5 -55t-49.5 -64t-20.5 -75q0 -69 40.5 -97t124.5 -28l161 28l5 -34q-112 -27 -166 -27q-99 0 -149.5 36.5t-50.5 121.5zM256 699v-80h-40v80h40z" />
<glyph horiz-adv-x="386" d="M20 149q0 45 20.5 84.5t50 68l58.5 54.5t49.5 55.5t20.5 60.5v38h35v-41q0 -34 -20.5 -66.5t-50 -59.5l-58.5 -55t-49.5 -64t-20.5 -75q0 -69 40.5 -97t124.5 -28l161 28l5 -34q-112 -27 -166 -27q-99 0 -149.5 36.5t-50.5 121.5zM256 699v-80h-40v80h40z" />
<glyph horiz-adv-x="500" d="M0 316h500v-34h-500v34z" />
<glyph horiz-adv-x="1000" d="M0 316h1000v-34h-1000v34z" />
<glyph horiz-adv-x="248" d="M98 300v80h40v-80h-40z" />
<glyph d="M290 699v-80h-40v80h40zM288 486v-486h-35v486h35z" />
<glyph horiz-adv-x="260" d="M153 780h35q-11 -29 -26.5 -77.5t-42 -168t-26.5 -203.5q0 -167 87 -405l8 -21h-35q-11 25 -27 68t-43 156t-27 202t24 201t48 180z" />
<glyph horiz-adv-x="260" d="M91 -90h-35q11 29 26.5 77.5t42 168t26.5 203.5q0 167 -87 405l-8 21h35q11 -25 27 -68t43 -156t27 -202t-24 -201t-48 -180z" />
<glyph horiz-adv-x="300" d="M231 779v-32h-147v-808h147v-32h-182v872h182z" />
<glyph horiz-adv-x="300" d="M51 747v32h182v-872h-182v32h147v808h-147z" />
<glyph horiz-adv-x="285" d="M139 199q-1 -10 -4 -51.5t-3 -64.5q0 -71 31 -106t112 -39l-2 -32q-95 4 -135.5 45.5t-40.5 131.5q0 21 3.5 66.5t3.5 56.5q0 48 -23.5 75t-80.5 43v32q57 14 80.5 42t23.5 78q0 13 -3.5 60.5t-3.5 67.5q0 90 40.5 131.5t135.5 45.5l2 -32q-82 -4 -112.5 -38.5 t-30.5 -106.5q0 -17 3.5 -61t3.5 -58q0 -65 -22 -95.5t-78 -48.5q56 -18 78 -49t22 -93z" />
<glyph horiz-adv-x="285" d="M135 484q1 10 4 51.5t3 64.5q0 71 -31 106t-112 39l2 32q95 -4 135.5 -45.5t40.5 -131.5q0 -21 -3.5 -66.5t-3.5 -56.5q0 -48 23.5 -75t80.5 -43v-32q-57 -14 -80.5 -42t-23.5 -78q0 -13 3.5 -60.5t3.5 -67.5q0 -90 -40.5 -131.5t-135.5 -45.5l-2 32q82 4 112.5 38.5 t30.5 106.5q0 17 -3.5 61t-3.5 58q0 65 22 95.5t78 48.5q-56 18 -78 49t-22 93z" />
<glyph horiz-adv-x="215" d="M26 922l192 -96l-15 -27l-193 92z" />
<glyph horiz-adv-x="215" d="M46 922l192 -96l-15 -27l-193 92z" />
<glyph horiz-adv-x="215" d="M20 826l192 96l16 -31l-193 -92z" />
<glyph horiz-adv-x="215" d="M20 826l192 96l16 -31l-193 -92z" />
<glyph horiz-adv-x="446" d="M74 809l134 125h30l134 -125h-45l-104 96l-103 -96h-46z" />
<glyph horiz-adv-x="215" d="M-25 809l134 125h30l134 -125h-45l-104 96l-103 -96h-46z" />
<glyph horiz-adv-x="215" d="M271 934l-134 -125h-30l-134 125h45l104 -96l103 96h46z" />
<glyph horiz-adv-x="215" d="M271 934l-134 -125h-30l-134 125h45l104 -96l103 96h46z" />
<glyph horiz-adv-x="215" d="M286 914l11 -28q-52 -55 -83 -55q-23 0 -83.5 32t-75.5 32q-9 0 -29 -13.5t-36 -27.5l-15 -14l-10 29q57 57 90 57q23 0 83.5 -31.5t75.5 -31.5q8 0 26 12.5t32 25.5z" />
<glyph horiz-adv-x="215" d="M286 914l11 -28q-52 -55 -83 -55q-23 0 -83.5 32t-75.5 32q-9 0 -29 -13.5t-36 -27.5l-15 -14l-10 29q57 57 90 57q23 0 83.5 -31.5t75.5 -31.5q8 0 26 12.5t32 25.5z" />
<glyph horiz-adv-x="215" d="M-1 838v62h35v-62h-35zM195 838v62h35v-62h-35z" />
<glyph horiz-adv-x="215" d="M-1 838v62h35v-62h-35zM195 838v62h35v-62h-35z" />
<glyph horiz-adv-x="215" d="M-20 832v32h287v-32h-287z" />
<glyph horiz-adv-x="215" d="M-20 832v32h287v-32h-287z" />
<glyph horiz-adv-x="215" d="M-15 924h35q0 -40 30 -63.5t73 -23.5t73 23.5t30 63.5h35q0 -54 -40 -86.5t-98 -32.5t-98 32.5t-40 86.5z" />
<glyph horiz-adv-x="215" d="M-15 924h35q0 -40 30 -63.5t73 -23.5t73 23.5t30 63.5h35q0 -54 -40 -86.5t-98 -32.5t-98 32.5t-40 86.5z" />
<glyph horiz-adv-x="215" d="M217 822q0 -43 -26.5 -67.5t-70.5 -24.5t-70.5 24.5t-26.5 67.5t26.5 67.5t70.5 24.5t70.5 -24.5t26.5 -67.5zM56 822q0 -30 17 -46t47 -16t47 16t17 46t-17 46t-47 16t-47 -16t-17 -46z" />
<glyph horiz-adv-x="215" d="M214 822q0 -43 -26.5 -67.5t-70.5 -24.5t-70.5 24.5t-26.5 67.5t26.5 67.5t70.5 24.5t70.5 -24.5t26.5 -67.5zM53 822q0 -30 17 -46t47 -16t47 16t17 46t-17 46t-47 16t-47 -16t-17 -46z" />
<glyph horiz-adv-x="215" d="M139 791l191 87l15 -29l-192 -88zM-52 791l192 88l14 -30l-191 -87z" />
<glyph horiz-adv-x="215" d="M139 791l191 87l15 -29l-192 -88zM-52 791l192 88l14 -30l-191 -87z" />
<glyph horiz-adv-x="215" d="M90 783v55h35v-55h-35z" />
<glyph horiz-adv-x="215" d="M90 783v55h35v-55h-35z" />
<glyph horiz-adv-x="265" d="M134 699q55 0 84 -38t29 -126q0 -166 -112 -166q-113 0 -113 167q0 163 112 163zM134 665q-39 0 -57 -31t-18 -99q0 -71 19 -101.5t57 -30.5t56.5 30.5t18.5 102.5q0 67 -18 98t-58 31z" />
<glyph horiz-adv-x="265" d="M39 623l99 67h36v-312h-36v273l-82 -56z" />
<glyph horiz-adv-x="265" d="M223 378h-195v34l98 104q18 19 27.5 31t18 30.5t8.5 37.5q0 50 -57 50l-90 -12l-2 33q51 13 93 13q92 0 92 -85q0 -32 -15.5 -59t-49.5 -62l-76 -81h148v-34z" />
<glyph horiz-adv-x="265" d="M33 688q53 11 98 11q49 0 72.5 -19t23.5 -61q0 -26 -12 -45t-20.5 -24.5t-15.5 -8.5q30 -9 43.5 -24.5t13.5 -54.5q0 -93 -100 -93l-107 11l3 32q54 -9 104 -9q63 0 63 58q0 61 -60 61h-65v34h65q18 0 34.5 19t16.5 44q0 23 -13 34.5t-45 11.5q-20 0 -44 -2.5t-38 -4.5 l-14 -2z" />
<glyph horiz-adv-x="265" d="M164 378v57h-146v32l89 223h38l-87 -221h106v87h36v-87h37v-34h-37v-57h-36z" />
<glyph horiz-adv-x="265" d="M50 690h174v-35h-140l-7 -102q22 22 65 22t69.5 -23.5t26.5 -75.5t-28.5 -79.5t-72.5 -27.5q-20 0 -44.5 3t-39.5 6l-15 3l3 35q53 -12 96 -12q27 0 44.5 18.5t17.5 53.5q0 64 -57 64q-40 0 -70 -22l-31 2z" />
<glyph horiz-adv-x="265" d="M225 690l-2 -32q-40 7 -78 7q-40 0 -59 -24t-20 -80l10 5q11 4 29.5 9t33.5 5q102 0 102 -101q0 -51 -28 -80.5t-77 -29.5q-109 0 -109 166q0 89 30 126.5t88 37.5zM138 546q-17 0 -35 -5.5t-28 -10.5t-10 -6q1 -60 17 -90.5t54 -30.5q67 0 67 76q0 37 -14.5 52t-50.5 15 z" />
<glyph horiz-adv-x="265" d="M30 656v34h194v-61l-112 -259l-36 8l110 253v25h-156z" />
<glyph horiz-adv-x="265" d="M132 699q108 0 108 -82q0 -33 -11.5 -49t-43.5 -26q31 -9 45.5 -26.5t14.5 -52.5q0 -52 -29.5 -73t-83.5 -21q-113 0 -113 88q0 38 14 55t47 30q-30 11 -43 27.5t-13 47.5q0 82 108 82zM132 403q75 0 75 59q0 28 -12.5 40.5t-44.5 20.5h-36q-31 -8 -44 -21.5t-13 -43.5 q0 -55 75 -55zM132 665q-70 0 -70 -48q0 -25 11 -36.5t41 -20.5h36q30 8 41 19.5t11 36.5t-16 37t-54 12z" />
<glyph horiz-adv-x="265" d="M37 379l3 31q42 -7 79 -7q83 0 84 103q-43 -17 -79 -17q-46 0 -73.5 28.5t-27.5 76.5q0 49 30 77t77 28q109 0 109 -168q0 -90 -29 -126t-91 -36zM125 523l78 21q-2 60 -18.5 90.5t-54.5 30.5q-32 0 -50.5 -18t-18.5 -52q0 -32 16.5 -52t47.5 -20z" />
</font>
</defs>
</svg>
