<?xml version="1.0" standalone="no"?>
<!DOCTYPE svg PUBLIC "-//W3C//DTD SVG 1.1//EN" "http://www.w3.org/Graphics/SVG/1.1/DTD/svg11.dtd" >
<svg xmlns="http://www.w3.org/2000/svg">
<metadata>
This is a custom SVG webfont generated by Font Squirrel.
Copyright   : Copyright c 2009 by Accademia di Belle Arti di Urbino and students of MA course of Visual design All rights reserved
Designer    : Campivisivi
Foundry     : Accademia di Belle Arti di Urbino and students of MA course of Visual design
</metadata>
<defs>
<font id="TitilliumMaps29L1wt" horiz-adv-x="530" >
<font-face units-per-em="1000" ascent="750" descent="-250" />
<missing-glyph horiz-adv-x="235" />
<glyph unicode=" "  horiz-adv-x="235" />
<glyph unicode="&#x09;" horiz-adv-x="235" />
<glyph unicode="&#xa0;" horiz-adv-x="235" />
<glyph unicode="!" horiz-adv-x="262" d="M111 0v80h40v-80h-40zM113 213v486h35v-486h-35z" />
<glyph unicode="&#x22;" horiz-adv-x="280" d="M233 470h-35l-1 230h37zM85 470h-35l-1 230h37z" />
<glyph unicode="#" d="M513 190h-120v-190h-36v190h-188v-190h-36v190h-120v32h120v226h-120v32h120v190h36v-190h188v190h36v-190h120v-32h-120v-226h120v-32zM357 222v226h-188v-226h188z" />
<glyph unicode="$" d="M196 -113l14 109l-144 13l4 35q76 -10 144 -15l39 298q-51 9 -81.5 19t-58.5 29.5t-40 51t-12 78.5q0 92 55 129t162 37h20l16 119h35l-16 -121l141 -14l-3 -34q-79 9 -142 14l-36 -277q57 -10 88 -19.5t60 -27t40.5 -47t11.5 -74.5q0 -104 -53.5 -150.5t-159.5 -46.5 q-22 0 -35 1l-14 -114zM454 189q0 69 -35 92.5t-131 39.5l-38 -294h29q87 0 131 39t44 123zM100 507q0 -72 34.5 -99.5t123.5 -43.5l36 273h-16q-90 0 -134 -29t-44 -101z" />
<glyph unicode="%" d="M135 670q-36 0 -52 -25t-16 -76q0 -107 68 -107t68 106q0 52 -15.5 77t-52.5 25zM186 6l144 695l33 -5l-144 -695zM32 569q0 133 103 133t103 -134q0 -69 -28 -103.5t-75 -34.5q-48 0 -75.5 34.5t-27.5 104.5zM313 139q0 133 103 133t103 -134q0 -69 -28 -103.5 t-75 -34.5q-48 0 -75.5 34.5t-27.5 104.5zM348 139q0 -107 68 -107t68 106q0 52 -15.5 77t-52.5 25q-36 0 -52 -25t-16 -76z" />
<glyph unicode="&#x26;" horiz-adv-x="700" d="M323 694q78 0 115.5 -39t37.5 -106q0 -72 -38 -112.5t-127 -69.5l187 -185q20 58 31 146h35q-14 -108 -39 -172l140 -137l-24 -26l-131 130q-66 -132 -222 -132q-230 0 -230 217q0 81 41 126.5t124 72.5q-51 62 -51 143q0 64 41 104t110 40zM290 24q137 0 194 124 l-237 235q-79 -23 -116.5 -63.5t-37.5 -110.5q0 -185 197 -185zM207 550q0 -80 53 -133l26 -26q87 30 121 63t34 96q0 112 -118 112q-56 0 -86 -31t-30 -81z" />
<glyph unicode="'" horiz-adv-x="100" d="M32 490l-1 210h37l-1 -210h-35z" />
<glyph unicode="(" horiz-adv-x="260" d="M153 750h35q-11 -29 -26.5 -77.5t-42 -168t-26.5 -203.5q0 -167 87 -405l8 -21h-35q-11 25 -27 68t-43 156t-27 202t24 201t48 180z" />
<glyph unicode=")" horiz-adv-x="260" d="M91 -120h-35q11 29 26.5 77.5t42 168t26.5 203.5q0 167 -87 405l-8 21h35q11 -25 27 -68t43 -156t27 -202t-24 -201t-48 -180z" />
<glyph unicode="*" d="M444 519h-147l45 -139l-32 -10l-45 140l-120 -86l-19 27l120 87l-119 87l20 27l120 -88l45 139l33 -10l-46 -140h145v-34z" />
<glyph unicode="+" d="M55 283v36h190v190h40v-190h190v-36h-190v-190h-40v190h-190z" />
<glyph unicode="," horiz-adv-x="170" d="M47 -123l42 210h40l-51 -210h-31z" />
<glyph unicode="-" horiz-adv-x="440" d="M70 254v34h300v-34h-300z" />
<glyph unicode="." horiz-adv-x="248" d="M98 0v80h40v-80h-40z" />
<glyph unicode="/" d="M109 12l277 690l33 -14l-277 -689z" />
<glyph unicode="0" d="M264 670q56 0 95.5 -16t70.5 -54.5t46.5 -109.5t15.5 -176q0 -93 -16.5 -157.5t-48 -100t-71 -50.5t-91.5 -15q-109 0 -168.5 72t-59.5 253q0 104 16 175.5t48 109.5t70.5 53.5t92.5 15.5zM264 636q-65 0 -104 -25.5t-62 -97.5t-23 -199q0 -86 13 -144t39.5 -89t59 -43.5 t78.5 -12.5t78 12.5t58.5 43.5t39.5 89.5t13 145.5q0 125 -22.5 196.5t-62 97.5t-105.5 26z" />
<glyph unicode="1" d="M93 524l201 136h36v-660h-36v621l-184 -126z" />
<glyph unicode="2" d="M476 0h-422v34l234 239q67 68 98 117.5t31 110.5q0 72 -42.5 103.5t-122.5 31.5q-31 0 -78 -6.5t-78 -13.5l-32 -6l-5 34q111 26 194 26q202 0 202 -169q0 -50 -21 -97t-44 -75t-63 -68l-224 -226h373v-35z" />
<glyph unicode="3" d="M64 647q106 23 196 23q100 0 147.5 -40t47.5 -125q0 -35 -11.5 -63.5t-27 -44t-32.5 -26.5t-27 -14.5t-12 -3.5q65 -17 97 -53t32 -118q0 -95 -52.5 -143t-152.5 -48q-44 0 -97.5 5.5t-85.5 11.5l-31 6l6 34q12 -3 33 -7t76 -10t99 -6q167 2 167 154q0 82 -42 115.5 t-117 37.5h-131v34h130q49 0 95 37t46 103q0 70 -36 100t-120 30q-41 0 -88.5 -6t-74.5 -12l-28 -5z" />
<glyph unicode="4" d="M367 0v132h-332v30l216 498h39l-212 -494h289v239h36v-239h92v-34h-92v-132h-36z" />
<glyph unicode="5" d="M85 660h366v-35h-332l-18 -264q93 51 176 51q94 0 149.5 -45.5t55.5 -146.5q0 -111 -59 -169t-156 -58q-40 0 -91.5 6t-83.5 12l-31 6l5 34q114 -24 200 -24q79 0 128.5 50.5t49.5 142.5q0 158 -168 158q-37 0 -81 -14t-69 -28l-26 -13l-34 4z" />
<glyph unicode="6" d="M454 652l-4 -33q-86 17 -163 17q-204 0 -205 -278q0 1 30 12.5t77 23.5t82 12q102 0 158.5 -48.5t56.5 -145.5q0 -102 -60 -161.5t-161 -59.5q-108 0 -164.5 90.5t-56.5 255.5q0 333 243 333q33 0 74.5 -4.5t66.5 -9.5zM270 372q-38 0 -85 -12t-75 -24l-29 -13 q3 -138 48 -218t136 -80q85 0 134 49.5t49 137.5q0 81 -47.5 120.5t-130.5 39.5z" />
<glyph unicode="7" d="M59 626v34h389v-75l-262 -594l-35 14l259 588v33h-351z" />
<glyph unicode="8" d="M268 670q111 0 173 -40.5t62 -124.5q0 -64 -34 -100.5t-104 -56.5q70 -20 109 -58.5t39 -110.5q0 -104 -65.5 -146t-179.5 -42q-108 0 -175 41.5t-67 135.5q0 76 34 114t103 66q-62 22 -94 58t-32 100q0 164 231 164zM268 25q100 0 153.5 34t53.5 119q0 38 -11.5 65 t-37 43.5t-48.5 25t-61 18.5h-109q-71 -17 -107 -53.5t-36 -107.5q0 -144 203 -144zM268 636q-97 0 -145 -30t-48 -101q0 -59 32.5 -91t100.5 -51h109q73 17 110 50t37 91q0 71 -49 101.5t-147 30.5z" />
<glyph unicode="9" d="M77 12l6 32q86 -19 163 -19q206 0 209 273q-121 -42 -199 -42q-97 0 -151.5 50.5t-54.5 150.5q0 98 61 155.5t156 57.5q112 0 168.5 -89t56.5 -257q0 -180 -63.5 -256.5t-182.5 -76.5q-33 0 -75 5.5t-68 10.5zM258 290q32 0 81.5 11t82.5 21l34 11q-3 303 -189 303 q-80 0 -129.5 -48t-49.5 -131q0 -84 44 -125.5t126 -41.5z" />
<glyph unicode=":" horiz-adv-x="141" d="M77 344v80h40v-80h-40zM77 0v80h40v-80h-40z" />
<glyph unicode=";" horiz-adv-x="170" d="M37 -123l41 210h42l-52 -210h-31zM75 344v80h40v-80h-40z" />
<glyph unicode="&#x3c;" d="M418 500l-295 -196l295 -207v-41l-327 228v36l327 219v-39z" />
<glyph unicode="=" d="M63 351v36h404v-36h-404zM63 184v36h404v-36h-404z" />
<glyph unicode="&#x3e;" d="M407 304l-295 196v39l327 -219v-36l-327 -228v41z" />
<glyph unicode="?" horiz-adv-x="386" d="M366 551q0 -37 -19.5 -73.5t-47 -66.5l-55.5 -58.5t-47.5 -61t-19.5 -63.5v-38h-35v41q0 34 19.5 69.5t47 65.5l55.5 59t47.5 62t19.5 64q0 70 -36.5 97.5t-118.5 27.5q-21 0 -59 -6t-65 -12l-27 -7l-5 33q102 25 156 25q98 0 144 -36t46 -122zM140 1v80h40v-80h-40z" />
<glyph unicode="@" horiz-adv-x="985" d="M925 305v-17q0 -61 -4.5 -107.5t-11 -78t-19 -53t-24 -33t-31 -17.5t-34 -7.5t-39.5 -1.5q-33 0 -50 3t-32.5 17t-24.5 43q-111 -62 -191 -62q-24 0 -42 2.5t-44 16.5t-42 39t-28.5 75t-12.5 119q0 136 46 201t164 65q25 0 58 -6.5t53 -13.5l21 -7v18h35v-200 q0 -139 7.5 -195.5t23.5 -70.5t59 -14q28 0 43.5 3t33.5 17t27 42t15.5 79t6.5 127v18q0 201 -88 291t-296 90q-213 0 -310 -96t-97 -330q0 -124 24 -207t76.5 -131.5t125.5 -69t181 -20.5l143 10l3 -33q-98 -9 -146 -9q-116 0 -195 21.5t-137 73t-85 141.5t-27 224 q0 247 108 352.5t336 105.5q226 0 323.5 -99t97.5 -315zM464 23q80 0 184 60q-11 63 -11 217v150q-73 27 -132 27q-101 0 -138 -57.5t-37 -179.5q0 -71 12.5 -117.5t34.5 -66.5t41.5 -26.5t45.5 -6.5z" />
<glyph unicode="A" horiz-adv-x="604" d="M40 0l215 700h96l214 -700h-36l-68 215h-318l-67 -215h-36zM280 666l-127 -417h298l-127 417h-44z" />
<glyph unicode="B" horiz-adv-x="627" d="M108 700h230q99 0 150.5 -44t51.5 -126q0 -65 -26.5 -109t-70.5 -60q53 -14 88.5 -55.5t35.5 -109.5q0 -196 -210 -196h-249v700zM349 341h-205v-307h213q81 0 127 39.5t46 122.5q0 46 -20 77.5t-52.5 45t-57.5 18t-51 4.5zM338 666h-194v-292h205q79 0 116.5 41.5 t37.5 114.5q0 136 -165 136z" />
<glyph unicode="C" horiz-adv-x="537" d="M484 45l3 -34q-101 -20 -180 -20q-60 0 -104 17.5t-71 46.5t-42.5 76t-21 97t-5.5 119t5 118.5t20 98t41 78.5t71 48.5t107 18.5l180 -19l-3 -35q-96 20 -177 20q-55 0 -93.5 -17t-60.5 -43t-33.5 -71.5t-15 -88.5t-3.5 -108q0 -64 3.5 -107.5t16 -87t34.5 -69.5t60 -42 t92 -16z" />
<glyph unicode="D" horiz-adv-x="653" d="M358 0h-250v700h250q63 0 110 -29t73 -79t38.5 -108t12.5 -124q0 -52 -7 -101t-24.5 -97t-43.5 -83.5t-67 -57t-92 -21.5zM554 360q0 56 -10 107.5t-31.5 97.5t-61 73.5t-93.5 27.5h-214v-632h214q53 0 93 30.5t61.5 80.5t31.5 104t10 111z" />
<glyph unicode="E" horiz-adv-x="572" d="M108 0v700h399v-34h-363v-289h303v-34h-303v-309h363v-34h-399z" />
<glyph unicode="F" horiz-adv-x="563" d="M108 0v700h400v-34h-364v-316h304v-34h-304v-316h-36z" />
<glyph unicode="G" horiz-adv-x="617" d="M356 313v34h181v-331q-136 -25 -215 -25q-75 0 -126.5 25t-79.5 74.5t-39.5 111t-11.5 145.5q0 67 6 118t23 98.5t45.5 78.5t74.5 49t108 18q47 0 100.5 -6.5t83.5 -12.5l31 -6l-3 -35q-121 26 -212 26q-55 0 -95 -16.5t-63.5 -44t-37.5 -71t-18.5 -89t-4.5 -107.5 q0 -61 5 -107t19 -88t38 -68.5t63.5 -42.5t93.5 -16q31 0 74 5t73.5 10t31.5 5v268h-145z" />
<glyph unicode="H" horiz-adv-x="696" d="M552 0v334h-408v-334h-36v700h36v-332h408v332h36v-700h-36z" />
<glyph unicode="I" horiz-adv-x="226" d="M95 0v700h36v-700h-36z" />
<glyph unicode="J" horiz-adv-x="304" d="M208 701l1 -596q0 -60 -7.5 -94.5t-29 -53.5t-50.5 -24.5t-82 -5.5v34q82 0 107 27.5t25 126.5v586h36z" />
<glyph unicode="K" horiz-adv-x="597" d="M496 0l-231 329h-121v-329h-36v700h36v-337h119l220 337h43l-231 -352l247 -348h-46z" />
<glyph unicode="L" d="M475 0h-367v700h36v-666h331v-34z" />
<glyph unicode="M" horiz-adv-x="851" d="M108 0v700h77l240 -645l242 645h76v-700h-36v666h-14l-244 -645h-50l-241 645h-14v-666h-36z" />
<glyph unicode="N" horiz-adv-x="687" d="M108 0v700h85l323 -666h27v666h36v-700h-85l-324 666h-26v-666h-36z" />
<glyph unicode="O" horiz-adv-x="656" d="M328 25q127 0 176 73t49 249q0 168 -51.5 248t-173.5 80q-124 0 -174.5 -79t-50.5 -249q0 -171 49.5 -246.5t175.5 -75.5zM328 -9q-144 0 -203.5 85t-59.5 271q0 184 60.5 273t202.5 89t202.5 -88.5t60.5 -273.5q0 -191 -59 -273.5t-204 -82.5z" />
<glyph unicode="P" horiz-adv-x="615" d="M353 257h-209v-257h-36v700h245q207 0 207 -211q0 -107 -51.5 -169.5t-155.5 -62.5zM144 291h209q86 0 127.5 54.5t41.5 143.5q0 177 -169 177h-209v-375z" />
<glyph unicode="Q" horiz-adv-x="656" d="M520 -138l-82 143q-48 -14 -110 -14q-79 0 -132 23.5t-81 72.5t-39 110t-11 150q0 87 11.5 149.5t39.5 112.5t81 75t131 25q63 0 109.5 -17t75.5 -46.5t47 -76.5t24.5 -99.5t6.5 -122.5q0 -134 -25 -214t-91 -114l81 -140zM328 25q57 0 97.5 14t65 38.5t38.5 66t19 88.5 t5 115q0 63 -5.5 110t-20 90t-39 70t-65 42.5t-95.5 15.5q-56 0 -96.5 -15.5t-65 -42t-39 -69.5t-19.5 -90t-5 -111q0 -65 5 -111t19 -88t38.5 -67.5t65 -40.5t97.5 -15z" />
<glyph unicode="R" horiz-adv-x="630" d="M374 291l-25 -1h-205v-290h-36v700h241q208 0 208 -200q0 -178 -145 -205l158 -295h-41zM519 500q0 166 -170 166h-205v-342h205q170 0 170 176z" />
<glyph unicode="S" horiz-adv-x="536" d="M463 695l-4 -35q-132 17 -190 17q-85 0 -129 -36t-44 -104q0 -79 40.5 -110t142.5 -47q105 -17 152 -55.5t47 -121.5q0 -108 -51 -159t-156 -51q-33 0 -85.5 4t-87.5 8l-36 4l4 35q133 -17 204 -17q170 0 170 173q0 68 -38 98.5t-132 45.5q-113 17 -162.5 56t-49.5 135 q0 88 54.5 132t156.5 44z" />
<glyph unicode="T" horiz-adv-x="500" d="M9 666v34h481v-34h-221v-666h-36v666h-224z" />
<glyph unicode="U" horiz-adv-x="642" d="M127 196q0 -85 49.5 -128t139.5 -43q199 0 199 171v504h36v-504q0 -205 -235 -205q-108 0 -166.5 51t-58.5 154v504h36v-504z" />
<glyph unicode="V" horiz-adv-x="579" d="M503 700h36l-189 -700h-116l-194 700h36l187 -666h58z" />
<glyph unicode="W" horiz-adv-x="872" d="M50 700h35l143 -666h38l150 656h40l155 -656h38l138 666h35l-144 -700h-96l-146 643l-141 -643h-96z" />
<glyph unicode="X" horiz-adv-x="581" d="M88 700l203 -326l202 326h43l-218 -353l218 -347h-43l-201 322l-204 -322h-43l221 347l-221 353h43z" />
<glyph unicode="Y" horiz-adv-x="540" d="M289 301v-301h-36v301l-223 399h41l200 -359l197 359h42z" />
<glyph unicode="Z" horiz-adv-x="570" d="M65 666v34h440v-70l-403 -575v-22h403v-34h-440v69l403 574v24h-403z" />
<glyph unicode="[" horiz-adv-x="300" d="M231 749v-32h-147v-808h147v-32h-183v872h183z" />
<glyph unicode="\" d="M432 14l-35 -14l-301 687l35 14z" />
<glyph unicode="]" horiz-adv-x="300" d="M51 717v32h183v-872h-183v32h147v808h-147z" />
<glyph unicode="^" d="M417 333l-158 291l-149 -291h-40l171 327h37l181 -327h-42z" />
<glyph unicode="_" d="M27 -84h476v-34h-476v34z" />
<glyph unicode="`" horiz-adv-x="545" d="M166 732l192 -96l-15 -27l-193 92z" />
<glyph unicode="a" horiz-adv-x="518" d="M418 353v-287q20 -37 75 -42l-2 -32q-65 0 -99 42q-92 -43 -195 -43q-59 0 -95.5 40.5t-36.5 105.5q0 131 143 146l175 18v52q0 64 -27.5 93t-83.5 29q-32 0 -77 -4t-73 -8l-29 -4l-3 33q102 17 182 17q146 0 146 -156zM383 268l-171 -16q-110 -10 -110 -115 q0 -48 27.5 -81t68.5 -33q44 0 90 10t70 20l25 10v205z" />
<glyph unicode="b" horiz-adv-x="538" d="M308 509q95 0 132.5 -65t37.5 -183q0 -131 -49 -200.5t-179 -69.5l-139 9v730h35v-258q73 37 162 37zM249 23q60 0 100 18t59 53t26 73t7 92q0 49 -5.5 85.5t-19 68t-41 48t-67.5 16.5t-80.5 -9.5t-61.5 -18.5l-20 -9v-412q68 -5 103 -5z" />
<glyph unicode="c" horiz-adv-x="437" d="M275 509q17 0 44.5 -2.5t46.5 -4.5l19 -3l-2 -32q-70 10 -108 10q-94 0 -131 -51t-37 -165q0 -130 33.5 -184t134.5 -54l110 9l2 -32q-74 -9 -112 -9q-121 0 -163 60.5t-42 209.5q0 132 47 190t158 58z" />
<glyph unicode="d" horiz-adv-x="538" d="M437 730v-730h-35v36q-82 -45 -163 -45q-169 0 -169 252q0 134 49 200t161 66q47 0 122 -12v233h35zM239 23q33 0 74 11.5t65 23.5l24 12v397q-65 10 -122 10q-95 0 -135 -59t-40 -178q0 -217 134 -217z" />
<glyph unicode="e" horiz-adv-x="507" d="M249 23q31 0 75.5 2.5t73.5 4.5l28 2l2 -32q-107 -9 -180 -9q-184 0 -184 259q0 134 53.5 196.5t144.5 62.5q185 0 185 -240v-33h-346q0 -213 148 -213zM101 268h309q0 111 -37.5 160t-110.5 49t-117 -50.5t-44 -158.5z" />
<glyph unicode="f" horiz-adv-x="328" d="M139 468v-468h-35v468h-69v32h69v61q0 99 29 138.5t98 39.5l82 -3v-31q-54 2 -82 2q-51 0 -71.5 -32.5t-20.5 -114.5v-60h162v-32h-162z" />
<glyph unicode="g" horiz-adv-x="504" d="M253 -239q-102 0 -148 36.5t-46 122.5q0 42 21.5 69t63.5 59q-22 14 -22 65l30 79q-86 41 -86 151q0 76 45.5 121.5t121.5 45.5q24 0 46 -3t32 -7l10 -3l152 3v-35h-113q46 -42 46 -122q0 -164 -177 -164q-26 0 -50 4q-23 -57 -23 -70q0 -20 2.5 -29.5t17 -16t37.5 -7.5 t72 -1q99 0 139.5 -26.5t40.5 -107.5q0 -164 -212 -164zM283 27l-113 3q-42 -33 -58.5 -54.5t-16.5 -54.5q0 -70 38 -99t121 -29q85 0 129.5 33.5t44.5 98.5q0 64 -31.5 83t-113.5 19zM229 211q140 0 140 132q0 135 -137 135q-62 0 -96 -36t-34 -99q0 -132 127 -132z" />
<glyph unicode="h" horiz-adv-x="567" d="M136 0h-35v730h35v-260q88 39 164 39q99 0 131.5 -53t32.5 -196v-260h-35v258q0 126 -24.5 172.5t-104.5 46.5q-78 0 -164 -40v-437z" />
<glyph unicode="i" horiz-adv-x="215" d="M90 0v500h35v-500h-35zM90 645v55h35v-55h-35z" />
<glyph unicode="j" horiz-adv-x="233" d="M108 6v494h35v-495q0 -85 -29 -127.5t-120 -95.5l-14 31q79 47 103.5 83.5t24.5 109.5zM108 645v55h35v-55h-35z" />
<glyph unicode="k" horiz-adv-x="483" d="M146 0h-35v730h35v-438h88l178 208h41l-188 -226l188 -274h-41l-178 257h-88v-257z" />
<glyph unicode="l" horiz-adv-x="225" d="M95 0v730h35v-730h-35z" />
<glyph unicode="m" horiz-adv-x="875" d="M156 0h-35v500h35v-40q78 49 154 49q52 0 78 -12.5t49 -41.5q101 54 181 54q99 0 131.5 -53t32.5 -196v-260h-35v258q0 126 -24.5 172.5t-104.5 46.5q-34 0 -76 -12.5t-66 -24.5l-25 -13q23 -58 23 -167v-260h-35v258q0 122 -27.5 170.5t-101.5 48.5q-35 0 -73.5 -12.5 t-59.5 -24.5l-21 -13v-427z" />
<glyph unicode="n" horiz-adv-x="573" d="M146 0h-35v500h35v-40l24.5 13.5t59 22t81.5 13.5q99 0 131.5 -53t32.5 -196v-260h-35v258q0 126 -24.5 172.5t-104.5 46.5q-84 0 -163 -49l-2 -1v-427z" />
<glyph unicode="o" horiz-adv-x="526" d="M265 509q101 0 148.5 -60.5t47.5 -189.5q0 -140 -42.5 -204t-153.5 -64q-115 0 -157.5 61t-42.5 209q0 133 45 190.5t155 57.5zM265 23q96 0 127.5 56t31.5 180q0 113 -38 165.5t-121 52.5q-90 0 -126.5 -48.5t-36.5 -167.5q0 -130 32.5 -184t130.5 -54z" />
<glyph unicode="p" horiz-adv-x="540" d="M111 -230v730h35v-40l22.5 13.5t57.5 22t83 13.5q171 0 171 -252q0 -135 -49.5 -200.5t-162.5 -65.5q-67 0 -122 12v-233h-35zM309 477q-38 0 -79 -12.5t-62 -25.5l-22 -13v-391q66 -12 122 -12q95 0 135 56.5t40 180.5q0 104 -35 160.5t-99 56.5z" />
<glyph unicode="q" horiz-adv-x="538" d="M250 -9q-97 0 -138.5 63.5t-41.5 184.5q0 142 52.5 206t175.5 64l139 -9v-730h-35v259q-63 -38 -152 -38zM299 477q-107 0 -149.5 -56t-42.5 -180q0 -106 32 -162t111 -56q87 1 152 40v408q-68 6 -103 6z" />
<glyph unicode="r" horiz-adv-x="354" d="M101 0v500h35v-78q88 66 188 88v-34q-39 -8 -86 -30t-74 -40l-28 -17v-389h-35z" />
<glyph unicode="s" horiz-adv-x="483" d="M398 495l-2 -33q-97 15 -165 15q-129 0 -129 -100q0 -44 27.5 -65.5t109.5 -33.5q103 -16 140 -42t37 -92q0 -84 -47 -118.5t-138 -34.5l-160 15l4 33q103 -16 154 -16q76 0 113 25t37 93q0 51 -29 70t-121 34q-91 14 -127.5 40.5t-36.5 89.5q0 71 47.5 102.5t118.5 31.5 z" />
<glyph unicode="t" horiz-adv-x="372" d="M321 468h-172v-262q0 -109 17 -146.5t75 -37.5l88 7l3 -32q-56 -7 -91 -7q-69 0 -98 39.5t-29 138.5v300h-79v32h79v163h35v-163h172v-32z" />
<glyph unicode="u" horiz-adv-x="557" d="M421 500h35v-500h-35v40q-78 -49 -154 -49q-99 0 -131.5 53t-32.5 196v260h35v-258q0 -126 24.5 -172.5t104.5 -46.5q35 0 73.5 12.5t59.5 24.5l21 13v427z" />
<glyph unicode="v" horiz-adv-x="480" d="M40 500h37l141 -468h43l143 468h37l-153 -500h-98z" />
<glyph unicode="w" horiz-adv-x="761" d="M42 500h37l123 -468h23l136 458h39l136 -458h22l124 468h37l-133 -500h-78l-128 448l-129 -448h-78z" />
<glyph unicode="x" horiz-adv-x="456" d="M42 500h40l146 -223l146 223h40l-165 -250l164 -250h-41l-144 223l-144 -223h-41l164 250z" />
<glyph unicode="y" horiz-adv-x="480" d="M39 500h37l141 -468h44l143 468h37l-225 -730h-37l73 230h-63z" />
<glyph unicode="z" horiz-adv-x="481" d="M60 468v32h360l2 -32l-320 -436h320v-32h-360l-2 32l320 436h-320z" />
<glyph unicode="{" horiz-adv-x="285" d="M139 169q0 -19 -3.5 -58t-3.5 -58q0 -71 31 -106t112 -39l-2 -32q-95 4 -135.5 45.5t-40.5 131.5q0 21 3.5 66.5t3.5 56.5q0 48 -23.5 75t-80.5 43v32q57 14 80.5 42t23.5 78q0 13 -3.5 60.5t-3.5 67.5q0 90 40.5 131.5t135.5 45.5l2 -32q-82 -4 -112.5 -38.5 t-30.5 -106.5q0 -17 3.5 -61t3.5 -58q0 -65 -22 -95.5t-78 -48.5q56 -18 78 -49t22 -93z" />
<glyph unicode="|" d="M242 -250v1000h35v-1000h-35z" />
<glyph unicode="}" horiz-adv-x="285" d="M135 454q0 20 3.5 58t3.5 58q0 71 -31 106t-112 39l2 32q95 -4 135.5 -45.5t40.5 -131.5q0 -21 -3.5 -66.5t-3.5 -56.5q0 -48 23.5 -75t80.5 -43v-32q-57 -14 -80.5 -42t-23.5 -78q0 -13 3.5 -60.5t3.5 -67.5q0 -90 -40.5 -131.5t-135.5 -45.5l-2 32q82 4 112.5 38.5 t30.5 106.5q0 17 -3.5 61t-3.5 58q0 65 22 95.5t78 48.5q-56 18 -78 49t-22 93z" />
<glyph unicode="~" d="M455 370l7 -37q-54 -52 -100 -52q-33 0 -101 27t-91 27q-16 0 -40 -13.5t-40 -26.5l-15 -13l-7 35q56 54 102 54q34 0 102.5 -27t88.5 -27q16 0 39.5 13.5t39.5 26.5z" />
<glyph unicode="&#xa1;" horiz-adv-x="262" d="M151 499v-80h-40v80h40zM149 286v-486h-35v486h35z" />
<glyph unicode="&#xa2;" horiz-adv-x="437" d="M234 -85v126q-96 3 -135.5 45.5t-39.5 160.5q0 110 43.5 160.5t130.5 53.5v130h35v-131l116 -10l-2 -35q-100 10 -138 10q-80 0 -112.5 -40.5t-32.5 -137.5q0 -99 31.5 -134.5t123.5 -35.5l130 8l2 -35q-74 -8 -117 -9v-126h-35z" />
<glyph unicode="&#xa3;" d="M433 669v-32q-106 11 -140 11q-60 0 -81 -34.5t-21 -143.5v-64h232v-32h-232v-340h184l82 16l7 -32l-81 -17q-51 0 -164 -0.5t-165 -0.5v34h102v340h-79v32h79v63q0 126 29.5 168.5t107.5 42.5z" />
<glyph unicode="&#xa4;" horiz-adv-x="529" d="M442 49l-70 71q-46 -38 -107 -38t-107 38l-70 -71l-26 26l71 70q-38 47 -38 107t38 107l-71 70l26 26l70 -71q46 38 107 38t107 -38l70 71l26 -26l-71 -70q38 -47 38 -107t-38 -107l71 -70zM170 157q39 -38 95 -38t95 38q38 39 38 95t-38 95q-39 38 -95 38t-95 -38 q-38 -39 -38 -95t38 -95z" />
<glyph unicode="&#xa5;" horiz-adv-x="540" d="M47 331v34h171l-193 295h41l205 -309l202 309h42l-191 -295h168v-34h-190l-13 -20v-95h204v-34h-204v-182h-36v182h-205v34h205v95l-13 20h-193z" />
<glyph unicode="&#xa6;" d="M239 750h35v-416h-35v416zM239 176h35v-426h-35v426z" />
<glyph unicode="&#xa7;" d="M421 647l-2 -32q-106 13 -154 13q-140 0 -140 -110q0 -65 32.5 -87.5t115.5 -35.5q86 -13 126 -42t40 -98q0 -64 -39 -127q36 -28 36 -93q0 -78 -44.5 -118t-128.5 -40q-27 0 -69 3.5t-70 6.5l-29 3l3 32q110 -14 165 -14q138 0 138 126q0 57 -31.5 75.5t-113.5 29.5 q-92 13 -134 43.5t-42 100.5q0 30 13.5 60t26.5 45l14 15q-44 33 -44 114q0 71 46 107t129 36zM266 363q-79 13 -107 26q-44 -53 -44 -104q0 -54 35 -78.5t113 -35.5q80 -12 111 -27q30 52 30 108q0 57 -32.5 78.5t-105.5 32.5z" />
<glyph unicode="&#xa8;" horiz-adv-x="833" d="M112 638v62h35v-62h-35zM302 638v62h35v-62h-35z" />
<glyph unicode="&#xa9;" d="M10 434q0 111 73 188.5t182 77.5t182.5 -77.5t73.5 -188.5t-73.5 -188t-182.5 -77t-182 77t-73 188zM42 434q0 -98 63.5 -165.5t159.5 -67.5t160 67.5t64 165.5t-64 166t-160 68t-159.5 -68t-63.5 -166zM338 321l1 -32q-43 -8 -74 -8q-62 0 -85.5 38.5t-23.5 113.5 q0 76 23 115t86 39l74 -7l-1 -32q-41 7 -73 7q-49 0 -63 -28t-14 -94q0 -62 16 -91t61 -29z" />
<glyph unicode="&#xaa;" d="M336 571v-134q6 -20 37 -23l-2 -28q-32 1 -54 22q-63 -22 -119 -22q-31 0 -50.5 22t-19.5 58q0 70 75 76l102 7v23q0 32 -12 43.5t-40 11.5l-104 -7l-2 31q69 8 106 8q43 0 63 -20.5t20 -67.5zM305 520l-97 -6q-25 -1 -36 -13t-11 -37q0 -46 40 -46q20 0 46 4t42 8l16 5 v85z" />
<glyph unicode="&#xab;" horiz-adv-x="479" d="M212 360l-135 -106l135 -117v-41l-167 138v36l167 129v-39zM419 360l-135 -106l135 -117v-41l-167 138v36l167 129v-39z" />
<glyph unicode="&#xac;" d="M69 332h396v-206h-36v172h-360v34z" />
<glyph unicode="&#xae;" d="M10 434q0 111 73 188.5t182 77.5t182.5 -77.5t73.5 -188.5t-73.5 -188t-182.5 -77t-182 77t-73 188zM42 434q0 -98 63.5 -165.5t159.5 -67.5t160 67.5t64 165.5t-64 166t-160 68t-159.5 -68t-63.5 -166zM340 276l-66 131h-79v-131h-32v315h91q64 0 89.5 -20t25.5 -70 q0 -76 -59 -91l65 -134h-35zM195 559v-120h80q34 0 48 13.5t14 48.5q0 33 -19 45.5t-61 12.5h-62z" />
<glyph unicode="&#xaf;" horiz-adv-x="446" d="M90 642v32h267v-32h-267z" />
<glyph unicode="&#xb0;" d="M108 564q0 61 37.5 98.5t98.5 37.5t98.5 -37.5t37.5 -98.5t-37.5 -98t-98.5 -37t-98.5 37t-37.5 98zM142 564q0 -47 28 -75t74 -28q47 0 75.5 28.5t28.5 74.5t-29 75t-75 29t-74 -28.5t-28 -75.5z" />
<glyph unicode="&#xb1;" d="M55 285v36h190v169h40v-169h190v-36h-190v-153h-40v153h-190zM55 94h420v-36h-420v36z" />
<glyph unicode="&#xb2;" horiz-adv-x="265" d="M223 478h-195v34l98 104q18 19 27.5 31t18 30.5t8.5 37.5q0 50 -57 50l-90 -12l-2 33q51 13 93 13q92 0 92 -85q0 -32 -15.5 -59t-49.5 -62l-76 -81h148v-34z" />
<glyph unicode="&#xb3;" horiz-adv-x="265" d="M33 788q53 11 98 11q49 0 72.5 -19t23.5 -61q0 -26 -12 -45t-20.5 -24.5t-15.5 -8.5q30 -9 43.5 -24.5t13.5 -54.5q0 -93 -100 -93l-107 11l3 32q54 -9 104 -9q63 0 63 58q0 61 -60 61h-65v34h65q18 0 34.5 19t16.5 44q0 23 -13 34.5t-45 11.5q-20 0 -44 -2.5t-38 -4.5 l-14 -2z" />
<glyph unicode="&#xb4;" horiz-adv-x="565" d="M150 636l192 96l16 -31l-193 -92z" />
<glyph unicode="&#xb5;" d="M103 -230v730h35v-258q0 -127 24 -173t104 -46q77 1 155 50v427h35v-500h-35v40q-79 -49 -155 -49q-31 0 -55 6t-37 14t-22 17.5t-11 15t-3 8.5v-282h-35z" />
<glyph unicode="&#x3bc;" d="M103 -230v730h35v-258q0 -127 24 -173t104 -46q77 1 155 50v427h35v-500h-35v40q-79 -49 -155 -49q-31 0 -55 6t-37 14t-22 17.5t-11 15t-3 8.5v-282h-35z" />
<glyph unicode="&#xb6;" d="M389 0v667h-152v-667h-36v350h-7q-79 0 -132.5 48.5t-53.5 125.5t53.5 126.5t132.5 49.5h328v-33h-97v-667h-36z" />
<glyph unicode="&#xb7;" horiz-adv-x="248" d="M98 270v80h40v-80h-40z" />
<glyph unicode="&#xb8;" horiz-adv-x="833" d="M559 -127q0 -74 -82 -74l-81 4l2 28q44 -4 78 -4q48 0 48 46q0 42 -48 42h-54v86h33v-58q56 0 80 -15t24 -55z" />
<glyph unicode="&#xb9;" horiz-adv-x="265" d="M39 723l99 67h36v-312h-36v273l-82 -56z" />
<glyph unicode="&#xba;" d="M249 659q58 0 85.5 -32.5t27.5 -102.5q0 -138 -113 -138q-115 0 -115 138q0 135 115 135zM249 418q43 0 61 24.5t18 81.5t-18 80t-61 23t-62 -23.5t-19 -79.5q0 -57 19 -81.5t62 -24.5z" />
<glyph unicode="&#xbb;" horiz-adv-x="479" d="M402 254l-135 106v39l167 -129v-36l-167 -138v41zM195 254l-135 106v39l167 -129v-36l-167 -138v41z" />
<glyph unicode="&#xbf;" horiz-adv-x="386" d="M20 -51q0 37 19.5 73.5t47.5 66.5l55.5 58.5t47 61t19.5 63.5v38h35v-41q0 -34 -19.5 -69.5t-47 -65.5l-55.5 -59t-47.5 -62t-19.5 -64q0 -70 36.5 -97.5t118.5 -27.5q21 0 59 6t65 12l27 7l5 -33q-102 -25 -156 -25q-98 0 -144 36t-46 122zM246 499v-80h-40v80h40z" />
<glyph unicode="&#xc0;" horiz-adv-x="604" d="M40 0l215 700h96l214 -700h-36l-68 215h-318l-67 -215h-36zM280 666l-127 -417h298l-127 417h-44zM204 922l192 -96l-15 -27l-193 92z" />
<glyph unicode="&#xc1;" horiz-adv-x="604" d="M40 0l215 700h96l214 -700h-36l-68 215h-318l-67 -215h-36zM280 666l-127 -417h298l-127 417h-44zM208 826l192 96l16 -31l-193 -92z" />
<glyph unicode="&#xc2;" horiz-adv-x="604" d="M40 0l215 700h96l214 -700h-36l-68 215h-318l-67 -215h-36zM280 666l-127 -417h298l-127 417h-44zM153 804l134 125h30l134 -125h-45l-104 96l-103 -96h-46z" />
<glyph unicode="&#xc3;" horiz-adv-x="604" d="M40 0l215 700h96l214 -700h-36l-68 215h-318l-67 -215h-36zM280 666l-127 -417h298l-127 417h-44zM463 905l11 -28q-52 -55 -83 -55q-23 0 -83.5 32t-75.5 32q-9 0 -29 -14t-35 -28l-16 -13l-10 29q57 57 90 57q23 0 83.5 -31.5t75.5 -31.5q8 0 26 13t32 25z" />
<glyph unicode="&#xc4;" horiz-adv-x="604" d="M40 0l215 700h96l214 -700h-36l-68 215h-318l-67 -215h-36zM280 666l-127 -417h298l-127 417h-44zM186 838v62h35v-62h-35zM382 838v62h35v-62h-35z" />
<glyph unicode="&#xc5;" horiz-adv-x="604" d="M399 760q0 -55 -42 -79l208 -681h-36l-68 215h-318l-67 -215h-36l209 680q-44 22 -44 80q0 43 26.5 67.5t70.5 24.5t70.5 -24.5t26.5 -67.5zM280 666l-127 -417h298l-127 417h-44zM238 760q0 -51 44 -60h39q45 10 45 60q0 30 -17 46t-47 16t-47 -16t-17 -46z" />
<glyph unicode="&#xc6;" horiz-adv-x="847" d="M383 0v215h-255l-67 -215h-36l215 700h542v-34h-363v-289h303v-34h-303v-309h363v-34h-399zM265 666l-127 -417h245v417h-118z" />
<glyph unicode="&#xc7;" horiz-adv-x="537" d="M422 -127q0 -74 -82 -74l-81 4l2 28q44 -4 78 -4q48 0 48 46q0 42 -48 42h-54v77q-68 3 -113 29.5t-68.5 76t-32 108t-8.5 141.5q0 69 5 118.5t20 98t41 78.5t71 48.5t107 18.5l180 -19l-3 -35q-96 20 -177 20q-55 0 -93.5 -17t-60.5 -43t-33.5 -71.5t-15 -88.5 t-3.5 -108q0 -64 3.5 -107.5t16 -87t34.5 -69.5t60 -42t92 -16l177 20l3 -34q-92 -18 -169 -20v-48q56 0 80 -15t24 -55z" />
<glyph unicode="&#xc8;" horiz-adv-x="572" d="M108 0v700h399v-34h-363v-289h303v-34h-303v-309h363v-34h-399zM206 922l192 -96l-15 -27l-193 92z" />
<glyph unicode="&#xc9;" horiz-adv-x="572" d="M108 0v700h399v-34h-363v-289h303v-34h-303v-309h363v-34h-399zM223 826l192 96l16 -31l-193 -92z" />
<glyph unicode="&#xca;" horiz-adv-x="572" d="M108 0v700h399v-34h-363v-289h303v-34h-303v-309h363v-34h-399zM159 804l134 125h30l134 -125h-45l-104 96l-103 -96h-46z" />
<glyph unicode="&#xcb;" horiz-adv-x="572" d="M108 0v700h399v-34h-363v-289h303v-34h-303v-309h363v-34h-399zM202 838v62h35v-62h-35zM398 838v62h35v-62h-35z" />
<glyph unicode="&#xcc;" horiz-adv-x="226" d="M95 0v700h36v-700h-36zM25 922l192 -96l-15 -27l-193 92z" />
<glyph unicode="&#xcd;" horiz-adv-x="226" d="M95 0v700h36v-700h-36zM9 826l192 96l16 -31l-193 -92z" />
<glyph unicode="&#xce;" horiz-adv-x="226" d="M95 0v700h36v-700h-36zM-35 804l134 125h30l134 -125h-45l-104 96l-103 -96h-46z" />
<glyph unicode="&#xcf;" horiz-adv-x="226" d="M95 0v700h36v-700h-36zM8 838v62h35v-62h-35zM204 838v62h35v-62h-35z" />
<glyph unicode="&#xd0;" horiz-adv-x="653" d="M26 334v34h82v332h250q63 0 110 -29t73 -79t38.5 -108t12.5 -124q0 -52 -7 -101t-24.5 -97t-43.5 -83.5t-67 -57t-92 -21.5h-250v334h-82zM554 360q0 56 -10 107.5t-31.5 97.5t-61 73.5t-93.5 27.5h-214v-298h172v-34h-172v-300h214q53 0 93 30.5t61.5 80.5t31.5 104 t10 111z" />
<glyph unicode="&#xd1;" horiz-adv-x="687" d="M108 0v700h85l323 -666h27v666h36v-700h-85l-324 666h-26v-666h-36zM504 903l11 -28q-52 -55 -83 -55q-23 0 -83.5 32t-75.5 32q-9 0 -29 -14t-36 -28l-15 -13l-10 29q57 57 90 57q23 0 83.5 -31.5t75.5 -31.5q8 0 26 13t32 25z" />
<glyph unicode="&#xd2;" horiz-adv-x="656" d="M328 25q127 0 176 73t49 249q0 168 -51.5 248t-173.5 80q-124 0 -174.5 -79t-50.5 -249q0 -171 49.5 -246.5t175.5 -75.5zM328 -9q-144 0 -203.5 85t-59.5 271q0 184 60.5 273t202.5 89t202.5 -88.5t60.5 -273.5q0 -191 -59 -273.5t-204 -82.5zM240 922l192 -96l-15 -27 l-193 92z" />
<glyph unicode="&#xd3;" horiz-adv-x="656" d="M328 25q127 0 176 73t49 249q0 168 -51.5 248t-173.5 80q-124 0 -174.5 -79t-50.5 -249q0 -171 49.5 -246.5t175.5 -75.5zM328 -9q-144 0 -203.5 85t-59.5 271q0 184 60.5 273t202.5 89t202.5 -88.5t60.5 -273.5q0 -191 -59 -273.5t-204 -82.5zM224 826l192 96l16 -31 l-193 -92z" />
<glyph unicode="&#xd4;" horiz-adv-x="656" d="M328 25q127 0 176 73t49 249q0 168 -51.5 248t-173.5 80q-124 0 -174.5 -79t-50.5 -249q0 -171 49.5 -246.5t175.5 -75.5zM328 -9q-144 0 -203.5 85t-59.5 271q0 184 60.5 273t202.5 89t202.5 -88.5t60.5 -273.5q0 -191 -59 -273.5t-204 -82.5zM179 809l134 125h30 l134 -125h-45l-104 96l-103 -96h-46z" />
<glyph unicode="&#xd5;" horiz-adv-x="656" d="M328 25q127 0 176 73t49 249q0 168 -51.5 248t-173.5 80q-124 0 -174.5 -79t-50.5 -249q0 -171 49.5 -246.5t175.5 -75.5zM328 -9q-144 0 -203.5 85t-59.5 271q0 184 60.5 273t202.5 89t202.5 -88.5t60.5 -273.5q0 -191 -59 -273.5t-204 -82.5zM490 903l11 -28 q-52 -55 -83 -55q-23 0 -83.5 32t-75.5 32q-9 0 -29 -14t-36 -28l-15 -13l-10 29q57 57 90 57q23 0 83.5 -31.5t75.5 -31.5q8 0 26 13t32 25z" />
<glyph unicode="&#xd6;" horiz-adv-x="656" d="M328 25q127 0 176 73t49 249q0 168 -51.5 248t-173.5 80q-124 0 -174.5 -79t-50.5 -249q0 -171 49.5 -246.5t175.5 -75.5zM328 -9q-144 0 -203.5 85t-59.5 271q0 184 60.5 273t202.5 89t202.5 -88.5t60.5 -273.5q0 -191 -59 -273.5t-204 -82.5zM223 838v62h35v-62h-35z M419 838v62h35v-62h-35z" />
<glyph unicode="&#xd7;" d="M128 458l146 -148l151 148l26 -25l-149 -152l149 -145l-28 -29l-149 149l-148 -149l-26 26l149 148l-149 149z" />
<glyph unicode="&#xd8;" horiz-adv-x="656" d="M328 -9q-77 0 -132 25l-60 -127l-33 13l62 133q-100 74 -100 312q0 184 60.5 273t202.5 89q82 0 139 -31l53 114l33 -14l-57 -121q95 -80 95 -310q0 -191 -59 -273.5t-204 -82.5zM103 347q0 -212 78 -278l270 575q-50 31 -123 31q-124 0 -174.5 -79t-50.5 -249zM328 25 q127 0 176 73t49 249q0 201 -73 275l-269 -574q45 -23 117 -23z" />
<glyph unicode="&#xd9;" horiz-adv-x="642" d="M127 196q0 -85 49.5 -128t139.5 -43q199 0 199 171v504h36v-504q0 -205 -235 -205q-108 0 -166.5 51t-58.5 154v504h36v-504zM233 922l192 -96l-15 -27l-193 92z" />
<glyph unicode="&#xda;" horiz-adv-x="642" d="M127 196q0 -85 49.5 -128t139.5 -43q199 0 199 171v504h36v-504q0 -205 -235 -205q-108 0 -166.5 51t-58.5 154v504h36v-504zM217 826l192 96l16 -31l-193 -92z" />
<glyph unicode="&#xdb;" horiz-adv-x="642" d="M127 196q0 -85 49.5 -128t139.5 -43q199 0 199 171v504h36v-504q0 -205 -235 -205q-108 0 -166.5 51t-58.5 154v504h36v-504zM173 804l134 125h30l134 -125h-45l-104 96l-103 -96h-46z" />
<glyph unicode="&#xdc;" horiz-adv-x="642" d="M127 196q0 -85 49.5 -128t139.5 -43q199 0 199 171v504h36v-504q0 -205 -235 -205q-108 0 -166.5 51t-58.5 154v504h36v-504zM217 838v62h35v-62h-35zM413 838v62h35v-62h-35z" />
<glyph unicode="&#xdd;" horiz-adv-x="540" d="M289 301v-301h-36v301l-223 399h41l200 -359l197 359h42zM166 826l192 96l16 -31l-193 -92z" />
<glyph unicode="&#xde;" horiz-adv-x="615" d="M353 169q86 0 127.5 54.5t41.5 143.5q0 177 -169 177h-209v-375h209zM353 135h-209v-135h-36v700h36v-122h209q207 0 207 -211q0 -107 -51.5 -169.5t-155.5 -62.5z" />
<glyph unicode="&#xdf;" horiz-adv-x="589" d="M137 0h-36v561q0 100 40 139t133 39q95 0 132.5 -31.5t37.5 -103.5q0 -88 -68 -124q-38 -20 -51.5 -32.5t-13.5 -32.5q0 -12 4 -20t23 -23t57 -35q81 -42 107.5 -68.5t26.5 -77.5q0 -109 -43.5 -154.5t-143.5 -45.5l-109 4l4 34q87 -4 104 -4q84 0 117 37t33 129 q0 38 -23.5 60t-97.5 60q-59 30 -78 51.5t-19 52.5q0 34 17 51t64 41q52 26 52 97q0 57 -28.5 79t-103.5 22t-106 -31.5t-31 -125.5v-548z" />
<glyph unicode="&#xe0;" horiz-adv-x="536" d="M418 353v-287q20 -37 75 -42l-2 -32q-65 0 -99 42q-92 -43 -195 -43q-59 0 -95.5 40.5t-36.5 105.5q0 131 143 146l175 18v52q0 64 -27.5 93t-83.5 29q-32 0 -77 -4t-73 -8l-29 -4l-3 33q102 17 182 17q146 0 146 -156zM383 268l-171 -16q-110 -10 -110 -115 q0 -48 27.5 -81t68.5 -33q44 0 90 10t70 20l25 10v205zM160 732l192 -96l-15 -27l-193 92z" />
<glyph unicode="&#xe1;" horiz-adv-x="536" d="M418 353v-287q20 -37 75 -42l-2 -32q-65 0 -99 42q-92 -43 -195 -43q-59 0 -95.5 40.5t-36.5 105.5q0 131 143 146l175 18v52q0 64 -27.5 93t-83.5 29q-32 0 -77 -4t-73 -8l-29 -4l-3 33q102 17 182 17q146 0 146 -156zM383 268l-171 -16q-110 -10 -110 -115 q0 -48 27.5 -81t68.5 -33q44 0 90 10t70 20l25 10v205zM159 636l192 96l16 -31l-193 -92z" />
<glyph unicode="&#xe2;" horiz-adv-x="536" d="M418 353v-287q20 -37 75 -42l-2 -32q-65 0 -99 42q-92 -43 -195 -43q-59 0 -95.5 40.5t-36.5 105.5q0 131 143 146l175 18v52q0 64 -27.5 93t-83.5 29q-32 0 -77 -4t-73 -8l-29 -4l-3 33q102 17 182 17q146 0 146 -156zM383 268l-171 -16q-110 -10 -110 -115 q0 -48 27.5 -81t68.5 -33q44 0 90 10t70 20l25 10v205zM110 600l121 132h28l122 -132h-43l-92 100l-93 -100h-43z" />
<glyph unicode="&#xe3;" horiz-adv-x="536" d="M418 353v-287q20 -37 75 -42l-2 -32q-65 0 -99 42q-92 -43 -195 -43q-59 0 -95.5 40.5t-36.5 105.5q0 131 143 146l175 18v52q0 64 -27.5 93t-83.5 29q-32 0 -77 -4t-73 -8l-29 -4l-3 33q102 17 182 17q146 0 146 -156zM383 268l-171 -16q-110 -10 -110 -115 q0 -48 27.5 -81t68.5 -33q44 0 90 10t70 20l25 10v205zM387 703l9 -30q-42 -43 -73 -43q-21 0 -76.5 27t-70.5 27q-21 0 -70 -45l-10 29q49 47 82 47q21 0 76.5 -26.5t70.5 -26.5q18 0 62 41z" />
<glyph unicode="&#xe4;" horiz-adv-x="536" d="M418 353v-287q20 -37 75 -42l-2 -32q-65 0 -99 42q-92 -43 -195 -43q-59 0 -95.5 40.5t-36.5 105.5q0 131 143 146l175 18v52q0 64 -27.5 93t-83.5 29q-32 0 -77 -4t-73 -8l-29 -4l-3 33q102 17 182 17q146 0 146 -156zM383 268l-171 -16q-110 -10 -110 -115 q0 -48 27.5 -81t68.5 -33q44 0 90 10t70 20l25 10v205zM141 638v62h35v-62h-35zM331 638v62h35v-62h-35z" />
<glyph unicode="&#xe5;" horiz-adv-x="536" d="M418 353v-287q20 -37 75 -42l-2 -32q-65 0 -99 42q-92 -43 -195 -43q-59 0 -95.5 40.5t-36.5 105.5q0 131 143 146l175 18v52q0 64 -27.5 93t-83.5 29q-32 0 -77 -4t-73 -8l-29 -4l-3 33q102 17 182 17q146 0 146 -156zM383 268l-171 -16q-110 -10 -110 -115 q0 -48 27.5 -81t68.5 -33q44 0 90 10t70 20l25 10v205zM158 670q0 40 28 67.5t68 27.5t67 -27.5t27 -67.5t-27 -67.5t-67 -27.5q-41 0 -68.5 27.5t-27.5 67.5zM192 670q0 -26 18 -45t44 -19q25 0 43 19t18 45t-18 44.5t-43 18.5q-26 0 -44 -18.5t-18 -44.5z" />
<glyph unicode="&#xe6;" horiz-adv-x="828" d="M570 23l182 9l2 -32q-112 -9 -185 -9q-98 0 -143 58l-38 -16q-93 -42 -206 -42q-127 0 -127 146q0 80 39 107.5t146 41.5l143 15v52q0 64 -27.5 93t-83.5 29l-188 -9l-2 33q110 10 190 10q115 0 139 -96q49 96 172 96q95 0 142.5 -57t47.5 -183v-33h-355 q0 -108 34 -160.5t118 -52.5zM183 23q42 0 97 12t84.5 22t46.5 17q-30 59 -30 194l-184 -18q-55 -5 -80 -32t-25 -81q0 -55 24 -84.5t67 -29.5zM418 268h318q0 113 -36.5 161t-116.5 48q-165 0 -165 -209z" />
<glyph unicode="&#xe7;" horiz-adv-x="437" d="M367 -127q0 -74 -82 -74l-81 4l2 28q44 -4 78 -4q48 0 48 46q0 42 -48 42h-54v79q-93 9 -126.5 70t-33.5 197q0 132 47 190t158 58q17 0 44.5 -2.5t46.5 -4.5l19 -3l-2 -32q-70 10 -108 10q-94 0 -131 -51t-37 -165q0 -130 33.5 -184t134.5 -54l110 9l2 -32 q-74 -9 -112 -9h-12v-48q56 0 80 -15t24 -55z" />
<glyph unicode="&#xe8;" horiz-adv-x="507" d="M249 23q31 0 75.5 2.5t73.5 4.5l28 2l2 -32q-107 -9 -180 -9q-184 0 -184 259q0 134 53.5 196.5t144.5 62.5q185 0 185 -240v-33h-346q0 -213 148 -213zM101 268h309q0 111 -37.5 160t-110.5 49t-117 -50.5t-44 -158.5zM169 732l192 -96l-15 -27l-193 92z" />
<glyph unicode="&#xe9;" horiz-adv-x="507" d="M249 23q31 0 75.5 2.5t73.5 4.5l28 2l2 -32q-107 -9 -180 -9q-184 0 -184 259q0 134 53.5 196.5t144.5 62.5q185 0 185 -240v-33h-346q0 -213 148 -213zM101 268h309q0 111 -37.5 160t-110.5 49t-117 -50.5t-44 -158.5zM153 636l192 96l16 -31l-193 -92z" />
<glyph unicode="&#xea;" horiz-adv-x="507" d="M249 23q31 0 75.5 2.5t73.5 4.5l28 2l2 -32q-107 -9 -180 -9q-184 0 -184 259q0 134 53.5 196.5t144.5 62.5q185 0 185 -240v-33h-346q0 -213 148 -213zM101 268h309q0 111 -37.5 160t-110.5 49t-117 -50.5t-44 -158.5zM120 600l121 132h28l122 -132h-43l-92 100 l-93 -100h-43z" />
<glyph unicode="&#xeb;" horiz-adv-x="507" d="M249 23q31 0 75.5 2.5t73.5 4.5l28 2l2 -32q-107 -9 -180 -9q-184 0 -184 259q0 134 53.5 196.5t144.5 62.5q185 0 185 -240v-33h-346q0 -213 148 -213zM101 268h309q0 111 -37.5 160t-110.5 49t-117 -50.5t-44 -158.5zM146 638v62h35v-62h-35zM336 638v62h35v-62h-35z " />
<glyph unicode="&#xec;" horiz-adv-x="261" d="M113 0v500h35v-500h-35zM11 732l192 -96l-15 -27l-193 92z" />
<glyph unicode="&#xed;" horiz-adv-x="261" d="M57 636l192 96l16 -31l-193 -92zM113 0v500h35v-500h-35z" />
<glyph unicode="&#xee;" horiz-adv-x="261" d="M113 0v500h35v-500h-35zM-5 600l121 132h28l122 -132h-43l-92 100l-93 -100h-43z" />
<glyph unicode="&#xef;" horiz-adv-x="261" d="M28 638v62h35v-62h-35zM218 638v62h35v-62h-35zM113 0v500h35v-500h-35z" />
<glyph unicode="&#xf0;" d="M159 556l-20 27l106 72q-60 31 -133 53l13 31q87 -26 152 -63l102 69l20 -27l-89 -61q172 -111 172 -302q0 -201 -49.5 -282.5t-165.5 -81.5q-101 0 -158 58.5t-57 164.5q0 95 55 153t149 58q78 0 189 -44q-5 156 -167 255zM258 391q-79 0 -124.5 -49t-45.5 -128 q0 -91 46.5 -140t132.5 -49q99 0 138.5 69t40.5 252q-116 45 -188 45z" />
<glyph unicode="&#xf1;" horiz-adv-x="574" d="M146 0h-35v500h35v-40l24.5 13.5t59 22t81.5 13.5q99 0 131.5 -53t32.5 -196v-260h-35v258q0 126 -24.5 172.5t-104.5 46.5q-84 0 -163 -49l-2 -1v-427zM430 703l9 -30q-42 -43 -73 -43q-21 0 -76.5 27t-70.5 27q-21 0 -70 -45l-10 29q49 47 82 47q21 0 76.5 -26.5 t70.5 -26.5q18 0 62 41z" />
<glyph unicode="&#xf2;" horiz-adv-x="536" d="M265 509q101 0 148.5 -60.5t47.5 -189.5q0 -140 -42.5 -204t-153.5 -64q-115 0 -157.5 61t-42.5 209q0 133 45 190.5t155 57.5zM265 23q96 0 127.5 56t31.5 180q0 113 -38 165.5t-121 52.5q-90 0 -126.5 -48.5t-36.5 -167.5q0 -130 32.5 -184t130.5 -54zM155 732l192 -96 l-15 -27l-193 92z" />
<glyph unicode="&#xf3;" horiz-adv-x="536" d="M265 509q101 0 148.5 -60.5t47.5 -189.5q0 -140 -42.5 -204t-153.5 -64q-115 0 -157.5 61t-42.5 209q0 133 45 190.5t155 57.5zM265 23q96 0 127.5 56t31.5 180q0 113 -38 165.5t-121 52.5q-90 0 -126.5 -48.5t-36.5 -167.5q0 -130 32.5 -184t130.5 -54zM150 636l192 96 l16 -31l-193 -92z" />
<glyph unicode="&#xf4;" horiz-adv-x="536" d="M265 509q101 0 148.5 -60.5t47.5 -189.5q0 -140 -42.5 -204t-153.5 -64q-115 0 -157.5 61t-42.5 209q0 133 45 190.5t155 57.5zM265 23q96 0 127.5 56t31.5 180q0 113 -38 165.5t-121 52.5q-90 0 -126.5 -48.5t-36.5 -167.5q0 -130 32.5 -184t130.5 -54zM128 600l121 132 h28l122 -132h-43l-92 100l-93 -100h-43z" />
<glyph unicode="&#xf5;" horiz-adv-x="536" d="M265 509q101 0 148.5 -60.5t47.5 -189.5q0 -140 -42.5 -204t-153.5 -64q-115 0 -157.5 61t-42.5 209q0 133 45 190.5t155 57.5zM265 23q96 0 127.5 56t31.5 180q0 113 -38 165.5t-121 52.5q-90 0 -126.5 -48.5t-36.5 -167.5q0 -130 32.5 -184t130.5 -54zM405 703l9 -30 q-42 -43 -73 -43q-21 0 -76.5 27t-70.5 27q-21 0 -70 -45l-10 29q49 47 82 47q21 0 76.5 -26.5t70.5 -26.5q18 0 62 41z" />
<glyph unicode="&#xf6;" horiz-adv-x="536" d="M265 509q101 0 148.5 -60.5t47.5 -189.5q0 -140 -42.5 -204t-153.5 -64q-115 0 -157.5 61t-42.5 209q0 133 45 190.5t155 57.5zM265 23q96 0 127.5 56t31.5 180q0 113 -38 165.5t-121 52.5q-90 0 -126.5 -48.5t-36.5 -167.5q0 -130 32.5 -184t130.5 -54zM161 638v62h35 v-62h-35zM351 638v62h35v-62h-35z" />
<glyph unicode="&#xf7;" d="M245 433v80h40v-80h-40zM67 284v36h396v-36h-396zM245 89v80h40v-80h-40z" />
<glyph unicode="&#xf8;" horiz-adv-x="526" d="M265 509q46 0 83 -14l45 110l30 -11l-47 -113q85 -53 85 -222q0 -140 -42.5 -204t-153.5 -64q-49 0 -85 11l-47 -116l-30 10l48 118q-47 25 -66.5 84t-19.5 163q0 133 45 190.5t155 57.5zM102 261q0 -90 13.5 -141t50.5 -74l170 418q-32 13 -71 13q-90 0 -126.5 -48.5 t-36.5 -167.5zM265 23q96 0 127.5 56t31.5 180q0 141 -61 189l-171 -415q29 -10 73 -10z" />
<glyph unicode="&#xf9;" horiz-adv-x="557" d="M421 500h35v-500h-35v40q-78 -49 -154 -49q-99 0 -131.5 53t-32.5 196v260h35v-258q0 -126 24.5 -172.5t104.5 -46.5q35 0 73.5 12.5t59.5 24.5l21 13v427zM167 732l192 -96l-15 -27l-193 92z" />
<glyph unicode="&#xfa;" horiz-adv-x="557" d="M421 500h35v-500h-35v40q-78 -49 -154 -49q-99 0 -131.5 53t-32.5 196v260h35v-258q0 -126 24.5 -172.5t104.5 -46.5q35 0 73.5 12.5t59.5 24.5l21 13v427zM191 636l192 96l16 -31l-193 -92z" />
<glyph unicode="&#xfb;" horiz-adv-x="557" d="M421 500h35v-500h-35v40q-78 -49 -154 -49q-99 0 -131.5 53t-32.5 196v260h35v-258q0 -126 24.5 -172.5t104.5 -46.5q35 0 73.5 12.5t59.5 24.5l21 13v427zM140 600l121 132h28l122 -132h-43l-92 100l-93 -100h-43z" />
<glyph unicode="&#xfc;" horiz-adv-x="557" d="M421 500h35v-500h-35v40q-78 -49 -154 -49q-99 0 -131.5 53t-32.5 196v260h35v-258q0 -126 24.5 -172.5t104.5 -46.5q35 0 73.5 12.5t59.5 24.5l21 13v427zM173 638v62h35v-62h-35zM363 638v62h35v-62h-35z" />
<glyph unicode="&#xfd;" horiz-adv-x="480" d="M34 500h37l141 -468h44l143 468h37l-225 -730h-37l73 230h-63zM162 636l192 96l16 -31l-193 -92z" />
<glyph unicode="&#xfe;" horiz-adv-x="548" d="M269 23q94 0 134 56.5t40 181.5q0 104 -35 160t-100 56q-83 0 -160 -49l-2 -2v-391q68 -12 123 -12zM308 509q172 0 172 -249q0 -136 -49 -202.5t-161 -66.5l-124 10v-231h-35v960h35v-270l22.5 13.5t57 22t82.5 13.5z" />
<glyph unicode="&#xff;" horiz-adv-x="480" d="M39 500h37l141 -468h44l143 468h37l-225 -730h-37l73 230h-63zM132 638v62h35v-62h-35zM322 638v62h35v-62h-35z" />
<glyph unicode="&#x100;" horiz-adv-x="604" d="M40 0l215 700h96l214 -700h-36l-68 215h-318l-67 -215h-36zM280 666l-127 -417h298l-127 417h-44zM158 842v32h287v-32h-287z" />
<glyph unicode="&#x101;" horiz-adv-x="518" d="M418 353v-287q20 -37 75 -42l-2 -32q-65 0 -99 42q-92 -43 -195 -43q-59 0 -95.5 40.5t-36.5 105.5q0 131 143 146l175 18v52q0 64 -27.5 93t-83.5 29q-32 0 -77 -4t-73 -8l-29 -4l-3 33q102 17 182 17q146 0 146 -156zM383 268l-171 -16q-110 -10 -110 -115 q0 -48 27.5 -81t68.5 -33q44 0 90 10t70 20l25 10v205zM125 642v32h267v-32h-267z" />
<glyph unicode="&#x102;" horiz-adv-x="604" d="M40 0l215 700h96l214 -700h-36l-68 215h-318l-67 -215h-36zM280 666l-127 -417h298l-127 417h-44zM164 923h35q0 -40 30 -63.5t73 -23.5t73 23.5t30 63.5h35q0 -54 -40 -86.5t-98 -32.5t-98 32.5t-40 86.5z" />
<glyph unicode="&#x103;" horiz-adv-x="518" d="M418 353v-287q20 -37 75 -42l-2 -32q-65 0 -99 42q-92 -43 -195 -43q-59 0 -95.5 40.5t-36.5 105.5q0 131 143 146l175 18v52q0 64 -27.5 93t-83.5 29q-32 0 -77 -4t-73 -8l-29 -4l-3 33q102 17 182 17q146 0 146 -156zM383 268l-171 -16q-110 -10 -110 -115 q0 -48 27.5 -81t68.5 -33q44 0 90 10t70 20l25 10v205zM121 723h35q0 -42 27.5 -69t75.5 -27t75.5 27t27.5 69h35q0 -56 -38 -92t-100 -36t-100 36t-38 92z" />
<glyph unicode="&#x104;" horiz-adv-x="604" d="M586 -159l4 -33q-36 -8 -64 -8q-35 0 -57.5 22t-22.5 60q0 41 81 122l-66 211h-318l-67 -215h-36l215 700h96l214 -700h-2q-11 -9 -45.5 -52.5t-34.5 -63.5q0 -21 13 -35.5t34 -14.5zM280 666l-127 -417h298l-127 417h-44z" />
<glyph unicode="&#x105;" horiz-adv-x="518" d="M489 -159l4 -33q-36 -8 -64 -8q-35 0 -57.5 22t-22.5 60q0 27 32.5 67.5t48.5 54.5q-23 11 -38 30q-92 -43 -195 -43q-59 0 -95.5 40.5t-36.5 105.5q0 131 143 146l175 18v52q0 64 -27.5 93t-83.5 29q-32 0 -77 -4t-73 -8l-29 -4l-3 33q102 17 182 17q146 0 146 -156 v-287q20 -37 75 -42l-2 -32q-17 0 -30 3q-75 -84 -75 -111q0 -21 13 -35.5t34 -14.5zM383 268l-171 -16q-110 -10 -110 -115q0 -48 27.5 -81t68.5 -33q44 0 90 10t70 20l25 10v205z" />
<glyph unicode="&#x106;" horiz-adv-x="537" d="M484 45l3 -34q-101 -20 -180 -20q-60 0 -104 17.5t-71 46.5t-42.5 76t-21 97t-5.5 119t5 118.5t20 98t41 78.5t71 48.5t107 18.5l180 -19l-3 -35q-96 20 -177 20q-55 0 -93.5 -17t-60.5 -43t-33.5 -71.5t-15 -88.5t-3.5 -108q0 -64 3.5 -107.5t16 -87t34.5 -69.5t60 -42 t92 -16zM184 826l192 96l16 -31l-193 -92z" />
<glyph unicode="&#x107;" horiz-adv-x="437" d="M275 509q17 0 44.5 -2.5t46.5 -4.5l19 -3l-2 -32q-70 10 -108 10q-94 0 -131 -51t-37 -165q0 -130 33.5 -184t134.5 -54l110 9l2 -32q-74 -9 -112 -9q-121 0 -163 60.5t-42 209.5q0 132 47 190t158 58zM135 636l192 96l16 -31l-193 -92z" />
<glyph unicode="&#x108;" horiz-adv-x="537" d="M484 45l3 -34q-101 -20 -180 -20q-60 0 -104 17.5t-71 46.5t-42.5 76t-21 97t-5.5 119t5 118.5t20 98t41 78.5t71 48.5t107 18.5l180 -19l-3 -35q-96 20 -177 20q-55 0 -93.5 -17t-60.5 -43t-33.5 -71.5t-15 -88.5t-3.5 -108q0 -64 3.5 -107.5t16 -87t34.5 -69.5t60 -42 t92 -16zM160 804l134 125h30l134 -125h-45l-104 96l-103 -96h-46z" />
<glyph unicode="&#x109;" horiz-adv-x="437" d="M275 509q17 0 44.5 -2.5t46.5 -4.5l19 -3l-2 -32q-70 10 -108 10q-94 0 -131 -51t-37 -165q0 -130 33.5 -184t134.5 -54l110 9l2 -32q-74 -9 -112 -9q-121 0 -163 60.5t-42 209.5q0 132 47 190t158 58zM103 600l121 132h28l122 -132h-43l-92 100l-93 -100h-43z" />
<glyph unicode="&#x10a;" horiz-adv-x="537" d="M484 45l3 -34q-101 -20 -180 -20q-60 0 -104 17.5t-71 46.5t-42.5 76t-21 97t-5.5 119t5 118.5t20 98t41 78.5t71 48.5t107 18.5l180 -19l-3 -35q-96 20 -177 20q-55 0 -93.5 -17t-60.5 -43t-33.5 -71.5t-15 -88.5t-3.5 -108q0 -64 3.5 -107.5t16 -87t34.5 -69.5t60 -42 t92 -16zM271 845v55h35v-55h-35z" />
<glyph unicode="&#x10b;" horiz-adv-x="437" d="M275 509q17 0 44.5 -2.5t46.5 -4.5l19 -3l-2 -32q-70 10 -108 10q-94 0 -131 -51t-37 -165q0 -130 33.5 -184t134.5 -54l110 9l2 -32q-74 -9 -112 -9q-121 0 -163 60.5t-42 209.5q0 132 47 190t158 58zM221 645v55h35v-55h-35z" />
<glyph unicode="&#x10c;" horiz-adv-x="537" d="M484 45l3 -34q-101 -20 -180 -20q-60 0 -104 17.5t-71 46.5t-42.5 76t-21 97t-5.5 119t5 118.5t20 98t41 78.5t71 48.5t107 18.5l180 -19l-3 -35q-96 20 -177 20q-55 0 -93.5 -17t-60.5 -43t-33.5 -71.5t-15 -88.5t-3.5 -108q0 -64 3.5 -107.5t16 -87t34.5 -69.5t60 -42 t92 -16zM440 934l-134 -125h-30l-134 125h45l104 -96l103 96h46z" />
<glyph unicode="&#x10d;" horiz-adv-x="437" d="M275 509q17 0 44.5 -2.5t46.5 -4.5l19 -3l-2 -32q-70 10 -108 10q-94 0 -131 -51t-37 -165q0 -130 33.5 -184t134.5 -54l110 9l2 -32q-74 -9 -112 -9q-121 0 -163 60.5t-42 209.5q0 132 47 190t158 58zM224 600l-121 132h42l94 -99l93 99h42l-122 -132h-28z" />
<glyph unicode="&#x10e;" horiz-adv-x="653" d="M358 0h-250v700h250q63 0 110 -29t73 -79t38.5 -108t12.5 -124q0 -52 -7 -101t-24.5 -97t-43.5 -83.5t-67 -57t-92 -21.5zM554 360q0 56 -10 107.5t-31.5 97.5t-61 73.5t-93.5 27.5h-214v-632h214q53 0 93 30.5t61.5 80.5t31.5 104t10 111zM448 934l-134 -125h-30 l-134 125h45l104 -96l103 96h46z" />
<glyph unicode="&#x10f;" horiz-adv-x="708" d="M437 730v-730h-35v36q-82 -45 -163 -45q-169 0 -169 252q0 134 49 200t161 66q47 0 122 -12v233h35zM239 23q33 0 74 11.5t65 23.5l24 12v397q-65 10 -122 10q-95 0 -135 -59t-40 -178q0 -217 134 -217zM622 700v-217h-34v217h34z" />
<glyph unicode="&#x110;" horiz-adv-x="653" d="M26 334v34h82v332h250q63 0 110 -29t73 -79t38.5 -108t12.5 -124q0 -52 -7 -101t-24.5 -97t-43.5 -83.5t-67 -57t-92 -21.5h-250v334h-82zM554 360q0 56 -10 107.5t-31.5 97.5t-61 73.5t-93.5 27.5h-214v-298h172v-34h-172v-300h214q53 0 93 30.5t61.5 80.5t31.5 104 t10 111z" />
<glyph unicode="&#x111;" horiz-adv-x="538" d="M229 622v32h173v76h35v-76h59v-32h-59v-622h-35v36q-82 -45 -163 -45q-169 0 -169 252q0 134 49 200t161 66q47 0 122 -12v125h-173zM239 23q33 0 74 11.5t65 23.5l24 12v397q-65 10 -122 10q-95 0 -135 -59t-40 -178q0 -217 134 -217z" />
<glyph unicode="&#x112;" horiz-adv-x="572" d="M108 0v700h399v-34h-363v-289h303v-34h-303v-309h363v-34h-399zM152 832v32h287v-32h-287z" />
<glyph unicode="&#x113;" horiz-adv-x="507" d="M249 23q31 0 75.5 2.5t73.5 4.5l28 2l2 -32q-107 -9 -180 -9q-184 0 -184 259q0 134 53.5 196.5t144.5 62.5q185 0 185 -240v-33h-346q0 -213 148 -213zM101 268h309q0 111 -37.5 160t-110.5 49t-117 -50.5t-44 -158.5zM130 642v32h267v-32h-267z" />
<glyph unicode="&#x114;" horiz-adv-x="572" d="M108 0v700h399v-34h-363v-289h303v-34h-303v-309h363v-34h-399zM178 924h35q0 -40 30 -63.5t73 -23.5t73 23.5t30 63.5h35q0 -54 -40 -86.5t-98 -32.5t-98 32.5t-40 86.5z" />
<glyph unicode="&#x115;" horiz-adv-x="507" d="M249 23q31 0 75.5 2.5t73.5 4.5l28 2l2 -32q-107 -9 -180 -9q-184 0 -184 259q0 134 53.5 196.5t144.5 62.5q185 0 185 -240v-33h-346q0 -213 148 -213zM101 268h309q0 111 -37.5 160t-110.5 49t-117 -50.5t-44 -158.5zM124 723h35q0 -42 27.5 -69t75.5 -27t75.5 27 t27.5 69h35q0 -56 -38 -92t-100 -36t-100 36t-38 92z" />
<glyph unicode="&#x116;" horiz-adv-x="572" d="M108 0v700h399v-34h-363v-289h303v-34h-303v-309h363v-34h-399zM288 845v55h35v-55h-35z" />
<glyph unicode="&#x117;" horiz-adv-x="507" d="M249 23q31 0 75.5 2.5t73.5 4.5l28 2l2 -32q-107 -9 -180 -9q-184 0 -184 259q0 134 53.5 196.5t144.5 62.5q185 0 185 -240v-33h-346q0 -213 148 -213zM101 268h309q0 111 -37.5 160t-110.5 49t-117 -50.5t-44 -158.5zM236 645v55h35v-55h-35z" />
<glyph unicode="&#x118;" horiz-adv-x="572" d="M108 0v700h399v-34h-363v-289h303v-34h-303v-309h363v-34h-27q-11 -9 -45.5 -52.5t-34.5 -63.5q0 -21 13 -35.5t34 -14.5l56 7l4 -33q-36 -8 -64 -8q-35 0 -57.5 22t-22.5 60q0 41 77 118h-332z" />
<glyph unicode="&#x119;" horiz-adv-x="507" d="M443 -159l4 -33q-36 -8 -64 -8q-35 0 -57.5 22t-22.5 60q0 41 73 114q-95 -5 -128 -5q-184 0 -184 259q0 134 53.5 196.5t144.5 62.5q185 0 185 -240v-33h-346q0 -213 148 -213q31 0 75.5 2.5t73.5 4.5l28 2l2 -32q-5 0 -9 -1q-19 -19 -49 -57.5t-30 -57.5 q0 -21 13 -35.5t34 -14.5zM101 268h309q0 111 -37.5 160t-110.5 49t-117 -50.5t-44 -158.5z" />
<glyph unicode="&#x11a;" horiz-adv-x="572" d="M108 0v700h399v-34h-363v-289h303v-34h-303v-309h363v-34h-399zM458 934l-134 -125h-30l-134 125h45l104 -96l103 96h46z" />
<glyph unicode="&#x11b;" horiz-adv-x="507" d="M249 23q31 0 75.5 2.5t73.5 4.5l28 2l2 -32q-107 -9 -180 -9q-184 0 -184 259q0 134 53.5 196.5t144.5 62.5q185 0 185 -240v-33h-346q0 -213 148 -213zM101 268h309q0 111 -37.5 160t-110.5 49t-117 -50.5t-44 -158.5zM239 600l-121 132h42l94 -99l93 99h42l-122 -132 h-28z" />
<glyph unicode="&#x11c;" horiz-adv-x="617" d="M356 313v34h181v-331q-136 -25 -215 -25q-75 0 -126.5 25t-79.5 74.5t-39.5 111t-11.5 145.5q0 67 6 118t23 98.5t45.5 78.5t74.5 49t108 18q47 0 100.5 -6.5t83.5 -12.5l31 -6l-3 -35q-121 26 -212 26q-55 0 -95 -16.5t-63.5 -44t-37.5 -71t-18.5 -89t-4.5 -107.5 q0 -61 5 -107t19 -88t38 -68.5t63.5 -42.5t93.5 -16q31 0 74 5t73.5 10t31.5 5v268h-145zM170 804l134 125h30l134 -125h-45l-104 96l-103 -96h-46z" />
<glyph unicode="&#x11d;" horiz-adv-x="504" d="M253 -239q-102 0 -148 36.5t-46 122.5q0 42 21.5 69t63.5 59q-22 14 -22 65l30 79q-86 41 -86 151q0 76 45.5 121.5t121.5 45.5q24 0 46 -3t32 -7l10 -3l152 3v-35h-113q46 -42 46 -122q0 -164 -177 -164q-26 0 -50 4q-23 -57 -23 -70q0 -20 2.5 -29.5t17 -16t37.5 -7.5 t72 -1q99 0 139.5 -26.5t40.5 -107.5q0 -164 -212 -164zM283 27l-113 3q-42 -33 -58.5 -54.5t-16.5 -54.5q0 -70 38 -99t121 -29q85 0 129.5 33.5t44.5 98.5q0 64 -31.5 83t-113.5 19zM229 211q140 0 140 132q0 135 -137 135q-62 0 -96 -36t-34 -99q0 -132 127 -132z M117 600l121 132h28l122 -132h-43l-92 100l-93 -100h-43z" />
<glyph unicode="&#x11e;" horiz-adv-x="617" d="M356 313v34h181v-331q-136 -25 -215 -25q-75 0 -126.5 25t-79.5 74.5t-39.5 111t-11.5 145.5q0 67 6 118t23 98.5t45.5 78.5t74.5 49t108 18q47 0 100.5 -6.5t83.5 -12.5l31 -6l-3 -35q-121 26 -212 26q-55 0 -95 -16.5t-63.5 -44t-37.5 -71t-18.5 -89t-4.5 -107.5 q0 -61 5 -107t19 -88t38 -68.5t63.5 -42.5t93.5 -16q31 0 74 5t73.5 10t31.5 5v268h-145zM190 923h35q0 -40 30 -63.5t73 -23.5t73 23.5t30 63.5h35q0 -54 -40 -86.5t-98 -32.5t-98 32.5t-40 86.5z" />
<glyph unicode="&#x11f;" horiz-adv-x="504" d="M253 -239q-102 0 -148 36.5t-46 122.5q0 42 21.5 69t63.5 59q-22 14 -22 65l30 79q-86 41 -86 151q0 76 45.5 121.5t121.5 45.5q24 0 46 -3t32 -7l10 -3l152 3v-35h-113q46 -42 46 -122q0 -164 -177 -164q-26 0 -50 4q-23 -57 -23 -70q0 -20 2.5 -29.5t17 -16t37.5 -7.5 t72 -1q99 0 139.5 -26.5t40.5 -107.5q0 -164 -212 -164zM283 27l-113 3q-42 -33 -58.5 -54.5t-16.5 -54.5q0 -70 38 -99t121 -29q85 0 129.5 33.5t44.5 98.5q0 64 -31.5 83t-113.5 19zM229 211q140 0 140 132q0 135 -137 135q-62 0 -96 -36t-34 -99q0 -132 127 -132z M114 723h35q0 -42 27.5 -69t75.5 -27t75.5 27t27.5 69h35q0 -56 -38 -92t-100 -36t-100 36t-38 92z" />
<glyph unicode="&#x120;" horiz-adv-x="617" d="M356 313v34h181v-331q-136 -25 -215 -25q-75 0 -126.5 25t-79.5 74.5t-39.5 111t-11.5 145.5q0 67 6 118t23 98.5t45.5 78.5t74.5 49t108 18q47 0 100.5 -6.5t83.5 -12.5l31 -6l-3 -35q-121 26 -212 26q-55 0 -95 -16.5t-63.5 -44t-37.5 -71t-18.5 -89t-4.5 -107.5 q0 -61 5 -107t19 -88t38 -68.5t63.5 -42.5t93.5 -16q31 0 74 5t73.5 10t31.5 5v268h-145zM291 845v55h35v-55h-35z" />
<glyph unicode="&#x121;" horiz-adv-x="504" d="M253 -239q-102 0 -148 36.5t-46 122.5q0 42 21.5 69t63.5 59q-22 14 -22 65l30 79q-86 41 -86 151q0 76 45.5 121.5t121.5 45.5q24 0 46 -3t32 -7l10 -3l152 3v-35h-113q46 -42 46 -122q0 -164 -177 -164q-26 0 -50 4q-23 -57 -23 -70q0 -20 2.5 -29.5t17 -16t37.5 -7.5 t72 -1q99 0 139.5 -26.5t40.5 -107.5q0 -164 -212 -164zM283 27l-113 3q-42 -33 -58.5 -54.5t-16.5 -54.5q0 -70 38 -99t121 -29q85 0 129.5 33.5t44.5 98.5q0 64 -31.5 83t-113.5 19zM229 211q140 0 140 132q0 135 -137 135q-62 0 -96 -36t-34 -99q0 -132 127 -132z M234 645v55h35v-55h-35z" />
<glyph unicode="&#x122;" horiz-adv-x="617" d="M356 313v34h181v-331q-136 -25 -215 -25q-75 0 -126.5 25t-79.5 74.5t-39.5 111t-11.5 145.5q0 67 6 118t23 98.5t45.5 78.5t74.5 49t108 18q47 0 100.5 -6.5t83.5 -12.5l31 -6l-3 -35q-121 26 -212 26q-55 0 -95 -16.5t-63.5 -44t-37.5 -71t-18.5 -89t-4.5 -107.5 q0 -61 5 -107t19 -88t38 -68.5t63.5 -42.5t93.5 -16q31 0 74 5t73.5 10t31.5 5v268h-145zM271 -267l38 189h36l-46 -189h-28z" />
<glyph unicode="&#x123;" horiz-adv-x="504" d="M253 -239q-102 0 -148 36.5t-46 122.5q0 42 21.5 69t63.5 59q-22 14 -22 65l30 79q-86 41 -86 151q0 76 45.5 121.5t121.5 45.5q24 0 46 -3t32 -7l10 -3l152 3v-35h-113q46 -42 46 -122q0 -164 -177 -164q-26 0 -50 4q-23 -57 -23 -70q0 -20 2.5 -29.5t17 -16t37.5 -7.5 t72 -1q99 0 139.5 -26.5t40.5 -107.5q0 -164 -212 -164zM283 27l-113 3q-42 -33 -58.5 -54.5t-16.5 -54.5q0 -70 38 -99t121 -29q85 0 129.5 33.5t44.5 98.5q0 64 -31.5 83t-113.5 19zM229 211q140 0 140 132q0 135 -137 135q-62 0 -96 -36t-34 -99q0 -132 127 -132z M278 782l-38 -189h-36l46 189h28z" />
<glyph unicode="&#x124;" horiz-adv-x="696" d="M552 0v334h-408v-334h-36v700h36v-332h408v332h36v-700h-36zM200 804l134 125h30l134 -125h-45l-104 96l-103 -96h-46z" />
<glyph unicode="&#x125;" horiz-adv-x="567" d="M136 0h-35v730h35v-260q88 39 164 39q99 0 131.5 -53t32.5 -196v-260h-35v258q0 126 -24.5 172.5t-104.5 46.5q-78 0 -164 -40v-437zM148 790l121 132h28l122 -132h-43l-92 100l-93 -100h-43z" />
<glyph unicode="&#x126;" horiz-adv-x="696" d="M19 522v32h89v146h36v-146h408v146h36v-146h98v-32h-98v-522h-36v334h-408v-334h-36v522h-89zM144 368h408v154h-408v-154z" />
<glyph unicode="&#x127;" horiz-adv-x="567" d="M30 612v32h71v86h35v-86h161v-32h-161v-142q88 39 164 39q99 0 131.5 -53t32.5 -196v-260h-35v258q0 126 -24.5 172.5t-104.5 46.5q-78 0 -164 -40v-437h-35v612h-71z" />
<glyph unicode="&#x128;" horiz-adv-x="226" d="M95 0v700h36v-700h-36zM275 903l11 -28q-52 -55 -83 -55q-23 0 -83.5 32t-75.5 32q-9 0 -29 -14t-35 -28l-16 -13l-10 29q57 57 90 57q23 0 83.5 -31.5t75.5 -31.5q8 0 26 13t32 25z" />
<glyph unicode="&#x129;" horiz-adv-x="261" d="M113 0v500h35v-500h-35zM272 703l9 -30q-42 -43 -73 -43q-21 0 -76.5 27t-70.5 27q-21 0 -70 -45l-10 29q49 47 82 47q21 0 76.5 -26.5t70.5 -26.5q18 0 62 41z" />
<glyph unicode="&#x12a;" horiz-adv-x="226" d="M95 0v700h36v-700h-36zM-30 842v32h287v-32h-287z" />
<glyph unicode="&#x12b;" horiz-adv-x="261" d="M113 0v500h35v-500h-35zM-3 642v32h267v-32h-267z" />
<glyph unicode="&#x12c;" horiz-adv-x="226" d="M95 0v700h36v-700h-36zM-25 923h35q0 -40 30 -63.5t73 -23.5t73 23.5t30 63.5h35q0 -54 -40 -86.5t-98 -32.5t-98 32.5t-40 86.5z" />
<glyph unicode="&#x12d;" horiz-adv-x="261" d="M113 0v500h35v-500h-35zM-7 723h35q0 -42 27.5 -69t75.5 -27t75.5 27t27.5 69h35q0 -56 -38 -92t-100 -36t-100 36t-38 92z" />
<glyph unicode="&#x12e;" horiz-adv-x="226" d="M153 -159l4 -33q-36 -8 -64 -8q-35 0 -57.5 22t-22.5 60q0 41 82 123v695h36v-700h-1q-11 -9 -45.5 -52.5t-34.5 -63.5q0 -21 13 -35.5t34 -14.5z" />
<glyph unicode="&#x12f;" horiz-adv-x="215" d="M147 -159l4 -33q-36 -8 -64 -8q-35 0 -57.5 22t-22.5 60q0 20 20.5 51t41.5 52l21 21v494h35v-500h-1q-11 -9 -45.5 -52.5t-34.5 -63.5q0 -21 13 -35.5t34 -14.5zM90 645v55h35v-55h-35z" />
<glyph unicode="&#x130;" horiz-adv-x="226" d="M95 0v700h36v-700h-36zM95 845v55h35v-55h-35z" />
<glyph unicode="&#x131;" horiz-adv-x="261" d="M113 0v500h35v-500h-35z" />
<glyph unicode="&#x134;" horiz-adv-x="304" d="M208 701l1 -596q0 -60 -7.5 -94.5t-29 -53.5t-50.5 -24.5t-82 -5.5v34q82 0 107 27.5t25 126.5v586h36zM4 804l134 125h30l134 -125h-45l-104 96l-103 -96h-46z" />
<glyph unicode="&#x135;" horiz-adv-x="233" d="M108 6v494h35v-495q0 -85 -29 -127.5t-120 -95.5l-14 31q79 47 103.5 83.5t24.5 109.5zM-19 600l121 132h28l122 -132h-43l-92 100l-93 -100h-43z" />
<glyph unicode="&#x136;" horiz-adv-x="597" d="M496 0l-231 329h-121v-329h-36v700h36v-337h119l220 337h43l-231 -352l247 -348h-46zM261 -267l38 189h36l-46 -189h-28z" />
<glyph unicode="&#x137;" horiz-adv-x="483" d="M146 0h-35v730h35v-438h88l178 208h41l-188 -226l188 -274h-41l-178 257h-88v-257zM204 -267l38 189h36l-46 -189h-28z" />
<glyph unicode="&#x139;" d="M475 0h-367v700h36v-666h331v-34zM161 826l192 96l16 -31l-193 -92z" />
<glyph unicode="&#x13a;" horiz-adv-x="225" d="M95 0v730h35v-730h-35zM9 836l192 96l16 -31l-193 -92z" />
<glyph unicode="&#x13b;" d="M475 0h-367v700h36v-666h331v-34zM228 -267l38 189h36l-46 -189h-28z" />
<glyph unicode="&#x13c;" horiz-adv-x="225" d="M95 0v730h35v-730h-35zM75 -267l38 189h36l-46 -189h-28z" />
<glyph unicode="&#x13d;" d="M475 0h-367v700h36v-666h331v-34zM435 700v-217h-34v217h34z" />
<glyph unicode="&#x13e;" horiz-adv-x="395" d="M95 0v730h35v-730h-35zM309 700v-217h-34v217h34z" />
<glyph unicode="&#x141;" d="M24 261l-20 27l99 69v343h36v-318l209 147l20 -27l-229 -161v-307h341v-34h-377v316z" />
<glyph unicode="&#x142;" horiz-adv-x="225" d="M95 0v319l-78 -54l-19 27l97 68v370h35v-346l81 57l19 -27l-100 -70v-344h-35z" />
<glyph unicode="&#x143;" horiz-adv-x="687" d="M108 0v700h85l323 -666h27v666h36v-700h-85l-324 666h-26v-666h-36zM239 826l192 96l16 -31l-193 -92z" />
<glyph unicode="&#x144;" horiz-adv-x="573" d="M146 0h-35v500h35v-40l24.5 13.5t59 22t81.5 13.5q99 0 131.5 -53t32.5 -196v-260h-35v258q0 126 -24.5 172.5t-104.5 46.5q-84 0 -163 -49l-2 -1v-427zM192 636l192 96l16 -31l-193 -92z" />
<glyph unicode="&#x145;" horiz-adv-x="687" d="M108 0v700h85l323 -666h27v666h36v-700h-85l-324 666h-26v-666h-36zM306 -267l38 189h36l-46 -189h-28z" />
<glyph unicode="&#x146;" horiz-adv-x="573" d="M146 0h-35v500h35v-40l24.5 13.5t59 22t81.5 13.5q99 0 131.5 -53t32.5 -196v-260h-35v258q0 126 -24.5 172.5t-104.5 46.5q-84 0 -163 -49l-2 -1v-427zM249 -267l38 189h36l-46 -189h-28z" />
<glyph unicode="&#x147;" horiz-adv-x="687" d="M108 0v700h85l323 -666h27v666h36v-700h-85l-324 666h-26v-666h-36zM493 929l-134 -125h-30l-134 125h45l104 -96l103 96h46z" />
<glyph unicode="&#x148;" horiz-adv-x="573" d="M146 0h-35v500h35v-40l24.5 13.5t59 22t81.5 13.5q99 0 131.5 -53t32.5 -196v-260h-35v258q0 126 -24.5 172.5t-104.5 46.5q-84 0 -163 -49l-2 -1v-427zM272 600l-121 132h42l94 -99l93 99h42l-122 -132h-28z" />
<glyph unicode="&#x14a;" horiz-adv-x="687" d="M108 0v700h85l323 -666h27v666h36v-99l1 -596q0 -60 -7.5 -94.5t-29 -53.5t-50.5 -24.5t-82 -5.5v34q79 0 105 25.5t27 113.5h-49l-324 666h-26v-666h-36z" />
<glyph unicode="&#x14b;" horiz-adv-x="573" d="M160 0h-35v500h35v-40l24.5 13.5t59 22t81.5 13.5q99 0 131.5 -53t32.5 -196v-267q0 -85 -29 -127.5t-120 -95.5l-14 31q79 47 103.5 83.5t24.5 109.5v264q0 126 -24.5 172.5t-104.5 46.5q-84 0 -163 -49l-2 -1v-427z" />
<glyph unicode="&#x14c;" horiz-adv-x="656" d="M328 25q127 0 176 73t49 249q0 168 -51.5 248t-173.5 80q-124 0 -174.5 -79t-50.5 -249q0 -171 49.5 -246.5t175.5 -75.5zM328 -9q-144 0 -203.5 85t-59.5 271q0 184 60.5 273t202.5 89t202.5 -88.5t60.5 -273.5q0 -191 -59 -273.5t-204 -82.5zM184 842v32h287v-32h-287z " />
<glyph unicode="&#x14d;" horiz-adv-x="526" d="M265 509q101 0 148.5 -60.5t47.5 -189.5q0 -140 -42.5 -204t-153.5 -64q-115 0 -157.5 61t-42.5 209q0 133 45 190.5t155 57.5zM265 23q96 0 127.5 56t31.5 180q0 113 -38 165.5t-121 52.5q-90 0 -126.5 -48.5t-36.5 -167.5q0 -130 32.5 -184t130.5 -54zM129 642v32h267 v-32h-267z" />
<glyph unicode="&#x14e;" horiz-adv-x="656" d="M328 25q127 0 176 73t49 249q0 168 -51.5 248t-173.5 80q-124 0 -174.5 -79t-50.5 -249q0 -171 49.5 -246.5t175.5 -75.5zM328 -9q-144 0 -203.5 85t-59.5 271q0 184 60.5 273t202.5 89t202.5 -88.5t60.5 -273.5q0 -191 -59 -273.5t-204 -82.5zM190 923h35 q0 -40 30 -63.5t73 -23.5t73 23.5t30 63.5h35q0 -54 -40 -86.5t-98 -32.5t-98 32.5t-40 86.5z" />
<glyph unicode="&#x14f;" horiz-adv-x="526" d="M265 509q101 0 148.5 -60.5t47.5 -189.5q0 -140 -42.5 -204t-153.5 -64q-115 0 -157.5 61t-42.5 209q0 133 45 190.5t155 57.5zM265 23q96 0 127.5 56t31.5 180q0 113 -38 165.5t-121 52.5q-90 0 -126.5 -48.5t-36.5 -167.5q0 -130 32.5 -184t130.5 -54zM125 723h35 q0 -42 27.5 -69t75.5 -27t75.5 27t27.5 69h35q0 -56 -38 -92t-100 -36t-100 36t-38 92z" />
<glyph unicode="&#x150;" horiz-adv-x="656" d="M328 25q127 0 176 73t49 249q0 168 -51.5 248t-173.5 80q-124 0 -174.5 -79t-50.5 -249q0 -171 49.5 -246.5t175.5 -75.5zM328 -9q-144 0 -203.5 85t-59.5 271q0 184 60.5 273t202.5 89t202.5 -88.5t60.5 -273.5q0 -191 -59 -273.5t-204 -82.5zM325 818l191 87l15 -29 l-192 -88zM134 818l192 88l14 -30l-191 -87z" />
<glyph unicode="&#x151;" horiz-adv-x="526" d="M265 509q101 0 148.5 -60.5t47.5 -189.5q0 -140 -42.5 -204t-153.5 -64q-115 0 -157.5 61t-42.5 209q0 133 45 190.5t155 57.5zM265 23q96 0 127.5 56t31.5 180q0 113 -38 165.5t-121 52.5q-90 0 -126.5 -48.5t-36.5 -167.5q0 -130 32.5 -184t130.5 -54zM305 622l163 104 l18 -27l-163 -104zM120 622l163 104l18 -27l-163 -104z" />
<glyph unicode="&#x152;" horiz-adv-x="944" d="M879 -1h-393q-104 -8 -158 -8q-148 0 -205.5 86t-57.5 268q0 183 58.5 273.5t204.5 90.5q86 0 157 -9h394v-34h-358v-289h298v-34h-298v-309h358v-35zM328 25q22 0 157 9v629q-17 1 -53 4l-64.5 5.5t-39.5 2.5q-128 0 -176.5 -80t-48.5 -248t47 -245t178 -77z" />
<glyph unicode="&#x153;" horiz-adv-x="876" d="M618 23l182 9l2 -32q-112 -9 -185 -9q-130 0 -169 107q-18 -56 -61 -81.5t-122 -25.5q-122 0 -163.5 58t-41.5 212q0 138 46.5 193t158.5 55q146 0 184 -120q44 120 182 120q95 0 142.5 -57t47.5 -183v-33h-355q0 -108 34 -160.5t118 -52.5zM265 23q54 0 87.5 13.5t50 46 t21.5 71.5t5 105q0 118 -39.5 168t-124.5 50q-97 0 -132.5 -45.5t-35.5 -170.5q0 -70 5.5 -110.5t23.5 -72t51 -43.5t88 -12zM466 268h318q0 113 -36.5 161t-116.5 48q-165 0 -165 -209z" />
<glyph unicode="&#x154;" horiz-adv-x="630" d="M374 291l-25 -1h-205v-290h-36v700h241q208 0 208 -200q0 -178 -145 -205l158 -295h-41zM519 500q0 166 -170 166h-205v-342h205q170 0 170 176zM211 826l192 96l16 -31l-193 -92z" />
<glyph unicode="&#x155;" horiz-adv-x="354" d="M101 0v500h35v-78q88 66 188 88v-34q-39 -8 -86 -30t-74 -40l-28 -17v-389h-35zM93 636l192 96l16 -31l-193 -92z" />
<glyph unicode="&#x156;" horiz-adv-x="630" d="M374 291l-25 -1h-205v-290h-36v700h241q208 0 208 -200q0 -178 -145 -205l158 -295h-41zM519 500q0 166 -170 166h-205v-342h205q170 0 170 176zM278 -267l38 189h36l-46 -189h-28z" />
<glyph unicode="&#x157;" horiz-adv-x="354" d="M101 0v500h35v-78q88 66 188 88v-34q-39 -8 -86 -30t-74 -40l-28 -17v-389h-35zM140 -267l38 189h36l-46 -189h-28z" />
<glyph unicode="&#x158;" horiz-adv-x="630" d="M374 291l-25 -1h-205v-290h-36v700h241q208 0 208 -200q0 -178 -145 -205l158 -295h-41zM519 500q0 166 -170 166h-205v-342h205q170 0 170 176zM465 929l-134 -125h-30l-134 125h45l104 -96l103 96h46z" />
<glyph unicode="&#x159;" horiz-adv-x="354" d="M101 0v500h35v-78q88 66 188 88v-34q-39 -8 -86 -30t-74 -40l-28 -17v-389h-35zM183 600l-121 132h42l94 -99l93 99h42l-122 -132h-28z" />
<glyph unicode="&#x15a;" horiz-adv-x="536" d="M463 695l-4 -35q-132 17 -190 17q-85 0 -129 -36t-44 -104q0 -79 40.5 -110t142.5 -47q105 -17 152 -55.5t47 -121.5q0 -108 -51 -159t-156 -51q-33 0 -85.5 4t-87.5 8l-36 4l4 35q133 -17 204 -17q170 0 170 173q0 68 -38 98.5t-132 45.5q-113 17 -162.5 56t-49.5 135 q0 88 54.5 132t156.5 44zM164 826l192 96l16 -31l-193 -92z" />
<glyph unicode="&#x15b;" horiz-adv-x="483" d="M398 495l-2 -33q-97 15 -165 15q-129 0 -129 -100q0 -44 27.5 -65.5t109.5 -33.5q103 -16 140 -42t37 -92q0 -84 -47 -118.5t-138 -34.5l-160 15l4 33q103 -16 154 -16q76 0 113 25t37 93q0 51 -29 70t-121 34q-91 14 -127.5 40.5t-36.5 89.5q0 71 47.5 102.5t118.5 31.5 zM138 636l192 96l16 -31l-193 -92z" />
<glyph unicode="&#x15c;" horiz-adv-x="536" d="M463 695l-4 -35q-132 17 -190 17q-85 0 -129 -36t-44 -104q0 -79 40.5 -110t142.5 -47q105 -17 152 -55.5t47 -121.5q0 -108 -51 -159t-156 -51q-33 0 -85.5 4t-87.5 8l-36 4l4 35q133 -17 204 -17q170 0 170 173q0 68 -38 98.5t-132 45.5q-113 17 -162.5 56t-49.5 135 q0 88 54.5 132t156.5 44zM120 804l134 125h30l134 -125h-45l-104 96l-103 -96h-46z" />
<glyph unicode="&#x15d;" horiz-adv-x="483" d="M398 495l-2 -33q-97 15 -165 15q-129 0 -129 -100q0 -44 27.5 -65.5t109.5 -33.5q103 -16 140 -42t37 -92q0 -84 -47 -118.5t-138 -34.5l-160 15l4 33q103 -16 154 -16q76 0 113 25t37 93q0 51 -29 70t-121 34q-91 14 -127.5 40.5t-36.5 89.5q0 71 47.5 102.5t118.5 31.5 zM106 600l121 132h28l122 -132h-43l-92 100l-93 -100h-43z" />
<glyph unicode="&#x15e;" horiz-adv-x="536" d="M390 -127q0 -74 -82 -74l-81 4l2 28q44 -4 78 -4q48 0 48 46q0 42 -48 42h-54v78q-34 1 -82 5t-79 8l-30 3l4 35q133 -17 204 -17q170 0 170 173q0 68 -38 98.5t-132 45.5q-113 17 -162.5 56t-49.5 135q0 88 54.5 132t156.5 44l194 -16l-4 -35q-132 17 -190 17 q-85 0 -129 -36t-44 -104q0 -79 40.5 -110t142.5 -47q105 -17 152 -55.5t47 -121.5q0 -105 -47.5 -155.5t-144.5 -53.5v-51q56 0 80 -15t24 -55z" />
<glyph unicode="&#x15f;" horiz-adv-x="483" d="M351 -127q0 -74 -82 -74l-81 4l2 28q44 -4 78 -4q48 0 48 46q0 42 -48 42h-54v76q-59 3 -143 15l4 33q103 -16 154 -16q76 0 113 25t37 93q0 51 -29 70t-121 34q-91 14 -127.5 40.5t-36.5 89.5q0 71 47.5 102.5t118.5 31.5l167 -14l-2 -33q-97 15 -165 15 q-129 0 -129 -100q0 -44 27.5 -65.5t109.5 -33.5q103 -16 140 -42t37 -92q0 -80 -43 -115t-126 -38v-48q56 0 80 -15t24 -55z" />
<glyph unicode="&#x160;" horiz-adv-x="536" d="M463 695l-4 -35q-132 17 -190 17q-85 0 -129 -36t-44 -104q0 -79 40.5 -110t142.5 -47q105 -17 152 -55.5t47 -121.5q0 -108 -51 -159t-156 -51q-33 0 -85.5 4t-87.5 8l-36 4l4 35q133 -17 204 -17q170 0 170 173q0 68 -38 98.5t-132 45.5q-113 17 -162.5 56t-49.5 135 q0 88 54.5 132t156.5 44zM425 934l-134 -125h-30l-134 125h45l104 -96l103 96h46z" />
<glyph unicode="&#x161;" horiz-adv-x="483" d="M398 495l-2 -33q-97 15 -165 15q-129 0 -129 -100q0 -44 27.5 -65.5t109.5 -33.5q103 -16 140 -42t37 -92q0 -84 -47 -118.5t-138 -34.5l-160 15l4 33q103 -16 154 -16q76 0 113 25t37 93q0 51 -29 70t-121 34q-91 14 -127.5 40.5t-36.5 89.5q0 71 47.5 102.5t118.5 31.5 zM232 600l-121 132h42l94 -99l93 99h42l-122 -132h-28z" />
<glyph unicode="&#x162;" horiz-adv-x="500" d="M9 666v34h481v-34h-221v-666h-36v666h-224zM213 -267l38 189h36l-46 -189h-28z" />
<glyph unicode="&#x163;" horiz-adv-x="372" d="M321 468h-172v-262q0 -109 17 -146.5t75 -37.5l88 7l3 -32q-56 -7 -91 -7q-69 0 -98 39.5t-29 138.5v300h-79v32h79v163h35v-163h172v-32zM149 -267l38 189h36l-46 -189h-28z" />
<glyph unicode="&#x164;" horiz-adv-x="500" d="M9 666v34h481v-34h-221v-666h-36v666h-224zM400 929l-134 -125h-30l-134 125h45l104 -96l103 96h46z" />
<glyph unicode="&#x165;" horiz-adv-x="542" d="M321 468h-172v-262q0 -109 17 -146.5t75 -37.5l88 7l3 -32q-56 -7 -91 -7q-69 0 -98 39.5t-29 138.5v300h-79v32h79v163h35v-163h172v-32zM456 700v-217h-34v217h34z" />
<glyph unicode="&#x166;" horiz-adv-x="500" d="M57 332v32h176v302h-224v34h481v-34h-221v-302h188v-32h-188v-332h-36v332h-176z" />
<glyph unicode="&#x167;" horiz-adv-x="372" d="M53 292v32h61v144h-79v32h79v163h35v-163h172v-32h-172v-144h171v-32h-171v-86q0 -109 17 -146.5t75 -37.5l88 7l3 -32q-56 -7 -91 -7q-69 0 -98 39.5t-29 138.5v124h-61z" />
<glyph unicode="&#x168;" horiz-adv-x="642" d="M127 196q0 -85 49.5 -128t139.5 -43q199 0 199 171v504h36v-504q0 -205 -235 -205q-108 0 -166.5 51t-58.5 154v504h36v-504zM482 903l11 -28q-52 -55 -83 -55q-23 0 -83.5 32t-75.5 32q-9 0 -29 -14t-36 -28l-15 -13l-10 29q57 57 90 57q23 0 83.5 -31.5t75.5 -31.5 q8 0 26 13t32 25z" />
<glyph unicode="&#x169;" horiz-adv-x="557" d="M421 500h35v-500h-35v40q-78 -49 -154 -49q-99 0 -131.5 53t-32.5 196v260h35v-258q0 -126 24.5 -172.5t104.5 -46.5q35 0 73.5 12.5t59.5 24.5l21 13v427zM420 703l9 -30q-42 -43 -73 -43q-21 0 -76.5 27t-70.5 27q-21 0 -70 -45l-10 29q49 47 82 47q21 0 76.5 -26.5 t70.5 -26.5q18 0 62 41z" />
<glyph unicode="&#x16a;" horiz-adv-x="642" d="M127 196q0 -85 49.5 -128t139.5 -43q199 0 199 171v504h36v-504q0 -205 -235 -205q-108 0 -166.5 51t-58.5 154v504h36v-504zM177 842v32h287v-32h-287z" />
<glyph unicode="&#x16b;" horiz-adv-x="557" d="M421 500h35v-500h-35v40q-78 -49 -154 -49q-99 0 -131.5 53t-32.5 196v260h35v-258q0 -126 24.5 -172.5t104.5 -46.5q35 0 73.5 12.5t59.5 24.5l21 13v427zM145 642v32h267v-32h-267z" />
<glyph unicode="&#x16c;" horiz-adv-x="642" d="M127 196q0 -85 49.5 -128t139.5 -43q199 0 199 171v504h36v-504q0 -205 -235 -205q-108 0 -166.5 51t-58.5 154v504h36v-504zM183 923h35q0 -40 30 -63.5t73 -23.5t73 23.5t30 63.5h35q0 -54 -40 -86.5t-98 -32.5t-98 32.5t-40 86.5z" />
<glyph unicode="&#x16d;" horiz-adv-x="557" d="M421 500h35v-500h-35v40q-78 -49 -154 -49q-99 0 -131.5 53t-32.5 196v260h35v-258q0 -126 24.5 -172.5t104.5 -46.5q35 0 73.5 12.5t59.5 24.5l21 13v427zM140 723h35q0 -42 27.5 -69t75.5 -27t75.5 27t27.5 69h35q0 -56 -38 -92t-100 -36t-100 36t-38 92z" />
<glyph unicode="&#x16e;" horiz-adv-x="642" d="M127 196q0 -85 49.5 -128t139.5 -43q199 0 199 171v504h36v-504q0 -205 -235 -205q-108 0 -166.5 51t-58.5 154v504h36v-504zM418 850q0 -43 -26.5 -67.5t-70.5 -24.5t-70.5 24.5t-26.5 67.5t26.5 67.5t70.5 24.5t70.5 -24.5t26.5 -67.5zM257 850q0 -30 17 -46t47 -16 t47 16t17 46t-17 46t-47 16t-47 -16t-17 -46z" />
<glyph unicode="&#x16f;" horiz-adv-x="557" d="M421 500h35v-500h-35v40q-78 -49 -154 -49q-99 0 -131.5 53t-32.5 196v260h35v-258q0 -126 24.5 -172.5t104.5 -46.5q35 0 73.5 12.5t59.5 24.5l21 13v427zM191 650q0 40 28 67.5t68 27.5t67 -27.5t27 -67.5t-27 -67.5t-67 -27.5q-41 0 -68.5 27.5t-27.5 67.5zM225 650 q0 -26 18 -45t44 -19q25 0 43 19t18 45t-18 44.5t-43 18.5q-26 0 -44 -18.5t-18 -44.5z" />
<glyph unicode="&#x170;" horiz-adv-x="642" d="M127 196q0 -85 49.5 -128t139.5 -43q199 0 199 171v504h36v-504q0 -205 -235 -205q-108 0 -166.5 51t-58.5 154v504h36v-504zM348 791l191 87l15 -29l-192 -88zM157 791l192 88l14 -30l-191 -87z" />
<glyph unicode="&#x171;" horiz-adv-x="557" d="M421 500h35v-500h-35v40q-78 -49 -154 -49q-99 0 -131.5 53t-32.5 196v260h35v-258q0 -126 24.5 -172.5t104.5 -46.5q35 0 73.5 12.5t59.5 24.5l21 13v427zM321 622l163 104l18 -27l-163 -104zM136 622l163 104l18 -27l-163 -104z" />
<glyph unicode="&#x172;" horiz-adv-x="642" d="M427 -159l4 -33q-36 -8 -64 -8q-35 0 -57.5 22t-22.5 60q0 41 70 111q-26 -2 -41 -2q-108 0 -166.5 51t-58.5 154v504h36v-504q0 -85 49.5 -128t139.5 -43q199 0 199 171v504h36v-504q0 -160 -147 -196q-7 -7 -22.5 -24.5t-36.5 -47.5t-21 -44q0 -21 13 -35.5t34 -14.5z " />
<glyph unicode="&#x173;" horiz-adv-x="557" d="M479 -159l4 -33q-36 -8 -64 -8q-35 0 -57.5 22t-22.5 60q0 41 82 123v35q-78 -49 -154 -49q-99 0 -131.5 53t-32.5 196v260h35v-258q0 -126 24.5 -172.5t104.5 -46.5q35 0 73.5 12.5t59.5 24.5l21 13v427h35v-499h1q-81 -85 -81 -117q0 -21 13 -35.5t34 -14.5z" />
<glyph unicode="&#x174;" horiz-adv-x="872" d="M50 700h35l143 -666h38l150 656h40l155 -656h38l138 666h35l-144 -700h-96l-146 643l-141 -643h-96zM287 804l134 125h30l134 -125h-45l-104 96l-103 -96h-46z" />
<glyph unicode="&#x175;" horiz-adv-x="761" d="M42 500h37l123 -468h23l136 458h39l136 -458h22l124 468h37l-133 -500h-78l-128 448l-129 -448h-78zM245 600l121 132h28l122 -132h-43l-92 100l-93 -100h-43z" />
<glyph unicode="&#x176;" horiz-adv-x="540" d="M289 301v-301h-36v301l-223 399h41l200 -359l197 359h42zM122 804l134 125h30l134 -125h-45l-104 96l-103 -96h-46z" />
<glyph unicode="&#x177;" horiz-adv-x="480" d="M39 500h37l141 -468h44l143 468h37l-225 -730h-37l73 230h-63zM105 600l121 132h28l122 -132h-43l-92 100l-93 -100h-43z" />
<glyph unicode="&#x178;" horiz-adv-x="540" d="M289 301v-301h-36v301l-223 399h41l200 -359l197 359h42zM160 837v62h35v-62h-35zM356 837v62h35v-62h-35z" />
<glyph unicode="&#x179;" horiz-adv-x="570" d="M65 666v34h440v-70l-403 -575v-22h403v-34h-440v69l403 574v24h-403zM181 826l192 96l16 -31l-193 -92z" />
<glyph unicode="&#x17a;" horiz-adv-x="481" d="M60 468v32h360l2 -32l-320 -436h320v-32h-360l-2 32l320 436h-320zM147 636l192 96l16 -31l-193 -92z" />
<glyph unicode="&#x17b;" horiz-adv-x="570" d="M65 666v34h440v-70l-403 -575v-22h403v-34h-440v69l403 574v24h-403zM267 845v55h35v-55h-35z" />
<glyph unicode="&#x17c;" horiz-adv-x="481" d="M60 468v32h360l2 -32l-320 -436h320v-32h-360l-2 32l320 436h-320zM223 645v55h35v-55h-35z" />
<glyph unicode="&#x17d;" horiz-adv-x="570" d="M65 666v34h440v-70l-403 -575v-22h403v-34h-440v69l403 574v24h-403zM445 928l-134 -125h-30l-134 125h45l104 -96l103 96h46z" />
<glyph unicode="&#x17e;" horiz-adv-x="481" d="M60 468v32h360l2 -32l-320 -436h320v-32h-360l-2 32l320 436h-320zM216 600l-121 132h42l94 -99l93 99h42l-122 -132h-28z" />
<glyph unicode="&#x192;" d="M269 -66q0 -97 -31.5 -138t-95.5 -41l-62 5l2 31q32 -3 60 -3q45 0 68.5 33.5t23.5 112.5v418h-119v32h119v74q0 121 29.5 168t97.5 47l113 -5l-2 -31q-81 3 -111 3q-92 0 -92 -146v-110h182v-32h-182v-418z" />
<glyph unicode="&#x1fa;" horiz-adv-x="604" d="M397 760q0 -54 -41 -78l209 -682h-36l-68 215h-318l-67 -215h-36l208 679q-45 23 -45 81q0 43 26.5 67.5t70.5 24.5t70.5 -24.5t26.5 -67.5zM280 666l-127 -417h298l-127 417h-44zM236 760q0 -51 44 -60h39q45 10 45 60q0 30 -17 46t-47 16t-47 -16t-17 -46zM198 916 l192 96l16 -31l-193 -92z" />
<glyph unicode="&#x1fb;" horiz-adv-x="518" d="M418 353v-287q20 -37 75 -42l-2 -32q-65 0 -99 42q-92 -43 -195 -43q-59 0 -95.5 40.5t-36.5 105.5q0 131 143 146l175 18v52q0 64 -27.5 93t-83.5 29q-32 0 -77 -4t-73 -8l-29 -4l-3 33q102 17 182 17q146 0 146 -156zM383 268l-171 -16q-110 -10 -110 -115 q0 -48 27.5 -81t68.5 -33q44 0 90 10t70 20l25 10v205zM164 650q0 40 28 67.5t68 27.5t67 -27.5t27 -67.5t-27 -67.5t-67 -27.5q-41 0 -68.5 27.5t-27.5 67.5zM198 650q0 -26 18 -45t44 -19q25 0 43 19t18 45t-18 44.5t-43 18.5q-26 0 -44 -18.5t-18 -44.5zM155 806l192 96 l16 -31l-193 -92z" />
<glyph unicode="&#x1fc;" horiz-adv-x="847" d="M383 0v215h-255l-67 -215h-36l215 700h542v-34h-363v-289h303v-34h-303v-309h363v-34h-399zM265 666l-127 -417h245v417h-118zM319 826l192 96l16 -31l-193 -92z" />
<glyph unicode="&#x1fd;" horiz-adv-x="828" d="M570 23l182 9l2 -32q-112 -9 -185 -9q-98 0 -143 58l-38 -16q-93 -42 -206 -42q-127 0 -127 146q0 80 39 107.5t146 41.5l143 15v52q0 64 -27.5 93t-83.5 29l-188 -9l-2 33q110 10 190 10q115 0 139 -96q49 96 172 96q95 0 142.5 -57t47.5 -183v-33h-355 q0 -108 34 -160.5t118 -52.5zM183 23q42 0 97 12t84.5 22t46.5 17q-30 59 -30 194l-184 -18q-55 -5 -80 -32t-25 -81q0 -55 24 -84.5t67 -29.5zM418 268h318q0 113 -36.5 161t-116.5 48q-165 0 -165 -209zM320 636l192 96l16 -31l-193 -92z" />
<glyph unicode="&#x1fe;" horiz-adv-x="656" d="M220 826l192 96l16 -31l-193 -92zM328 25q127 0 176 73t49 249q0 168 -51.5 248t-173.5 80q-124 0 -174.5 -79t-50.5 -249q0 -171 49.5 -246.5t175.5 -75.5zM328 -9q-144 0 -203.5 85t-59.5 271q0 184 60.5 273t202.5 89t202.5 -88.5t60.5 -273.5q0 -191 -59 -273.5 t-204 -82.5z" />
<glyph unicode="&#x1ff;" horiz-adv-x="526" d="M265 509q46 0 83 -14l45 110l30 -11l-47 -113q85 -53 85 -222q0 -140 -42.5 -204t-153.5 -64q-49 0 -85 11l-47 -116l-30 10l48 118q-47 25 -66.5 84t-19.5 163q0 133 45 190.5t155 57.5zM102 261q0 -90 13.5 -141t50.5 -74l170 418q-32 13 -71 13q-90 0 -126.5 -48.5 t-36.5 -167.5zM265 23q96 0 127.5 56t31.5 180q0 141 -61 189l-171 -415q29 -10 73 -10zM159 636l192 96l16 -31l-193 -92z" />
<glyph unicode="&#x218;" horiz-adv-x="536" d="M463 695l-4 -35q-132 17 -190 17q-85 0 -129 -36t-44 -104q0 -79 40.5 -110t142.5 -47q105 -17 152 -55.5t47 -121.5q0 -108 -51 -159t-156 -51q-33 0 -85.5 4t-87.5 8l-36 4l4 35q133 -17 204 -17q170 0 170 173q0 68 -38 98.5t-132 45.5q-113 17 -162.5 56t-49.5 135 q0 88 54.5 132t156.5 44zM231 -267l38 189h36l-46 -189h-28z" />
<glyph unicode="&#x219;" horiz-adv-x="483" d="M398 495l-2 -33q-97 15 -165 15q-129 0 -129 -100q0 -44 27.5 -65.5t109.5 -33.5q103 -16 140 -42t37 -92q0 -84 -47 -118.5t-138 -34.5l-160 15l4 33q103 -16 154 -16q76 0 113 25t37 93q0 51 -29 70t-121 34q-91 14 -127.5 40.5t-36.5 89.5q0 71 47.5 102.5t118.5 31.5 zM204 -267l38 189h36l-46 -189h-28z" />
<glyph unicode="&#x237;" horiz-adv-x="233" d="M108 6v494h35v-495q0 -85 -29 -127.5t-120 -95.5l-14 31q79 47 103.5 83.5t24.5 109.5z" />
<glyph unicode="&#x2c6;" horiz-adv-x="833" d="M275 600l121 132h28l122 -132h-43l-92 100l-93 -100h-43z" />
<glyph unicode="&#x2c7;" horiz-adv-x="833" d="M396 600l-121 132h42l94 -99l93 99h42l-122 -132h-28z" />
<glyph unicode="&#x2d8;" horiz-adv-x="446" d="M85 723h35q0 -42 27.5 -69t75.5 -27t75.5 27t27.5 69h35q0 -56 -38 -92t-100 -36t-100 36t-38 92z" />
<glyph unicode="&#x2d9;" horiz-adv-x="215" d="M90 645v55h35v-55h-35z" />
<glyph unicode="&#x2da;" horiz-adv-x="833" d="M173 650q0 40 28 67.5t68 27.5t67 -27.5t27 -67.5t-27 -67.5t-67 -27.5q-41 0 -68.5 27.5t-27.5 67.5zM207 650q0 -26 18 -45t44 -19q25 0 43 19t18 45t-18 44.5t-43 18.5q-26 0 -44 -18.5t-18 -44.5z" />
<glyph unicode="&#x2db;" horiz-adv-x="434" d="M308 -159l4 -33q-36 -8 -64 -8q-35 0 -57.5 22t-22.5 60q0 20 21 51t41 52l21 21l35 -5q-81 -85 -81 -117q0 -21 13 -35.5t34 -14.5z" />
<glyph unicode="&#x2dc;" horiz-adv-x="436" d="M373 703l9 -30q-42 -43 -73 -43q-21 0 -76.5 27t-70.5 27q-21 0 -70 -45l-10 29q49 47 82 47q21 0 76.5 -26.5t70.5 -26.5q18 0 62 41z" />
<glyph unicode="&#x2dd;" horiz-adv-x="685" d="M334 622l163 104l18 -27l-163 -104zM149 622l163 104l18 -27l-163 -104z" />
<glyph unicode="&#x300;" horiz-adv-x="545" d="M166 732l192 -96l-15 -27l-193 92z" />
<glyph unicode="&#x301;" horiz-adv-x="833" d="M150 636l192 96l16 -31l-193 -92z" />
<glyph unicode="&#x302;" horiz-adv-x="833" d="M275 600l121 132h28l122 -132h-43l-92 100l-93 -100h-43z" />
<glyph unicode="&#x303;" horiz-adv-x="474" d="M373 703l9 -30q-42 -43 -73 -43q-21 0 -76.5 27t-70.5 27q-21 0 -70 -45l-10 29q49 47 82 47q21 0 76.5 -26.5t70.5 -26.5q18 0 62 41z" />
<glyph unicode="&#x304;" horiz-adv-x="446" d="M90 642v32h267v-32h-267z" />
<glyph unicode="&#x306;" horiz-adv-x="446" d="M85 723h35q0 -42 27.5 -69t75.5 -27t75.5 27t27.5 69h35q0 -56 -38 -92t-100 -36t-100 36t-38 92z" />
<glyph unicode="&#x307;" horiz-adv-x="215" d="M90 645v55h35v-55h-35z" />
<glyph unicode="&#x308;" horiz-adv-x="833" d="M112 638v62h35v-62h-35zM302 638v62h35v-62h-35z" />
<glyph unicode="&#x30a;" horiz-adv-x="833" d="M173 650q0 40 28 67.5t68 27.5t67 -27.5t27 -67.5t-27 -67.5t-67 -27.5q-41 0 -68.5 27.5t-27.5 67.5zM207 650q0 -26 18 -45t44 -19q25 0 43 19t18 45t-18 44.5t-43 18.5q-26 0 -44 -18.5t-18 -44.5z" />
<glyph unicode="&#x30b;" horiz-adv-x="685" d="M334 622l163 104l18 -27l-163 -104zM149 622l163 104l18 -27l-163 -104z" />
<glyph unicode="&#x30c;" horiz-adv-x="833" d="M396 600l-121 132h42l94 -99l93 99h42l-122 -132h-28z" />
<glyph unicode="&#x312;" horiz-adv-x="170" d="M116 782l-38 -189h-36l46 189h28z" />
<glyph unicode="&#x315;" horiz-adv-x="135" d="M84 700v-217h-34v217h34z" />
<glyph unicode="&#x326;" horiz-adv-x="170" d="M42 -267l38 189h36l-46 -189h-28z" />
<glyph unicode="&#x327;" horiz-adv-x="394" d="M334 -127q0 -74 -82 -74l-81 4l2 28q44 -4 78 -4q48 0 48 46q0 42 -48 42h-54v86h33v-58q56 0 80 -15t24 -55z" />
<glyph unicode="&#x328;" horiz-adv-x="434" d="M308 -159l4 -33q-36 -8 -64 -8q-35 0 -57.5 22t-22.5 60q0 20 21 51t41 52l21 21l35 -5q-81 -85 -81 -117q0 -21 13 -35.5t34 -14.5z" />
<glyph unicode="&#x394;" d="M47 26l182 634h76l182 -634l1 -26h-441v26zM279 626h-25l-167 -592h359z" />
<glyph unicode="&#x2206;" d="M47 26l182 634h76l182 -634l1 -26h-441v26zM279 626h-25l-167 -592h359z" />
<glyph unicode="&#x3a9;" d="M26 20h151l-13 21.5t-29 55t-37 81.5t-29 93.5t-13 98.5q0 157 43 228.5t166 71.5t165.5 -71.5t42.5 -228.5q0 -71 -30.5 -158.5t-60.5 -139.5l-30 -52h152v-29h-189v19q5 8 13 23t29 58t37 84t29 93t13 92q0 148 -33 210t-138 62q-45 0 -76 -11.5t-49.5 -31.5t-28.5 -56 t-13.5 -75t-3.5 -98q0 -64 30 -151.5t60 -142.5l31 -56v-19h-189v29z" />
<glyph unicode="&#x2126;" d="M26 20h151l-13 21.5t-29 55t-37 81.5t-29 93.5t-13 98.5q0 157 43 228.5t166 71.5t165.5 -71.5t42.5 -228.5q0 -71 -30.5 -158.5t-60.5 -139.5l-30 -52h152v-29h-189v19q5 8 13 23t29 58t37 84t29 93t13 92q0 148 -33 210t-138 62q-45 0 -76 -11.5t-49.5 -31.5t-28.5 -56 t-13.5 -75t-3.5 -98q0 -64 30 -151.5t60 -142.5l31 -56v-19h-189v29z" />
<glyph unicode="&#x3c0;" d="M375 154v311h-204l-29 -465h-35l29 465q-95 -2 -132 -13v35q25 5 62.5 8t62.5 4l25 1h216q95 0 144 16v-35q-34 -12 -104 -15v-312q0 -75 20 -97.5t79 -22.5v-34q-77 0 -105.5 31.5t-28.5 122.5z" />
<glyph unicode="&#x1e80;" horiz-adv-x="872" d="M50 700h35l143 -666h38l150 656h40l155 -656h38l138 666h35l-144 -700h-96l-146 643l-141 -643h-96zM338 922l192 -96l-15 -27l-193 92z" />
<glyph unicode="&#x1e81;" horiz-adv-x="761" d="M42 500h37l123 -468h23l136 458h39l136 -458h22l124 468h37l-133 -500h-78l-128 448l-129 -448h-78zM292 732l192 -96l-15 -27l-193 92z" />
<glyph unicode="&#x1e82;" horiz-adv-x="872" d="M50 700h35l143 -666h38l150 656h40l155 -656h38l138 666h35l-144 -700h-96l-146 643l-141 -643h-96zM342 826l192 96l16 -31l-193 -92z" />
<glyph unicode="&#x1e83;" horiz-adv-x="761" d="M42 500h37l123 -468h23l136 458h39l136 -458h22l124 468h37l-133 -500h-78l-128 448l-129 -448h-78zM276 636l192 96l16 -31l-193 -92z" />
<glyph unicode="&#x1e84;" horiz-adv-x="872" d="M50 700h35l143 -666h38l150 656h40l155 -656h38l138 666h35l-144 -700h-96l-146 643l-141 -643h-96zM320 838v62h35v-62h-35zM516 838v62h35v-62h-35z" />
<glyph unicode="&#x1e85;" horiz-adv-x="761" d="M42 500h37l123 -468h23l136 458h39l136 -458h22l124 468h37l-133 -500h-78l-128 448l-129 -448h-78zM268 638v62h35v-62h-35zM458 638v62h35v-62h-35z" />
<glyph unicode="&#x1eab;" horiz-adv-x="536" d="M418 353v-287q20 -37 75 -42l-2 -32q-65 0 -99 42q-92 -43 -195 -43q-59 0 -95.5 40.5t-36.5 105.5q0 131 143 146l175 18v52q0 64 -27.5 93t-83.5 29q-32 0 -77 -4t-73 -8l-29 -4l-3 33q102 17 182 17q146 0 146 -156zM383 268l-171 -16q-110 -10 -110 -115 q0 -48 27.5 -81t68.5 -33q44 0 90 10t70 20l25 10v205zM128 570l121 132h28l122 -132h-43l-92 100l-93 -100h-43zM409 803l9 -30q-42 -43 -73 -43q-21 0 -76.5 27t-70.5 27q-21 0 -70 -45l-10 29q49 47 82 47q21 0 76.5 -26.5t70.5 -26.5q18 0 62 41z" />
<glyph unicode="&#x1eb0;" horiz-adv-x="604" d="M40 0l215 700h96l214 -700h-36l-68 215h-318l-67 -215h-36zM280 666l-127 -417h298l-127 417h-44zM164 894h35q0 -40 30 -63.5t73 -23.5t73 23.5t30 63.5h35q0 -54 -40 -86.5t-98 -32.5t-98 32.5t-40 86.5zM214 1062l192 -96l-15 -27l-193 92z" />
<glyph unicode="&#x1ec5;" horiz-adv-x="507" d="M249 23q31 0 75.5 2.5t73.5 4.5l28 2l2 -32q-107 -9 -180 -9q-184 0 -184 259q0 134 53.5 196.5t144.5 62.5q185 0 185 -240v-33h-346q0 -213 148 -213zM101 268h309q0 111 -37.5 160t-110.5 49t-117 -50.5t-44 -158.5zM120 570l121 132h28l122 -132h-43l-92 100 l-93 -100h-43zM389 803l9 -30q-42 -43 -73 -43q-21 0 -76.5 27t-70.5 27q-21 0 -70 -45l-10 29q49 47 82 47q21 0 76.5 -26.5t70.5 -26.5q18 0 62 41z" />
<glyph unicode="&#x1ed7;" horiz-adv-x="536" d="M265 509q101 0 148.5 -60.5t47.5 -189.5q0 -140 -42.5 -204t-153.5 -64q-115 0 -157.5 61t-42.5 209q0 133 45 190.5t155 57.5zM265 23q96 0 127.5 56t31.5 180q0 113 -38 165.5t-121 52.5q-90 0 -126.5 -48.5t-36.5 -167.5q0 -130 32.5 -184t130.5 -54zM128 570l121 132 h28l122 -132h-43l-92 100l-93 -100h-43zM409 803l9 -30q-42 -43 -73 -43q-21 0 -76.5 27t-70.5 27q-21 0 -70 -45l-10 29q49 47 82 47q21 0 76.5 -26.5t70.5 -26.5q18 0 62 41z" />
<glyph unicode="&#x1ef2;" horiz-adv-x="540" d="M289 301v-301h-36v301l-223 399h41l200 -359l197 359h42zM182 922l192 -96l-15 -27l-193 92z" />
<glyph unicode="&#x1ef3;" horiz-adv-x="480" d="M39 500h37l141 -468h44l143 468h37l-225 -730h-37l73 230h-63zM151 732l192 -96l-15 -27l-193 92z" />
<glyph unicode="&#x1ef8;" horiz-adv-x="540" d="M289 301v-301h-36v301l-223 399h41l200 -359l197 359h42zM411 903l9 -30q-42 -43 -73 -43q-21 0 -76.5 27t-70.5 27q-21 0 -70 -45l-10 29q49 47 82 47q21 0 76.5 -26.5t70.5 -26.5q18 0 62 41z" />
<glyph unicode="&#x1ef9;" horiz-adv-x="480" d="M39 500h37l141 -468h44l143 468h37l-225 -730h-37l73 230h-63zM381 703l9 -30q-42 -43 -73 -43q-21 0 -76.5 27t-70.5 27q-21 0 -70 -45l-10 29q49 47 82 47q21 0 76.5 -26.5t70.5 -26.5q18 0 62 41z" />
<glyph unicode="&#x2013;" horiz-adv-x="500" d="M0 286h500v-34h-500v34z" />
<glyph unicode="&#x2014;" horiz-adv-x="1000" d="M0 286h1000v-34h-1000v34z" />
<glyph unicode="&#x2018;" horiz-adv-x="170" d="M114 727l-40 -200h-38l49 200h29z" />
<glyph unicode="&#x2019;" horiz-adv-x="170" d="M55 527l40 200h38l-49 -200h-29z" />
<glyph unicode="&#x201a;" horiz-adv-x="170" d="M55 -85l40 200h38l-49 -200h-29z" />
<glyph unicode="&#x201c;" horiz-adv-x="340" d="M136 725l-40 -200h-38l49 200h29zM280 725l-40 -200h-38l49 200h29z" />
<glyph unicode="&#x201d;" horiz-adv-x="300" d="M58 525l40 200h38l-49 -200h-29zM202 525l40 200h38l-49 -200h-29z" />
<glyph unicode="&#x201e;" horiz-adv-x="300" d="M58 -85l40 200h38l-49 -200h-29zM202 -85l40 200h38l-49 -200h-29z" />
<glyph unicode="&#x2020;" d="M64 464v34h183v202h35v-202h183v-34h-183v-543h-35v543h-183z" />
<glyph unicode="&#x2021;" d="M247 -79v202h-183v32h183v309h-183v34h183v202h35v-202h183v-34h-183v-309h183v-32h-183v-202h-35z" />
<glyph unicode="&#x2022;" d="M140 110v290h250v-290h-250z" />
<glyph unicode="&#x2026;" horiz-adv-x="744" d="M107 0v80h40v-80h-40zM361 0v80h40v-80h-40zM615 0v80h40v-80h-40z" />
<glyph unicode="&#x2030;" horiz-adv-x="833" d="M131 669q-36 0 -52 -25t-16 -76q0 -107 68 -107t68 106q0 52 -15.5 77t-52.5 25zM165 8l184 693l33 -8l-185 -692zM28 568q0 133 103 133t103 -134q0 -69 -28 -103.5t-75 -34.5q-48 0 -75.5 34.5t-27.5 104.5zM307 139q0 133 103 133t103 -134q0 -69 -28 -103.5 t-75 -34.5q-48 0 -75.5 34.5t-27.5 104.5zM342 139q0 -107 68 -107t68 106q0 52 -15.5 77t-52.5 25q-36 0 -52 -25t-16 -76zM565 139q0 133 103 133t103 -134q0 -69 -28 -103.5t-75 -34.5q-48 0 -75.5 34.5t-27.5 104.5zM600 139q0 -107 68 -107t68 106q0 52 -15.5 77 t-52.5 25q-36 0 -52 -25t-16 -76z" />
<glyph unicode="&#x2039;" horiz-adv-x="272" d="M212 360l-135 -106l135 -117v-41l-167 138v36l167 129v-39z" />
<glyph unicode="&#x203a;" horiz-adv-x="272" d="M195 254l-135 106v39l167 -129v-36l-167 -138v41z" />
<glyph unicode="&#x2070;" horiz-adv-x="265" d="M134 799q55 0 84 -38t29 -126q0 -166 -112 -166q-113 0 -113 167q0 163 112 163zM134 765q-39 0 -57 -31t-18 -99q0 -71 19 -101.5t57 -30.5t56.5 30.5t18.5 102.5q0 67 -18 98t-58 31z" />
<glyph unicode="&#x2074;" horiz-adv-x="265" d="M164 478v57h-146v32l89 223h38l-87 -221h106v87h36v-87h37v-34h-37v-57h-36z" />
<glyph unicode="&#x2075;" horiz-adv-x="265" d="M50 790h174v-35h-140l-7 -102q22 22 65 22t69.5 -23.5t26.5 -75.5t-28.5 -79.5t-72.5 -27.5q-20 0 -44.5 3t-39.5 6l-15 3l3 35q53 -12 96 -12q27 0 44.5 18.5t17.5 53.5q0 64 -57 64q-40 0 -70 -22l-31 2z" />
<glyph unicode="&#x2076;" horiz-adv-x="265" d="M225 790l-2 -32q-40 7 -78 7q-40 0 -59 -24t-20 -80l10 5q11 4 29.5 9t33.5 5q102 0 102 -101q0 -51 -28 -80.5t-77 -29.5q-109 0 -109 166q0 89 30 126.5t88 37.5zM138 646q-17 0 -35 -5.5t-28 -10.5t-10 -6q1 -60 17 -90.5t54 -30.5q67 0 67 76q0 37 -14.5 52t-50.5 15 z" />
<glyph unicode="&#x2077;" horiz-adv-x="265" d="M30 756v34h194v-61l-112 -259l-36 8l110 253v25h-156z" />
<glyph unicode="&#x2078;" horiz-adv-x="265" d="M132 799q108 0 108 -82q0 -33 -11.5 -49t-43.5 -26q31 -9 45.5 -26.5t14.5 -52.5q0 -52 -29.5 -73t-83.5 -21q-113 0 -113 88q0 38 14 55t47 30q-30 11 -43 27.5t-13 47.5q0 82 108 82zM132 503q75 0 75 59q0 28 -12.5 40.5t-44.5 20.5h-36q-31 -8 -44 -21.5t-13 -43.5 q0 -55 75 -55zM132 765q-70 0 -70 -48q0 -25 11 -36.5t41 -20.5h36q30 8 41 19.5t11 36.5t-16 37t-54 12z" />
<glyph unicode="&#x2079;" horiz-adv-x="265" d="M37 479l3 31q42 -7 79 -7q83 0 84 103q-43 -17 -79 -17q-46 0 -73.5 28.5t-27.5 76.5q0 49 30 77t77 28q109 0 109 -168q0 -90 -29 -126t-91 -36zM125 623l78 21q-2 60 -18.5 90.5t-54.5 30.5q-32 0 -50.5 -18t-18.5 -52q0 -32 16.5 -52t47.5 -20z" />
<glyph unicode="&#x2080;" horiz-adv-x="265" d="M134 321q55 0 84 -38t29 -126q0 -166 -112 -166q-113 0 -113 167q0 163 112 163zM134 287q-39 0 -57 -31t-18 -99q0 -71 19 -101.5t57 -30.5t56.5 30.5t18.5 102.5q0 67 -18 98t-58 31z" />
<glyph unicode="&#x2081;" horiz-adv-x="265" d="M39 245l99 67h36v-312h-36v273l-82 -56z" />
<glyph unicode="&#x2082;" horiz-adv-x="265" d="M223 0h-195v34l98 104q18 19 27.5 31t18 30.5t8.5 37.5q0 50 -57 50l-90 -12l-2 33q51 13 93 13q92 0 92 -85q0 -32 -15.5 -59t-49.5 -62l-76 -81h148v-34z" />
<glyph unicode="&#x2083;" horiz-adv-x="265" d="M33 310q53 11 98 11q49 0 72.5 -19t23.5 -61q0 -26 -12 -45t-20.5 -24.5t-15.5 -8.5q30 -9 43.5 -24.5t13.5 -54.5q0 -93 -100 -93l-107 11l3 32q54 -9 104 -9q63 0 63 58q0 61 -60 61h-65v34h65q18 0 34.5 19t16.5 44q0 23 -13 34.5t-45 11.5q-20 0 -44 -2.5t-38 -4.5 l-14 -2z" />
<glyph unicode="&#x2084;" horiz-adv-x="265" d="M164 0v57h-146v32l89 223h38l-87 -221h106v87h36v-87h37v-34h-37v-57h-36z" />
<glyph unicode="&#x2085;" horiz-adv-x="265" d="M50 312h174v-35h-140l-7 -102q22 22 65 22t69.5 -23.5t26.5 -75.5t-28.5 -79.5t-72.5 -27.5q-20 0 -44.5 3t-39.5 6l-15 3l3 35q53 -12 96 -12q27 0 44.5 18.5t17.5 53.5q0 64 -57 64q-40 0 -70 -22l-31 2z" />
<glyph unicode="&#x2086;" horiz-adv-x="265" d="M225 312l-2 -32q-40 7 -78 7q-40 0 -59 -24t-20 -80l10 5q11 4 29.5 9t33.5 5q102 0 102 -101q0 -51 -28 -80.5t-77 -29.5q-109 0 -109 166q0 89 30 126.5t88 37.5zM138 168q-17 0 -35 -5.5t-28 -10.5t-10 -6q1 -60 17 -90.5t54 -30.5q67 0 67 76q0 37 -14.5 52t-50.5 15 z" />
<glyph unicode="&#x2087;" horiz-adv-x="265" d="M30 278v34h194v-61l-112 -259l-36 8l110 253v25h-156z" />
<glyph unicode="&#x2088;" horiz-adv-x="265" d="M132 321q108 0 108 -82q0 -33 -11.5 -49t-43.5 -26q31 -9 45.5 -26.5t14.5 -52.5q0 -52 -29.5 -73t-83.5 -21q-113 0 -113 88q0 38 14 55t47 30q-30 11 -43 27.5t-13 47.5q0 82 108 82zM132 25q75 0 75 59q0 28 -12.5 40.5t-44.5 20.5h-36q-31 -8 -44 -21.5t-13 -43.5 q0 -55 75 -55zM132 287q-70 0 -70 -48q0 -25 11 -36.5t41 -20.5h36q30 8 41 19.5t11 36.5t-16 37t-54 12z" />
<glyph unicode="&#x2089;" horiz-adv-x="265" d="M37 1l3 31q42 -7 79 -7q83 0 84 103q-43 -17 -79 -17q-46 0 -73.5 28.5t-27.5 76.5q0 49 30 77t77 28q109 0 109 -168q0 -90 -29 -126t-91 -36zM125 145l78 21q-2 60 -18.5 90.5t-54.5 30.5q-32 0 -50.5 -18t-18.5 -52q0 -32 16.5 -52t47.5 -20z" />
<glyph unicode="&#x20ac;" d="M5 427h64q10 128 64 189t182 61q95 0 175 -19l-3 -35q-91 20 -172 20q-111 0 -155.5 -52t-52.5 -164l311 -1v-33h-313q-1 -20 -1 -62q0 -36 1 -52l313 -1v-33h-312q8 -115 52.5 -167.5t156.5 -52.5l172 20l3 -34q-96 -20 -175 -20q-128 0 -182.5 61t-63.5 193h-64v34h62 q-1 16 -1 52q0 42 1 62h-62v34z" />
<glyph unicode="&#x2122;" d="M7 590v31h200v-31h-83v-258h-33v258h-84zM242 331v290h50l84 -242l87 242h50v-290h-32v258l-88 -247h-35l-84 247v-258h-32z" />
<glyph unicode="&#x2202;" d="M134 623l-4 33q65 14 139 14q109 0 163.5 -74.5t54.5 -248.5q0 -173 -65.5 -264.5t-177.5 -91.5q-95 0 -148 51.5t-53 145.5q0 99 59 158.5t158 59.5q52 0 99.5 -18t68.5 -36l22 -17q-1 170 -43 235.5t-138 65.5zM261 372q-80 0 -130 -50.5t-50 -133.5q0 -81 42 -122 t121 -41q92 0 142.5 72t61.5 198q-10 9 -27 21.5t-66.5 34t-93.5 21.5z" />
<glyph unicode="&#x220f;" d="M25 660h480v-34h-78v-726h-35v726h-254v-726h-35v726h-78v34z" />
<glyph unicode="&#x2211;" d="M470 -100h-402v67l201 313l-201 311v67h402v-34h-366l-1 -23l210 -321l-210 -323v-23h367v-34z" />
<glyph unicode="&#x2212;" d="M55 284v36h420v-36h-420z" />
<glyph unicode="&#x221a;" d="M16 330l130 44l127 -440h28l179 926h36l-186 -960h-86l-122 428l-94 -32z" />
<glyph unicode="&#x221e;" d="M133 121q-116 0 -116 171q0 81 28.5 126t85.5 45q51 0 80.5 -31.5t53.5 -95.5q24 64 53 95.5t81 31.5q57 0 85.5 -45t28.5 -126q0 -171 -116 -171q-51 0 -79.5 31.5t-52.5 94.5q-25 -75 -51 -100.5t-81 -25.5zM280 292q3 -8 12.5 -31t14 -33t14.5 -27t19.5 -24.5 t24.5 -14t33 -6.5q77 0 77 136t-77 136q-18 0 -33 -6.5t-24.5 -14t-19.5 -24.5t-14.5 -27t-14 -33t-12.5 -31zM250 292q-3 8 -12.5 31t-14 33t-14.5 27t-19.5 24.5t-24.5 14t-33 6.5q-77 0 -77 -136t77 -136q18 0 33 6.5t24.5 14t19.5 24.5t14.5 27t14 33t12.5 31z" />
<glyph unicode="&#x222b;" d="M436 821q-58 5 -78 5q-54 0 -72.5 -28.5t-18.5 -93.5l30 -789q0 -83 -24.5 -119t-100.5 -36l-79 6v33q58 -5 79 -5q53 0 72 28.5t19 92.5l-30 789q0 84 24.5 120t100.5 36l78 -6v-33z" />
<glyph unicode="&#x2248;" d="M455 420l7 -37q-54 -52 -100 -52q-33 0 -101 27t-91 27q-16 0 -40 -13.5t-40 -26.5l-15 -13l-7 35q56 54 102 54q34 0 102.5 -27t88.5 -27q16 0 39.5 13.5t39.5 26.5zM454 250l7 -37q-54 -52 -100 -52q-33 0 -101 27t-91 27q-16 0 -40 -13.5t-39 -26.5l-16 -13l-7 35 q56 54 102 54q34 0 102.5 -27t88.5 -27q16 0 39.5 13.5t38.5 26.5z" />
<glyph unicode="&#x2260;" d="M61 351v36h248l72 163l31 -14l-66 -149h123v-36h-138l-59 -131h197v-36h-212l-76 -171l-31 14l70 157h-159v36h174l59 131h-233z" />
<glyph unicode="&#x2264;" d="M418 510l-295 -146l295 -157v-41l-327 178v36l327 169v-39zM91 66v36h327v-36h-327z" />
<glyph unicode="&#x2265;" d="M407 364l-295 146v39l327 -169v-36l-327 -178v41zM112 66v36h327v-36h-327z" />
<glyph unicode="&#x25ca;" d="M467 330l-192 -330h-36l-197 330l196 330h36zM429 330l-172 298l-177 -298l177 -298z" />
<glyph unicode="&#xe000;" horiz-adv-x="500" d="M0 500h500v-500h-500v500z" />
<glyph horiz-adv-x="235" />
<glyph d="M452 651l-4 -33q-72 18 -156 18q-102 0 -155 -66t-53 -218q0 2 28 15.5t76 28t87 14.5q209 0 209 -202q0 -217 -214 -217q-115 0 -169.5 87t-54.5 259q0 180 63.5 256.5t182.5 76.5zM273 376q-88 -3 -188 -58l-2 -1q2 -146 46 -219t141 -73q95 0 135.5 45t40.5 138 q0 81 -39 124.5t-134 43.5z" />
<glyph d="M74 12l6 32q82 -19 166 -19q101 0 151 67.5t50 221.5q0 -2 -28 -15.5t-76 -28t-87 -14.5q-106 0 -157.5 53t-51.5 144q0 103 55 160t163 57q113 0 166 -86.5t53 -259.5q0 -181 -60 -257t-178 -76q-37 0 -80 5.5t-68 10.5zM258 290q88 3 188 58l2 1q-5 287 -183 287 q-180 0 -180 -183q0 -74 42 -118.5t131 -44.5z" />
<glyph horiz-adv-x="0" />
<glyph horiz-adv-x="944" d="M328 -9q-80 0 -133 22t-82.5 69.5t-41 110t-11.5 154.5q0 184 58 273t210 89q108 0 147 -9h409v-36h-373v-286h313v-36h-313v-306h373v-36h-407v-1q-35 -8 -149 -8zM328 25q106 0 147 9v629q-39 12 -147 12q-70 0 -116 -21t-70.5 -65.5t-34 -101t-9.5 -140.5 q0 -85 9 -140t33.5 -98.5t70.5 -63.5t117 -20zM476 663h-1l1 -332v332z" />
<glyph horiz-adv-x="700" d="M303 694q78 0 115.5 -39t37.5 -106q0 -72 -38 -112.5t-127 -69.5l187 -185q20 58 31 146h35q-14 -108 -39 -172l140 -137l-24 -26l-131 130q-66 -132 -222 -132q-126 0 -178 55t-52 162q0 89 38 132.5t125 68.5q-32 35 -41.5 65t-9.5 76q0 65 39 104.5t114 39.5zM270 24 q137 0 194 124l-237 235q-86 -23 -120 -60t-34 -114q0 -93 46 -139t151 -46zM185 550q0 -78 45 -123l36 -36q87 30 121 63t34 96q0 112 -118 112t-118 -112z" />
<glyph horiz-adv-x="570" d="M463 668v-32q-87 12 -120 12q-54 0 -78 -30.5t-24 -116.5v-95h182v-32h-182v-340h174l82 16l7 -32l-81 -17l-309 -1v34h92v340h-69v32h69v95q0 104 32.5 141.5t104.5 37.5z" />
<glyph horiz-adv-x="593" d="M68 427h64q10 128 64 189t182 61q95 0 175 -19l-3 -35q-91 20 -172 20q-111 0 -155.5 -52t-52.5 -164l311 -1v-33h-313q-1 -20 -1 -62q0 -36 1 -52l313 -1v-33h-312q8 -115 52.5 -167.5t156.5 -52.5l172 20l3 -34q-96 -20 -175 -20q-128 0 -182.5 61t-63.5 193h-64v34h62 q-1 16 -1 52q0 42 1 62h-62v34z" />
<glyph horiz-adv-x="833" d="M582 14l-35 -14l-301 687l35 14z" />
<glyph horiz-adv-x="520" d="M27 -34h428v-34h-428v34z" />
<glyph horiz-adv-x="615" d="M358 257h-219v-257h-36v700h255q106 0 156.5 -50t50.5 -161q0 -112 -47 -172t-160 -60zM139 291h219q169 0 169 198q0 92 -41.5 134.5t-127.5 42.5h-219v-375z" />
<glyph d="M3 334v36h336v-36h-336zM151 483v80h40v-80h-40zM151 139v80h40v-80h-40z" />
<glyph horiz-adv-x="410" d="M-49 234v34h232v232h36v-232h234v-34h-234v-234h-36v234h-232z" />
<glyph horiz-adv-x="440" d="M60 264v34h320v-34h-320z" />
<glyph d="M410 520l-315 -206l315 -217v-41q-313 213 -347 238v36l347 229v-39z" />
<glyph d="M1 343v34h505v-34h-505zM2 174v34h505v-34h-505z" />
<glyph d="M378 314l-315 206v39l347 -229v-36l-347 -238v41z" />
<glyph d="M46 12l277 690l33 -14l-277 -689z" />
<glyph horiz-adv-x="876" d="M618 23l182 9l2 -32q-112 -9 -185 -9q-131 1 -169 107q-18 -56 -61 -81.5t-122 -25.5q-122 0 -163.5 58t-41.5 212q0 138 46.5 193t158.5 55q146 0 184 -120q44 120 182 120q95 0 142.5 -57t47.5 -183v-33h-355q0 -108 34 -160.5t118 -52.5zM265 23q54 0 87.5 13.5t50 46 t21.5 71.5t5 105q0 118 -39.5 168t-124.5 50q-97 0 -132.5 -45.5t-35.5 -170.5q0 -70 5.5 -110.5t23.5 -72t51 -43.5t88 -12zM466 268h318q0 113 -36.5 161t-116.5 48q-165 0 -165 -209z" />
<glyph horiz-adv-x="898" d="M429 0v215h-276l-78 -215h-40l251 700h552v-34h-373v-288h313v-34h-313v-310h373v-34h-409zM314 666l-149 -417h264v417h-115z" />
<glyph horiz-adv-x="656" d="M89 -98l60 129q-57 38 -80 115t-23 201q0 184 58 273t210 89q82 0 140 -28l52 111l33 -14l-55 -116q54 -42 76 -119t22 -196q0 -191 -56.5 -273.5t-211.5 -82.5q-79 0 -134 23l-58 -125zM84 347q0 -112 17.5 -180t63.5 -103l273 584q-48 27 -124 27q-70 0 -116 -21 t-70.5 -65.5t-34 -101t-9.5 -140.5zM314 25q72 0 117.5 18.5t70 61t33.5 98.5t9 144q0 210 -76 280l-273 -581q47 -21 119 -21z" />
<glyph horiz-adv-x="833" d="M249 0h-36v532q0 104 31.5 141t121.5 37q103 0 146.5 -32t43.5 -103q0 -43 -15 -65t-49 -35l-17 -6.5l-14 -5.5l-11.5 -4.5t-9.5 -4t-6.5 -4t-5 -4t-3 -4.5t-2 -5.5t-0.5 -6.5q0 -10 11 -18.5t73 -45.5l33 -19.5l28.5 -17.5l22.5 -14t19 -13t13.5 -12t10.5 -12.5t5 -12 t2 -14.5q0 -71 -9 -116t-34.5 -79.5t-72.5 -49.5t-122 -15l-78 4l4 34q57 -4 74 -4q67 0 108 13t61 45t25.5 68t5.5 100q0 12 -26.5 31t-94.5 58q-67 38 -82 52t-15 38q0 15 3 24.5t12 16.5t15.5 10.5t25.5 10.5t31 12q32 14 39 25t7 46q0 56 -34.5 78.5t-117.5 22.5 q-72 0 -94.5 -29.5t-22.5 -127.5v-519z" />
<glyph horiz-adv-x="828" d="M570 23l182 9l2 -32q-112 -9 -185 -9q-99 1 -143 58l-38 -16q-93 -42 -206 -42q-127 0 -127 146q0 70 31 101t107 43l190 20v52q0 122 -111 122l-188 -9l-2 33q110 10 190 10q115 0 139 -96q49 96 172 96q95 0 142.5 -57t47.5 -183v-33h-355q0 -108 34 -160.5t118 -52.5z M183 23q42 0 97 12t84.5 22t46.5 17q-30 59 -30 176v18l-184 -18q-55 -5 -80 -32t-25 -81q0 -55 24 -84.5t67 -29.5zM418 268h318q0 113 -36.5 161t-116.5 48q-165 0 -165 -209z" />
<glyph d="M262 509q99 0 150 -58.5t51 -209.5q0 -250 -200 -250q-87 0 -143.5 58t-56.5 194q0 266 199 266zM263 477q-77 0 -121 -50.5t-44 -182.5q0 -123 44.5 -172t121.5 -49q80 0 122 48t42 171q0 70 -11.5 117.5t-34.5 72.5t-51.5 35t-67.5 10z" />
<glyph d="M109 391l170 109h35v-500h-35v462l-153 -99z" />
<glyph d="M462 0h-361v32l211 183q55 48 77 79t22 76q0 57 -31 82t-101 25q-26 0 -69.5 -5t-74.5 -9.5t-31 -5.5l-3 31q108 21 179 21q166 0 166 -139q0 -38 -14.5 -69.5t-32 -49t-53.5 -48.5l-205 -171h321v-32z" />
<glyph d="M117 492q96 18 172 18q85 0 128 -29.5t43 -96.5q0 -27 -10 -48.5t-23.5 -34t-29 -20.5t-24 -11t-10.5 -3q35 -10 56 -20.5t38.5 -38.5t17.5 -71q0 -73 -46.5 -109.5t-132.5 -36.5q-37 0 -83.5 4.5t-74.5 8.5l-28 5l5 32q100 -18 181 -18q144 2 144 112q0 62 -34.5 86.5 t-93.5 28.5h-132v32h131q114 6 114 103q0 52 -32.5 72.5t-102.5 20.5q-34 0 -76 -4.5t-68 -9.5l-25 -4z" />
<glyph d="M352 0v116h-293v31l186 353h36l-183 -352h254v132h35v-132h61v-32h-61v-116h-35z" />
<glyph d="M133 501h326v-32h-295l-14 -196q103 40 161 40q75 0 124.5 -36.5t49.5 -112.5q0 -83 -51 -128t-125 -45q-29 0 -77.5 4.5t-81.5 8.5l-34 5l4 32q126 -18 189 -18q61 0 101 36t40 105q0 117 -140 117q-28 0 -70 -10.5t-70 -21.5l-29 -11l-24 6z" />
<glyph d="M437 494l-3 -31q-84 14 -148 14q-174 0 -174 -208q0 1 28 11.5t71 21.5t73 11q181 0 181 -156q0 -81 -51 -124t-144 -43q-91 0 -141.5 65t-50.5 197q0 257 208 257q33 0 70.5 -3.5t59.5 -7.5zM282 281q-70 -2 -170 -44q1 -107 42 -161.5t116 -54.5q160 0 160 136 q0 64 -36 94t-112 30z" />
<glyph d="M114 469v32h337v-63l-235 -447l-32 10l232 440v28h-302z" />
<glyph d="M269 509q87 0 143 -31t56 -95q0 -49 -26 -76.5t-80 -43.5q55 -16 84 -44.5t29 -85.5q0 -143 -206 -143q-90 0 -151 32.5t-61 103.5q0 32 8.5 54.5t27.5 38.5t34.5 24t44.5 20q-107 36 -107 121q0 63 57.5 94t146.5 31zM269 22q79 0 125 23.5t46 87.5q0 30 -8 50t-26 32 t-34.5 18t-46.5 13h-119q-56 -14 -85 -40t-29 -80q0 -104 177 -104zM269 477q-169 0 -169 -94q0 -44 26 -66.5t80 -38.5h119q56 13 82 36t26 68q0 95 -164 95z" />
<glyph d="M78 6l2 32q98 -15 162 -15q180 0 180 211q0 -1 -29 -11.5t-72.5 -21.5t-73.5 -11q-86 0 -137.5 41t-51.5 113q0 77 54.5 121.5t141.5 44.5q108 0 156 -63.5t48 -195.5q0 -260 -216 -260q-28 0 -69 4t-68 7zM248 222q70 3 175 44q-2 111 -39.5 161.5t-129.5 50.5 q-75 0 -118 -34t-43 -100q0 -59 41 -90.5t114 -31.5z" />
<glyph d="M242 -59v759h35v-759h-35z" />
<glyph horiz-adv-x="437" d="M186 -86v127q-92 5 -133 49t-41 157q0 195 174 212v132h35v-130l116 -11l-2 -35q-75 9 -114 10v-348l116 8l2 -35q-79 -9 -118 -9v-127h-35zM52 247q0 -95 29 -130t105 -39v345q-67 -7 -100.5 -49t-33.5 -127z" />
<glyph d="M61 340v34h247l72 163l35 -14l-66 -149h137v-34h-152l-66 -151h219v-34h-234l-72 -165l-35 14l66 151h-150v34h165l66 151h-232z" />
<glyph horiz-adv-x="540" d="M47 331v34h171l-193 295h41l205 -309l202 309h42l-191 -295h168v-34h-190l-13 -20v-95h204v-34h-204v-182h-36v182h-205v34h205v95l-13 20h-193z" />
<glyph d="M90 -250v750h35v-258q0 -132 24 -175.5t105 -43.5q84 0 162 49l2 1v427h35v-500h-35v40l-24 -13.5t-58.5 -22t-81.5 -13.5q-94 0 -129 51v-292h-35z" />
<glyph d="M289 352v-418q0 -97 -31.5 -138t-95.5 -41l-92 3l2 33q62 -3 90 -3q46 0 69 33.5t23 112.5v418h-69v32h69v111q0 178 127 178l93 -3l-2 -32q-61 2 -91 2q-92 0 -92 -146v-110h162v-32h-162z" />
<glyph horiz-adv-x="170" d="M-6 -123l42 210h40l-51 -210h-31z" />
<glyph horiz-adv-x="248" d="M98 0v80h40v-80h-40z" />
<glyph horiz-adv-x="170" d="M4 527l40 200h38l-48 -200h-30z" />
<glyph horiz-adv-x="833" d="M518 0v667h-172v-667h-36v350h-7q-79 0 -132.5 48.5t-53.5 125.5t53.5 126.5t132.5 49.5h348v-33h-97v-667h-36z" />
<glyph horiz-adv-x="285" d="M135 454l7 116q0 72 -30.5 106.5t-112.5 38.5l2 32q95 -4 135.5 -45.5t40.5 -131.5q0 -21 -3.5 -66.5t-3.5 -56.5q0 -49 23.5 -75.5t80.5 -42.5v-32q-57 -14 -80.5 -42t-23.5 -78q0 -13 3.5 -60.5t3.5 -67.5q0 -90 -40.5 -131.5t-135.5 -45.5l-2 32q82 4 112.5 38.5 t30.5 106.5q0 17 -3.5 61t-3.5 58q0 65 22 95.5t78 48.5q-56 18 -78 49t-22 93z" />
<glyph horiz-adv-x="170" d="M56 727l-40 -200h-38l48 200h30z" />
<glyph d="M65 464v34h182v202h35v-202h183v-34h-183v-543h-35v543h-182z" />
<glyph d="M437 313l-168 311l-159 -311h-40l181 347h37l191 -347h-42z" />
<glyph horiz-adv-x="500" d="M166 922l192 -96l-15 -27l-193 92z" />
<glyph horiz-adv-x="516" d="M150 826l192 96l16 -31l-193 -92z" />
<glyph horiz-adv-x="446" d="M74 809l134 125h30l134 -125h-45l-104 96l-103 -96h-46z" />
<glyph horiz-adv-x="446" d="M372 934l-134 -125h-30l-134 125h45l104 -96l103 96h46z" />
<glyph horiz-adv-x="440" d="M393 914l11 -28q-52 -55 -83 -55q-23 0 -83.5 32t-75.5 32q-9 0 -29 -13.5t-35 -27.5l-16 -14l-10 29q57 57 90 57q23 0 83.5 -31.5t75.5 -31.5q8 0 26 12.5t32 25.5z" />
<glyph horiz-adv-x="392" d="M109 838v62h35v-62h-35zM305 838v62h35v-62h-35z" />
<glyph horiz-adv-x="446" d="M80 832v32h287v-32h-287z" />
<glyph horiz-adv-x="446" d="M85 924h35q0 -40 30 -63.5t73 -23.5t73 23.5t30 63.5h35q0 -54 -40 -86.5t-98 -32.5t-98 32.5t-40 86.5z" />
<glyph horiz-adv-x="316" d="M255 822q0 -43 -26.5 -67.5t-70.5 -24.5t-70.5 24.5t-26.5 67.5t26.5 67.5t70.5 24.5t70.5 -24.5t26.5 -67.5zM94 822q0 -30 17 -46t47 -16t47 16t17 46t-17 46t-47 16t-47 -16t-17 -46z" />
<glyph horiz-adv-x="685" d="M329 791l191 87l15 -29l-192 -88zM138 791l192 88l14 -30l-191 -87z" />
<glyph horiz-adv-x="215" d="M90 783v55h35v-55h-35z" />
<glyph d="M264 670q61 0 102 -19l58 147l33 -12l-61 -152q96 -72 96 -320q0 -93 -16.5 -157.5t-48 -100t-71 -50.5t-91.5 -15q-69 0 -116 25l-52 -131l-32 11l56 141q-84 74 -84 279q0 104 16 175.5t48 109.5t70.5 53.5t92.5 15.5zM454 316q0 217 -72 283l-220 -550q39 -24 103 -24 q46 0 78 12.5t58.5 43.5t39.5 89.5t13 145.5zM264 636q-65 0 -104 -25.5t-62 -97.5t-23 -199q0 -177 60 -242l218 547q-35 17 -89 17z" />
<glyph d="M264 670q56 0 95.5 -16t70.5 -54.5t46.5 -109.5t15.5 -176q0 -93 -16.5 -157.5t-48 -100t-71 -50.5t-91.5 -15q-109 0 -168.5 72t-59.5 253q0 104 16 175.5t48 109.5t70.5 53.5t92.5 15.5zM454 316q0 217 -71 282l-220 -549q37 -24 102 -24q46 0 78 12.5t58.5 43.5 t39.5 89.5t13 145.5zM264 636q-65 0 -104 -25.5t-62 -97.5t-23 -199q0 -178 60 -243l219 547q-36 18 -90 18z" />
<glyph horiz-adv-x="135" d="M84 700v-217h-34v217h34z" />
<glyph horiz-adv-x="170" d="M42 -267l38 189h36l-46 -189h-28z" />
<glyph horiz-adv-x="170" d="M116 782l-38 -189h-36l46 189h28z" />
<glyph horiz-adv-x="170" d="M42 -267l38 189h36l-46 -189h-28z" />
<glyph horiz-adv-x="170" d="M116 782l-38 -189h-36l46 189h28z" />
<glyph horiz-adv-x="285" d="M139 199q0 -19 -3.5 -58t-3.5 -58q0 -71 31 -106t112 -39l-2 -32q-95 4 -135.5 45.5t-40.5 131.5q0 21 3.5 66.5t3.5 56.5q0 48 -23.5 75t-80.5 43v32q57 14 80.5 42t23.5 78q0 13 -3.5 60.5t-3.5 67.5q0 90 40.5 131.5t135.5 45.5l2 -32q-82 -4 -112.5 -38.5 t-30.5 -106.5q0 -17 3.5 -61t3.5 -58q0 -65 -22 -95.5t-78 -48.5q56 -18 78 -49t22 -93z" />
<glyph horiz-adv-x="386" d="M30 149q0 37 19.5 73.5t47.5 66.5l55.5 58.5t47 61t19.5 63.5v38h35v-41q0 -34 -19.5 -69.5t-47 -65.5l-55.5 -59t-47.5 -62t-19.5 -64q0 -70 36.5 -97.5t118.5 -27.5q21 0 59 6t65 12l27 7l5 -33q-102 -25 -156 -25q-98 0 -144 36t-46 122zM256 699v-80h-40v80h40z" />
<glyph horiz-adv-x="285" d="M135 484q0 20 3.5 58t3.5 58q0 71 -31 106t-112 39l2 32q95 -4 135.5 -45.5t40.5 -131.5q0 -21 -3.5 -66.5t-3.5 -56.5q0 -48 23.5 -75t80.5 -43v-32q-57 -14 -80.5 -42t-23.5 -78q0 -13 3.5 -60.5t3.5 -67.5q0 -90 -40.5 -131.5t-135.5 -45.5l-2 32q82 4 112.5 38.5 t30.5 106.5q0 17 -3.5 61t-3.5 58q0 65 22 95.5t78 48.5q-56 18 -78 49t-22 93z" />
<glyph horiz-adv-x="300" d="M51 747v32h183v-872h-183v32h147v808h-147z" />
<glyph horiz-adv-x="260" d="M91 -90h-35q11 29 26.5 77.5t42 168t26.5 203.5q0 167 -87 405l-8 21h35q11 -25 27 -68t43 -156t27 -202t-24 -201t-48 -180z" />
<glyph horiz-adv-x="260" d="M153 780h35q-11 -29 -26.5 -77.5t-42 -168t-26.5 -203.5q0 -167 87 -405l8 -21h-35q-11 25 -27 68t-43 156t-27 202t24 201t48 180z" />
<glyph horiz-adv-x="300" d="M231 779v-32h-147v-808h147v-32h-183v872h183z" />
<glyph horiz-adv-x="500" d="M0 316h500v-34h-500v34z" />
<glyph horiz-adv-x="1000" d="M0 316h1000v-34h-1000v34z" />
<glyph horiz-adv-x="985" d="M925 405v-17q0 -61 -4.5 -107.5t-11 -78t-19 -53t-24 -33t-31 -17.5t-34 -7.5t-39.5 -1.5q-33 0 -50 3t-32.5 17t-24.5 43q-111 -62 -191 -62q-24 0 -42 2.5t-44 16.5t-42 39t-28.5 75t-12.5 119q0 136 46 201t164 65q25 0 58 -6.5t53 -13.5l21 -7v18h35v-200 q0 -139 7.5 -195.5t23.5 -70.5t59 -14q28 0 43.5 3t33.5 17t27 42t15.5 79t6.5 127v18q0 201 -88 291t-296 90q-213 0 -310 -96t-97 -330q0 -124 24 -207t76.5 -131.5t125.5 -69t181 -20.5l143 10l3 -33q-98 -9 -146 -9q-116 0 -195 21.5t-137 73t-85 141.5t-27 224 q0 247 108 352.5t336 105.5q226 0 323.5 -99t97.5 -315zM464 123q80 0 184 60q-11 63 -11 217v150q-73 27 -132 27q-101 0 -138 -57.5t-37 -179.5q0 -71 12.5 -117.5t34.5 -66.5t41.5 -26.5t45.5 -6.5z" />
<glyph horiz-adv-x="248" d="M98 300v80h40v-80h-40z" />
<glyph horiz-adv-x="265" d="M134 221q55 0 84 -38t29 -126q0 -166 -112 -166q-113 0 -113 167q0 163 112 163zM134 187q-39 0 -57 -31t-18 -99q0 -71 19 -101.5t57 -30.5t56.5 30.5t18.5 102.5q0 67 -18 98t-58 31z" />
<glyph horiz-adv-x="265" d="M39 145l99 67h36v-312h-36v273l-82 -56z" />
<glyph horiz-adv-x="265" d="M223 -100h-195v34l98 104q18 19 27.5 31t18 30.5t8.5 37.5q0 50 -57 50l-90 -12l-2 33q51 13 93 13q92 0 92 -85q0 -32 -15.5 -59t-49.5 -62l-76 -81h148v-34z" />
<glyph horiz-adv-x="265" d="M33 210q53 11 98 11q49 0 72.5 -19t23.5 -61q0 -26 -12 -45t-20.5 -24.5t-15.5 -8.5q30 -9 43.5 -24.5t13.5 -54.5q0 -93 -100 -93l-107 11l3 32q54 -9 104 -9q63 0 63 58q0 61 -60 61h-65v34h65q18 0 34.5 19t16.5 44q0 23 -13 34.5t-45 11.5q-20 0 -44 -2.5t-38 -4.5 l-14 -2z" />
<glyph horiz-adv-x="265" d="M164 -100v57h-146v32l89 223h38l-87 -221h106v87h36v-87h37v-34h-37v-57h-36z" />
<glyph horiz-adv-x="265" d="M50 212h174v-35h-140l-7 -102q22 22 65 22t69.5 -23.5t26.5 -75.5t-28.5 -79.5t-72.5 -27.5q-20 0 -45 3t-40 6l-14 3l3 35q53 -12 96 -12q27 0 44.5 18.5t17.5 53.5q0 64 -57 64q-40 0 -70 -22l-31 2z" />
<glyph horiz-adv-x="265" d="M225 212l-2 -32q-40 7 -78 7q-40 0 -59 -24t-20 -80l10 5q11 4 29.5 9t33.5 5q102 0 102 -101q0 -51 -28 -80.5t-77 -29.5q-109 0 -109 166q0 89 30 126.5t88 37.5zM138 68q-17 0 -35 -5.5t-28 -10.5t-10 -6q1 -60 17 -90.5t54 -30.5q67 0 67 76q0 37 -14.5 52t-50.5 15z " />
<glyph horiz-adv-x="265" d="M30 178v34h194v-61l-112 -259l-36 8l110 253v25h-156z" />
<glyph horiz-adv-x="265" d="M132 221q108 0 108 -82q0 -33 -11.5 -49t-43.5 -26q31 -9 45.5 -26.5t14.5 -52.5q0 -52 -29.5 -73t-83.5 -21q-113 0 -113 88q0 38 14 55t47 30q-30 11 -43 27.5t-13 47.5q0 82 108 82zM132 -75q75 0 75 59q0 28 -12.5 40.5t-44.5 20.5h-36q-31 -8 -44 -21.5t-13 -43.5 q0 -55 75 -55zM132 187q-70 0 -70 -48q0 -25 11 -36.5t41 -20.5h36q30 8 41 19.5t11 36.5t-16 37t-54 12z" />
<glyph horiz-adv-x="265" d="M37 -99l3 31q42 -7 79 -7q83 0 84 103q-43 -17 -79 -17q-46 0 -73.5 28.5t-27.5 76.5q0 49 30 77t77 28q109 0 109 -168q0 -90 -29 -126t-91 -36zM125 45l78 21q-2 60 -18.5 90.5t-54.5 30.5q-32 0 -50.5 -18t-18.5 -52q0 -32 16.5 -52t47.5 -20z" />
<glyph horiz-adv-x="265" d="M134 699q55 0 84 -38t29 -126q0 -166 -112 -166q-113 0 -113 167q0 163 112 163zM134 665q-39 0 -57 -31t-18 -99q0 -71 19 -101.5t57 -30.5t56.5 30.5t18.5 102.5q0 67 -18 98t-58 31z" />
<glyph horiz-adv-x="265" d="M39 623l99 67h36v-312h-36v273l-82 -56z" />
<glyph horiz-adv-x="265" d="M223 378h-195v34l98 104q18 19 27.5 31t18 30.5t8.5 37.5q0 50 -57 50l-90 -12l-2 33q51 13 93 13q92 0 92 -85q0 -32 -15.5 -59t-49.5 -62l-76 -81h148v-34z" />
<glyph horiz-adv-x="265" d="M33 688q53 11 98 11q49 0 72.5 -19t23.5 -61q0 -26 -12 -45t-20.5 -24.5t-15.5 -8.5q30 -9 43.5 -24.5t13.5 -54.5q0 -93 -100 -93l-107 11l3 32q54 -9 104 -9q63 0 63 58q0 61 -60 61h-65v34h65q18 0 34.5 19t16.5 44q0 23 -13 34.5t-45 11.5q-20 0 -44 -2.5t-38 -4.5 l-14 -2z" />
<glyph horiz-adv-x="265" d="M164 378v57h-146v32l89 223h38l-87 -221h106v87h36v-87h37v-34h-37v-57h-36z" />
<glyph horiz-adv-x="265" d="M50 690h174v-35h-140l-7 -102q22 22 65 22t69.5 -23.5t26.5 -75.5t-28.5 -79.5t-72.5 -27.5q-20 0 -44.5 3t-39.5 6l-15 3l3 35q53 -12 96 -12q27 0 44.5 18.5t17.5 53.5q0 64 -57 64q-40 0 -70 -22l-31 2z" />
<glyph horiz-adv-x="265" d="M225 690l-2 -32q-40 7 -78 7q-40 0 -59 -24t-20 -80l10 5q11 4 29.5 9t33.5 5q102 0 102 -101q0 -51 -28 -80.5t-77 -29.5q-109 0 -109 166q0 89 30 126.5t88 37.5zM138 546q-17 0 -35 -5.5t-28 -10.5t-10 -6q1 -60 17 -90.5t54 -30.5q67 0 67 76q0 37 -14.5 52t-50.5 15 z" />
<glyph horiz-adv-x="265" d="M30 656v34h194v-61l-112 -259l-36 8l110 253v25h-156z" />
<glyph horiz-adv-x="265" d="M132 699q108 0 108 -82q0 -33 -11.5 -49t-43.5 -26q31 -9 45.5 -26.5t14.5 -52.5q0 -52 -29.5 -73t-83.5 -21q-113 0 -113 88q0 38 14 55t47 30q-30 11 -43 27.5t-13 47.5q0 82 108 82zM132 403q75 0 75 59q0 28 -12.5 40.5t-44.5 20.5h-36q-31 -8 -44 -21.5t-13 -43.5 q0 -55 75 -55zM132 665q-70 0 -70 -48q0 -25 11 -36.5t41 -20.5h36q30 8 41 19.5t11 36.5t-16 37t-54 12z" />
<glyph horiz-adv-x="265" d="M37 379l3 31q42 -7 79 -7q83 0 84 103q-43 -17 -79 -17q-46 0 -73.5 28.5t-27.5 76.5q0 49 30 77t77 28q109 0 109 -168q0 -90 -29 -126t-91 -36zM125 523l78 21q-2 60 -18.5 90.5t-54.5 30.5q-32 0 -50.5 -18t-18.5 -52q0 -32 16.5 -52t47.5 -20z" />
<glyph horiz-adv-x="262" d="M151 699v-80h-40v80h40zM149 486v-486h-35v486h35z" />
<glyph horiz-adv-x="440" d="M70 284v34h300v-34h-300z" />
<glyph horiz-adv-x="500" d="M166 922l192 -96l-15 -27l-193 92z" />
<glyph horiz-adv-x="516" d="M150 826l192 96l16 -31l-193 -92z" />
<glyph horiz-adv-x="446" d="M74 809l134 125h30l134 -125h-45l-104 96l-103 -96h-46z" />
<glyph horiz-adv-x="446" d="M372 934l-134 -125h-30l-134 125h45l104 -96l103 96h46z" />
<glyph horiz-adv-x="440" d="M394 914l11 -28q-52 -55 -83 -55q-23 0 -83.5 32t-75.5 32q-9 0 -29 -13.5t-36 -27.5l-15 -14l-10 29q57 57 90 57q23 0 83.5 -31.5t75.5 -31.5q8 0 26 12.5t32 25.5z" />
<glyph horiz-adv-x="392" d="M109 838v62h35v-62h-35zM305 838v62h35v-62h-35z" />
<glyph horiz-adv-x="446" d="M80 832v32h287v-32h-287z" />
<glyph horiz-adv-x="446" d="M85 924h35q0 -40 30 -63.5t73 -23.5t73 23.5t30 63.5h35q0 -54 -40 -86.5t-98 -32.5t-98 32.5t-40 86.5z" />
<glyph horiz-adv-x="316" d="M255 822q0 -43 -26.5 -67.5t-70.5 -24.5t-70.5 24.5t-26.5 67.5t26.5 67.5t70.5 24.5t70.5 -24.5t26.5 -67.5zM94 822q0 -30 17 -46t47 -16t47 16t17 46t-17 46t-47 16t-47 -16t-17 -46z" />
<glyph horiz-adv-x="685" d="M329 791l191 87l15 -29l-192 -88zM138 791l192 88l14 -30l-191 -87z" />
<glyph horiz-adv-x="215" d="M90 783v55h35v-55h-35z" />
</font>
</defs>
</svg>
