<?xml version="1.0" standalone="no"?>
<!DOCTYPE svg PUBLIC "-//W3C//DTD SVG 1.1//EN" "http://www.w3.org/Graphics/SVG/1.1/DTD/svg11.dtd" >
<svg xmlns="http://www.w3.org/2000/svg">
<metadata>
This is a custom SVG webfont generated by Font Squirrel.
Copyright   : Copyright c 2009 by Accademia di Belle Arti di Urbino and students of MA course of Visual design All rights reserved
Designer    : Campivisivi
Foundry     : Accademia di Belle Arti di Urbino and students of MA course of Visual design
</metadata>
<defs>
<font id="TitilliumMaps29L999wt" horiz-adv-x="530" >
<font-face units-per-em="1000" ascent="750" descent="-250" />
<missing-glyph horiz-adv-x="235" />
<glyph unicode=" "  horiz-adv-x="235" />
<glyph unicode="&#x09;" horiz-adv-x="235" />
<glyph unicode="&#xa0;" horiz-adv-x="235" />
<glyph unicode="!" d="M200 0v166h144v-166h-144zM203 260l-5 440h148l-5 -440h-138z" />
<glyph unicode="&#x22;" horiz-adv-x="355" d="M335 440h-122l-2 250h129zM157 440h-122l-2 250h129z" />
<glyph unicode="#" d="M529 165h-96v-165h-116v165h-104v-165h-116v165h-96v112h96v106h-96v112h96v165h116v-165h104v165h116v-165h96v-112h-96v-106h96v-112zM317 277v106h-104v-106h104z" />
<glyph unicode="$" d="M146 -113l24 109l-109 15l9 120q63 -8 126 -13l36 165q-2 0 -3 1q-101 32 -140 70.5t-39 130.5q0 186 228 186q6 0 19 -0.5t20 -0.5l27 120h55l-27 -124l102 -11l-3 -123q-67 6 -126 10l-32 -148q110 -36 145 -74.5t35 -129.5q0 -105 -54 -153.5t-159 -48.5q-25 0 -55 3 l-24 -111zM355 190q0 29 -15 44.5t-55 30.5l-33 -151h27q41 0 58.5 17t17.5 59zM188 484q0 -26 14.5 -40.5t58.5 -31.5l29 133h-12q-45 0 -67.5 -12t-22.5 -49z" />
<glyph unicode="%" d="M126 621q-13 0 -17.5 -14.5t-4.5 -50.5t4.5 -51t17.5 -15t17.5 15t4.5 51t-4.5 50.5t-17.5 14.5zM98 6l246 714l86 -30l-246 -714zM6 556q0 145 120 145t120 -145q0 -146 -120 -146t-120 146zM288 146q0 145 120 145t120 -145q0 -146 -120 -146t-120 146zM386 146 q0 -36 4.5 -51t17.5 -15t17.5 15t4.5 51t-4.5 50.5t-17.5 14.5t-17.5 -14.5t-4.5 -50.5z" />
<glyph unicode="&#x26;" horiz-adv-x="700" d="M323 710q95 0 149.5 -43t54.5 -128q0 -65 -32 -109.5t-106 -92.5l86 -89q15 45 27 120l129 -3q-16 -95 -54 -196l101 -94l-80 -90l-102 87q-54 -43 -104.5 -63.5t-120.5 -20.5q-239 0 -239 210q0 128 148 194q-34 44 -47 73.5t-13 74.5q0 77 58 123.5t145 46.5zM275 104 q75 0 131 41l-158 169q-34 -18 -56 -46.5t-22 -58.5q0 -46 27.5 -75.5t77.5 -29.5zM255 530q0 -55 44 -99l20 -19q40 29 56 53.5t16 58.5q0 32 -18 50t-50 18q-31 0 -49.5 -16.5t-18.5 -45.5z" />
<glyph unicode="'" horiz-adv-x="111" d="M-7 440l-2 250h129l-5 -250h-122z" />
<glyph unicode="(" horiz-adv-x="260" d="M102 750h146q-11 -29 -26.5 -77.5t-42 -168t-26.5 -203.5q0 -167 87 -405l8 -21h-146q-11 25 -27 68t-43 156t-27 202t24.5 201t48.5 180z" />
<glyph unicode=")" horiz-adv-x="260" d="M142 -120h-146q11 29 26.5 77.5t42 168t26.5 203.5q0 167 -87 405l-8 21h146q11 -25 27 -68t43 -156t27 -202t-24.5 -201t-48.5 -180z" />
<glyph unicode="*" d="M441 479h-115l37 -110l-91 -28l-38 112l-95 -74l-57 73l98 72l-95 69l56 78l91 -65l40 110l92 -32l-38 -108h115v-97z" />
<glyph unicode="+" d="M36 210v132h163v168h136v-168h165v-132h-165v-168h-136v168h-163z" />
<glyph unicode="," horiz-adv-x="170" d="M-6 -123l52 260h144l-61 -260h-135z" />
<glyph unicode="-" horiz-adv-x="440" d="M70 207v126h300v-126h-300z" />
<glyph unicode="." horiz-adv-x="248" d="M45 0v166h144v-166h-144z" />
<glyph unicode="/" d="M56 20l283 700l128 -44l-283 -700z" />
<glyph unicode="0" d="M265 672q123 0 187.5 -80t64.5 -266q0 -185 -64 -261.5t-188 -76.5t-188 76.5t-64 261.5q0 186 64.5 266t187.5 80zM266 545q-57 0 -81 -49.5t-24 -169.5q0 -119 24 -165t81 -46t80 45.5t23 165.5q0 121 -23.5 170t-79.5 49z" />
<glyph unicode="1" d="M33 516l211 144h128v-660h-138v501l-137 -93z" />
<glyph unicode="2" d="M474 0h-425v123l141 138q73 75 102 116.5t29 85.5q0 77 -103 77q-30 0 -69.5 -4t-63.5 -8l-24 -3l-8 121q107 26 200 26q210 0 210 -189q0 -75 -27.5 -128t-105.5 -131l-102 -95h246v-129z" />
<glyph unicode="3" d="M59 646q110 26 190 26q121 0 173.5 -44t52.5 -138q0 -51 -19 -83.5t-58 -58.5q47 -25 68 -56t21 -93q0 -211 -220 -211q-98 0 -216 23l13 117q117 -11 183 -11q47 0 72.5 20.5t25.5 58.5q0 73 -91 73h-128v120h128q32 0 55.5 26t23.5 53q0 37 -26 56t-68 19 q-35 0 -77 -3.5t-66 -6.5l-25 -3z" />
<glyph unicode="4" d="M300 -10v117h-276v110l167 443h150l-161 -425h120v172h138v-172h61v-128h-61v-117h-138z" />
<glyph unicode="5" d="M77 661h393v-129h-269l-16 -131q59 18 91 18q214 0 214 -204q0 -113 -58.5 -170t-162.5 -57q-46 0 -103 8t-92 16l-34 9l15 118q126 -24 209 -24q38 0 61 23t23 69q0 87 -87 87q-27 0 -52 -4t-37 -8l-11 -3l-106 23z" />
<glyph unicode="6" d="M490 650l-12 -121q-102 15 -181 15q-126 0 -128 -154l18 8q18 7 48.5 15t54.5 8q222 0 222 -212q0 -110 -61.5 -165.5t-175.5 -55.5q-123 0 -185.5 86.5t-62.5 252.5q0 186 70.5 265.5t199.5 79.5zM278 301q-24 0 -51.5 -4.5t-42.5 -8.5l-16 -5q0 -73 26 -121.5t81 -48.5 q45 0 70 24.5t25 71.5q0 46 -24 69t-68 23z" />
<glyph unicode="7" d="M54 531v130h412v-157l-233 -522l-128 36l219 486v27h-270z" />
<glyph unicode="8" d="M269 673q102 0 169.5 -49t67.5 -133q0 -58 -14 -87t-58 -64q82 -53 82 -151q0 -100 -69 -151.5t-179 -51.5q-112 0 -178.5 46.5t-66.5 145.5q0 96 83 162q-42 34 -57 66.5t-15 85.5q0 84 66 132.5t169 48.5zM268 111q100 0 100 89q0 54 -54 75h-88q-55 -21 -55 -75 q0 -89 97 -89zM270 548q-42 0 -65 -20.5t-23 -57.5q0 -48 44 -78h88q44 30 44 78q0 37 -23 57.5t-65 20.5z" />
<glyph unicode="9" d="M42 10l12 119q102 -15 181 -15q63 0 95.5 40t32.5 111l-19 -6q-20 -6 -50.5 -13t-51.5 -7q-103 0 -162.5 54t-59.5 158q0 105 65.5 163t170.5 58q121 0 185 -85t64 -253q0 -186 -71 -266t-199 -80zM254 361q24 0 51.5 3.5t42.5 7.5l16 4q0 78 -27.5 124.5t-79.5 46.5 q-43 0 -69 -25.5t-26 -70.5t24.5 -67.5t67.5 -22.5z" />
<glyph unicode=":" horiz-adv-x="230" d="M35 289v166h144v-166h-144zM35 0v166h144v-166h-144z" />
<glyph unicode=";" horiz-adv-x="241" d="M4 -113l62 270h144l-81 -270h-125zM56 289v166h144v-166h-144z" />
<glyph unicode="&#x3c;" d="M430 399l-215 -110l215 -113v-140l-347 181v140l347 182v-140z" />
<glyph unicode="=" d="M51 308v130h427v-130h-427zM51 95v130h427v-130h-427z" />
<glyph unicode="&#x3e;" d="M308 289l-215 110v140l347 -182v-140l-347 -181v140z" />
<glyph unicode="?" horiz-adv-x="386" d="M401 516q0 -48 -24.5 -93t-54 -72t-54 -55.5t-24.5 -47.5v-38h-136q-8 41 -8 61q0 33 24 68t52.5 59.5t52.5 52t24 47.5q0 41 -14.5 57.5t-68.5 16.5q-23 0 -60 -4t-63 -8l-26 -4l-15 120q116 38 180 38q113 0 164 -45t51 -153zM100 0v156h144v-156h-144z" />
<glyph unicode="@" horiz-adv-x="985" d="M945 305v-17q0 -159 -48 -228.5t-145 -69.5q-87 0 -130 43q-86 -42 -151 -42q-94 0 -140.5 58.5t-46.5 192.5q0 65 8.5 111t29 82.5t59 55t94.5 18.5l93 -22v13h134v-200q0 -80 5 -119t15 -50t30 -11q32 0 45 34t13 134v18q0 158 -72.5 225t-233.5 67q-162 0 -245.5 -86 t-83.5 -251q0 -183 74.5 -261t254.5 -78l143 9l5 -130q-100 -10 -148 -10q-115 0 -198 23t-144.5 76.5t-91.5 145.5t-30 225q0 231 125 349.5t339 118.5q219 0 330 -108.5t111 -315.5zM482 123q40 0 93 15q-7 42 -7 102v132q-44 10 -63 10q-53 0 -69 -27.5t-16 -112.5 q0 -66 14.5 -92.5t47.5 -26.5z" />
<glyph unicode="A" horiz-adv-x="605" d="M25 0l153 690h252l150 -690h-138l-31 119h-222l-26 -119h-138zM286 570l-69 -324h169l-66 324h-34z" />
<glyph unicode="B" horiz-adv-x="605" d="M75 690h255q93 0 152.5 -43t59.5 -132q0 -66 -17 -101t-58 -61q47 -21 67.5 -56.5t20.5 -101.5q0 -98 -60.5 -146.5t-160.5 -48.5h-259v690zM327 287h-116v-164h116q38 0 62 21t24 62q0 39 -25 60t-61 21zM323 567h-112v-162h113q34 0 55.5 22.5t21.5 62.5q0 37 -22 57 t-56 20z" />
<glyph unicode="C" horiz-adv-x="529" d="M490 131l3 -123q-124 -20 -193 -20q-145 0 -200 84.5t-55 272.5q0 194 59 275.5t196 81.5l194 -24l-4 -120q-126 12 -170 12q-74 0 -103.5 -46.5t-29.5 -178.5q0 -130 28.5 -177.5t108.5 -47.5z" />
<glyph unicode="D" horiz-adv-x="626" d="M297 0h-222v690h222q164 0 224 -76.5t60 -255.5q0 -93 -11.5 -155.5t-42.5 -110.5t-87.5 -70t-142.5 -22zM439 358q0 114 -27 159.5t-115 45.5h-86v-436h86q86 0 114 55.5t28 175.5z" />
<glyph unicode="E" horiz-adv-x="553" d="M75 0v690h428v-127h-292v-162h232v-123h-232v-151h292v-127h-428z" />
<glyph unicode="F" horiz-adv-x="538" d="M75 0v690h428v-128h-292v-207h232v-124h-232v-231h-136z" />
<glyph unicode="G" horiz-adv-x="595" d="M347 257v119h198v-370q-148 -18 -227 -18q-149 0 -211 88.5t-62 270.5q0 187 62.5 271t205.5 84l232 -24l-4 -119q-125 13 -206 13q-83 0 -115.5 -47t-32.5 -178q0 -132 30 -181t114 -49l78 4v136h-62z" />
<glyph unicode="H" horiz-adv-x="663" d="M452 0v288h-241v-288h-136v690h136v-275h241v275h136v-690h-136z" />
<glyph unicode="I" horiz-adv-x="278" d="M70 0v690h138v-690h-138z" />
<glyph unicode="J" horiz-adv-x="314" d="M241 690l1 -575q0 -107 -43.5 -145.5t-163.5 -38.5v121q39 1 55 16t16 49v573h135z" />
<glyph unicode="K" horiz-adv-x="591" d="M407 0l-114 275l-82 -10v-265h-136v690h136v-300l80 10l112 290h159l-148 -343l152 -347h-159z" />
<glyph unicode="L" horiz-adv-x="485" d="M450 0h-375v690h136v-561h239v-129z" />
<glyph unicode="M" horiz-adv-x="848" d="M75 0v690h221l129 -507l130 507h218v-690h-136v526h-15l-128 -496h-138l-130 496h-15v-526h-136z" />
<glyph unicode="N" horiz-adv-x="701" d="M75 0v690h226l176 -546h11v546h138v-690h-220l-182 546h-11v-546h-138z" />
<glyph unicode="O" horiz-adv-x="644" d="M322 115q75 0 105 52t30 173q0 123 -30.5 179t-104.5 56t-104.5 -56t-30.5 -179q0 -121 30 -173t105 -52zM322 -12q-149 0 -213 86.5t-64 265.5q0 181 64.5 271.5t212.5 90.5t212.5 -90.5t64.5 -271.5q0 -179 -64 -265.5t-213 -86.5z" />
<glyph unicode="P" horiz-adv-x="592" d="M315 197h-102v-197h-138v690h240q114 0 178 -61.5t64 -179.5q0 -119 -64.5 -185.5t-177.5 -66.5zM213 323h101q50 0 76.5 34t26.5 92q0 115 -103 115h-101v-241z" />
<glyph unicode="Q" horiz-adv-x="644" d="M446 -156l-80 146q-28 -2 -44 -2q-149 0 -213 86.5t-64 265.5q0 181 64.5 271.5t212.5 90.5t212.5 -90.5t64.5 -271.5q0 -229 -104 -305l71 -132zM322 115q75 0 105 52t30 173q0 123 -30.5 179t-104.5 56t-104.5 -56t-30.5 -179q0 -120 30.5 -172.5t104.5 -52.5z" />
<glyph unicode="R" horiz-adv-x="612" d="M334 228l-21 -1h-102v-227h-136v690h252q118 0 179 -55t61 -174q0 -136 -99 -198l96 -263h-151zM426 459q0 48 -28 76t-71 28h-116v-213h118q44 0 70.5 31t26.5 78z" />
<glyph unicode="S" d="M491 677l-4 -116q-139 14 -197 14q-104 0 -104 -72q0 -34 27 -54t109 -52q113 -43 151 -79.5t38 -119.5q0 -109 -56.5 -159.5t-181.5 -50.5q-43 0 -95.5 6t-83.5 12l-32 5l7 118q131 -14 192 -14q57 0 85.5 17t28.5 62q0 29 -26 45.5t-104 46.5q-113 43 -154 88t-41 128 q0 98 59.5 149t172.5 51q97 0 209 -25z" />
<glyph unicode="T" horiz-adv-x="480" d="M8 557v133h464v-133h-162v-557h-136v557h-166z" />
<glyph unicode="U" horiz-adv-x="646" d="M207 230q0 -60 27 -84t89 -24t89 24.5t27 83.5v460h137v-460q0 -128 -59 -183.5t-194 -55.5t-194 55.5t-59 183.5v460h137v-460z" />
<glyph unicode="V" horiz-adv-x="613" d="M443 690h145l-160 -690h-245l-158 690h145l118 -566h35z" />
<glyph unicode="W" horiz-adv-x="941" d="M29 690h145l99 -566h15l104 556h157l104 -556h15l99 566h145l-139 -690h-215l-88 497l-87 -497h-215z" />
<glyph unicode="X" horiz-adv-x="581" d="M173 690l118 -249l117 249h153l-183 -348l183 -342h-153l-117 243l-118 -243h-153l186 342l-186 348h153z" />
<glyph unicode="Y" horiz-adv-x="571" d="M355 295v-295h-136v295l-204 395h153l118 -250l117 250h153z" />
<glyph unicode="Z" horiz-adv-x="570" d="M65 561v129h440v-129l-268 -417v-15h268v-129h-440v129l268 417v15h-268z" />
<glyph unicode="[" horiz-adv-x="300" d="M281 749v-132h-115v-608h115v-132h-252l-1 872h253z" />
<glyph unicode="\" horiz-adv-x="528" d="M481 0h-139l-308 702h140z" />
<glyph unicode="]" horiz-adv-x="300" d="M22 617v132h253l-1 -872h-252v132h115v608h-115z" />
<glyph unicode="^" d="M376 313l-109 215l-113 -215h-140l181 347h140l181 -347h-140z" />
<glyph unicode="_" d="M27 -85h476v-122h-476v122z" />
<glyph unicode="`" horiz-adv-x="545" d="M133 775l257 -92l-37 -105l-261 78z" />
<glyph unicode="a" horiz-adv-x="528" d="M451 339v-185q0 -27 8 -37.5t30 -16.5l-8 -112q-92 0 -144 34q-65 -34 -134 -34q-68 0 -113 45t-45 119q0 142 169 154l103 7v28q0 48 -45 48q-42 0 -91.5 -2.5t-78.5 -4.5l-28 -2l-4 109q137 22 210 22q85 0 128 -40t43 -132zM317 216l-88 -4q-23 -1 -36 -16t-13 -40 q0 -26 11.5 -41t31.5 -15q18 0 41.5 4t37.5 8l15 3v101z" />
<glyph unicode="b" horiz-adv-x="546" d="M309 511q96 0 146.5 -64.5t50.5 -191.5q0 -143 -58.5 -205t-185.5 -62l-190 13v699h134v-212q59 23 103 23zM262 105q61 0 84.5 39t23.5 111q0 66 -21.5 101t-57.5 35q-19 0 -40.5 -2.5t-32.5 -5.5l-12 -3v-271q41 -4 56 -4z" />
<glyph unicode="c" horiz-adv-x="436" d="M246 511q35 0 73.5 -4.5t60.5 -8.5l21 -4l-4 -113q-74 7 -112 7q-60 0 -84.5 -30.5t-24.5 -102.5q0 -75 25.5 -109.5t84.5 -34.5l111 6l4 -113q-82 -16 -158 -16q-203 0 -203 267q0 256 206 256z" />
<glyph unicode="d" horiz-adv-x="546" d="M474 700v-700h-134v20q-59 -31 -110 -31q-102 0 -146 68t-44 198q0 126 53 191t149 65l98 -13v202h134zM253 109q17 0 38.5 4.5t34.5 8.5l14 5v256q-45 11 -88 11q-35 0 -55.5 -36t-20.5 -103q0 -72 17.5 -109t59.5 -37z" />
<glyph unicode="e" horiz-adv-x="507" d="M271 106q32 0 77 2t74 4l29 3l2 -99q-91 -28 -193 -28q-117 0 -168.5 62.5t-51.5 192.5q0 126 54.5 197t161.5 71t160 -59t53 -165l-10 -93h-284q2 -88 96 -88zM174 294h163q0 53 -18 79t-63 26t-63 -27t-19 -78z" />
<glyph unicode="f" horiz-adv-x="343" d="M205 383v-383h-134v383h-49v116h49v23q0 99 35.5 143.5t110.5 44.5q15 0 42 -3t47 -7l20 -3l-2 -110q-39 5 -71 5q-27 0 -37.5 -17.5t-10.5 -53.5v-22h116v-116h-116z" />
<glyph unicode="g" horiz-adv-x="538" d="M276 -240q-236 0 -236 149q0 67 71 122q-36 25 -36 73q0 11 10 32t20 36l10 15q-69 49 -69 146q0 89 58.5 133t146.5 44q15 0 39 -3t40 -7l17 -3l154 3v-105h-63q17 -30 17 -62q0 -94 -53 -135t-153 -41q-18 0 -36 4q-10 -26 -10 -39q0 -21 15.5 -27t76.5 -6 q115 0 164 -34t49 -117q0 -90 -66.5 -134t-165.5 -44zM284 -24l-85 7q-27 -27 -27 -60q0 -21 29.5 -33.5t75.5 -12.5q96 0 96 53q0 27 -21 36.5t-68 9.5zM249 264q74 0 74 69q0 67 -73 67q-70 0 -70 -67q0 -69 69 -69z" />
<glyph unicode="h" horiz-adv-x="561" d="M206 0h-134v700h134v-214q72 25 119 25q93 0 132 -64t39 -185v-262h-134v263q0 127 -65 127q-15 0 -37.5 -4t-37.5 -8l-16 -3v-375z" />
<glyph unicode="i" horiz-adv-x="268" d="M67 0v499h134v-499h-134zM67 556v135h134v-135h-134z" />
<glyph unicode="j" horiz-adv-x="271" d="M70 6v493h134v-494q0 -105 -33.5 -153t-144.5 -100l-60 111q70 38 87 61t17 82zM70 555v135h134v-135h-134z" />
<glyph unicode="k" horiz-adv-x="518" d="M206 0h-134v700h134v-392l41 9l99 182h150l-129 -236l136 -263h-151l-102 189l-44 -10v-179z" />
<glyph unicode="l" horiz-adv-x="268" d="M67 0v700h134v-700h-134z" />
<glyph unicode="m" horiz-adv-x="847" d="M206 0h-134v499h133v-24q73 36 113 36q74 0 122 -41q117 41 171 41q92 0 131.5 -62.5t39.5 -187.5v-261h-134v256q0 67 -12.5 100t-52.5 33q-18 0 -41 -5.5t-37 -11.5l-14 -5q4 -69 4 -108v-259h-134v257q0 65 -15.5 98.5t-55.5 33.5q-15 0 -36 -5t-34 -10l-14 -5v-369z " />
<glyph unicode="n" horiz-adv-x="561" d="M206 0h-134v499h134v-22q72 34 119 34q93 0 132 -64t39 -186v-261h-134v261q0 128 -65 128l-91 -18v-371z" />
<glyph unicode="o" d="M265 511q225 0 225 -261q0 -262 -225 -262t-225 262q0 261 225 261zM265 104q51 0 70 38t19 108t-19 107.5t-70 37.5t-70 -37.5t-19 -107.5t19 -108t70 -38z" />
<glyph unicode="p" horiz-adv-x="546" d="M72 -210v709h134v-23q59 35 108 35q192 0 192 -257q0 -148 -54.5 -207t-167.5 -59q-16 0 -35.5 2t-30.5 4l-12 2v-206h-134zM288 391q-15 0 -35.5 -5.5t-33.5 -11.5l-13 -5v-257q33 -7 68 -7q54 0 75 37t21 112q0 137 -82 137z" />
<glyph unicode="q" horiz-adv-x="544" d="M249 -12q-112 0 -160.5 64.5t-48.5 195.5q0 263 219 263l213 -12v-710h-134v211q-56 -12 -89 -12zM259 394q-85 0 -85 -146q0 -140 85 -140l79 8v273q-54 5 -79 5z" />
<glyph unicode="r" horiz-adv-x="360" d="M67 0v499h134v-47q55 44 134 59v-144q-41 -8 -74.5 -17.5t-46.5 -15.5l-13 -5v-329h-134z" />
<glyph unicode="s" horiz-adv-x="497" d="M430 486l-2 -108q-129 16 -177 16q-65 0 -65 -43q0 -17 17 -24.5t72 -17.5q95 -18 132.5 -51.5t37.5 -107.5q0 -84 -52.5 -123t-144.5 -39q-33 0 -80.5 6t-79.5 12l-31 7l4 109q123 -17 174 -17q76 0 76 42q0 17 -14 25t-62 18q-96 21 -139.5 52.5t-43.5 105.5 q0 81 55 122t134 41q32 0 79 -6.5t78 -12.5z" />
<glyph unicode="t" horiz-adv-x="350" d="M326 381h-118v-196q0 -76 42 -76l71 2l6 -108q-62 -15 -97 -15q-83 0 -119.5 44.5t-36.5 145.5v203h-54v117h54v141h134v-141h118v-117z" />
<glyph unicode="u" horiz-adv-x="561" d="M355 499h134v-499h-134v21q-73 -33 -119 -33q-93 0 -132 59.5t-39 190.5v261h134v-261q0 -71 13.5 -101.5t51.5 -30.5q15 0 37.5 5t38.5 10l15 5v373z" />
<glyph unicode="v" horiz-adv-x="484" d="M13 499h139l82 -390h17l84 390h136l-120 -499h-218z" />
<glyph unicode="w" horiz-adv-x="750" d="M12 499h132l61 -378h24l76 369h140l76 -369h24l61 378h132l-93 -499h-215l-56 306l-57 -306h-212z" />
<glyph unicode="x" horiz-adv-x="467" d="M15 499h143l75 -155l76 155h143l-137 -250l137 -249h-143l-76 154l-75 -154h-143l136 249z" />
<glyph unicode="y" horiz-adv-x="485" d="M13 499h132l91 -369h13l91 369h132l-175 -708h-132l51 210h-80z" />
<glyph unicode="z" horiz-adv-x="477" d="M58 381v119h361v-119l-205 -262h205v-119h-361v119l205 262h-205z" />
<glyph unicode="{" horiz-adv-x="339" d="M263 172q0 -14 -3.5 -57t-3.5 -60q0 -31 13 -42t58 -15v-132q-113 4 -164.5 44t-51.5 128q0 21 3.5 65.5t3.5 55.5q0 37 -20 60t-74 38v112q55 14 74.5 34t19.5 56q0 13 -3.5 60t-3.5 67q0 94 50.5 132.5t165.5 42.5v-132q-46 -4 -58.5 -13.5t-12.5 -39.5 q0 -17 3.5 -65.5t3.5 -62.5q0 -59 -22 -87.5t-78 -46.5q55 -18 77.5 -50t22.5 -92z" />
<glyph unicode="|" d="M191 -250v1000h138v-1000h-138z" />
<glyph unicode="}" horiz-adv-x="339" d="M76 451q0 14 3.5 57t3.5 60q0 31 -13 42t-58 15v132q113 -4 164.5 -44t51.5 -128q0 -21 -3.5 -65.5t-3.5 -55.5q0 -37 20 -60t74 -38v-112q-55 -14 -74.5 -34t-19.5 -56q0 -13 3.5 -60t3.5 -67q0 -94 -50.5 -132.5t-165.5 -42.5v132q46 4 58.5 13.5t12.5 39.5 q0 17 -3.5 65.5t-3.5 62.5q0 59 22 87.5t78 46.5q-55 18 -77.5 50t-22.5 92z" />
<glyph unicode="~" d="M464 388l8 -125q-5 -6 -15 -15t-40.5 -23.5t-60.5 -14.5q-28 0 -95 22t-84 22q-48 0 -109 -40l-10 126q6 6 17 15t44.5 23.5t65.5 14.5q26 0 89.5 -22t87.5 -22q17 0 42.5 9.5t42.5 19.5z" />
<glyph unicode="&#xa1;" d="M344 499v-166h-144v166h144zM341 239l5 -440h-148l5 440h138z" />
<glyph unicode="&#xa2;" horiz-adv-x="437" d="M194 -75v104q-182 13 -182 221q0 205 182 220v101h112v-106l77 -10l-4 -115q-79 3 -117 3q-65 0 -89.5 -19t-24.5 -74t24.5 -74.5t90.5 -19.5l116 4l4 -115q-37 -6 -77 -11v-109h-112z" />
<glyph unicode="&#xa3;" d="M473 655l-7 -114q-101 8 -124 8q-34 0 -48 -15.5t-14 -54.5v-33h183v-122h-184v-200h115l69 16l21 -122l-81 -17q-51 0 -174 -0.5t-175 -0.5v124h94v200h-81v122h81v35q0 199 157 199z" />
<glyph unicode="&#xa4;" d="M423 2l-73 73q-86 -41 -170 0l-73 -73l-92 92l73 73q-41 84 0 170l-73 73l92 92l73 -73q84 40 170 0l73 73l92 -92l-73 -73q40 -86 0 -170l73 -73zM212 199q22 -22 53 -22t53 22t22 53t-22 53t-53 22t-53 -22t-22 -53t22 -53z" />
<glyph unicode="&#xa5;" horiz-adv-x="540" d="M48 281v112h97l-150 267h153l123 -241l122 241h153l-148 -267h94v-112h-148l-3 -8v-32h151v-112h-151v-129h-138v129h-155v112h155v32l-3 8h-152z" />
<glyph unicode="&#xa6;" d="M196 751h138v-409h-138v409zM196 172h138v-422h-138v422z" />
<glyph unicode="&#xa7;" d="M463 614l-6 -108q-113 16 -161 16q-58 0 -77 -14t-19 -51q0 -22 27 -33.5t109 -31.5q90 -22 121 -51t31 -100q0 -68 -50 -139q20 -19 29 -41t9 -68q0 -97 -51.5 -140t-165.5 -43q-31 0 -77.5 6t-77.5 12l-31 5l13 108q108 -15 163 -15q52 0 75.5 13.5t23.5 43.5 q0 27 -25 39t-117 35q-88 22 -122 53.5t-34 102.5q0 35 20 74.5t44 59.5q-44 32 -44 108q0 183 217 183q32 0 76 -6t72 -12zM271 285l-33 8t-36 9q-17 -26 -17 -64q0 -29 11.5 -40t48.5 -21q42 -12 89 -28q18 23 18 73q0 25 -16 37.5t-65 25.5z" />
<glyph unicode="&#xa8;" horiz-adv-x="541" d="M67 606v132h128v-132h-128zM283 606v132h128v-132h-128z" />
<glyph unicode="&#xa9;" d="M9 433q0 114 73 191t183 77q113 0 184.5 -78.5t71.5 -188.5q0 -113 -71.5 -189.5t-186.5 -76.5q-107 0 -180.5 77t-73.5 188zM72 434q0 -84 55 -143t137 -59q84 0 139.5 58.5t55.5 143.5q0 84 -56 144t-138 60t-137.5 -60t-55.5 -144zM343 390v-103q-26 -8 -75 -8 q-70 0 -101 37t-31 123q0 77 31.5 113t100.5 36l76 -5l-1 -106q-27 6 -75 6q-14 0 -21.5 -14t-7.5 -30q0 -20 8 -37t21 -17z" />
<glyph unicode="&#xaa;" d="M380 566v-104q0 -26 22 -30l-5 -73q-63 3 -81 19q-53 -19 -95 -19q-102 0 -102 104q0 91 105 96l71 3v5q0 27 -25 27l-132 -5l-2 72q111 12 148 12q43 0 69.5 -30t26.5 -77zM295 497l-63 -2q-27 -1 -27 -32t28 -31l62 8v57z" />
<glyph unicode="&#xab;" horiz-adv-x="608" d="M288 319l-109 -75l109 -86v-135l-223 171v96l223 164v-135zM548 319l-109 -75l109 -86v-135l-223 171v96l223 164v-135z" />
<glyph unicode="&#xac;" d="M48 368h431v-274h-130v144h-301v130z" />
<glyph unicode="&#xae;" d="M-10 434q0 120 74 202t201 82t204 -81.5t77 -202.5q0 -118 -77.5 -201.5t-203.5 -83.5q-127 0 -201 82t-74 203zM52 434q0 -91 62.5 -157.5t150.5 -66.5t151 66t63 158q0 94 -63 159t-151 65q-91 0 -152 -64.5t-61 -159.5zM294 276l-32 101h-26v-101h-96v315h126 q124 0 124 -102q0 -39 -8 -60t-30 -39l45 -114h-103zM235 519v-71h28q34 0 34 34q0 37 -35 37h-27z" />
<glyph unicode="&#xaf;" horiz-adv-x="486" d="M73 622v116h327v-116h-327z" />
<glyph unicode="&#xb0;" d="M94 564q0 67 41.5 108.5t108.5 41.5t108.5 -41.5t41.5 -108.5t-41.5 -108t-108.5 -41t-108.5 41t-41.5 108zM169 564q0 -34 20.5 -55t54.5 -21t55.5 21t21.5 55t-21.5 55.5t-55.5 21.5t-54.5 -21.5t-20.5 -55.5z" />
<glyph unicode="&#xb1;" d="M31 286v132h166v98h136v-98h166v-132h-166v-93h-136v93h-166zM31 153h468v-132h-468v132z" />
<glyph unicode="&#xb2;" horiz-adv-x="265" d="M245 478h-231v90l73 59q46 37 46 57q0 15 -37 15l-76 -6l-4 99q73 9 118 9q61 0 86 -23t25 -77q0 -33 -13 -55.5t-43 -44.5l-38 -28h94v-95z" />
<glyph unicode="&#xb3;" horiz-adv-x="265" d="M24 792q68 9 108 9q121 0 121 -89q0 -53 -29 -70q35 -15 35 -73q0 -51 -31 -76.5t-87 -25.5l-121 8l6 93q61 -6 94 -6q29 0 29 16q0 14 -26 14h-66v85h64q20 0 20 14q0 15 -27 15l-84 -5z" />
<glyph unicode="&#xb4;" horiz-adv-x="588" d="M89 684l257 92l44 -127l-261 -78z" />
<glyph unicode="&#xb5;" d="M53 -220v719h134v-277q0 -59 14.5 -87.5t55.5 -28.5q15 0 36.5 4t35.5 8l14 5v376h134v-499h-134v21q-68 -33 -104 -33q-16 0 -29 6t-18 12l-5 5v-231h-134z" />
<glyph unicode="&#x3bc;" d="M53 -220v719h134v-277q0 -59 14.5 -87.5t55.5 -28.5q15 0 36.5 4t35.5 8l14 5v376h134v-499h-134v21q-68 -33 -104 -33q-16 0 -29 6t-18 12l-5 5v-231h-134z" />
<glyph unicode="&#xb6;" d="M377 0v597h-62v-597h-114v306h-7q-84 0 -135 54.5t-51 141.5t52 142.5t136 55.5h331v-103h-36v-597h-114z" />
<glyph unicode="&#xb7;" horiz-adv-x="248" d="M45 207v166h144v-166h-144z" />
<glyph unicode="&#xb8;" horiz-adv-x="833" d="M568 -127q0 -50 -29.5 -77t-81.5 -27q-19 0 -42.5 2.5t-36.5 5.5l-14 3l4 78q31 -1 48 -1q38 0 38 26q0 22 -38 22h-24v96h53v-38q66 -1 94.5 -19t28.5 -71z" />
<glyph unicode="&#xb9;" horiz-adv-x="265" d="M16 715l106 75h96v-312h-106v195l-47 -32z" />
<glyph unicode="&#xba;" d="M259 672q143 0 143 -154q0 -159 -143 -159q-139 0 -139 159q0 82 35.5 118t103.5 36zM259 439q30 0 42.5 17t12.5 62q0 41 -13.5 57.5t-41.5 16.5t-39.5 -16.5t-11.5 -57.5q0 -45 11.5 -62t39.5 -17z" />
<glyph unicode="&#xbb;" horiz-adv-x="608" d="M429 254l-109 75v135l223 -164v-96l-223 -171v135zM169 254l-109 75v135l223 -164v-96l-223 -171v135z" />
<glyph unicode="&#xbf;" horiz-adv-x="386" d="M5 -17q0 48 24.5 93t54 72t54 55.5t24.5 47.5v38h136q8 -41 8 -61q0 -33 -24 -68t-52.5 -59.5t-52.5 -52t-24 -47.5q0 -41 14.5 -57.5t68.5 -16.5q23 0 60 4t63 8l26 4l15 -120q-116 -38 -180 -38q-113 0 -164 45t-51 153zM306 499v-156h-144v156h144z" />
<glyph unicode="&#xc0;" horiz-adv-x="605" d="M25 0l153 690h252l150 -690h-138l-31 119h-222l-26 -119h-138zM286 570l-69 -324h169l-66 324h-34zM181 955l257 -92l-40 -113l-261 78z" />
<glyph unicode="&#xc1;" horiz-adv-x="605" d="M25 0l153 690h252l150 -690h-138l-31 119h-222l-26 -119h-138zM286 570l-69 -324h169l-66 324h-34zM137 874l257 92l44 -127l-261 -78z" />
<glyph unicode="&#xc2;" horiz-adv-x="605" d="M25 0l153 690h252l150 -690h-138l-31 119h-222l-26 -119h-138zM286 570l-69 -324h169l-66 324h-34zM106 785l131 149h123l131 -149h-150l-41 43l-41 -43h-153z" />
<glyph unicode="&#xc3;" horiz-adv-x="605" d="M25 0l153 690h252l150 -690h-138l-31 119h-222l-26 -119h-138zM286 570l-69 -324h169l-66 324h-34zM464 940l29 -102q-6 -7 -16.5 -17.5t-38.5 -28t-52 -17.5q-28 0 -91.5 22t-77.5 22q-12 0 -32 -10t-34 -20l-14 -10l-29 101q6 7 16.5 17.5t38.5 28.5t52 18 q35 0 96 -21.5t71 -21.5q26 0 82 39z" />
<glyph unicode="&#xc4;" horiz-adv-x="605" d="M25 0l153 690h252l150 -690h-138l-31 119h-222l-26 -119h-138zM286 570l-69 -324h169l-66 324h-34zM131 794v132h128v-132h-128zM353 794v132h128v-132h-128z" />
<glyph unicode="&#xc5;" horiz-adv-x="605" d="M455 721q0 -35 -18 -64l143 -657h-138l-31 119h-222l-26 -119h-138l146 659q-16 29 -16 62q0 59 43 92.5t107 33.5t107 -33.5t43 -92.5zM286 570l-69 -324h169l-66 324h-34zM258 721q0 -25 29 -31h36q29 6 29 31q0 15 -12.5 24t-34.5 9t-34.5 -9t-12.5 -24z" />
<glyph unicode="&#xc6;" horiz-adv-x="810" d="M332 0v119h-153l-26 -119h-138l153 690h592v-128h-293v-162h233v-121h-233v-151h293v-128h-428zM275 563l-68 -317h125v317h-57z" />
<glyph unicode="&#xc7;" horiz-adv-x="537" d="M441 -127q0 -50 -29.5 -77t-81.5 -27q-19 0 -42.5 2.5t-37.5 5.5l-13 3l4 78q31 -1 48 -1q38 0 38 26q0 22 -38 22h-24v85q-124 9 -172 93.5t-48 261.5q0 194 59 275.5t196 81.5l194 -24l-4 -120q-126 12 -170 12q-74 0 -103.5 -46.5t-29.5 -178.5q0 -130 28.5 -177.5 t108.5 -47.5l166 11l3 -123q-105 -16 -175 -19v-26q66 -1 94.5 -19t28.5 -71z" />
<glyph unicode="&#xc8;" horiz-adv-x="553" d="M75 0v690h428v-127h-292v-162h232v-123h-232v-151h292v-127h-428zM193 955l257 -92l-40 -113l-261 78z" />
<glyph unicode="&#xc9;" horiz-adv-x="553" d="M75 0v690h428v-127h-292v-162h232v-123h-232v-151h292v-127h-428zM152 874l257 92l44 -127l-261 -78z" />
<glyph unicode="&#xca;" horiz-adv-x="553" d="M75 0v690h428v-127h-292v-162h232v-123h-232v-151h292v-127h-428zM103 788l131 149h123l131 -149h-150l-41 43l-41 -43h-153z" />
<glyph unicode="&#xcb;" horiz-adv-x="553" d="M75 0v690h428v-127h-292v-162h232v-123h-232v-151h292v-127h-428zM127 794v132h128v-132h-128zM349 794v132h128v-132h-128z" />
<glyph unicode="&#xcc;" horiz-adv-x="278" d="M70 0v690h138v-690h-138zM-8 955l257 -92l-40 -113l-261 78z" />
<glyph unicode="&#xcd;" horiz-adv-x="278" d="M70 0v690h138v-690h-138zM18 874l257 92l44 -127l-261 -78z" />
<glyph unicode="&#xce;" horiz-adv-x="278" d="M70 0v690h138v-690h-138zM-56 788l131 149h123l131 -149h-150l-41 43l-41 -43h-153z" />
<glyph unicode="&#xcf;" horiz-adv-x="278" d="M70 0v690h138v-690h-138zM-37 806v132h128v-132h-128zM185 806v132h128v-132h-128z" />
<glyph unicode="&#xd0;" horiz-adv-x="626" d="M16 277v132h59v281h222q164 0 224 -76.5t60 -255.5q0 -93 -11.5 -155.5t-42.5 -110.5t-87.5 -70t-142.5 -22h-222v277h-59zM439 358q0 114 -27 159.5t-115 45.5h-86v-154h125v-132h-125v-150h86q86 0 114 55.5t28 175.5z" />
<glyph unicode="&#xd1;" horiz-adv-x="701" d="M75 0v690h226l176 -546h11v546h138v-690h-220l-182 546h-11v-546h-138zM516 939l29 -102q-6 -7 -16.5 -17.5t-38.5 -28t-52 -17.5q-28 0 -91.5 22t-77.5 22q-12 0 -32 -10t-34 -20l-14 -10l-29 101q6 7 16.5 17.5t38.5 28.5t52 18q35 0 96 -21.5t71 -21.5q26 0 82 39z " />
<glyph unicode="&#xd2;" horiz-adv-x="644" d="M322 115q75 0 105 52t30 173q0 123 -30.5 179t-104.5 56t-104.5 -56t-30.5 -179q0 -121 30 -173t105 -52zM322 -12q-149 0 -213 86.5t-64 265.5q0 181 64.5 271.5t212.5 90.5t212.5 -90.5t64.5 -271.5q0 -179 -64 -265.5t-213 -86.5zM211 955l257 -92l-40 -113l-261 78z " />
<glyph unicode="&#xd3;" horiz-adv-x="644" d="M322 115q75 0 105 52t30 173q0 123 -30.5 179t-104.5 56t-104.5 -56t-30.5 -179q0 -121 30 -173t105 -52zM322 -12q-149 0 -213 86.5t-64 265.5q0 181 64.5 271.5t212.5 90.5t212.5 -90.5t64.5 -271.5q0 -179 -64 -265.5t-213 -86.5zM157 874l257 92l44 -127l-261 -78z " />
<glyph unicode="&#xd4;" horiz-adv-x="644" d="M322 115q75 0 105 52t30 173q0 123 -30.5 179t-104.5 56t-104.5 -56t-30.5 -179q0 -121 30 -173t105 -52zM322 -12q-149 0 -213 86.5t-64 265.5q0 181 64.5 271.5t212.5 90.5t212.5 -90.5t64.5 -271.5q0 -179 -64 -265.5t-213 -86.5zM136 785l131 149h123l131 -149h-150 l-41 43l-41 -43h-153z" />
<glyph unicode="&#xd5;" horiz-adv-x="644" d="M322 115q75 0 105 52t30 173q0 123 -30.5 179t-104.5 56t-104.5 -56t-30.5 -179q0 -121 30 -173t105 -52zM322 -12q-149 0 -213 86.5t-64 265.5q0 181 64.5 271.5t212.5 90.5t212.5 -90.5t64.5 -271.5q0 -179 -64 -265.5t-213 -86.5zM485 939l29 -102q-6 -7 -16.5 -17.5 t-38.5 -28t-52 -17.5q-28 0 -91.5 22t-77.5 22q-12 0 -32 -10t-34 -20l-14 -10l-29 101q6 7 16.5 17.5t38.5 28.5t52 18q35 0 96 -21.5t71 -21.5q26 0 82 39z" />
<glyph unicode="&#xd6;" horiz-adv-x="644" d="M322 115q75 0 105 52t30 173q0 123 -30.5 179t-104.5 56t-104.5 -56t-30.5 -179q0 -121 30 -173t105 -52zM322 -12q-149 0 -213 86.5t-64 265.5q0 181 64.5 271.5t212.5 90.5t212.5 -90.5t64.5 -271.5q0 -179 -64 -265.5t-213 -86.5zM147 794v132h128v-132h-128zM369 794 v132h128v-132h-128z" />
<glyph unicode="&#xd7;" d="M127 497l132 -133l137 136l93 -93l-136 -137l133 -133l-93 -93l-133 133l-137 -137l-93 94l137 137l-133 133z" />
<glyph unicode="&#xd8;" horiz-adv-x="656" d="M322 -12q-62 0 -108 15l-58 -125l-79 40l59 127q-91 80 -91 295q0 181 64.5 271.5t212.5 90.5q64 0 112 -18l57 122l83 -31l-64 -137q89 -85 89 -298q0 -179 -64 -265.5t-213 -86.5zM187 340q0 -100 18 -148l173 372q-25 11 -56 11q-74 0 -104.5 -56t-30.5 -179zM322 115 q75 0 105 52t30 173q0 95 -17 147l-170 -365q21 -7 52 -7z" />
<glyph unicode="&#xd9;" horiz-adv-x="646" d="M207 230q0 -60 27 -84t89 -24t89 24.5t27 83.5v460h137v-460q0 -128 -59 -183.5t-194 -55.5t-194 55.5t-59 183.5v460h137v-460zM204 955l257 -92l-40 -113l-261 78z" />
<glyph unicode="&#xda;" horiz-adv-x="646" d="M207 230q0 -60 27 -84t89 -24t89 24.5t27 83.5v460h137v-460q0 -128 -59 -183.5t-194 -55.5t-194 55.5t-59 183.5v460h137v-460zM160 874l257 92l44 -127l-261 -78z" />
<glyph unicode="&#xdb;" horiz-adv-x="646" d="M207 230q0 -60 27 -84t89 -24t89 24.5t27 83.5v460h137v-460q0 -128 -59 -183.5t-194 -55.5t-194 55.5t-59 183.5v460h137v-460zM130 785l131 149h123l131 -149h-150l-41 43l-41 -43h-153z" />
<glyph unicode="&#xdc;" horiz-adv-x="646" d="M207 230q0 -60 27 -84t89 -24t89 24.5t27 83.5v460h137v-460q0 -128 -59 -183.5t-194 -55.5t-194 55.5t-59 183.5v460h137v-460zM146 806v132h128v-132h-128zM368 806v132h128v-132h-128z" />
<glyph unicode="&#xdd;" horiz-adv-x="571" d="M355 295v-295h-136v295l-204 395h153l118 -250l117 250h153zM165 874l257 92l44 -127l-261 -78z" />
<glyph unicode="&#xde;" horiz-adv-x="592" d="M314 233q103 0 103 115q0 53 -26 82.5t-77 29.5h-101v-227h101zM315 100h-102v-100h-138v690h138v-98h102q119 0 180.5 -62.5t61.5 -181.5q0 -122 -61 -185t-181 -63z" />
<glyph unicode="&#xdf;" horiz-adv-x="628" d="M201 0h-134v522q0 101 56.5 144.5t174.5 43.5q121 0 175.5 -35.5t54.5 -119.5q0 -54 -19 -77t-75 -50q-35 -17 -47 -28.5t-12 -26.5q0 -13 16 -23.5t78 -36.5q67 -28 90.5 -58.5t23.5 -90.5q0 -101 -46 -137t-162 -36l-138 21l4 107q107 -4 124 -4q48 0 64 8t16 31 q0 19 -16.5 33.5t-64.5 31.5q-74 26 -100.5 57t-26.5 92q0 47 18 72.5t59 45.5q48 23 62 33.5t14 25.5q0 25 -22 34.5t-70 9.5q-97 0 -97 -70v-519z" />
<glyph unicode="&#xe0;" horiz-adv-x="528" d="M451 339v-185q0 -27 8 -37.5t30 -16.5l-8 -112q-92 0 -144 34q-65 -34 -134 -34q-68 0 -113 45t-45 119q0 142 169 154l103 7v28q0 48 -45 48q-42 0 -91.5 -2.5t-78.5 -4.5l-28 -2l-4 109q137 22 210 22q85 0 128 -40t43 -132zM317 216l-88 -4q-23 -1 -36 -16t-13 -40 q0 -26 11.5 -41t31.5 -15q18 0 41.5 4t37.5 8l15 3v101zM151 775l257 -92l-37 -105l-261 78z" />
<glyph unicode="&#xe1;" horiz-adv-x="528" d="M451 339v-185q0 -27 8 -37.5t30 -16.5l-8 -112q-92 0 -144 34q-65 -34 -134 -34q-68 0 -113 45t-45 119q0 142 169 154l103 7v28q0 48 -45 48q-42 0 -91.5 -2.5t-78.5 -4.5l-28 -2l-4 109q137 22 210 22q85 0 128 -40t43 -132zM317 216l-88 -4q-23 -1 -36 -16t-13 -40 q0 -26 11.5 -41t31.5 -15q18 0 41.5 4t37.5 8l15 3v101zM157 684l257 92l44 -127l-261 -78z" />
<glyph unicode="&#xe2;" horiz-adv-x="528" d="M451 339v-185q0 -27 8 -37.5t30 -16.5l-8 -112q-92 0 -144 34q-65 -34 -134 -34q-68 0 -113 45t-45 119q0 142 169 154l103 7v28q0 48 -45 48q-42 0 -91.5 -2.5t-78.5 -4.5l-28 -2l-4 109q137 22 210 22q85 0 128 -40t43 -132zM317 216l-88 -4q-23 -1 -36 -16t-13 -40 q0 -26 11.5 -41t31.5 -15q18 0 41.5 4t37.5 8l15 3v101zM68 580l131 172h108l132 -172h-143l-42 61l-43 -61h-143z" />
<glyph unicode="&#xe3;" horiz-adv-x="528" d="M451 339v-185q0 -27 8 -37.5t30 -16.5l-8 -112q-92 0 -144 34q-65 -34 -134 -34q-68 0 -113 45t-45 119q0 142 169 154l103 7v28q0 48 -45 48q-42 0 -91.5 -2.5t-78.5 -4.5l-28 -2l-4 109q137 22 210 22q85 0 128 -40t43 -132zM317 216l-88 -4q-23 -1 -36 -16t-13 -40 q0 -26 11.5 -41t31.5 -15q18 0 41.5 4t37.5 8l15 3v101zM407 749l29 -101q-6 -7 -16.5 -17.5t-38.5 -28t-52 -17.5q-28 0 -81.5 22t-67.5 22q-12 0 -32 -10t-34 -20l-14 -10l-29 100q6 7 16.5 17.5t38.5 28.5t52 18q35 0 86 -21.5t61 -21.5q26 0 82 39z" />
<glyph unicode="&#xe4;" horiz-adv-x="528" d="M451 339v-185q0 -27 8 -37.5t30 -16.5l-8 -112q-92 0 -144 34q-65 -34 -134 -34q-68 0 -113 45t-45 119q0 142 169 154l103 7v28q0 48 -45 48q-42 0 -91.5 -2.5t-78.5 -4.5l-28 -2l-4 109q137 22 210 22q85 0 128 -40t43 -132zM317 216l-88 -4q-23 -1 -36 -16t-13 -40 q0 -26 11.5 -41t31.5 -15q18 0 41.5 4t37.5 8l15 3v101zM115 606v132h128v-132h-128zM331 606v132h128v-132h-128z" />
<glyph unicode="&#xe5;" horiz-adv-x="528" d="M451 339v-185q0 -27 8 -37.5t30 -16.5l-8 -112q-92 0 -144 34q-65 -34 -134 -34q-68 0 -113 45t-45 119q0 142 169 154l103 7v28q0 48 -45 48q-42 0 -91.5 -2.5t-78.5 -4.5l-28 -2l-4 109q137 22 210 22q85 0 128 -40t43 -132zM317 216l-88 -4q-23 -1 -36 -16t-13 -40 q0 -26 11.5 -41t31.5 -15q18 0 41.5 4t37.5 8l15 3v101zM147 658q0 49 33.5 83t83.5 34q49 0 83 -34t34 -83q0 -50 -34 -83.5t-83 -33.5q-50 0 -83.5 33.5t-33.5 83.5zM234 658q0 -14 9 -22.5t22 -8.5t21.5 9t8.5 22t-8.5 21.5t-21.5 8.5t-22 -8.5t-9 -21.5z" />
<glyph unicode="&#xe6;" horiz-adv-x="828" d="M565 106q32 0 77 2t74 4l29 3l2 -99q-91 -28 -193 -28q-108 0 -159 48l-23 -11q-84 -37 -152 -37t-113 45t-45 119q0 142 164 154l108 7v28q0 21 -12 34.5t-33 13.5q-33 0 -81.5 -3.5t-80.5 -7.5l-32 -3l-4 114q128 22 201 22q91 0 131 -40q51 40 131 40 q104 0 156.5 -59.5t52.5 -164.5l-10 -93h-284q2 -88 96 -88zM242 100l92 15v99l-86 -4q-23 -1 -37 -15.5t-14 -38.5q0 -25 13.5 -40.5t31.5 -15.5zM468 294h163q0 53 -18 79t-63 26t-63 -27t-19 -78z" />
<glyph unicode="&#xe7;" horiz-adv-x="436" d="M395 -127q0 -50 -29.5 -77t-81.5 -27q-19 0 -42.5 2.5t-37.5 5.5l-13 3l4 78q31 -1 48 -1q38 0 38 26q0 22 -38 22h-24v84q-91 7 -135 73.5t-44 192.5q0 256 206 256q35 0 73.5 -4.5t60.5 -8.5l21 -4l-4 -113q-74 7 -112 7q-60 0 -84.5 -30.5t-24.5 -102.5 q0 -75 25.5 -109.5t84.5 -34.5l111 6l4 -113q-63 -12 -129 -15v-26q66 -1 94.5 -19t28.5 -71z" />
<glyph unicode="&#xe8;" horiz-adv-x="507" d="M271 106q32 0 77 2t74 4l29 3l2 -99q-91 -28 -193 -28q-117 0 -168.5 62.5t-51.5 192.5q0 126 54.5 197t161.5 71t160 -59t53 -165l-10 -93h-284q2 -88 96 -88zM174 294h163q0 53 -18 79t-63 26t-63 -27t-19 -78zM146 775l257 -92l-37 -105l-261 78z" />
<glyph unicode="&#xe9;" horiz-adv-x="507" d="M271 106q32 0 77 2t74 4l29 3l2 -99q-91 -28 -193 -28q-117 0 -168.5 62.5t-51.5 192.5q0 126 54.5 197t161.5 71t160 -59t53 -165l-10 -93h-284q2 -88 96 -88zM174 294h163q0 53 -18 79t-63 26t-63 -27t-19 -78zM114 684l257 92l44 -127l-261 -78z" />
<glyph unicode="&#xea;" horiz-adv-x="507" d="M271 106q32 0 77 2t74 4l29 3l2 -99q-91 -28 -193 -28q-117 0 -168.5 62.5t-51.5 192.5q0 126 54.5 197t161.5 71t160 -59t53 -165l-10 -93h-284q2 -88 96 -88zM174 294h163q0 53 -18 79t-63 26t-63 -27t-19 -78zM80 580l131 172h108l132 -172h-143l-42 61l-43 -61h-143z " />
<glyph unicode="&#xeb;" horiz-adv-x="507" d="M271 106q32 0 77 2t74 4l29 3l2 -99q-91 -28 -193 -28q-117 0 -168.5 62.5t-51.5 192.5q0 126 54.5 197t161.5 71t160 -59t53 -165l-10 -93h-284q2 -88 96 -88zM174 294h163q0 53 -18 79t-63 26t-63 -27t-19 -78zM122 606v132h128v-132h-128zM338 606v132h128v-132h-128z " />
<glyph unicode="&#xec;" horiz-adv-x="268" d="M67 0v499h134v-499h-134zM-22 775l257 -92l-37 -105l-261 78z" />
<glyph unicode="&#xed;" horiz-adv-x="261" d="M-4 684l257 92l44 -127l-261 -78zM67 0v499h134v-499h-134z" />
<glyph unicode="&#xee;" horiz-adv-x="268" d="M67 0v499h134v-499h-134zM-57 580l131 172h108l132 -172h-143l-42 61l-43 -61h-143z" />
<glyph unicode="&#xef;" horiz-adv-x="268" d="M-17 606v132h128v-132h-128zM199 606v132h128v-132h-128zM67 0v499h134v-499h-134z" />
<glyph unicode="&#xf0;" d="M152 467l-54 76l41 32l-73 12l18 113q104 -8 179 -28l96 75l54 -76l-48 -38q147 -80 147 -286q0 -183 -60 -269.5t-195 -86.5q-115 0 -175 61.5t-60 181.5q0 94 60 149t158 55q31 0 63 -6t49 -12l16 -5q-5 52 -30 82.5t-83 50.5zM248 321q-37 0 -59.5 -26t-22.5 -61 q0 -119 91 -119q111 0 111 183q-48 23 -120 23z" />
<glyph unicode="&#xf1;" horiz-adv-x="574" d="M216 0h-134v499h134v-22q72 34 119 34q93 0 132 -64t39 -186v-261h-134v261q0 128 -65 128l-91 -18v-371zM441 749l29 -101q-6 -7 -16.5 -17.5t-38.5 -28t-52 -17.5q-28 0 -81.5 22t-67.5 22q-12 0 -32 -10t-34 -20l-14 -10l-29 100q6 7 16.5 17.5t38.5 28.5t52 18 q35 0 86 -21.5t61 -21.5q26 0 82 39z" />
<glyph unicode="&#xf2;" d="M265 511q225 0 225 -261q0 -262 -225 -262t-225 262q0 261 225 261zM265 104q51 0 70 38t19 108t-19 107.5t-70 37.5t-70 -37.5t-19 -107.5t19 -108t70 -38zM133 775l257 -92l-37 -105l-261 78z" />
<glyph unicode="&#xf3;" d="M265 511q225 0 225 -261q0 -262 -225 -262t-225 262q0 261 225 261zM265 104q51 0 70 38t19 108t-19 107.5t-70 37.5t-70 -37.5t-19 -107.5t19 -108t70 -38zM96 684l257 92l44 -127l-261 -78z" />
<glyph unicode="&#xf4;" d="M265 511q225 0 225 -261q0 -262 -225 -262t-225 262q0 261 225 261zM265 104q51 0 70 38t19 108t-19 107.5t-70 37.5t-70 -37.5t-19 -107.5t19 -108t70 -38zM54 580l131 172h108l132 -172h-143l-42 61l-43 -61h-143z" />
<glyph unicode="&#xf5;" d="M265 511q225 0 225 -261q0 -262 -225 -262t-225 262q0 261 225 261zM265 104q51 0 70 38t19 108t-19 107.5t-70 37.5t-70 -37.5t-19 -107.5t19 -108t70 -38zM384 749l29 -101q-6 -7 -16.5 -17.5t-38.5 -28t-52 -17.5q-28 0 -81.5 22t-67.5 22q-12 0 -32 -10t-34 -20 l-14 -10l-29 100q6 7 16.5 17.5t38.5 28.5t52 18q35 0 86 -21.5t61 -21.5q26 0 82 39z" />
<glyph unicode="&#xf6;" d="M265 511q225 0 225 -261q0 -262 -225 -262t-225 262q0 261 225 261zM265 104q51 0 70 38t19 108t-19 107.5t-70 37.5t-70 -37.5t-19 -107.5t19 -108t70 -38zM94 606v132h128v-132h-128zM310 606v132h128v-132h-128z" />
<glyph unicode="&#xf7;" d="M197 393v132h132v-132h-132zM40 209v134h446v-134h-446zM197 27v132h132v-132h-132z" />
<glyph unicode="&#xf8;" d="M265 511q27 0 55 -5l41 101l81 -30l-42 -102q90 -60 90 -225q0 -262 -225 -262q-35 0 -62 6l-42 -102l-80 30l43 105q-84 63 -84 223q0 261 225 261zM265 104q51 0 70 38t19 108q0 60 -12 93l-96 -238q6 -1 19 -1zM176 250q0 -57 10 -87l91 231q-4 1 -12 1 q-51 0 -70 -37.5t-19 -107.5z" />
<glyph unicode="&#xf9;" horiz-adv-x="561" d="M355 499h134v-499h-134v21q-73 -33 -119 -33q-93 0 -132 59.5t-39 190.5v261h134v-261q0 -71 13.5 -101.5t51.5 -30.5q15 0 37.5 5t38.5 10l15 5v373zM154 775l257 -92l-37 -105l-261 78z" />
<glyph unicode="&#xfa;" horiz-adv-x="561" d="M355 499h134v-499h-134v21q-73 -33 -119 -33q-93 0 -132 59.5t-39 190.5v261h134v-261q0 -71 13.5 -101.5t51.5 -30.5q15 0 37.5 5t38.5 10l15 5v373zM110 684l257 92l44 -127l-261 -78z" />
<glyph unicode="&#xfb;" horiz-adv-x="561" d="M355 499h134v-499h-134v21q-73 -33 -119 -33q-93 0 -132 59.5t-39 190.5v261h134v-261q0 -71 13.5 -101.5t51.5 -30.5q15 0 37.5 5t38.5 10l15 5v373zM91 580l131 172h108l132 -172h-143l-42 61l-43 -61h-143z" />
<glyph unicode="&#xfc;" horiz-adv-x="561" d="M355 499h134v-499h-134v21q-73 -33 -119 -33q-93 0 -132 59.5t-39 190.5v261h134v-261q0 -71 13.5 -101.5t51.5 -30.5q15 0 37.5 5t38.5 10l15 5v373zM108 606v132h128v-132h-128zM324 606v132h128v-132h-128z" />
<glyph unicode="&#xfd;" horiz-adv-x="480" d="M4 499h132l91 -369h13l91 369h132l-175 -708h-132l51 210h-80zM101 684l257 92l44 -127l-261 -78z" />
<glyph unicode="&#xfe;" horiz-adv-x="546" d="M279 104q50 0 70.5 38t20.5 113q0 136 -82 136l-82 -8v-273q28 -6 73 -6zM306 511q101 0 150.5 -61t49.5 -195q0 -150 -54 -208.5t-171 -58.5l-75 3v-201h-134v910h134v-212q56 23 100 23z" />
<glyph unicode="&#xff;" horiz-adv-x="485" d="M13 499h132l91 -369h13l91 369h132l-175 -708h-132l51 210h-80zM70 606v132h128v-132h-128zM286 606v132h128v-132h-128z" />
<glyph unicode="&#x100;" horiz-adv-x="605" d="M25 0l153 690h252l150 -690h-138l-31 119h-222l-26 -119h-138zM286 570l-69 -324h169l-66 324h-34zM129 802v116h347v-116h-347z" />
<glyph unicode="&#x101;" horiz-adv-x="528" d="M451 339v-185q0 -27 8 -37.5t30 -16.5l-8 -112q-92 0 -144 34q-65 -34 -134 -34q-68 0 -113 45t-45 119q0 142 169 154l103 7v28q0 48 -45 48q-42 0 -91.5 -2.5t-78.5 -4.5l-28 -2l-4 109q137 22 210 22q85 0 128 -40t43 -132zM317 216l-88 -4q-23 -1 -36 -16t-13 -40 q0 -26 11.5 -41t31.5 -15q18 0 41.5 4t37.5 8l15 3v101zM100 622v116h327v-116h-327z" />
<glyph unicode="&#x102;" horiz-adv-x="605" d="M25 0l153 690h252l150 -690h-138l-31 119h-222l-26 -119h-138zM286 570l-69 -324h169l-66 324h-34zM116 930h139q8 -39 47 -39q41 0 48 39h139q-8 -68 -54.5 -109.5t-132.5 -41.5t-132 41.5t-54 109.5z" />
<glyph unicode="&#x103;" horiz-adv-x="528" d="M451 339v-185q0 -27 8 -37.5t30 -16.5l-8 -112q-92 0 -144 34q-65 -34 -134 -34q-68 0 -113 45t-45 119q0 142 169 154l103 7v28q0 48 -45 48q-42 0 -91.5 -2.5t-78.5 -4.5l-28 -2l-4 109q137 22 210 22q85 0 128 -40t43 -132zM317 216l-88 -4q-23 -1 -36 -16t-13 -40 q0 -26 11.5 -41t31.5 -15q18 0 41.5 4t37.5 8l15 3v101zM70 748h139q7 -44 55 -44q49 0 55 44h139q-8 -75 -56.5 -119t-137.5 -44t-137.5 44t-56.5 119z" />
<glyph unicode="&#x104;" horiz-adv-x="605" d="M587 -98l13 -107q-59 -11 -102 -11q-48 0 -78.5 26t-30.5 70q0 68 66 120h-13l-31 119h-222l-26 -119h-138l153 690h252l150 -689h1l-1 -1h-1q-50 -42 -50 -76q0 -25 20 -25zM286 570l-69 -324h169l-66 324h-34z" />
<glyph unicode="&#x105;" horiz-adv-x="528" d="M476 -98l13 -107q-59 -11 -102 -11q-48 0 -78.5 26t-30.5 70q0 34 20 66.5t33.5 44t25.5 19.5q-12 5 -20 12q-65 -34 -134 -34q-68 0 -113 45t-45 119q0 142 169 154l103 7v28q0 48 -45 48q-42 0 -91.5 -2.5t-78.5 -4.5l-28 -2l-4 109q137 22 210 22q85 0 128 -40 t43 -132v-185q0 -27 8 -37.5t30 -16.5l-8 -112q-17 0 -25 1q-38 -36 -38 -65q0 -25 20 -25zM317 216l-88 -4q-23 -1 -36 -16t-13 -40q0 -26 11.5 -41t31.5 -15q18 0 41.5 4t37.5 8l15 3v101z" />
<glyph unicode="&#x106;" horiz-adv-x="529" d="M490 131l3 -123q-124 -20 -193 -20q-145 0 -200 84.5t-55 272.5q0 194 59 275.5t196 81.5l194 -24l-4 -120q-126 12 -170 12q-74 0 -103.5 -46.5t-29.5 -178.5q0 -130 28.5 -177.5t108.5 -47.5zM144 874l257 92l44 -127l-261 -78z" />
<glyph unicode="&#x107;" horiz-adv-x="436" d="M246 511q35 0 73.5 -4.5t60.5 -8.5l21 -4l-4 -113q-74 7 -112 7q-60 0 -84.5 -30.5t-24.5 -102.5q0 -75 25.5 -109.5t84.5 -34.5l111 6l4 -113q-82 -16 -158 -16q-203 0 -203 267q0 256 206 256zM68 684l257 92l44 -127l-261 -78z" />
<glyph unicode="&#x108;" horiz-adv-x="529" d="M490 131l3 -123q-124 -20 -193 -20q-145 0 -200 84.5t-55 272.5q0 194 59 275.5t196 81.5l194 -24l-4 -120q-126 12 -170 12q-74 0 -103.5 -46.5t-29.5 -178.5q0 -130 28.5 -177.5t108.5 -47.5zM101 785l131 149h123l131 -149h-150l-41 43l-41 -43h-153z" />
<glyph unicode="&#x109;" horiz-adv-x="436" d="M246 511q35 0 73.5 -4.5t60.5 -8.5l21 -4l-4 -113q-74 7 -112 7q-60 0 -84.5 -30.5t-24.5 -102.5q0 -75 25.5 -109.5t84.5 -34.5l111 6l4 -113q-82 -16 -158 -16q-203 0 -203 267q0 256 206 256zM33 580l131 172h108l132 -172h-143l-42 61l-43 -61h-143z" />
<glyph unicode="&#x10a;" horiz-adv-x="529" d="M490 131l3 -123q-124 -20 -193 -20q-145 0 -200 84.5t-55 272.5q0 194 59 275.5t196 81.5l194 -24l-4 -120q-126 12 -170 12q-74 0 -103.5 -46.5t-29.5 -178.5q0 -130 28.5 -177.5t108.5 -47.5zM227 777v135h134v-135h-134z" />
<glyph unicode="&#x10b;" horiz-adv-x="436" d="M246 511q35 0 73.5 -4.5t60.5 -8.5l21 -4l-4 -113q-74 7 -112 7q-60 0 -84.5 -30.5t-24.5 -102.5q0 -75 25.5 -109.5t84.5 -34.5l111 6l4 -113q-82 -16 -158 -16q-203 0 -203 267q0 256 206 256zM171 556v135h134v-135h-134z" />
<glyph unicode="&#x10c;" horiz-adv-x="529" d="M490 131l3 -123q-124 -20 -193 -20q-145 0 -200 84.5t-55 272.5q0 194 59 275.5t196 81.5l194 -24l-4 -120q-126 12 -170 12q-74 0 -103.5 -46.5t-29.5 -178.5q0 -130 28.5 -177.5t108.5 -47.5zM496 930l-131 -148h-121l-133 148h153l41 -46l41 46h150z" />
<glyph unicode="&#x10d;" horiz-adv-x="436" d="M246 511q35 0 73.5 -4.5t60.5 -8.5l21 -4l-4 -113q-74 7 -112 7q-60 0 -84.5 -30.5t-24.5 -102.5q0 -75 25.5 -109.5t84.5 -34.5l111 6l4 -113q-82 -16 -158 -16q-203 0 -203 267q0 256 206 256zM162 580l-129 172h144l42 -60l41 60h144l-130 -172h-112z" />
<glyph unicode="&#x10e;" horiz-adv-x="626" d="M297 0h-222v690h222q164 0 224 -76.5t60 -255.5q0 -93 -11.5 -155.5t-42.5 -110.5t-87.5 -70t-142.5 -22zM439 358q0 114 -27 159.5t-115 45.5h-86v-436h86q86 0 114 55.5t28 175.5zM494 930l-131 -148h-121l-133 148h153l41 -46l41 46h150z" />
<glyph unicode="&#x10f;" horiz-adv-x="770" d="M474 700v-700h-134v20q-59 -31 -110 -31q-102 0 -146 68t-44 198q0 126 53 191t149 65l98 -13v202h134zM253 109q17 0 38.5 4.5t34.5 8.5l14 5v256q-45 11 -88 11q-35 0 -55.5 -36t-20.5 -103q0 -72 17.5 -109t59.5 -37zM693 690v-260h-130v260h130z" />
<glyph unicode="&#x110;" horiz-adv-x="626" d="M16 277v132h59v281h222q164 0 224 -76.5t60 -255.5q0 -93 -11.5 -155.5t-42.5 -110.5t-87.5 -70t-142.5 -22h-222v277h-59zM439 358q0 114 -27 159.5t-115 45.5h-86v-154h125v-132h-125v-150h86q86 0 114 55.5t28 175.5z" />
<glyph unicode="&#x111;" horiz-adv-x="546" d="M181 553v116h159v31h134v-31h34v-116h-34v-553h-134v20q-59 -31 -110 -31q-102 0 -146 68t-44 198q0 126 53 191t149 65l98 -13v55h-159zM253 109q17 0 38.5 4.5t34.5 8.5l14 5v256q-45 11 -88 11q-35 0 -55.5 -36t-20.5 -103q0 -72 17.5 -109t59.5 -37z" />
<glyph unicode="&#x112;" horiz-adv-x="553" d="M75 0v690h428v-127h-292v-162h232v-123h-232v-151h292v-127h-428zM103 802v116h347v-116h-347z" />
<glyph unicode="&#x113;" horiz-adv-x="507" d="M271 106q32 0 77 2t74 4l29 3l2 -99q-91 -28 -193 -28q-117 0 -168.5 62.5t-51.5 192.5q0 126 54.5 197t161.5 71t160 -59t53 -165l-10 -93h-284q2 -88 96 -88zM174 294h163q0 53 -18 79t-63 26t-63 -27t-19 -78zM90 622v116h327v-116h-327z" />
<glyph unicode="&#x114;" horiz-adv-x="553" d="M75 0v690h428v-127h-292v-162h232v-123h-232v-151h292v-127h-428zM110 930h139q8 -39 47 -39q41 0 48 39h139q-8 -68 -54.5 -109.5t-132.5 -41.5t-132 41.5t-54 109.5z" />
<glyph unicode="&#x115;" horiz-adv-x="507" d="M271 106q32 0 77 2t74 4l29 3l2 -99q-91 -28 -193 -28q-117 0 -168.5 62.5t-51.5 192.5q0 126 54.5 197t161.5 71t160 -59t53 -165l-10 -93h-284q2 -88 96 -88zM174 294h163q0 53 -18 79t-63 26t-63 -27t-19 -78zM59 748h139q7 -44 55 -44q49 0 55 44h139 q-8 -75 -56.5 -119t-137.5 -44t-137.5 44t-56.5 119z" />
<glyph unicode="&#x116;" horiz-adv-x="553" d="M75 0v690h428v-127h-292v-162h232v-123h-232v-151h292v-127h-428zM229 777v135h134v-135h-134z" />
<glyph unicode="&#x117;" horiz-adv-x="507" d="M271 106q32 0 77 2t74 4l29 3l2 -99q-91 -28 -193 -28q-117 0 -168.5 62.5t-51.5 192.5q0 126 54.5 197t161.5 71t160 -59t53 -165l-10 -93h-284q2 -88 96 -88zM174 294h163q0 53 -18 79t-63 26t-63 -27t-19 -78zM186 556v135h134v-135h-134z" />
<glyph unicode="&#x118;" horiz-adv-x="553" d="M75 0v690h428v-127h-292v-162h232v-123h-232v-151h292v-127h-12q-50 -42 -50 -76q0 -25 20 -25l38 3l13 -107q-59 -11 -102 -11q-48 0 -78.5 26t-30.5 70q0 68 66 120h-292z" />
<glyph unicode="&#x119;" horiz-adv-x="507" d="M420 -93l13 -107q-59 -11 -102 -11q-48 0 -78.5 26t-30.5 70q0 56 47 103h-9q-117 0 -168.5 62.5t-51.5 192.5q0 126 54.5 197t161.5 71t160 -59t53 -165l-10 -93h-284q2 -88 96 -88q32 0 77 2t74 4l29 3l2 -99q-17 -5 -40 -11q-51 -41 -51 -76q0 -25 20 -25zM174 294 h163q0 53 -18 79t-63 26t-63 -27t-19 -78z" />
<glyph unicode="&#x11a;" horiz-adv-x="553" d="M75 0v690h428v-127h-292v-162h232v-123h-232v-151h292v-127h-428zM514 948l-131 -148h-121l-133 148h153l41 -46l41 46h150z" />
<glyph unicode="&#x11b;" horiz-adv-x="507" d="M271 106q32 0 77 2t74 4l29 3l2 -99q-91 -28 -193 -28q-117 0 -168.5 62.5t-51.5 192.5q0 126 54.5 197t161.5 71t160 -59t53 -165l-10 -93h-284q2 -88 96 -88zM174 294h163q0 53 -18 79t-63 26t-63 -27t-19 -78zM197 580l-129 172h144l42 -60l41 60h144l-130 -172h-112z " />
<glyph unicode="&#x11c;" horiz-adv-x="595" d="M347 257v119h198v-370q-148 -18 -227 -18q-149 0 -211 88.5t-62 270.5q0 187 62.5 271t205.5 84l232 -24l-4 -119q-125 13 -206 13q-83 0 -115.5 -47t-32.5 -178q0 -132 30 -181t114 -49l78 4v136h-62zM124 785l131 149h123l131 -149h-150l-41 43l-41 -43h-153z" />
<glyph unicode="&#x11d;" horiz-adv-x="538" d="M276 -240q-236 0 -236 149q0 67 71 122q-36 25 -36 73q0 11 10 32t20 36l10 15q-69 49 -69 146q0 89 58.5 133t146.5 44q15 0 39 -3t40 -7l17 -3l154 3v-105h-63q17 -30 17 -62q0 -94 -53 -135t-153 -41q-18 0 -36 4q-10 -26 -10 -39q0 -21 15.5 -27t76.5 -6 q115 0 164 -34t49 -117q0 -90 -66.5 -134t-165.5 -44zM284 -24l-85 7q-27 -27 -27 -60q0 -21 29.5 -33.5t75.5 -12.5q96 0 96 53q0 27 -21 36.5t-68 9.5zM249 264q74 0 74 69q0 67 -73 67q-70 0 -70 -67q0 -69 69 -69zM84 580l131 172h108l132 -172h-143l-42 61l-43 -61 h-143z" />
<glyph unicode="&#x11e;" horiz-adv-x="595" d="M347 257v119h198v-370q-148 -18 -227 -18q-149 0 -211 88.5t-62 270.5q0 187 62.5 271t205.5 84l232 -24l-4 -119q-125 13 -206 13q-83 0 -115.5 -47t-32.5 -178q0 -132 30 -181t114 -49l78 4v136h-62zM131 930h139q8 -39 47 -39q41 0 48 39h139q-8 -68 -54.5 -109.5 t-132.5 -41.5t-132 41.5t-54 109.5z" />
<glyph unicode="&#x11f;" horiz-adv-x="538" d="M276 -240q-236 0 -236 149q0 67 71 122q-36 25 -36 73q0 11 10 32t20 36l10 15q-69 49 -69 146q0 89 58.5 133t146.5 44q15 0 39 -3t40 -7l17 -3l154 3v-105h-63q17 -30 17 -62q0 -94 -53 -135t-153 -41q-18 0 -36 4q-10 -26 -10 -39q0 -21 15.5 -27t76.5 -6 q115 0 164 -34t49 -117q0 -90 -66.5 -134t-165.5 -44zM284 -24l-85 7q-27 -27 -27 -60q0 -21 29.5 -33.5t75.5 -12.5q96 0 96 53q0 27 -21 36.5t-68 9.5zM249 264q74 0 74 69q0 67 -73 67q-70 0 -70 -67q0 -69 69 -69zM75 748h139q7 -44 55 -44q49 0 55 44h139 q-8 -75 -56.5 -119t-137.5 -44t-137.5 44t-56.5 119z" />
<glyph unicode="&#x120;" horiz-adv-x="595" d="M347 257v119h198v-370q-148 -18 -227 -18q-149 0 -211 88.5t-62 270.5q0 187 62.5 271t205.5 84l232 -24l-4 -119q-125 13 -206 13q-83 0 -115.5 -47t-32.5 -178q0 -132 30 -181t114 -49l78 4v136h-62zM240 787v135h134v-135h-134z" />
<glyph unicode="&#x121;" horiz-adv-x="538" d="M276 -240q-236 0 -236 149q0 67 71 122q-36 25 -36 73q0 11 10 32t20 36l10 15q-69 49 -69 146q0 89 58.5 133t146.5 44q15 0 39 -3t40 -7l17 -3l154 3v-105h-63q17 -30 17 -62q0 -94 -53 -135t-153 -41q-18 0 -36 4q-10 -26 -10 -39q0 -21 15.5 -27t76.5 -6 q115 0 164 -34t49 -117q0 -90 -66.5 -134t-165.5 -44zM284 -24l-85 7q-27 -27 -27 -60q0 -21 29.5 -33.5t75.5 -12.5q96 0 96 53q0 27 -21 36.5t-68 9.5zM249 264q74 0 74 69q0 67 -73 67q-70 0 -70 -67q0 -69 69 -69zM202 556v135h134v-135h-134z" />
<glyph unicode="&#x122;" horiz-adv-x="595" d="M347 257v119h198v-370q-148 -18 -227 -18q-149 0 -211 88.5t-62 270.5q0 187 62.5 271t205.5 84l232 -24l-4 -119q-125 13 -206 13q-83 0 -115.5 -47t-32.5 -178q0 -132 30 -181t114 -49l78 4v136h-62zM209 -311l46 234h130l-55 -234h-121z" />
<glyph unicode="&#x123;" horiz-adv-x="538" d="M276 -240q-236 0 -236 149q0 67 71 122q-36 25 -36 73q0 11 10 32t20 36l10 15q-69 49 -69 146q0 89 58.5 133t146.5 44q15 0 39 -3t40 -7l17 -3l154 3v-105h-63q17 -30 17 -62q0 -94 -53 -135t-153 -41q-18 0 -36 4q-10 -26 -10 -39q0 -21 15.5 -27t76.5 -6 q115 0 164 -34t49 -117q0 -90 -66.5 -134t-165.5 -44zM284 -24l-85 7q-27 -27 -27 -60q0 -21 29.5 -33.5t75.5 -12.5q96 0 96 53q0 27 -21 36.5t-68 9.5zM249 264q74 0 74 69q0 67 -73 67q-70 0 -70 -67q0 -69 69 -69zM343 817l-46 -234h-130l55 234h121z" />
<glyph unicode="&#x124;" horiz-adv-x="663" d="M452 0v288h-241v-288h-136v690h136v-275h241v275h136v-690h-136zM138 779l131 149h123l131 -149h-150l-41 43l-41 -43h-153z" />
<glyph unicode="&#x125;" horiz-adv-x="561" d="M206 0h-134v700h114l40 52h108l132 -172h-143l-42 61l-43 -61h-32v-94q72 25 119 25q93 0 132 -64t39 -185v-262h-134v263q0 127 -65 127q-15 0 -37.5 -4t-37.5 -8l-16 -3v-375z" />
<glyph unicode="&#x126;" horiz-adv-x="663" d="M11 486v116h64v88h136v-88h241v88h136v-88h77v-116h-77v-486h-136v288h-241v-288h-136v486h-64zM211 415h241v71h-241v-71z" />
<glyph unicode="&#x127;" horiz-adv-x="561" d="M17 532v116h55v52h134v-52h138v-116h-138v-46q72 25 119 25q93 0 132 -64t39 -185v-262h-134v263q0 127 -65 127q-15 0 -37.5 -4t-37.5 -8l-16 -3v-375h-134v532h-55z" />
<glyph unicode="&#x128;" horiz-adv-x="278" d="M70 0v690h138v-690h-138zM303 930l29 -102q-6 -7 -16.5 -17.5t-38.5 -28t-52 -17.5q-28 0 -91.5 22t-77.5 22q-12 0 -32 -10t-34 -20l-14 -10l-29 101q6 7 16.5 17.5t38.5 28.5t52 18q35 0 96 -21.5t71 -21.5q26 0 82 39z" />
<glyph unicode="&#x129;" horiz-adv-x="268" d="M67 0v499h134v-499h-134zM280 749l29 -101q-6 -7 -16.5 -17.5t-38.5 -28t-52 -17.5q-28 0 -81.5 22t-67.5 22q-12 0 -32 -10t-34 -20l-14 -10l-29 100q6 7 16.5 17.5t38.5 28.5t52 18q35 0 86 -21.5t61 -21.5q26 0 82 39z" />
<glyph unicode="&#x12a;" horiz-adv-x="278" d="M70 0v690h138v-690h-138zM-34 813v116h347v-116h-347z" />
<glyph unicode="&#x12b;" horiz-adv-x="268" d="M67 0v499h134v-499h-134zM-29 622v116h327v-116h-327z" />
<glyph unicode="&#x12c;" horiz-adv-x="278" d="M70 0v690h138v-690h-138zM-47 930h139q8 -39 47 -39q41 0 48 39h139q-8 -68 -54.5 -109.5t-132.5 -41.5t-132 41.5t-54 109.5z" />
<glyph unicode="&#x12d;" horiz-adv-x="268" d="M67 0v499h134v-499h-134zM-60 748h139q7 -44 55 -44q49 0 55 44h139q-8 -75 -56.5 -119t-137.5 -44t-137.5 44t-56.5 119z" />
<glyph unicode="&#x12e;" horiz-adv-x="278" d="M70 0v690h138v-690h-2q-50 -42 -50 -76q0 -25 20 -25l38 3l13 -107q-59 -11 -102 -11q-48 0 -78.5 26t-30.5 70q0 68 66 120h-12z" />
<glyph unicode="&#x12f;" horiz-adv-x="268" d="M67 0v499h134v-499h-2q-50 -42 -50 -76q0 -25 20 -25l38 3l13 -107q-59 -11 -102 -11q-48 0 -78.5 26t-30.5 70q0 68 66 120h-8zM67 556v135h134v-135h-134z" />
<glyph unicode="&#x130;" horiz-adv-x="278" d="M70 0v690h138v-690h-138zM72 777v135h134v-135h-134z" />
<glyph unicode="&#x131;" horiz-adv-x="268" d="M67 0v499h134v-499h-134z" />
<glyph unicode="&#x134;" horiz-adv-x="314" d="M241 690l1 -575q0 -107 -43.5 -145.5t-163.5 -38.5v121q39 1 55 16t16 49v573h135zM-36 779l131 149h123l131 -149h-150l-41 43l-41 -43h-153z" />
<glyph unicode="&#x135;" horiz-adv-x="271" d="M70 6v493h134v-494q0 -105 -33.5 -153t-144.5 -100l-60 111q70 38 87 61t17 82zM-50 580l131 172h108l132 -172h-143l-42 61l-43 -61h-143z" />
<glyph unicode="&#x136;" horiz-adv-x="591" d="M407 0l-114 275l-82 -10v-265h-136v690h136v-300l80 10l112 290h159l-148 -343l152 -347h-159zM207 -311l46 234h130l-55 -234h-121z" />
<glyph unicode="&#x137;" horiz-adv-x="518" d="M206 0h-134v700h134v-392l41 9l99 182h150l-129 -236l136 -263h-151l-102 189l-44 -10v-179zM171 -311l46 234h130l-55 -234h-121z" />
<glyph unicode="&#x139;" horiz-adv-x="485" d="M450 0h-375v690h136v-561h239v-129zM96 874l257 92l44 -127l-261 -78z" />
<glyph unicode="&#x13a;" horiz-adv-x="268" d="M-16 684l257 92l44 -127l-84 -25v-624h-134v584l-43 -13z" />
<glyph unicode="&#x13b;" horiz-adv-x="485" d="M450 0h-375v690h136v-561h239v-129zM154 -311l46 234h130l-55 -234h-121z" />
<glyph unicode="&#x13c;" horiz-adv-x="268" d="M67 0v700h134v-700h-134zM46 -311l46 234h130l-55 -234h-121z" />
<glyph unicode="&#x13d;" horiz-adv-x="485" d="M450 0h-375v690h136v-561h239v-129zM458 690v-260h-130v260h130z" />
<glyph unicode="&#x13e;" horiz-adv-x="425" d="M67 0v700h134v-700h-134zM415 690v-260h-130v260h130z" />
<glyph unicode="&#x141;" d="M38 194l-65 100l110 78v318h138v-222l116 81l66 -98l-182 -128v-190h259v-133h-397v226z" />
<glyph unicode="&#x142;" horiz-adv-x="268" d="M67 0v218l-36 -25l-65 90l101 70v347h134v-254l42 29l65 -90l-107 -74v-311h-134z" />
<glyph unicode="&#x143;" horiz-adv-x="701" d="M75 0v690h226l176 -546h11v546h138v-690h-220l-182 546h-11v-546h-138zM200 874l257 92l44 -127l-261 -78z" />
<glyph unicode="&#x144;" horiz-adv-x="561" d="M206 0h-134v499h134v-22q72 34 119 34q93 0 132 -64t39 -186v-261h-134v261q0 128 -65 128l-91 -18v-371zM130 684l257 92l44 -127l-261 -78z" />
<glyph unicode="&#x145;" horiz-adv-x="701" d="M75 0v690h226l176 -546h11v546h138v-690h-220l-182 546h-11v-546h-138zM262 -311l46 234h130l-55 -234h-121z" />
<glyph unicode="&#x146;" horiz-adv-x="561" d="M206 0h-134v499h134v-22q72 34 119 34q93 0 132 -64t39 -186v-261h-134v261q0 128 -65 128l-91 -18v-371zM185 -311l46 234h130l-55 -234h-121z" />
<glyph unicode="&#x147;" horiz-adv-x="701" d="M75 0v690h226l176 -546h11v546h138v-690h-220l-182 546h-11v-546h-138zM542 929l-131 -148h-121l-133 148h153l41 -46l41 46h150z" />
<glyph unicode="&#x148;" horiz-adv-x="561" d="M206 0h-134v499h134v-22q72 34 119 34q93 0 132 -64t39 -186v-261h-134v261q0 128 -65 128l-91 -18v-371zM224 580l-129 172h144l42 -60l41 60h144l-130 -172h-112z" />
<glyph unicode="&#x14a;" horiz-adv-x="701" d="M75 0v690h226l176 -546h11v546h138v-690h-2v-27q0 -107 -43.5 -145.5t-163.5 -38.5v121q39 1 55 16t16 49v25h-82l-182 546h-11v-546h-138z" />
<glyph unicode="&#x14b;" horiz-adv-x="561" d="M206 0h-134v499h134v-22q72 34 119 34q93 0 132 -64t39 -186v-256q0 -105 -33.5 -153t-144.5 -100l-60 111q69 38 86.5 60.5t17.5 76.5v261q0 128 -65 128l-91 -18v-371z" />
<glyph unicode="&#x14c;" horiz-adv-x="644" d="M322 115q75 0 105 52t30 173q0 123 -30.5 179t-104.5 56t-104.5 -56t-30.5 -179q0 -121 30 -173t105 -52zM322 -12q-149 0 -213 86.5t-64 265.5q0 181 64.5 271.5t212.5 90.5t212.5 -90.5t64.5 -271.5q0 -179 -64 -265.5t-213 -86.5zM148 802v116h347v-116h-347z" />
<glyph unicode="&#x14d;" d="M265 511q225 0 225 -261q0 -262 -225 -262t-225 262q0 261 225 261zM265 104q51 0 70 38t19 108t-19 107.5t-70 37.5t-70 -37.5t-19 -107.5t19 -108t70 -38zM101 622v116h327v-116h-327z" />
<glyph unicode="&#x14e;" horiz-adv-x="644" d="M322 115q75 0 105 52t30 173q0 123 -30.5 179t-104.5 56t-104.5 -56t-30.5 -179q0 -121 30 -173t105 -52zM322 -12q-149 0 -213 86.5t-64 265.5q0 181 64.5 271.5t212.5 90.5t212.5 -90.5t64.5 -271.5q0 -179 -64 -265.5t-213 -86.5zM136 930h139q8 -39 47 -39 q41 0 48 39h139q-8 -68 -54.5 -109.5t-132.5 -41.5t-132 41.5t-54 109.5z" />
<glyph unicode="&#x14f;" d="M265 511q225 0 225 -261q0 -262 -225 -262t-225 262q0 261 225 261zM265 104q51 0 70 38t19 108t-19 107.5t-70 37.5t-70 -37.5t-19 -107.5t19 -108t70 -38zM71 748h139q7 -44 55 -44q49 0 55 44h139q-8 -75 -56.5 -119t-137.5 -44t-137.5 44t-56.5 119z" />
<glyph unicode="&#x150;" horiz-adv-x="644" d="M322 115q75 0 105 52t30 173q0 123 -30.5 179t-104.5 56t-104.5 -56t-30.5 -179q0 -121 30 -173t105 -52zM322 -12q-149 0 -213 86.5t-64 265.5q0 181 64.5 271.5t212.5 90.5t212.5 -90.5t64.5 -271.5q0 -179 -64 -265.5t-213 -86.5zM361 785l67 197l126 -45l-78 -191z M143 786l67 197l126 -45l-78 -191z" />
<glyph unicode="&#x151;" d="M265 511q225 0 225 -261q0 -262 -225 -262t-225 262q0 261 225 261zM265 104q51 0 70 38t19 108t-19 107.5t-70 37.5t-70 -37.5t-19 -107.5t19 -108t70 -38zM254 628l117 190l109 -67l-125 -188zM50 628l117 189l109 -66l-125 -188z" />
<glyph unicode="&#x152;" horiz-adv-x="885" d="M835 0h-426q-76 -12 -119 -12q-138 0 -199 89t-61 268q0 185 64.5 271t195.5 86q43 0 117 -12h428v-128h-292v-162h232v-121h-232v-151h292v-128zM310 117q29 0 97 6v444q-70 6 -100 6q-71 0 -103 -51.5t-32 -176.5q0 -124 29.5 -176t108.5 -52z" />
<glyph unicode="&#x153;" horiz-adv-x="876" d="M613 106q32 0 77 2t74 4l29 3l2 -99q-91 -28 -193 -28q-104 0 -156 49q-57 -49 -153 -49q-225 0 -225 262q0 261 225 261q101 0 158 -54q55 54 147 54q107 0 160 -59t53 -165l-10 -93h-284q2 -88 96 -88zM293 104q51 0 70 38t19 108q0 75 -18.5 110t-70.5 35 q-51 0 -70 -37.5t-19 -107.5t19 -108t70 -38zM516 294h163q0 55 -15 76.5t-61 21.5t-66 -24.5t-21 -73.5z" />
<glyph unicode="&#x154;" horiz-adv-x="612" d="M334 228l-21 -1h-102v-227h-136v690h252q118 0 179 -55t61 -174q0 -136 -99 -198l96 -263h-151zM426 459q0 48 -28 76t-71 28h-116v-213h118q44 0 70.5 31t26.5 78zM155 874l257 92l44 -127l-261 -78z" />
<glyph unicode="&#x155;" horiz-adv-x="360" d="M67 0v499h134v-47q55 44 134 59v-144q-41 -8 -74.5 -17.5t-46.5 -15.5l-13 -5v-329h-134zM30 684l257 92l44 -127l-261 -78z" />
<glyph unicode="&#x156;" horiz-adv-x="612" d="M334 228l-21 -1h-102v-227h-136v690h252q118 0 179 -55t61 -174q0 -136 -99 -198l96 -263h-151zM426 459q0 48 -28 76t-71 28h-116v-213h118q44 0 70.5 31t26.5 78zM218 -311l46 234h130l-55 -234h-121z" />
<glyph unicode="&#x157;" horiz-adv-x="360" d="M67 0v499h134v-47q55 44 134 59v-144q-41 -8 -74.5 -17.5t-46.5 -15.5l-13 -5v-329h-134zM92 -311l46 234h130l-55 -234h-121z" />
<glyph unicode="&#x158;" horiz-adv-x="612" d="M334 228l-21 -1h-102v-227h-136v690h252q118 0 179 -55t61 -174q0 -136 -99 -198l96 -263h-151zM426 459q0 48 -28 76t-71 28h-116v-213h118q44 0 70.5 31t26.5 78zM498 930l-131 -148h-121l-133 148h153l41 -46l41 46h150z" />
<glyph unicode="&#x159;" horiz-adv-x="360" d="M67 0v499h134v-47q55 44 134 59v-144q-41 -8 -74.5 -17.5t-46.5 -15.5l-13 -5v-329h-134zM124 580l-129 172h144l42 -60l41 60h144l-130 -172h-112z" />
<glyph unicode="&#x15a;" d="M491 677l-4 -116q-139 14 -197 14q-104 0 -104 -72q0 -34 27 -54t109 -52q113 -43 151 -79.5t38 -119.5q0 -109 -56.5 -159.5t-181.5 -50.5q-43 0 -95.5 6t-83.5 12l-32 5l7 118q131 -14 192 -14q57 0 85.5 17t28.5 62q0 29 -26 45.5t-104 46.5q-113 43 -154 88t-41 128 q0 98 59.5 149t172.5 51q97 0 209 -25zM114 874l257 92l44 -127l-261 -78z" />
<glyph unicode="&#x15b;" horiz-adv-x="497" d="M430 486l-2 -108q-129 16 -177 16q-65 0 -65 -43q0 -17 17 -24.5t72 -17.5q95 -18 132.5 -51.5t37.5 -107.5q0 -84 -52.5 -123t-144.5 -39q-33 0 -80.5 6t-79.5 12l-31 7l4 109q123 -17 174 -17q76 0 76 42q0 17 -14 25t-62 18q-96 21 -139.5 52.5t-43.5 105.5 q0 81 55 122t134 41q32 0 79 -6.5t78 -12.5zM98 684l257 92l44 -127l-261 -78z" />
<glyph unicode="&#x15c;" d="M491 677l-4 -116q-139 14 -197 14q-104 0 -104 -72q0 -34 27 -54t109 -52q113 -43 151 -79.5t38 -119.5q0 -109 -56.5 -159.5t-181.5 -50.5q-43 0 -95.5 6t-83.5 12l-32 5l7 118q131 -14 192 -14q57 0 85.5 17t28.5 62q0 29 -26 45.5t-104 46.5q-113 43 -154 88t-41 128 q0 98 59.5 149t172.5 51q97 0 209 -25zM82 785l131 149h123l131 -149h-150l-41 43l-41 -43h-153z" />
<glyph unicode="&#x15d;" horiz-adv-x="497" d="M430 486l-2 -108q-129 16 -177 16q-65 0 -65 -43q0 -17 17 -24.5t72 -17.5q95 -18 132.5 -51.5t37.5 -107.5q0 -84 -52.5 -123t-144.5 -39q-33 0 -80.5 6t-79.5 12l-31 7l4 109q123 -17 174 -17q76 0 76 42q0 17 -14 25t-62 18q-96 21 -139.5 52.5t-43.5 105.5 q0 81 55 122t134 41q32 0 79 -6.5t78 -12.5zM63 580l131 172h108l132 -172h-143l-42 61l-43 -61h-143z" />
<glyph unicode="&#x15e;" d="M427 -127q0 -50 -29.5 -77t-81.5 -27q-19 0 -42.5 2.5t-37.5 5.5l-13 3l4 78q31 -1 48 -1q38 0 38 26q0 22 -38 22h-24v84q-40 1 -87.5 6.5t-74.5 10.5l-27 5l7 118q131 -14 192 -14q57 0 85.5 17t28.5 62q0 29 -26 45.5t-104 46.5q-113 43 -154 88t-41 128 q0 98 59.5 149t172.5 51q97 0 209 -25l-4 -116q-139 14 -197 14q-104 0 -104 -72q0 -34 27 -54t109 -52q113 -43 151 -79.5t38 -119.5q0 -102 -49.5 -152.5t-157.5 -56.5v-26q66 -1 94.5 -19t28.5 -71z" />
<glyph unicode="&#x15f;" horiz-adv-x="497" d="M391 -127q0 -50 -29.5 -77t-81.5 -27q-19 0 -42.5 2.5t-37.5 5.5l-13 3l4 78q31 -1 48 -1q38 0 38 26q0 22 -38 22h-24v85q-72 5 -158 23l4 109q123 -17 174 -17q76 0 76 42q0 17 -14 25t-62 18q-96 21 -139.5 52.5t-43.5 105.5q0 81 55 122t134 41q32 0 79 -6.5 t78 -12.5l32 -6l-2 -108q-129 16 -177 16q-65 0 -65 -43q0 -17 17 -24.5t72 -17.5q95 -18 132.5 -51.5t37.5 -107.5q0 -152 -177 -161v-26q66 -1 94.5 -19t28.5 -71z" />
<glyph unicode="&#x160;" d="M491 677l-4 -116q-139 14 -197 14q-104 0 -104 -72q0 -34 27 -54t109 -52q113 -43 151 -79.5t38 -119.5q0 -109 -56.5 -159.5t-181.5 -50.5q-43 0 -95.5 6t-83.5 12l-32 5l7 118q131 -14 192 -14q57 0 85.5 17t28.5 62q0 29 -26 45.5t-104 46.5q-113 43 -154 88t-41 128 q0 98 59.5 149t172.5 51q97 0 209 -25zM477 930l-131 -148h-121l-133 148h153l41 -46l41 46h150z" />
<glyph unicode="&#x161;" horiz-adv-x="497" d="M430 486l-2 -108q-129 16 -177 16q-65 0 -65 -43q0 -17 17 -24.5t72 -17.5q95 -18 132.5 -51.5t37.5 -107.5q0 -84 -52.5 -123t-144.5 -39q-33 0 -80.5 6t-79.5 12l-31 7l4 109q123 -17 174 -17q76 0 76 42q0 17 -14 25t-62 18q-96 21 -139.5 52.5t-43.5 105.5 q0 81 55 122t134 41q32 0 79 -6.5t78 -12.5zM188 580l-129 172h144l42 -60l41 60h144l-130 -172h-112z" />
<glyph unicode="&#x162;" horiz-adv-x="480" d="M8 557v133h464v-133h-162v-557h-136v557h-166zM152 -311l46 234h130l-55 -234h-121z" />
<glyph unicode="&#x163;" horiz-adv-x="350" d="M326 381h-118v-196q0 -76 42 -76l71 2l6 -108q-62 -15 -97 -15q-83 0 -119.5 44.5t-36.5 145.5v203h-54v117h54v141h134v-141h118v-117zM87 -311l46 234h130l-55 -234h-121z" />
<glyph unicode="&#x164;" horiz-adv-x="480" d="M8 557v133h464v-133h-162v-557h-136v557h-166zM432 930l-131 -148h-121l-133 148h153l41 -46l41 46h150z" />
<glyph unicode="&#x165;" horiz-adv-x="507" d="M326 381h-118v-196q0 -76 42 -76l71 2l6 -108q-62 -15 -97 -15q-83 0 -119.5 44.5t-36.5 145.5v203h-54v117h54v141h134v-141h118v-117zM497 690v-260h-130v260h130z" />
<glyph unicode="&#x166;" horiz-adv-x="480" d="M40 253v116h134v188h-166v133h464v-133h-162v-188h139v-116h-139v-253h-136v253h-134z" />
<glyph unicode="&#x167;" horiz-adv-x="350" d="M25 202v116h49v63h-54v117h54v141h134v-141h118v-117h-118v-63h111v-116h-111v-17q0 -76 42 -76l71 2l6 -108q-62 -15 -97 -15q-83 0 -119.5 44.5t-36.5 145.5v24h-49z" />
<glyph unicode="&#x168;" horiz-adv-x="646" d="M207 230q0 -60 27 -84t89 -24t89 24.5t27 83.5v460h137v-460q0 -128 -59 -183.5t-194 -55.5t-194 55.5t-59 183.5v460h137v-460zM476 940l29 -102q-6 -7 -16.5 -17.5t-38.5 -28t-52 -17.5q-28 0 -91.5 22t-77.5 22q-12 0 -32 -10t-34 -20l-14 -10l-29 101q6 7 16.5 17.5 t38.5 28.5t52 18q35 0 96 -21.5t71 -21.5q26 0 82 39z" />
<glyph unicode="&#x169;" horiz-adv-x="561" d="M355 499h134v-499h-134v21q-73 -33 -119 -33q-93 0 -132 59.5t-39 190.5v261h134v-261q0 -71 13.5 -101.5t51.5 -30.5q15 0 37.5 5t38.5 10l15 5v373zM426 749l29 -101q-6 -7 -16.5 -17.5t-38.5 -28t-52 -17.5q-28 0 -81.5 22t-67.5 22q-12 0 -32 -10t-34 -20l-14 -10 l-29 100q6 7 16.5 17.5t38.5 28.5t52 18q35 0 86 -21.5t61 -21.5q26 0 82 39z" />
<glyph unicode="&#x16a;" horiz-adv-x="646" d="M207 230q0 -60 27 -84t89 -24t89 24.5t27 83.5v460h137v-460q0 -128 -59 -183.5t-194 -55.5t-194 55.5t-59 183.5v460h137v-460zM149 802v116h347v-116h-347z" />
<glyph unicode="&#x16b;" horiz-adv-x="561" d="M355 499h134v-499h-134v21q-73 -33 -119 -33q-93 0 -132 59.5t-39 190.5v261h134v-261q0 -71 13.5 -101.5t51.5 -30.5q15 0 37.5 5t38.5 10l15 5v373zM117 622v116h327v-116h-327z" />
<glyph unicode="&#x16c;" horiz-adv-x="646" d="M207 230q0 -60 27 -84t89 -24t89 24.5t27 83.5v460h137v-460q0 -128 -59 -183.5t-194 -55.5t-194 55.5t-59 183.5v460h137v-460zM137 930h139q8 -39 47 -39q41 0 48 39h139q-8 -68 -54.5 -109.5t-132.5 -41.5t-132 41.5t-54 109.5z" />
<glyph unicode="&#x16d;" horiz-adv-x="561" d="M355 499h134v-499h-134v21q-73 -33 -119 -33q-93 0 -132 59.5t-39 190.5v261h134v-261q0 -71 13.5 -101.5t51.5 -30.5q15 0 37.5 5t38.5 10l15 5v373zM86 748h139q7 -44 55 -44q49 0 55 44h139q-8 -75 -56.5 -119t-137.5 -44t-137.5 44t-56.5 119z" />
<glyph unicode="&#x16e;" horiz-adv-x="646" d="M207 230q0 -60 27 -84t89 -24t89 24.5t27 83.5v460h137v-460q0 -128 -59 -183.5t-194 -55.5t-194 55.5t-59 183.5v460h137v-460zM473 839q0 -59 -43 -92.5t-107 -33.5t-107 33.5t-43 92.5t43 92.5t107 33.5t107 -33.5t43 -92.5zM276 839q0 -15 12.5 -24t34.5 -9t34.5 9 t12.5 24t-12.5 24t-34.5 9t-34.5 -9t-12.5 -24z" />
<glyph unicode="&#x16f;" horiz-adv-x="561" d="M355 499h134v-499h-134v21q-73 -33 -119 -33q-93 0 -132 59.5t-39 190.5v261h134v-261q0 -71 13.5 -101.5t51.5 -30.5q15 0 37.5 5t38.5 10l15 5v373zM163 638q0 49 33.5 83t83.5 34q49 0 83 -34t34 -83q0 -50 -34 -83.5t-83 -33.5q-50 0 -83.5 33.5t-33.5 83.5zM250 638 q0 -14 9 -22.5t22 -8.5t21.5 9t8.5 22t-8.5 21.5t-21.5 8.5t-22 -8.5t-9 -21.5z" />
<glyph unicode="&#x170;" horiz-adv-x="646" d="M207 230q0 -60 27 -84t89 -24t89 24.5t27 83.5v460h137v-460q0 -128 -59 -183.5t-194 -55.5t-194 55.5t-59 183.5v460h137v-460zM353 785l67 197l126 -45l-78 -191zM135 786l67 197l126 -45l-78 -191z" />
<glyph unicode="&#x171;" horiz-adv-x="561" d="M355 499h134v-499h-134v21q-73 -33 -119 -33q-93 0 -132 59.5t-39 190.5v261h134v-261q0 -71 13.5 -101.5t51.5 -30.5q15 0 37.5 5t38.5 10l15 5v373zM303 628l117 190l109 -67l-125 -188zM99 628l117 189l109 -66l-125 -188z" />
<glyph unicode="&#x172;" horiz-adv-x="646" d="M431 -98l13 -107q-59 -11 -102 -11q-48 0 -78.5 26t-30.5 70q0 63 56 112q-116 6 -167.5 62t-51.5 176v460h137v-460q0 -60 27 -84t89 -24t89 24.5t27 83.5v460h137v-460q0 -101 -36 -156t-116 -73h1q-52 -42 -52 -77q0 -25 20 -25z" />
<glyph unicode="&#x173;" horiz-adv-x="561" d="M476 -98l13 -107q-59 -11 -102 -11q-48 0 -78.5 26t-30.5 70q0 32 17.5 62.5t32 43.5t27.5 22v13q-73 -33 -119 -33q-93 0 -132 59.5t-39 190.5v261h134v-261q0 -71 13.5 -101.5t51.5 -30.5q15 0 37.5 5t38.5 10l15 5v373h134v-499h-21q-50 -42 -50 -76q0 -25 20 -25z " />
<glyph unicode="&#x174;" horiz-adv-x="941" d="M29 690h145l99 -566h15l104 556h157l104 -556h15l99 566h145l-139 -690h-215l-88 497l-87 -497h-215zM277 785l131 149h123l131 -149h-150l-41 43l-41 -43h-153z" />
<glyph unicode="&#x175;" horiz-adv-x="750" d="M12 499h132l61 -378h24l76 369h140l76 -369h24l61 378h132l-93 -499h-215l-56 306l-57 -306h-212zM190 580l131 172h108l132 -172h-143l-42 61l-43 -61h-143z" />
<glyph unicode="&#x176;" horiz-adv-x="571" d="M355 295v-295h-136v295l-204 395h153l118 -250l117 250h153zM92 785l131 149h123l131 -149h-150l-41 43l-41 -43h-153z" />
<glyph unicode="&#x177;" horiz-adv-x="485" d="M13 499h132l91 -369h13l91 369h132l-175 -708h-132l51 210h-80zM57 580l131 172h108l132 -172h-143l-42 61l-43 -61h-143z" />
<glyph unicode="&#x178;" horiz-adv-x="571" d="M355 295v-295h-136v295l-204 395h153l118 -250l117 250h153zM120 794v132h128v-132h-128zM342 794v132h128v-132h-128z" />
<glyph unicode="&#x179;" horiz-adv-x="570" d="M65 561v129h440v-129l-268 -417v-15h268v-129h-440v129l268 417v15h-268zM134 874l257 92l44 -127l-261 -78z" />
<glyph unicode="&#x17a;" horiz-adv-x="477" d="M58 381v119h361v-119l-205 -262h205v-119h-361v119l205 262h-205zM88 684l257 92l44 -127l-261 -78z" />
<glyph unicode="&#x17b;" horiz-adv-x="570" d="M65 561v129h440v-129l-268 -417v-15h268v-129h-440v129l268 417v15h-268zM218 777v135h134v-135h-134z" />
<glyph unicode="&#x17c;" horiz-adv-x="477" d="M58 381v119h361v-119l-205 -262h205v-119h-361v119l205 262h-205zM171 556v135h134v-135h-134z" />
<glyph unicode="&#x17d;" horiz-adv-x="570" d="M65 561v129h440v-129l-268 -417v-15h268v-129h-440v129l268 417v15h-268zM475 930l-131 -148h-121l-133 148h153l41 -46l41 46h150z" />
<glyph unicode="&#x17e;" horiz-adv-x="477" d="M58 381v119h361v-119l-205 -262h205v-119h-361v119l205 262h-205zM178 580l-129 172h144l42 -60l41 60h144l-130 -172h-112z" />
<glyph unicode="&#x192;" d="M327 -66q0 -100 -47 -139.5t-138 -39.5l-82 13v103q54 -3 82 -3q51 0 51 66v444h-94v121h94v23q0 108 31.5 148t114.5 40q63 0 132 -13v-109q-64 2 -96 2q-28 0 -38 -15.5t-10 -53.5v-22h141v-121h-141v-444z" />
<glyph unicode="&#x1fa;" horiz-adv-x="605" d="M454 721q0 -37 -17 -63l143 -658h-138l-31 119h-222l-26 -119h-138l146 658q-17 26 -17 63q0 59 43 92.5t107 33.5t107 -33.5t43 -92.5zM142 974l257 92l44 -127l-261 -78zM286 570l-69 -324h169l-66 324h-34zM257 721q0 -25 29 -31h36q29 6 29 31q0 15 -12.5 24t-34.5 9 t-34.5 -9t-12.5 -24z" />
<glyph unicode="&#x1fb;" horiz-adv-x="528" d="M451 339v-185q0 -27 8 -37.5t30 -16.5l-8 -112q-92 0 -144 34q-65 -34 -134 -34q-68 0 -113 45t-45 119q0 142 169 154l103 7v28q0 48 -45 48q-42 0 -91.5 -2.5t-78.5 -4.5l-28 -2l-4 109q137 22 210 22q85 0 128 -40t43 -132zM113 684l53 19q34 52 98 52q16 0 33 -5 l73 26l44 -127l-33 -10v-1q0 -50 -34 -83.5t-83 -33.5q-67 0 -100 53l-11 -3zM317 216l-88 -4q-23 -1 -36 -16t-13 -40q0 -26 11.5 -41t31.5 -15q18 0 41.5 4t37.5 8l15 3v101z" />
<glyph unicode="&#x1fc;" horiz-adv-x="810" d="M332 0v119h-153l-26 -119h-138l153 690h592v-128h-293v-162h233v-121h-233v-151h293v-128h-428zM275 563l-68 -317h125v317h-57zM254 874l257 92l44 -127l-261 -78z" />
<glyph unicode="&#x1fd;" horiz-adv-x="828" d="M565 106q32 0 77 2t74 4l29 3l2 -99q-91 -28 -193 -28q-108 0 -159 48l-23 -11q-84 -37 -152 -37t-113 45t-45 119q0 142 164 154l108 7v28q0 21 -12 34.5t-33 13.5q-33 0 -81.5 -3.5t-80.5 -7.5l-32 -3l-4 114q128 22 201 22q91 0 131 -40q51 40 131 40 q104 0 156.5 -59.5t52.5 -164.5l-10 -93h-284q2 -88 96 -88zM242 100l92 15v99l-86 -4q-23 -1 -37 -15.5t-14 -38.5q0 -25 13.5 -40.5t31.5 -15.5zM468 294h163q0 53 -18 79t-63 26t-63 -27t-19 -78zM273 684l257 92l44 -127l-261 -78z" />
<glyph unicode="&#x1fe;" horiz-adv-x="656" d="M159 874l257 92l44 -127l-261 -78zM322 115q75 0 105 52t30 173q0 123 -30.5 179t-104.5 56t-104.5 -56t-30.5 -179q0 -121 30 -173t105 -52zM322 -12q-149 0 -213 86.5t-64 265.5q0 181 64.5 271.5t212.5 90.5t212.5 -90.5t64.5 -271.5q0 -179 -64 -265.5t-213 -86.5z " />
<glyph unicode="&#x1ff;" d="M265 511q27 0 55 -5l41 101l81 -30l-42 -102q90 -60 90 -225q0 -262 -225 -262q-35 0 -62 6l-42 -102l-80 30l43 105q-84 63 -84 223q0 261 225 261zM114 684l257 92l44 -127l-261 -78zM265 104q51 0 70 38t19 108q0 60 -12 93l-96 -238q6 -1 19 -1zM176 250 q0 -57 10 -87l91 231q-4 1 -12 1q-51 0 -70 -37.5t-19 -107.5z" />
<glyph unicode="&#x218;" d="M491 677l-4 -116q-139 14 -197 14q-104 0 -104 -72q0 -34 27 -54t109 -52q113 -43 151 -79.5t38 -119.5q0 -109 -56.5 -159.5t-181.5 -50.5q-43 0 -95.5 6t-83.5 12l-32 5l7 118q131 -14 192 -14q57 0 85.5 17t28.5 62q0 29 -26 45.5t-104 46.5q-113 43 -154 88t-41 128 q0 98 59.5 149t172.5 51q97 0 209 -25zM177 -311l46 234h130l-55 -234h-121z" />
<glyph unicode="&#x219;" horiz-adv-x="497" d="M430 486l-2 -108q-129 16 -177 16q-65 0 -65 -43q0 -17 17 -24.5t72 -17.5q95 -18 132.5 -51.5t37.5 -107.5q0 -84 -52.5 -123t-144.5 -39q-33 0 -80.5 6t-79.5 12l-31 7l4 109q123 -17 174 -17q76 0 76 42q0 17 -14 25t-62 18q-96 21 -139.5 52.5t-43.5 105.5 q0 81 55 122t134 41q32 0 79 -6.5t78 -12.5zM160 -311l46 234h130l-55 -234h-121z" />
<glyph unicode="&#x237;" horiz-adv-x="271" d="M70 6v493h134v-494q0 -105 -33.5 -153t-144.5 -100l-60 111q70 38 87 61t17 82z" />
<glyph unicode="&#x2c6;" horiz-adv-x="833" d="M223 580l131 172h108l132 -172h-143l-42 61l-43 -61h-143z" />
<glyph unicode="&#x2c7;" horiz-adv-x="833" d="M352 580l-129 172h144l42 -60l41 60h144l-130 -172h-112z" />
<glyph unicode="&#x2d8;" horiz-adv-x="486" d="M27 748h139q7 -44 55 -44q49 0 55 44h139q-8 -75 -56.5 -119t-137.5 -44t-137.5 44t-56.5 119z" />
<glyph unicode="&#x2d9;" horiz-adv-x="268" d="M67 556v135h134v-135h-134z" />
<glyph unicode="&#x2da;" horiz-adv-x="833" d="M151 638q0 49 33.5 83t83.5 34q49 0 83 -34t34 -83q0 -50 -34 -83.5t-83 -33.5q-50 0 -83.5 33.5t-33.5 83.5zM238 638q0 -14 9 -22.5t22 -8.5t21.5 9t8.5 22t-8.5 21.5t-21.5 8.5t-22 -8.5t-9 -21.5z" />
<glyph unicode="&#x2db;" horiz-adv-x="474" d="M417 -98l13 -107q-59 -11 -102 -11q-48 0 -78.5 26t-30.5 70q0 36 20.5 69t40.5 47l20 15l111 -10q-52 -42 -52 -77q0 -25 20 -25z" />
<glyph unicode="&#x2dc;" horiz-adv-x="469" d="M374 749l29 -101q-6 -7 -16.5 -17.5t-38.5 -28t-52 -17.5q-28 0 -81.5 22t-67.5 22q-12 0 -32 -10t-34 -20l-14 -10l-29 100q6 7 16.5 17.5t38.5 28.5t52 18q35 0 86 -21.5t61 -21.5q26 0 82 39z" />
<glyph unicode="&#x2dd;" horiz-adv-x="725" d="M334 628l117 190l109 -67l-125 -188zM130 628l117 189l109 -66l-125 -188z" />
<glyph unicode="&#x300;" horiz-adv-x="545" d="M133 775l257 -92l-37 -105l-261 78z" />
<glyph unicode="&#x301;" horiz-adv-x="833" d="M89 684l257 92l44 -127l-261 -78z" />
<glyph unicode="&#x302;" horiz-adv-x="833" d="M223 580l131 172h108l132 -172h-143l-42 61l-43 -61h-143z" />
<glyph unicode="&#x303;" horiz-adv-x="833" d="M374 749l29 -101q-6 -7 -16.5 -17.5t-38.5 -28t-52 -17.5q-28 0 -81.5 22t-67.5 22q-12 0 -32 -10t-34 -20l-14 -10l-29 100q6 7 16.5 17.5t38.5 28.5t52 18q35 0 86 -21.5t61 -21.5q26 0 82 39z" />
<glyph unicode="&#x304;" horiz-adv-x="486" d="M73 622v116h327v-116h-327z" />
<glyph unicode="&#x306;" horiz-adv-x="486" d="M27 748h139q7 -44 55 -44q49 0 55 44h139q-8 -75 -56.5 -119t-137.5 -44t-137.5 44t-56.5 119z" />
<glyph unicode="&#x307;" horiz-adv-x="268" d="M67 556v135h134v-135h-134z" />
<glyph unicode="&#x308;" horiz-adv-x="833" d="M67 606v132h128v-132h-128zM283 606v132h128v-132h-128z" />
<glyph unicode="&#x30a;" horiz-adv-x="833" d="M151 638q0 49 33.5 83t83.5 34q49 0 83 -34t34 -83q0 -50 -34 -83.5t-83 -33.5q-50 0 -83.5 33.5t-33.5 83.5zM238 638q0 -14 9 -22.5t22 -8.5t21.5 9t8.5 22t-8.5 21.5t-21.5 8.5t-22 -8.5t-9 -21.5z" />
<glyph unicode="&#x30b;" horiz-adv-x="725" d="M334 628l117 190l109 -67l-125 -188zM130 628l117 189l109 -66l-125 -188z" />
<glyph unicode="&#x30c;" horiz-adv-x="833" d="M352 580l-129 172h144l42 -60l41 60h144l-130 -172h-112z" />
<glyph unicode="&#x312;" horiz-adv-x="170" d="M171 817l-46 -234h-130l55 234h121z" />
<glyph unicode="&#x315;" horiz-adv-x="175" d="M147 690v-260h-130v260h130z" />
<glyph unicode="&#x326;" horiz-adv-x="170" d="M-5 -311l46 234h130l-55 -234h-121z" />
<glyph unicode="&#x327;" horiz-adv-x="833" d="M568 -127q0 -50 -29.5 -77t-81.5 -27q-19 0 -42.5 2.5t-36.5 5.5l-14 3l4 78q31 -1 48 -1q38 0 38 26q0 22 -38 22h-24v96h53v-38q66 -1 94.5 -19t28.5 -71z" />
<glyph unicode="&#x328;" horiz-adv-x="474" d="M417 -98l13 -107q-59 -11 -102 -11q-48 0 -78.5 26t-30.5 70q0 36 20.5 69t40.5 47l20 15l111 -10q-52 -42 -52 -77q0 -25 20 -25z" />
<glyph unicode="&#x394;" d="M30 114l124 576h225l123 -578v-112h-472v114zM276 566h-18l-90 -442h197z" />
<glyph unicode="&#x2206;" d="M30 114l124 576h225l123 -578v-112h-472v114zM276 566h-18l-90 -442h197z" />
<glyph unicode="&#x3a9;" d="M37 111h70q-9 13 -22 35.5t-35 90.5t-22 133q0 161 54 230.5t183 69.5t183 -69.5t54 -230.5q0 -65 -20 -130t-40 -97l-19 -32h70v-120h-208v110q9 14 22 38t35 89.5t22 121.5q0 103 -20 149t-79 46q-63 0 -81 -44t-18 -151q0 -56 20 -118t40 -96l19 -35v-110h-208v120z " />
<glyph unicode="&#x2126;" d="M37 111h70q-9 13 -22 35.5t-35 90.5t-22 133q0 161 54 230.5t183 69.5t183 -69.5t54 -230.5q0 -65 -20 -130t-40 -97l-19 -32h70v-120h-208v110q9 14 22 38t35 89.5t22 121.5q0 103 -20 149t-79 46q-63 0 -81 -44t-18 -151q0 -56 20 -118t40 -96l19 -35v-110h-208v120z " />
<glyph unicode="&#x3c0;" d="M305 154v229h-84l-26 -383h-135l26 383l-82 -13v117q25 5 62.5 8t62.5 4l25 1h216q95 0 144 16v-117q-24 -12 -74 -15v-230q0 -27 14 -38t55 -11v-115q-68 0 -108 7.5t-61.5 28.5t-28 49t-6.5 79z" />
<glyph unicode="&#x1e80;" horiz-adv-x="941" d="M29 690h145l99 -566h15l104 556h157l104 -556h15l99 566h145l-139 -690h-215l-88 497l-87 -497h-215zM364 955l257 -92l-40 -113l-261 78z" />
<glyph unicode="&#x1e81;" horiz-adv-x="750" d="M12 499h132l61 -378h24l76 369h140l76 -369h24l61 378h132l-93 -499h-215l-56 306l-57 -306h-212zM268 775l257 -92l-37 -105l-261 78z" />
<glyph unicode="&#x1e82;" horiz-adv-x="941" d="M29 690h145l99 -566h15l104 556h157l104 -556h15l99 566h145l-139 -690h-215l-88 497l-87 -497h-215zM320 874l257 92l44 -127l-261 -78z" />
<glyph unicode="&#x1e83;" horiz-adv-x="750" d="M12 499h132l61 -378h24l76 369h140l76 -369h24l61 378h132l-93 -499h-215l-56 306l-57 -306h-212zM224 684l257 92l44 -127l-261 -78z" />
<glyph unicode="&#x1e84;" horiz-adv-x="941" d="M29 690h145l99 -566h15l104 556h157l104 -556h15l99 566h145l-139 -690h-215l-88 497l-87 -497h-215zM295 794v132h128v-132h-128zM517 794v132h128v-132h-128z" />
<glyph unicode="&#x1e85;" horiz-adv-x="750" d="M12 499h132l61 -378h24l76 369h140l76 -369h24l61 378h132l-93 -499h-215l-56 306l-57 -306h-212zM203 606v132h128v-132h-128zM419 606v132h128v-132h-128z" />
<glyph unicode="&#x1eab;" horiz-adv-x="528" d="M451 339v-185q0 -27 8 -37.5t30 -16.5l-8 -112q-92 0 -144 34q-65 -34 -134 -34q-68 0 -113 45t-45 119q0 142 169 154l103 7v28q0 48 -45 48q-42 0 -91.5 -2.5t-78.5 -4.5l-28 -2l-4 109q137 22 210 22q85 0 128 -40t43 -132zM317 216l-88 -4q-23 -1 -36 -16t-13 -40 q0 -26 11.5 -41t31.5 -15q18 0 41.5 4t37.5 8l15 3v101zM74 550l131 172h108l132 -172h-143l-42 61l-43 -61h-143zM408 909l29 -101q-6 -7 -16.5 -17.5t-38.5 -28t-52 -17.5q-28 0 -81.5 22t-67.5 22q-12 0 -32 -10t-34 -20l-14 -10l-29 100q6 7 16.5 17.5t38.5 28.5t52 18 q35 0 86 -21.5t61 -21.5q26 0 82 39z" />
<glyph unicode="&#x1eb0;" horiz-adv-x="605" d="M25 0l153 690h252l150 -690h-138l-31 119h-222l-26 -119h-138zM286 570l-69 -324h169l-66 324h-34zM116 890h139q8 -39 47 -39q41 0 48 39h139q-8 -68 -54.5 -109.5t-132.5 -41.5t-132 41.5t-54 109.5zM196 1136l257 -92l-37 -105l-261 78z" />
<glyph unicode="&#x1ec5;" horiz-adv-x="507" d="M271 106q32 0 77 2t74 4l29 3l2 -99q-91 -28 -193 -28q-117 0 -168.5 62.5t-51.5 192.5q0 126 54.5 197t161.5 71t160 -59t53 -165l-10 -93h-284q2 -88 96 -88zM174 294h163q0 53 -18 79t-63 26t-63 -27t-19 -78zM70 550l131 172h108l132 -172h-143l-42 61l-43 -61h-143z M407 909l29 -101q-6 -7 -16.5 -17.5t-38.5 -28t-52 -17.5q-28 0 -81.5 22t-67.5 22q-12 0 -32 -10t-34 -20l-14 -10l-29 100q6 7 16.5 17.5t38.5 28.5t52 18q35 0 86 -21.5t61 -21.5q26 0 82 39z" />
<glyph unicode="&#x1ed7;" d="M265 511q225 0 225 -261q0 -262 -225 -262t-225 262q0 261 225 261zM265 104q51 0 70 38t19 108t-19 107.5t-70 37.5t-70 -37.5t-19 -107.5t19 -108t70 -38zM74 550l131 172h108l132 -172h-143l-42 61l-43 -61h-143zM408 909l29 -101q-6 -7 -16.5 -17.5t-38.5 -28 t-52 -17.5q-28 0 -81.5 22t-67.5 22q-12 0 -32 -10t-34 -20l-14 -10l-29 100q6 7 16.5 17.5t38.5 28.5t52 18q35 0 86 -21.5t61 -21.5q26 0 82 39z" />
<glyph unicode="&#x1ef2;" horiz-adv-x="571" d="M355 295v-295h-136v295l-204 395h153l118 -250l117 250h153zM179 955l257 -92l-40 -113l-261 78z" />
<glyph unicode="&#x1ef3;" horiz-adv-x="485" d="M13 499h132l91 -369h13l91 369h132l-175 -708h-132l51 210h-80zM136 775l257 -92l-37 -105l-261 78z" />
<glyph unicode="&#x1ef8;" horiz-adv-x="571" d="M355 295v-295h-136v295l-204 395h153l118 -250l117 250h153zM439 940l29 -101q-6 -7 -16.5 -17.5t-38.5 -28t-52 -17.5q-28 0 -81.5 22t-67.5 22q-12 0 -32 -10t-34 -20l-14 -10l-29 100q6 7 16.5 17.5t38.5 28.5t52 18q35 0 86 -21.5t61 -21.5q26 0 82 39z" />
<glyph unicode="&#x1ef9;" horiz-adv-x="485" d="M13 499h132l91 -369h13l91 369h132l-175 -708h-132l51 210h-80zM396 749l29 -101q-6 -7 -16.5 -17.5t-38.5 -28t-52 -17.5q-28 0 -81.5 22t-67.5 22q-12 0 -32 -10t-34 -20l-14 -10l-29 100q6 7 16.5 17.5t38.5 28.5t52 18q35 0 86 -21.5t61 -21.5q26 0 82 39z" />
<glyph unicode="&#x2013;" horiz-adv-x="500" d="M0 335h500v-122h-500v122z" />
<glyph unicode="&#x2014;" horiz-adv-x="1000" d="M0 335h1000v-122h-1000v122z" />
<glyph unicode="&#x2018;" horiz-adv-x="224" d="M206 750l-50 -247h-136l57 247h129z" />
<glyph unicode="&#x2019;" horiz-adv-x="224" d="M18 503l50 247h136l-57 -247h-129z" />
<glyph unicode="&#x201a;" horiz-adv-x="224" d="M18 -87l50 247h136l-57 -247h-129z" />
<glyph unicode="&#x201c;" horiz-adv-x="470" d="M226 614l-50 -247h-136l57 247h129zM426 614l-50 -247h-136l57 247h129z" />
<glyph unicode="&#x201d;" horiz-adv-x="465" d="M39 503l50 247h136l-57 -247h-129zM239 503l50 247h136l-57 -247h-129z" />
<glyph unicode="&#x201e;" horiz-adv-x="465" d="M39 -87l50 247h136l-57 -247h-129zM239 -87l50 247h136l-57 -247h-129z" />
<glyph unicode="&#x2020;" d="M53 365v132h146v172h132v-172h146v-132h-146v-436h-132v436h-146z" />
<glyph unicode="&#x2021;" d="M199 -71v172h-146v132h146v132h-146v132h146v172h132v-172h145v-132h-145v-132h146v-132h-146v-172h-132z" />
<glyph unicode="&#x2022;" d="M145 100v280h240v-280h-240z" />
<glyph unicode="&#x2026;" horiz-adv-x="744" d="M54 0v166h144v-166h-144zM309 0v166h144v-166h-144zM564 0v166h144v-166h-144z" />
<glyph unicode="&#x2030;" horiz-adv-x="833" d="M126 621q-13 0 -17.5 -14.5t-4.5 -50.5t4.5 -51t17.5 -15t17.5 15t4.5 51t-4.5 50.5t-17.5 14.5zM134 -2l192 722l86 -23l-192 -721zM6 556q0 145 120 145t120 -145q0 -146 -120 -146t-120 146zM298 146q0 145 120 145t120 -145q0 -146 -120 -146t-120 146zM396 146 q0 -36 4.5 -51t17.5 -15t17.5 15t4.5 51t-4.5 50.5t-17.5 14.5t-17.5 -14.5t-4.5 -50.5zM555 146q0 145 120 145t120 -145q0 -146 -120 -146t-120 146zM653 146q0 -36 4.5 -51t17.5 -15t17.5 15t4.5 51t-4.5 50.5t-17.5 14.5t-17.5 -14.5t-4.5 -50.5z" />
<glyph unicode="&#x2039;" horiz-adv-x="608" d="M288 319l-109 -75l109 -86v-135l-223 171v96l223 164v-135z" />
<glyph unicode="&#x203a;" horiz-adv-x="608" d="M169 254l-109 75v135l223 -164v-96l-223 -171v135z" />
<glyph unicode="&#x2070;" horiz-adv-x="265" d="M134 801q66 0 97.5 -38t31.5 -131q0 -92 -31 -128.5t-98 -36.5t-98 36.5t-31 128.5q0 93 31.5 131t97.5 38zM134 706q-7 0 -11 -4.5t-6 -21t-2 -48.5t2.5 -47.5t6 -19t10.5 -3.5q11 0 15 12t4 58q0 47 -4 60.5t-15 13.5z" />
<glyph unicode="&#x2074;" horiz-adv-x="265" d="M142 478v35h-132v88l39 189h118l-52 -182h27l14 90h91v-90h11v-95h-11v-35h-105z" />
<glyph unicode="&#x2075;" horiz-adv-x="265" d="M37 790h207v-90h-124l-3 -25q28 6 44 6q93 0 93 -99q0 -111 -118 -111q-23 0 -52.5 3.5t-47.5 7.5l-18 3l8 85q56 -9 93 -9q25 0 25 15q0 16 -14 16l-26 -4l-78 11z" />
<glyph unicode="&#x2076;" horiz-adv-x="265" d="M250 789l-6 -87q-66 6 -94 6q-33 0 -33 -26l6 1q6 1 16 2.5t16 1.5q54 0 79 -26t25 -79q0 -54 -33.5 -84.5t-85.5 -30.5q-131 0 -131 155q0 89 30.5 134t106.5 45q16 0 42 -3t44 -6zM136 601q-5 0 -10 -2t-7 -4l-2 -2q0 -34 18 -34q17 0 17 21t-16 21z" />
<glyph unicode="&#x2077;" horiz-adv-x="265" d="M21 685v105h227v-101l-95 -221l-121 19l91 185v13h-102z" />
<glyph unicode="&#x2078;" horiz-adv-x="265" d="M133 801q124 0 124 -90q0 -45 -27 -71q3 -2 8.5 -6.5t14 -22t8.5 -39.5q0 -57 -32 -81t-96 -24q-65 0 -96.5 24t-31.5 81q0 44 32 69q-27 20 -27 71q0 89 123 89zM133 552q19 0 19 22q0 13 -12 25h-14q-12 -12 -12 -25q0 -22 19 -22zM133 716q-18 0 -18 -19q0 -12 11 -25 h14q11 13 11 25q0 19 -18 19z" />
<glyph unicode="&#x2079;" horiz-adv-x="265" d="M20 481l6 87q49 -6 87 -6q33 0 33 23l-5 -1q-5 -1 -14 -2t-16 -1q-102 0 -102 104q0 55 32 85.5t87 30.5q131 0 131 -165q0 -87 -30 -128t-101 -41q-21 0 -48 3.5t-44 7.5zM132 663l19 6q0 39 -19 39q-16 0 -16 -23q0 -22 16 -22z" />
<glyph unicode="&#x2080;" horiz-adv-x="265" d="M134 323q66 0 97.5 -38t31.5 -131q0 -92 -31 -128.5t-98 -36.5t-98 36.5t-31 128.5q0 93 31.5 131t97.5 38zM134 228q-7 0 -11 -4.5t-6 -21t-2 -48.5t2.5 -47.5t6 -19t10.5 -3.5q11 0 15 12t4 58q0 47 -4 60.5t-15 13.5z" />
<glyph unicode="&#x2081;" horiz-adv-x="265" d="M16 237l106 75h96v-312h-106v195l-47 -32z" />
<glyph unicode="&#x2082;" horiz-adv-x="265" d="M245 0h-231v90l73 59q46 37 46 57q0 15 -37 15l-76 -6l-4 99q73 9 118 9q61 0 86 -23t25 -77q0 -33 -13 -55.5t-43 -44.5l-38 -28h94v-95z" />
<glyph unicode="&#x2083;" horiz-adv-x="265" d="M24 314q68 9 108 9q121 0 121 -89q0 -53 -29 -70q35 -15 35 -73q0 -51 -31 -76.5t-87 -25.5l-121 8l6 93q61 -6 94 -6q29 0 29 16q0 14 -26 14h-66v85h64q20 0 20 14q0 15 -27 15l-84 -5z" />
<glyph unicode="&#x2084;" horiz-adv-x="265" d="M142 0v35h-132v88l39 189h118l-52 -182h27l14 90h91v-90h11v-95h-11v-35h-105z" />
<glyph unicode="&#x2085;" horiz-adv-x="265" d="M37 312h207v-90h-124l-3 -25q28 6 44 6q93 0 93 -99q0 -111 -118 -111q-23 0 -52.5 3.5t-47.5 7.5l-18 3l8 85q56 -9 93 -9q25 0 25 15q0 16 -14 16l-26 -4l-78 11z" />
<glyph unicode="&#x2086;" horiz-adv-x="265" d="M250 311l-6 -87q-66 6 -94 6q-33 0 -33 -26l6 1q6 1 16 2.5t16 1.5q54 0 79 -26t25 -79q0 -54 -33.5 -84.5t-85.5 -30.5q-131 0 -131 155q0 89 30.5 134t106.5 45q16 0 42 -3t44 -6zM136 123q-5 0 -10 -2t-7 -4l-2 -2q0 -34 18 -34q17 0 17 21t-16 21z" />
<glyph unicode="&#x2087;" horiz-adv-x="265" d="M21 207v105h227v-101l-95 -221l-121 19l91 185v13h-102z" />
<glyph unicode="&#x2088;" horiz-adv-x="265" d="M133 323q124 0 124 -90q0 -45 -27 -71q3 -2 8.5 -6.5t14 -22t8.5 -39.5q0 -57 -32 -81t-96 -24q-65 0 -96.5 24t-31.5 81q0 44 32 69q-27 20 -27 71q0 89 123 89zM133 74q19 0 19 22q0 13 -12 25h-14q-12 -12 -12 -25q0 -22 19 -22zM133 238q-18 0 -18 -19q0 -12 11 -25 h14q11 13 11 25q0 19 -18 19z" />
<glyph unicode="&#x2089;" horiz-adv-x="265" d="M20 3l6 87q49 -6 87 -6q33 0 33 23l-5 -1q-5 -1 -14 -2t-16 -1q-102 0 -102 104q0 55 32 85.5t87 30.5q131 0 131 -165q0 -87 -30 -128t-101 -41q-21 0 -48 3.5t-44 7.5zM132 185l19 6q0 39 -19 39q-16 0 -16 -23q0 -22 16 -22z" />
<glyph unicode="&#x20ac;" horiz-adv-x="593" d="M68 459h60q15 116 71 164.5t172 48.5q38 0 82.5 -5t70.5 -9l26 -5l-8 -113q-97 8 -151 8q-60 0 -87 -21t-32 -69h209v-103h-218q-2 -18 -2 -27l2 -34h218v-104h-208q5 -41 33 -59.5t89 -18.5l150 6l4 -113q-99 -17 -178 -17q-116 0 -172.5 47.5t-70.5 154.5h-60v104h53 q-2 22 -2 34l2 27h-53v104z" />
<glyph unicode="&#x2122;" d="M7 565v79h200v-79h-41v-233h-88v233h-71zM232 331v313h103l41 -158l45 158h102v-313h-82v174l-34 -153h-55l-38 153v-174h-82z" />
<glyph unicode="&#x2202;" d="M109 533l-14 120q82 19 166 19q126 0 186 -78t60 -257q0 -169 -69 -257.5t-198 -88.5q-106 0 -161 59.5t-55 157.5q0 102 62 155t159 53q19 0 39 -4.5t34.5 -10.5t26.5 -12.5t18 -10.5l6 -4q0 170 -108 170q-30 0 -68 -3t-61 -5zM256 300q-94 0 -94 -92t86 -92 q52 0 79 40.5t32 105.5q-43 38 -103 38z" />
<glyph unicode="&#x220f;" d="M27 660h477v-136h-40v-610h-138v610h-122v-610h-138v610h-39v136z" />
<glyph unicode="&#x2211;" d="M475 -86h-420v158l152 215l-152 214v158h420v-136h-256v-23l159 -213l-159 -214v-23h256v-136z" />
<glyph unicode="&#x2212;" d="M34 210v134h460v-134h-460z" />
<glyph unicode="&#x221a;" d="M6 333l166 45l82 -334h14l121 716h145l-161 -840h-213l-87 315l-36 -10z" />
<glyph unicode="&#x221e;" horiz-adv-x="535" d="M168 121q-139 0 -139 170q0 172 137 172q36 0 59 -12.5t42 -43.5q18 31 41 43.5t60 12.5q137 0 137 -171t-139 -171q-36 0 -58 12.5t-41 42.5q-18 -30 -41 -42.5t-58 -12.5zM217 292q-19 38 -27 43q-5 3 -13 3q-26 0 -26 -47q0 -45 26 -45q4 0 7 0.5t6 3t5 4.5t5 7t5 8 t6 10.5t6 12.5zM317 292q2 -5 6 -12.5t6 -10.5t5 -8t5 -7t5 -4.5t6 -3t7 -0.5q26 0 26 45q0 47 -26 47q-12 0 -18.5 -8t-17.5 -29q-2 -6 -4 -9z" />
<glyph unicode="&#x222b;" d="M450 742q-53 5 -73 5q-36 0 -48.5 -16t-12.5 -56l30 -710q0 -109 -35.5 -152t-135.5 -43l-101 11l2 117q53 -4 74 -4q33 0 47 16.5t14 54.5l-30 710q0 116 34 156t137 40l101 -11z" />
<glyph unicode="&#x2248;" d="M464 473l8 -125q-5 -6 -15 -15t-40.5 -23.5t-60.5 -14.5q-28 0 -95 22t-84 22q-48 0 -109 -40l-10 126q6 6 17 15t44.5 23.5t65.5 14.5q26 0 89.5 -22t87.5 -22q17 0 42.5 10t42.5 20zM464 253l8 -125q-5 -6 -15 -15t-40.5 -23.5t-60.5 -14.5q-28 0 -95 22t-84 22 q-48 0 -109 -40l-10 126q6 6 17 15t44.5 23.5t65.5 14.5q26 0 89.5 -22t87.5 -22q17 0 42.5 10t42.5 20z" />
<glyph unicode="&#x2260;" d="M53 309v130h217l64 144l103 -43l-45 -101h90v-130h-146l-37 -83h183v-130h-240l-62 -141l-103 43l43 98h-67v130h123l37 83h-160z" />
<glyph unicode="&#x2264;" d="M460 402l-265 -50l265 -53v-140l-397 101v180l397 102v-140zM63 0v132h397v-132h-397z" />
<glyph unicode="&#x2265;" d="M345 352l-275 50v140l407 -102v-180l-407 -101v140zM70 0v132h407v-132h-407z" />
<glyph unicode="&#x25ca;" d="M499 334l-152 -334h-140l-157 334l156 326h140zM357 334l-80 196l-85 -196l85 -202z" />
<glyph unicode="&#xe000;" horiz-adv-x="500" d="M0 500h500v-500h-500v500z" />
<glyph horiz-adv-x="235" />
<glyph d="M452 651l-4 -33q-72 18 -156 18q-102 0 -155 -66t-53 -218q0 2 28 15.5t76 28t87 14.5q209 0 209 -202q0 -217 -214 -217q-115 0 -169.5 87t-54.5 259q0 180 63.5 256.5t182.5 76.5zM273 376q-88 -3 -188 -58l-2 -1q2 -146 46 -219t141 -73q95 0 135.5 45t40.5 138 q0 81 -39 124.5t-134 43.5z" />
<glyph d="M74 12l6 32q82 -19 166 -19q101 0 151 67.5t50 221.5q0 -2 -28 -15.5t-76 -28t-87 -14.5q-106 0 -157.5 53t-51.5 144q0 103 55 160t163 57q113 0 166 -86.5t53 -259.5q0 -181 -60 -257t-178 -76q-37 0 -80 5.5t-68 10.5zM258 290q88 3 188 58l2 1q-5 287 -183 287 q-180 0 -180 -183q0 -74 42 -118.5t131 -44.5z" />
<glyph horiz-adv-x="0" />
<glyph horiz-adv-x="944" d="M328 -9q-80 0 -133 22t-82.5 69.5t-41 110t-11.5 154.5q0 184 58 273t210 89q108 0 147 -9h409v-36h-373v-286h313v-36h-313v-306h373v-36h-407v-1q-35 -8 -149 -8zM328 25q106 0 147 9v629q-39 12 -147 12q-70 0 -116 -21t-70.5 -65.5t-34 -101t-9.5 -140.5 q0 -85 9 -140t33.5 -98.5t70.5 -63.5t117 -20zM476 663h-1l1 -332v332z" />
<glyph horiz-adv-x="700" d="M303 694q78 0 115.5 -39t37.5 -106q0 -72 -38 -112.5t-127 -69.5l187 -185q20 58 31 146h35q-14 -108 -39 -172l140 -137l-24 -26l-131 130q-66 -132 -222 -132q-126 0 -178 55t-52 162q0 89 38 132.5t125 68.5q-32 35 -41.5 65t-9.5 76q0 65 39 104.5t114 39.5zM270 24 q137 0 194 124l-237 235q-86 -23 -120 -60t-34 -114q0 -93 46 -139t151 -46zM185 550q0 -78 45 -123l36 -36q87 30 121 63t34 96q0 112 -118 112t-118 -112z" />
<glyph horiz-adv-x="570" d="M463 668v-32q-87 12 -120 12q-54 0 -78 -30.5t-24 -116.5v-95h182v-32h-182v-340h174l82 16l7 -32l-81 -17l-309 -1v34h92v340h-69v32h69v95q0 104 32.5 141.5t104.5 37.5z" />
<glyph horiz-adv-x="593" d="M68 427h64q10 128 64 189t182 61q95 0 175 -19l-3 -35q-91 20 -172 20q-111 0 -155.5 -52t-52.5 -164l311 -1v-33h-313q-1 -20 -1 -62q0 -36 1 -52l313 -1v-33h-312q8 -115 52.5 -167.5t156.5 -52.5l172 20l3 -34q-96 -20 -175 -20q-128 0 -182.5 61t-63.5 193h-64v34h62 q-1 16 -1 52q0 42 1 62h-62v34z" />
<glyph horiz-adv-x="833" d="M582 14l-35 -14l-301 687l35 14z" />
<glyph horiz-adv-x="520" d="M27 -34h428v-34h-428v34z" />
<glyph horiz-adv-x="615" d="M358 257h-219v-257h-36v700h255q106 0 156.5 -50t50.5 -161q0 -112 -47 -172t-160 -60zM139 291h219q169 0 169 198q0 92 -41.5 134.5t-127.5 42.5h-219v-375z" />
<glyph d="M3 334v36h336v-36h-336zM151 483v80h40v-80h-40zM151 139v80h40v-80h-40z" />
<glyph horiz-adv-x="410" d="M-49 234v34h232v232h36v-232h234v-34h-234v-234h-36v234h-232z" />
<glyph horiz-adv-x="440" d="M60 264v34h320v-34h-320z" />
<glyph d="M410 520l-315 -206l315 -217v-41q-313 213 -347 238v36l347 229v-39z" />
<glyph d="M1 343v34h505v-34h-505zM2 174v34h505v-34h-505z" />
<glyph d="M378 314l-315 206v39l347 -229v-36l-347 -238v41z" />
<glyph d="M46 12l277 690l33 -14l-277 -689z" />
<glyph horiz-adv-x="876" d="M618 23l182 9l2 -32q-112 -9 -185 -9q-131 1 -169 107q-18 -56 -61 -81.5t-122 -25.5q-122 0 -163.5 58t-41.5 212q0 138 46.5 193t158.5 55q146 0 184 -120q44 120 182 120q95 0 142.5 -57t47.5 -183v-33h-355q0 -108 34 -160.5t118 -52.5zM265 23q54 0 87.5 13.5t50 46 t21.5 71.5t5 105q0 118 -39.5 168t-124.5 50q-97 0 -132.5 -45.5t-35.5 -170.5q0 -70 5.5 -110.5t23.5 -72t51 -43.5t88 -12zM466 268h318q0 113 -36.5 161t-116.5 48q-165 0 -165 -209z" />
<glyph horiz-adv-x="898" d="M429 0v215h-276l-78 -215h-40l251 700h552v-34h-373v-288h313v-34h-313v-310h373v-34h-409zM314 666l-149 -417h264v417h-115z" />
<glyph horiz-adv-x="656" d="M89 -98l60 129q-57 38 -80 115t-23 201q0 184 58 273t210 89q82 0 140 -28l52 111l33 -14l-55 -116q54 -42 76 -119t22 -196q0 -191 -56.5 -273.5t-211.5 -82.5q-79 0 -134 23l-58 -125zM84 347q0 -112 17.5 -180t63.5 -103l273 584q-48 27 -124 27q-70 0 -116 -21 t-70.5 -65.5t-34 -101t-9.5 -140.5zM314 25q72 0 117.5 18.5t70 61t33.5 98.5t9 144q0 210 -76 280l-273 -581q47 -21 119 -21z" />
<glyph horiz-adv-x="833" d="M249 0h-36v532q0 104 31.5 141t121.5 37q103 0 146.5 -32t43.5 -103q0 -43 -15 -65t-49 -35l-17 -6.5l-14 -5.5l-11.5 -4.5t-9.5 -4t-6.5 -4t-5 -4t-3 -4.5t-2 -5.5t-0.5 -6.5q0 -10 11 -18.5t73 -45.5l33 -19.5l28.5 -17.5l22.5 -14t19 -13t13.5 -12t10.5 -12.5t5 -12 t2 -14.5q0 -71 -9 -116t-34.5 -79.5t-72.5 -49.5t-122 -15l-78 4l4 34q57 -4 74 -4q67 0 108 13t61 45t25.5 68t5.5 100q0 12 -26.5 31t-94.5 58q-67 38 -82 52t-15 38q0 15 3 24.5t12 16.5t15.5 10.5t25.5 10.5t31 12q32 14 39 25t7 46q0 56 -34.5 78.5t-117.5 22.5 q-72 0 -94.5 -29.5t-22.5 -127.5v-519z" />
<glyph horiz-adv-x="828" d="M570 23l182 9l2 -32q-112 -9 -185 -9q-99 1 -143 58l-38 -16q-93 -42 -206 -42q-127 0 -127 146q0 70 31 101t107 43l190 20v52q0 122 -111 122l-188 -9l-2 33q110 10 190 10q115 0 139 -96q49 96 172 96q95 0 142.5 -57t47.5 -183v-33h-355q0 -108 34 -160.5t118 -52.5z M183 23q42 0 97 12t84.5 22t46.5 17q-30 59 -30 176v18l-184 -18q-55 -5 -80 -32t-25 -81q0 -55 24 -84.5t67 -29.5zM418 268h318q0 113 -36.5 161t-116.5 48q-165 0 -165 -209z" />
<glyph d="M262 511q53 0 94.5 -11.5t77.5 -39.5t56 -82t20 -132q0 -70 -21.5 -122t-58 -80.5t-78.5 -42t-89 -13.5q-45 0 -86.5 13.5t-78.5 41.5t-59.5 80.5t-22.5 122.5q0 73 21 127t57.5 82.5t78 42t89.5 13.5zM264 384q-100 0 -100 -138q0 -131 100 -131q53 0 75.5 33.5 t22.5 97.5q0 138 -98 138z" />
<glyph d="M56 362l220 138h128v-500h-138v339l-146 -87z" />
<glyph d="M482 0h-414v123l88 73q92 77 119.5 103.5t27.5 43.5q0 21 -15 29t-62 8q-31 0 -67.5 -3.5t-58.5 -7t-22 -4.5l-8 120q98 26 191 26q105 0 152 -35t47 -123q0 -47 -26.5 -80.5t-83.5 -75.5l-93 -68h225v-129z" />
<glyph d="M90 485q108 25 188 25q113 0 163.5 -31t50.5 -111q0 -34 -21.5 -63t-53.5 -36q38 -10 62.5 -40.5t24.5 -68.5q0 -93 -53 -132.5t-160 -39.5q-93 0 -209 23l13 117q115 -11 181 -11q46 0 68 9t22 31q0 33 -83 33h-128v120h128q36 0 53.5 6.5t17.5 29.5q0 21 -18 28t-58 7 l-176 -12z" />
<glyph d="M288 -12v68h-263v104l154 339h150l-145 -321h104v137h138v-137h61v-122h-61v-68h-138z" />
<glyph d="M86 499h385v-132h-269l-14 -61q43 18 91 18q212 0 212 -161q0 -79 -59 -127t-163 -48q-44 0 -99 8t-88 16l-33 9l15 111q126 -24 200 -24q39 0 64 12t25 35q0 50 -92 50q-23 0 -45.5 -3.5t-33.5 -7.5l-12 -4l-106 23z" />
<glyph d="M472 490l-12 -121q-88 15 -167 15q-65 0 -91 -19.5t-27 -72.5q0 1 13 7t41 12.5t57 6.5q106 0 157 -38.5t51 -122.5q0 -76 -58.5 -122.5t-164.5 -46.5q-234 0 -234 241q0 283 256 283q33 0 77.5 -5.5t73.5 -10.5zM274 208q-26 0 -51 -6t-37 -12l-12 -5q0 -37 25 -59.5 t72 -22.5q85 0 85 54q0 51 -82 51z" />
<glyph d="M88 371v128h404v-165l-213 -359l-125 51l196 318v27h-262z" />
<glyph d="M259 511q113 0 173 -35t60 -100q0 -39 -15.5 -65.5t-56.5 -45.5q82 -37 82 -123q0 -154 -243 -154q-113 0 -177 40t-64 114q0 85 83 123q-42 19 -57 41.5t-15 60.5q0 66 59 105t171 39zM259 115q46 0 70.5 12t24.5 32q0 34 -45 41h-98q-45 -7 -45 -41q0 -44 93 -44z M259 394q-82 0 -82 -39q0 -25 34 -38h98q35 13 35 38q0 39 -85 39z" />
<glyph d="M63 10l12 117q77 -12 166 -12q65 0 91.5 21t26.5 74q-41 -38 -111 -38q-202 0 -202 158q0 79 59 130t158 51q235 0 235 -236q0 -151 -59.5 -219.5t-187.5 -68.5q-37 0 -84 5.5t-75 11.5zM260 292q26 0 51 4t37 8l12 3q0 89 -97 89q-79 0 -79 -57q0 -26 18 -36.5t58 -10.5 z" />
<glyph d="M242 -59v759h35v-759h-35z" />
<glyph horiz-adv-x="437" d="M186 -86v127q-92 5 -133 49t-41 157q0 195 174 212v132h35v-130l116 -11l-2 -35q-75 9 -114 10v-348l116 8l2 -35q-79 -9 -118 -9v-127h-35zM52 247q0 -95 29 -130t105 -39v345q-67 -7 -100.5 -49t-33.5 -127z" />
<glyph d="M61 340v34h247l72 163l35 -14l-66 -149h137v-34h-152l-66 -151h219v-34h-234l-72 -165l-35 14l66 151h-150v34h165l66 151h-232z" />
<glyph horiz-adv-x="540" d="M47 331v34h171l-193 295h41l205 -309l202 309h42l-191 -295h168v-34h-190l-13 -20v-95h204v-34h-204v-182h-36v182h-205v34h205v95l-13 20h-193z" />
<glyph d="M90 -250v750h35v-258q0 -132 24 -175.5t105 -43.5q84 0 162 49l2 1v427h35v-500h-35v40l-24 -13.5t-58.5 -22t-81.5 -13.5q-94 0 -129 51v-292h-35z" />
<glyph d="M289 352v-418q0 -97 -31.5 -138t-95.5 -41l-92 3l2 33q62 -3 90 -3q46 0 69 33.5t23 112.5v418h-69v32h69v111q0 178 127 178l93 -3l-2 -32q-61 2 -91 2q-92 0 -92 -146v-110h162v-32h-162z" />
<glyph horiz-adv-x="170" d="M-6 -123l42 210h40l-51 -210h-31z" />
<glyph horiz-adv-x="248" d="M98 0v80h40v-80h-40z" />
<glyph horiz-adv-x="170" d="M4 527l40 200h38l-48 -200h-30z" />
<glyph horiz-adv-x="833" d="M518 0v667h-172v-667h-36v350h-7q-79 0 -132.5 48.5t-53.5 125.5t53.5 126.5t132.5 49.5h348v-33h-97v-667h-36z" />
<glyph horiz-adv-x="285" d="M135 454l7 116q0 72 -30.5 106.5t-112.5 38.5l2 32q95 -4 135.5 -45.5t40.5 -131.5q0 -21 -3.5 -66.5t-3.5 -56.5q0 -49 23.5 -75.5t80.5 -42.5v-32q-57 -14 -80.5 -42t-23.5 -78q0 -13 3.5 -60.5t3.5 -67.5q0 -90 -40.5 -131.5t-135.5 -45.5l-2 32q82 4 112.5 38.5 t30.5 106.5q0 17 -3.5 61t-3.5 58q0 65 22 95.5t78 48.5q-56 18 -78 49t-22 93z" />
<glyph horiz-adv-x="170" d="M56 727l-40 -200h-38l48 200h30z" />
<glyph d="M57 365v132h136v172h132v-172h136v-132h-136v-436h-132v436h-136z" />
<glyph d="M376 313l-109 215l-113 -215h-140l181 347h140l181 -347h-140z" />
<glyph horiz-adv-x="540" d="M133 955l257 -92l-40 -113l-261 78z" />
<glyph horiz-adv-x="556" d="M89 874l257 92l44 -127l-261 -78z" />
<glyph horiz-adv-x="486" d="M24 785l131 149h123l131 -149h-150l-41 43l-41 -43h-153z" />
<glyph horiz-adv-x="486" d="M409 930l-131 -148h-121l-133 148h153l41 -46l41 46h150z" />
<glyph horiz-adv-x="480" d="M394 940l29 -102q-6 -7 -16.5 -17.5t-38.5 -28t-52 -17.5q-28 0 -91.5 22t-77.5 22q-12 0 -32 -10t-34 -20l-14 -10l-29 101q6 7 16.5 17.5t38.5 28.5t52 18q35 0 96 -21.5t71 -21.5q26 0 82 39z" />
<glyph horiz-adv-x="432" d="M64 794v132h128v-132h-128zM286 794v132h128v-132h-128z" />
<glyph horiz-adv-x="486" d="M63 802v116h347v-116h-347z" />
<glyph horiz-adv-x="486" d="M35 930h139q8 -39 47 -39q41 0 48 39h139q-8 -68 -54.5 -109.5t-132.5 -41.5t-132 41.5t-54 109.5z" />
<glyph horiz-adv-x="356" d="M310 721q0 -59 -43 -92.5t-107 -33.5t-107 33.5t-43 92.5t43 92.5t107 33.5t107 -33.5t43 -92.5zM113 721q0 -15 12.5 -24t34.5 -9t34.5 9t12.5 24t-12.5 24t-34.5 9t-34.5 -9t-12.5 -24z" />
<glyph horiz-adv-x="725" d="M355 785l67 197l126 -45l-78 -191zM137 786l67 197l126 -45l-78 -191z" />
<glyph horiz-adv-x="268" d="M67 777v135h134v-135h-134z" />
<glyph d="M265 672q42 0 83 -11l55 138l92 -32l-63 -153q85 -82 85 -288q0 -185 -64 -261.5t-188 -76.5q-47 0 -83 10l-49 -121l-88 30l54 134q-86 77 -86 285q0 186 64.5 266t187.5 80zM266 545q-57 0 -81 -49.5t-24 -169.5q0 -71 7 -112l131 326q-17 5 -33 5zM369 326 q0 72 -7 114l-131 -321q13 -4 35 -4q57 0 80 45.5t23 165.5z" />
<glyph d="M265 672q123 0 187.5 -80t64.5 -266q0 -185 -64 -261.5t-188 -76.5t-188 76.5t-64 261.5q0 186 64.5 266t187.5 80zM266 545q-57 0 -81 -49.5t-24 -169.5q0 -74 8 -114l130 328q-17 5 -33 5zM369 326q0 70 -7 112l-130 -319q13 -4 34 -4q57 0 80 45.5t23 165.5z" />
<glyph horiz-adv-x="175" d="M147 690v-260h-130v260h130z" />
<glyph horiz-adv-x="170" d="M-5 -311l46 234h130l-55 -234h-121z" />
<glyph horiz-adv-x="170" d="M171 817l-46 -234h-130l55 234h121z" />
<glyph horiz-adv-x="170" d="M-5 -311l46 234h130l-55 -234h-121z" />
<glyph horiz-adv-x="170" d="M171 817l-46 -234h-130l55 234h121z" />
<glyph horiz-adv-x="339" d="M263 202q0 -14 -3.5 -57t-3.5 -60q0 -31 13 -42t58 -15v-132q-113 4 -164.5 44t-51.5 128q0 21 3.5 65.5t3.5 55.5q0 37 -20 60t-74 38v112q55 14 74.5 34t19.5 56q0 13 -3.5 60t-3.5 67q0 94 50.5 132.5t165.5 42.5v-132q-46 -4 -58.5 -13.5t-12.5 -39.5 q0 -17 3.5 -65.5t3.5 -62.5q0 -59 -22 -87.5t-78 -46.5q55 -18 77.5 -50t22.5 -92z" />
<glyph horiz-adv-x="386" d="M5 185q0 48 24.5 93t54 72t54 55.5t24.5 47.5v38h136q8 -41 8 -61q0 -33 -24 -68t-52.5 -59.5t-52.5 -52t-24 -47.5q0 -41 14.5 -57.5t68.5 -16.5q23 0 60 4t63 8l26 4l15 -120q-116 -38 -180 -38q-113 0 -164 45t-51 153zM306 701v-156h-144v156h144z" />
<glyph horiz-adv-x="339" d="M76 481q0 14 3.5 57t3.5 60q0 31 -13 42t-58 15v132q113 -4 164.5 -44t51.5 -128q0 -21 -3.5 -65.5t-3.5 -55.5q0 -37 20 -60t74 -38v-112q-55 -14 -74.5 -34t-19.5 -56q0 -13 3.5 -60t3.5 -67q0 -94 -50.5 -132.5t-165.5 -42.5v132q46 4 58.5 13.5t12.5 39.5 q0 17 -3.5 65.5t-3.5 62.5q0 59 22 87.5t78 46.5q-55 18 -77.5 50t-22.5 92z" />
<glyph horiz-adv-x="300" d="M22 647v132h253l-1 -872h-252v132h115v608h-115z" />
<glyph horiz-adv-x="260" d="M142 -90h-146q11 29 26.5 77.5t42 168t26.5 203.5q0 167 -87 405l-8 21h146q11 -25 27 -68t43 -156t27 -202t-24.5 -201t-48.5 -180z" />
<glyph horiz-adv-x="260" d="M102 780h146q-11 -29 -26.5 -77.5t-42 -168t-26.5 -203.5q0 -167 87 -405l8 -21h-146q-11 25 -27 68t-43 156t-27 202t24.5 201t48.5 180z" />
<glyph horiz-adv-x="300" d="M281 779v-132h-115v-608h115v-132h-252l-1 872h253z" />
<glyph horiz-adv-x="500" d="M0 365h500v-122h-500v122z" />
<glyph horiz-adv-x="1000" d="M0 365h1000v-122h-1000v122z" />
<glyph horiz-adv-x="985" d="M945 385v-17q0 -159 -48 -228.5t-145 -69.5q-87 0 -130 43q-86 -42 -151 -42q-94 0 -140.5 58.5t-46.5 192.5q0 65 8.5 111t29 82.5t59 55t94.5 18.5l93 -22v13h134v-200q0 -80 5 -119t15 -50t30 -11q32 0 45 34t13 134v18q0 158 -72.5 225t-233.5 67q-162 0 -245.5 -86 t-83.5 -251q0 -183 74.5 -261t254.5 -78l143 9l5 -130q-100 -10 -148 -10q-115 0 -198 23t-144.5 76.5t-91.5 145.5t-30 225q0 231 125 349.5t339 118.5q219 0 330 -108.5t111 -315.5zM482 203q40 0 93 15q-7 42 -7 102v132q-44 10 -63 10q-53 0 -69 -27.5t-16 -112.5 q0 -66 14.5 -92.5t47.5 -26.5z" />
<glyph horiz-adv-x="248" d="M45 247v166h144v-166h-144z" />
<glyph horiz-adv-x="265" d="M134 223q66 0 97.5 -38t31.5 -131q0 -92 -31 -128.5t-98 -36.5t-98 36.5t-31 128.5q0 93 31.5 131t97.5 38zM134 128q-7 0 -11 -4.5t-6 -21t-2 -48.5t2.5 -47.5t6 -19t10.5 -3.5q11 0 15 12t4 58q0 47 -4 60.5t-15 13.5z" />
<glyph horiz-adv-x="265" d="M16 137l106 75h96v-312h-106v195l-47 -32z" />
<glyph horiz-adv-x="265" d="M245 -100h-231v90l73 59q46 37 46 57q0 15 -37 15l-76 -6l-4 99q73 9 118 9q61 0 86 -23t25 -77q0 -33 -13 -55.5t-43 -44.5l-38 -28h94v-95z" />
<glyph horiz-adv-x="265" d="M24 214q68 9 108 9q121 0 121 -89q0 -53 -29 -70q35 -15 35 -73q0 -51 -31 -76.5t-87 -25.5l-121 8l6 93q61 -6 94 -6q29 0 29 16q0 14 -26 14h-66v85h64q20 0 20 14q0 15 -27 15l-84 -5z" />
<glyph horiz-adv-x="265" d="M142 -100v35h-132v88l39 189h118l-52 -182h27l14 90h91v-90h11v-95h-11v-35h-105z" />
<glyph horiz-adv-x="265" d="M37 212h207v-90h-124l-3 -25q28 6 44 6q93 0 93 -99q0 -111 -118 -111q-23 0 -52.5 3.5t-47.5 7.5l-18 3l8 85q56 -9 93 -9q25 0 25 15q0 16 -14 16l-26 -4l-78 11z" />
<glyph horiz-adv-x="265" d="M250 211l-6 -87q-66 6 -94 6q-33 0 -33 -26l6 1q6 1 16 2.5t16 1.5q54 0 79 -26t25 -79q0 -54 -33.5 -84.5t-85.5 -30.5q-131 0 -131 155q0 89 30.5 134t106.5 45q16 0 42 -3t44 -6zM136 23q-5 0 -10 -2t-7 -4l-2 -2q0 -34 18 -34q17 0 17 21t-16 21z" />
<glyph horiz-adv-x="265" d="M21 107v105h227v-101l-95 -221l-121 19l91 185v13h-102z" />
<glyph horiz-adv-x="265" d="M133 223q124 0 124 -90q0 -45 -27 -71q3 -2 8.5 -6.5t14 -22t8.5 -39.5q0 -57 -32 -81t-96 -24q-65 0 -96.5 24t-31.5 81q0 44 32 69q-27 20 -27 71q0 89 123 89zM133 -26q19 0 19 22q0 13 -12 25h-14q-12 -12 -12 -25q0 -22 19 -22zM133 138q-18 0 -18 -19q0 -12 11 -25 h14q11 13 11 25q0 19 -18 19z" />
<glyph horiz-adv-x="265" d="M20 -97l6 87q49 -6 87 -6q33 0 33 23l-5 -1q-5 -1 -14 -2t-16 -1q-102 0 -102 104q0 55 32 85.5t87 30.5q131 0 131 -165q0 -87 -30 -128t-101 -41q-21 0 -48 3.5t-44 7.5zM132 85l19 6q0 39 -19 39q-16 0 -16 -23q0 -22 16 -22z" />
<glyph horiz-adv-x="265" d="M134 701q66 0 97.5 -38t31.5 -131q0 -92 -31 -128.5t-98 -36.5t-98 36.5t-31 128.5q0 93 31.5 131t97.5 38zM134 606q-7 0 -11 -4.5t-6 -21t-2 -48.5t2.5 -47.5t6 -19t10.5 -3.5q11 0 15 12t4 58q0 47 -4 60.5t-15 13.5z" />
<glyph horiz-adv-x="265" d="M6 615l106 75h96v-312h-106v195l-47 -32z" />
<glyph horiz-adv-x="265" d="M245 378h-231v90l73 59q46 37 46 57q0 15 -37 15l-76 -6l-4 99q73 9 118 9q61 0 86 -23t25 -77q0 -33 -13 -55.5t-43 -44.5l-38 -28h94v-95z" />
<glyph horiz-adv-x="265" d="M24 692q68 9 108 9q121 0 121 -89q0 -53 -29 -70q35 -15 35 -73q0 -51 -31 -76.5t-87 -25.5l-121 8l6 93q61 -6 94 -6q29 0 29 16q0 14 -26 14h-66v85h64q20 0 20 14q0 15 -27 15l-84 -5z" />
<glyph horiz-adv-x="265" d="M142 378v35h-132v88l39 189h118l-52 -182h27l14 90h91v-90h11v-95h-11v-35h-105z" />
<glyph horiz-adv-x="265" d="M37 690h207v-90h-124l-3 -25q28 6 44 6q93 0 93 -99q0 -111 -118 -111q-23 0 -52.5 3.5t-47.5 7.5l-18 3l8 85q56 -9 93 -9q25 0 25 15q0 16 -14 16l-26 -4l-78 11z" />
<glyph horiz-adv-x="265" d="M250 689l-6 -87q-66 6 -94 6q-33 0 -33 -26l6 1q6 1 16 2.5t16 1.5q54 0 79 -26t25 -79q0 -54 -33.5 -84.5t-85.5 -30.5q-131 0 -131 155q0 89 30.5 134t106.5 45q16 0 42 -3t44 -6zM136 501q-5 0 -10 -2t-7 -4l-2 -2q0 -34 18 -34q17 0 17 21t-16 21z" />
<glyph horiz-adv-x="265" d="M21 585v105h227v-101l-95 -221l-121 19l91 185v13h-102z" />
<glyph horiz-adv-x="265" d="M133 701q124 0 124 -90q0 -45 -27 -71q3 -2 8.5 -6.5t14 -22t8.5 -39.5q0 -57 -32 -81t-96 -24q-65 0 -96.5 24t-31.5 81q0 44 32 69q-27 20 -27 71q0 89 123 89zM133 452q19 0 19 22q0 13 -12 25h-14q-12 -12 -12 -25q0 -22 19 -22zM133 616q-18 0 -18 -19q0 -12 11 -25 h14q11 13 11 25q0 19 -18 19z" />
<glyph horiz-adv-x="265" d="M20 381l6 87q49 -6 87 -6q33 0 33 23l-5 -1q-5 -1 -14 -2t-16 -1q-102 0 -102 104q0 55 32 85.5t87 30.5q131 0 131 -165q0 -87 -30 -128t-101 -41q-21 0 -48 3.5t-44 7.5zM132 563l19 6q0 39 -19 39q-16 0 -16 -23q0 -22 16 -22z" />
<glyph d="M344 499v-166h-144v166h144zM341 239l5 -440h-148l5 440h138z" />
<glyph horiz-adv-x="440" d="M70 207v126h300v-126h-300z" />
<glyph horiz-adv-x="540" d="M133 955l257 -92l-40 -113l-261 78z" />
<glyph horiz-adv-x="556" d="M89 874l257 92l44 -127l-261 -78z" />
<glyph horiz-adv-x="486" d="M24 785l131 149h123l131 -149h-150l-41 43l-41 -43h-153z" />
<glyph horiz-adv-x="486" d="M409 930l-131 -148h-121l-133 148h153l41 -46l41 46h150z" />
<glyph horiz-adv-x="480" d="M394 940l29 -102q-6 -7 -16.5 -17.5t-38.5 -28t-52 -17.5q-28 0 -91.5 22t-77.5 22q-12 0 -32 -10t-34 -20l-14 -10l-29 101q6 7 16.5 17.5t38.5 28.5t52 18q35 0 96 -21.5t71 -21.5q26 0 82 39z" />
<glyph horiz-adv-x="432" d="M64 794v132h128v-132h-128zM286 794v132h128v-132h-128z" />
<glyph horiz-adv-x="486" d="M63 802v116h347v-116h-347z" />
<glyph horiz-adv-x="486" d="M35 930h139q8 -39 47 -39q41 0 48 39h139q-8 -68 -54.5 -109.5t-132.5 -41.5t-132 41.5t-54 109.5z" />
<glyph horiz-adv-x="356" d="M310 721q0 -59 -43 -92.5t-107 -33.5t-107 33.5t-43 92.5t43 92.5t107 33.5t107 -33.5t43 -92.5zM113 721q0 -15 12.5 -24t34.5 -9t34.5 9t12.5 24t-12.5 24t-34.5 9t-34.5 -9t-12.5 -24z" />
<glyph horiz-adv-x="725" d="M355 785l67 197l126 -45l-78 -191zM137 786l67 197l126 -45l-78 -191z" />
<glyph horiz-adv-x="268" d="M67 777v135h134v-135h-134z" />
</font>
</defs>
</svg>
